<mxfile host="app.diagrams.net" agent="Mozilla/5.0 (Windows NT 10.0; Win64; x64) AppleWebKit/537.36 (KHTML, like Gecko) Chrome/138.0.0.0 Safari/537.36" version="28.1.1">
  <diagram name="Page-1" id="uv6CDr23I5-YYy7aJrc_">
    <mxGraphModel dx="1389" dy="713" grid="1" gridSize="10" guides="1" tooltips="1" connect="1" arrows="1" fold="1" page="1" pageScale="1" pageWidth="291" pageHeight="413" math="0" shadow="0">
      <root>
        <mxCell id="0" />
        <mxCell id="1" parent="0" />
        <mxCell id="3YkeIVCK8skrJ31NGnf8-4" value="" style="edgeStyle=orthogonalEdgeStyle;rounded=0;orthogonalLoop=1;jettySize=auto;html=1;entryX=0.5;entryY=0;entryDx=0;entryDy=0;" edge="1" parent="1" source="VKmLo1qRqXkPTAT-6C-e-3" target="3YkeIVCK8skrJ31NGnf8-1">
          <mxGeometry relative="1" as="geometry" />
        </mxCell>
        <mxCell id="3YkeIVCK8skrJ31NGnf8-14" value="" style="edgeStyle=none;rounded=0;orthogonalLoop=1;jettySize=auto;html=1;entryX=0;entryY=0.5;entryDx=0;entryDy=0;" edge="1" parent="1" source="VKmLo1qRqXkPTAT-6C-e-3" target="3YkeIVCK8skrJ31NGnf8-11">
          <mxGeometry relative="1" as="geometry">
            <mxPoint x="178.755" y="135" as="targetPoint" />
          </mxGeometry>
        </mxCell>
        <mxCell id="VKmLo1qRqXkPTAT-6C-e-3" value="" style="shape=image;verticalLabelPosition=bottom;verticalAlign=top;imageAspect=0;aspect=fixed;image=data:image/png,iVBORw0KGgoAAAANSUhEUgAAAMcAAAD+CAMAAAC5ruGRAAAA7VBMVEUAAAC8EUL///91qSi/EUPEEkV3rCl6sCrCEUR6sSq3EUC6EUGwED6rDzyMDTGPDTJzpieaDjalDzp+Cyz29vZtnSWfDjitED1jCSO+vr5pmCSWDjWDDC7o6OhWfB3JyclMBxsvBBFJBxpgiyEUHQc1TBLk5ORYfx4jAwxcCCByCigOAQU7BRVeXl6lpaU8PDxMbho7VhQbAwlQUFB6enrNzc20tLQJDQMSGgYYGBgrBA9rCiYtQQ/Z2dkYIghDYRclNQ0+WhVHR0eHh4dra2s1NTWUlJRPchspOw4fLQsqKiqAgIANEwQcHBypqansMwSTAAAbI0lEQVR4nL1daUPbOrN2iGM7gYRAEpawBULKDgm0dAEKLXtf2v//c668SBpJo83JufPhHAq2pEejWTWSgzlnulu/3tlKf1g/C4Kr8y33N51p6/wq+H62nv74aed6/c79zcD1wfMgp887z8VPZ1/mujvn5+td//FK1F0/P9/pzn05K1p+3vlc/HTu2oQDjrv19Z27i0BPj9NgIPQ/Q9sXd258seJ4NHTC6PzuugRjUjZc353bm3eYKhsOEx8UevJB0n3yafqiJI7rz8/2xlVyl8y7Ms0/P1174XjBm/nKfrr9ij/hDEQL4/YD6Q7SizOOro4Vk972qOiiva1B4gZEgVG0dtsb5z/8vB/2P+SHcnrGVq+Mo7u11VVkgg35th5Hw9v0p4d6lPf4ayw9fPX72Sgn3afn31fSO/vDfPD9ej/r775Xz3/KSMZzkQ7ShKP7+Bedgdf2cJyNPhjF1SjuTchPPfL/n+mv6n2EM+taGOvIDE3q2+n/7uMoJk1/3Y7jarWXA5xs99vv2Jj+PgpQII5rFERK43pEGHFPxt2uEor770FUrUZRusriqPqQPtP/Bt/QKUpRjY/v0/9u16NX8r8hGX20HYwj0nQ1In8Zbfdi0rpmeQUBlHmAY0d86mEyHo/vR/vZP/pp01Hcf037qKY8yf5fH5NuCa7b7JGf8PUnFIaoa8f1UTH+avC1lzUd9eKs5Wp/uxqnv0k5lI3m/pWMRugi2EFxSGiH9YiMPI7bw1/7Qb8Yf/4/TvEw+00KhDwi9HKGwDgTeniN00FmMKJ+W266+Ddp+u21TwaSjqZ+K44Rw/FFZtuwmBnSRk/uRO4t+vlAJKctLAGVIzI3yPCD7Ri2g1C7HdPpi9+kIX5BcPyTcQQH+sYV6qWCE2XCycRS1vTMKmV8m9QzPnj0kcshpH96HOODg4NhSv1+z6OLnKJUWb4OaTc7Agwmfz9j8p/b2Lv1ar+fjWxIRvigxVF0854uxJz8OyLyQgSl/kpHDFVjl/7yox2PgvcyrVfpyOKhPFGB0s99iYkCQF4/4mr9V9HWFcDBbF8vioa5/i5NbWWegMhTZeK1ZBWK0tXIBJLbQ2b/Ug0XKdrJi+LCOwIqEeCgPb1NxZCc6ITx5ukvpmN3RlFfmSWI4y+csWm7orJOdRa14+8zmKSYWpG/GA4el41m0ddEWMJMyPWWyJ16bKTnCI7v7K9TCmFOUeE9PgrsGM9giqJ7NtC/Ko4tDiPYliatX0IHRweAIZQd+/4woqgt2bF4n4+0q+D4lP/h4fV+MpINeXt73It9odQfOO+pJfeVPOJlH4yVlyajyX0R9XxS1xVdU3GsDjlq/3p/rfpBYVqFt/1Q90NR70/eh2qvZIT1e9a2jOPM2FfcngQj4gJ7DKNeGJEvzCPxYUcUV1+/BQf43NE5OkNwUH/3XjNpcW8UfIzb7kyhuveJ+rnv7uyI6kNi67Y1nUXUPGH+LrPnY113cZ8s+VHfmSn1Ih6hy8rZf46jV/LqWKddovY3mR1CXEs17y+dViGzRHTFu4bZ6uOFv0iTtY5vxb108U/a2lH0CpX+fQ7HwbTZmz5sirOxjatOCpR5JxlNXN4hsp1a67ee9uGYhQUBjgPE5/t6SxhVM2f2l3a6YJcPEIeDlEfxQfrKN4NCibZ5i19QHIWfmIVz94Y+416miCb6KWN9CrktFxSZRI1N6zbj8X4eQON+YsGPUZ3EgsYhEjHJVujIhiQaAhg2D5GgyMR3ZOP0cNgrPCw8X0Kdh4PY6oZEhY9j4wkUELN4EBSZu/FzaOdyFBeKsIviYOkMl0Aq7uVr3ywnMcAxNrRKOJxnJ4xLilK98KVhQgbiYK6ii3Md1Q/o+PRPxyDHKDuf8LF+bvpvXZRHlfokwZYGB0/MOEUJUTUPL7/q7UkMUrNaK5i6PPkTTvaewRD2DsV8O8v3mQWdNZnLe/Cuexy62Bp+RHGh1EaGXBxskgZoYr5S2jdgvdrFLRtEtWj1Fz4Iu3zEwwLq0M35YjGtPHDhX13eraMzxKzrAQa8B3Bg0TJdmq7MgCnFrgFHIenv7/vvvxwbjqrFDN2quRwWE2ZipOKI6d/dJCM1SLc/fxb9bRlwFPz42qt7xEx16ilsy6OJhfS47JdE7eLPD+7ZrIiHUCZ+zP0p+vTKxRUbU8S7kwYEl1XqKIhvUWb4ZbRorvKPST548sdNzguKmBIRpETerYCTwyTDryeWSpQrNuR9Tpb9efWKpdnamnCrGG8HIn3jOGK6qfjulSGN2F7h9zkzjk98GXgle2KaVdinLlc8DGRiGVdqM9xiErUTkCjR4ABA9t2MYUF8qvIdJgQGAZKp16hK09heTGcWE4GB1AEAG3LvM1l86U7SzWme9IP0QeaGrSlPIezz7Ud1fx6pZ8gf/bq//z7qewFhns97dShsQkOatJlR8dugiMZvP/cL448MWv1VoXuH9dg3i1mXaxtM9OGbso7iej1n+R8nHLSsS5v/0ZOiovT0zX8rh4ng/5xwMEl/cwoHygHZ94YRMd2uSjle78Pr7JzCMxHIKzpsmT68YWRJQC078PorXvDzVZea1FIdV1QS+coGi7UCTWkcXkcGKpe+uWYPaY8TZNgK+amquP2Lv4pX+Gnq+mAFxTefuoZq5ALDzzfsARSa+httfSIok3rwwRG5CToSjLjh0BV2aetFC6311vYJRcgS+IkPXCZD9gRptE6TM4imsuDgG94++1CO7CAM8eFxnekq/Wi1f+GVa5O+PcNYUBsdNEbazQkZRFzdZtkjfTmyHgfwF4P9+z6ya6iSmGA3E5qYUEEcjMA7+vpNQz21WBH5cT+0dlsfBR5k1729bTGi1FdvGuvCRSDBg63f2AuG3W2PpBDGAMNc374F6gnfXm29th/8YCAJFrnJ3oQnJM+MB04sdfpbLzSDkkmIXtyjOhb/2ciw15GVi0VF3Vvw58VybMZ+/uM37fRjND7o99IUkppwi/u3mqFa6BWZmpgEPu3+cPuelVX+to7SjkOpv/x4e40kFENPyQD0VdmS700UW/rPOkqH8zjflb757mFa4dsbO9pwHY0OqtBAqTZITvKUw7ElN3tfz4sdyQLrb0+0kbgPvY2HWWFLRj15XhyOlLmc8+qKxwPGWenp9vjX7ZR8kOlhdP+6nRXdCvXGVy6nfNzOq9191vVtpsPB8WZrcbG1eXy0WxLcZ7cDJc7n7j7JZzZsdLK20aglSZhRktTCleNTXxBXWv+2LI7umb1XSEcrBEJFoDCpLXQu/ZoxGz9/HE6H4zgdN2QQBSXJhidTHE9COuHY8ju7tjafoCByrtSW/ETl2YklLjjUkwiXe2tUgNcGh+LfdpsGFDmSTS8gDlbQCYckGafHS/NJwgWYSPAP8OfjGr6ihNXV4IvrcK2zuNJcaMw3FppLrePBCQIEOxLji2NLOPq1u0l0kDzQGljyKxZm0FeO6Qvz2YTkjMqmZaE1UIB8t64tGw7hoN9gGZ3sBfbAZcPOjALIRvFKU3kjTCotRRnYrIgFBzz7tdfEl0yNzd/lvCsMsrZW8nfWMAaGteU9CciOeaBmHBDGhmbhhxvsEWduZEA2dAwpkOz6ADHiAItqUNGMMWywZ5Z9YDAZOdRIVFjreCwtEw7g6HZq2mllyurGTcQBkPzVI13byYKo0k3CbsLBA48l7RC5cAR+3CAUFiKyqWs9TAYQhykMMeDgdkOvTGs37CFvdpC3d63TtAaBGOyIHgc/bWvoBizhDW9+VBJqRXBZV4HoTtEbcPB0opbtlaQF+ljyxxEu0ZcX9ECEpaUNqbQ4WOSkFcNKsgi7aJXAscLe1qvsBOrfz7442GbnpZ4bAozgyF8+OD+CEy0QoNgD/caBDgcTcq1REBZVSt4wKiEQLwMQOF86UdfgYOzQrirV+T72Zgh0MA1AatBH0TBEg4NJR0PXtmRsU9JrHZyAeGSkFfYF8BC26azHQd/SGQXudzvNKE6JFIFpJyK5AQ/54GC2Q8MOUaszOvQCImrUjJY10wZFHbchOA4q5QO83UQdQcER3UCwRo6QBjY0HYJncUnHcbBmsfkNK4aUR0eTKFFG1sAb2UT1SrgMHnHHwcIONMZZMOagfqw4BOhhok013KBAaqBPNBBBcdCtWsy0JSto94BOlxLj6iJBeEuWcECoPU2AXkE3bY11MoirUZOtH0aHnQU1G0FB1JrHWE4EzAMSHUMV7V4nQ99YUOflBusZod3jpfkiu5sPpEiGLK7ZM6MnSAYsAX93xcGMudycUcJVSrPtS8vNBqHV5ZXFztqemRGcNhQhSYBNx0w6hoPuN+9JOJKm6zic6eTwEOXPsQwECgi2/4zhoMdypJSMbzrTQj9uFleJtNRqSaXZWpMFf0/Ka0BnEbvJC8NBnasObCoMMbtF6HSts7ixtLS4eSOnnEx00ySaIGRtp1sKIhTJpEILggUhGA5qzRcBjqSJ8f/kZqlSKzK9qRivOKqBTqiqs7C2Ik6EmKMBrglm0TEcdJeAW3Mll5TRYEneq7GYBvqeZl8hrC0LemQPKmCgsJ4dcdB8zwptJllA9NQAT5MaTHVBLW2gTJCIMSbQWwAHlv/BcNDni1AwTBBm7OIp66xHjetEWzUb+8oAPnzExD0B67oMDrJskZXSMTpRNYOY6DMj9GVx1haLnmCw4o8jrDURLXRp23JCxSkjh5hR8uBO8/U7BY61sLGI6dK90DoYHRBNfCEBaYovHREkYQ3YYDccthsz9QktCASNGNdcXiVreVV677SzAZcqknlHcFg2Z/EAQZ1UZFf2xDXsDZvqy4AQxavi0N+i6DOlJNxS33VPASdL6tuA1BhdwaFc2yfSwBGG6NnltOv8Lnlbqyky+mLDYbqbmNAPj1xbKL+86JVNMXtrchpLOpdqK1zwSezIU3ril2+cN4/k2XAuVakYU2bUbyjiy54bPeEiPgZGWzocnywveghHRlKGasVnWVWk7C9Gn3AcAjd215BWdMleDYEd6ZR809iS8v2xXJNT/FsYDljPTnzSpKYkeDreI4Fvy1GynWqQnyepE5HMD4QRYfcnAhHfywIEWYd7ymnaAuSp/7aCwJDC9ojB9bOKA1Qg0kBMUn2b3htnQpaoxL4bGMAlFc0Epkj5KSOKA9Tks+1ZaX2X2P+D69lXzMUBcG6GDRhhr4s4gHAAn1xY3/7rQtyoWfV+HQaBYBZEIF0BB9/zhwECTH4hyUU7QR/LU9nlA2Bes5C6gdshZxAHd6oE7kMX6dTPduQEOyyDg23oHgq9C9sIXwAOVvMm7vlDk9rxX94VwaKXwcFWtrShBHMZfzkO5qpLIRJc376bmAqOMuuSaW652gyq0muGgyZ6lDgHrO8yy0pYVyX0FdfcipIBLX+nOJjOVeIc/rRmp9BCUM5L1NFwza2sauhMrxc46LaNKspc8ZbQupLeLSVgrERLeTnheYeLHAfLK6glGDX2rFcMxEYBXe8S9ScVxlEVRwhE/S7DQXcDEc3KcZRb3TC0PZxGwhCfCBjpxwyHYQFzHOW0zQDgmErxIjgSkFlKcdBlhbmzyXSDgJt6ZZdm/i4iXFD47ggOuvuEhp3syfkyYxADoVICosdRARnGF4KDaiusLo/r3VI4pERDGX409JMMwuaLOXapLNoL1/9l1lVNSimWiEAqq3pewqhgLqDicYo9yf2x1RLRg5Kl9ddY1FHEzDBctncB9a0wzoH6wRJ6V60Z8Cwcr3ArsYtWuvCWrwMq5ljUCjjnH9Sq+cRgz5shTAawN0HxzEtAb/jAJhzYMf9qaSxD682QGt29wV4EYd5TQI8FYn450Ag+OeacVHaUaIUpGkw+gZm9Cuj5ckwhwbjWV/Gq6faU9LXZKHHNjVkFYNH/sJ8wHHAvy9caC9XDgbEbPXHNjRlCgOO7sQOY8vYMQHRpfy/dC/Q+dvwowfbuEBxCOO83k/piAKWSx0CgohQzb0IenHIEcWiFNJqXxlJMICCnLdu8FTiPGA7O8+9MQhCVKBkyD0kPTUVvzspX2DhA9GmNn798ZnoXiT4ScevAdYdTyt+p5Jh6EQ0Q4pyBsOAqQIutcpItgOtE1jSVWrwhl6Ulef2IoIMsxmfml6gepSjmhC7dcFhhmE4q8d4bYhGhGhbDNPpLQJM+P9TnFMfCaV9NWzQOSX+Oj3ZekatzFH0JxXc9YJuCihgjq9wuIuG8W0npnvkIa9hQiowUQwzDm0+BPs2AOUi2ogx7tTUfl6H0CWtGWfjQYyDx4JnmuRAtjRiYan1CJeQ4Xeu0NlZWsipMuWj2VFeKFoZo/ZY8PmBqzwgOlqSWGkWtPpE3be1VWNsQzMZpp8mO2+fF1JsDsa09rKY/TFp4mbAUWcBldU1wsK0oaQEmuqLjmwp+1HpFOO3UadQU1oVJZfOH0NYPsRI+DGsN7ZUaouYVtGk3zcNRSyi6cPLhJUjH80qdaKUFkwqXLd2RA/Waid2bjdWwlt6PkDRWOiYtITQJnaurLJ/I0u2CnUOPyzAaLLI7VsgAFlriw8bDLHJNaEYnu6en1oJZuGCEsqj1PN9O/ymGz7ZWD4+ON1utzY4iwKcN24UZFbulxAguGOFwVbFvwD4zAYIuS/2TgVwcc4wlDsQlXVCmL3Q/iv4COB5aKbeRm1sul1K6EWdICIfH9tUYQ5i9Ls0O1wNrsvvkRtRWC6vqhe/Xst/RAitNdD0zGPLxX1fKvRnxFCbYd+ZVGflArKVPGnKP9cwxI6CTtc2NjdZNocx2U00oFgev4/UMy0SbIictncgn9uYXf5hobTk/lpHUVnID+mO5JnJDqGeA9SWbzcWSd4f55qE1p1sBCnD9VKgJa8T6Evmj4aXIWoIvU2iU9dMF6VwTNr30UCSrv3pEHiJt3Wyml7s53SJWolDMtLI2ZR8SK7JmZyJ5PRxy/9vxfLY6U8+j80P9s0Qldmn0+uRwQZ0VdWXx7y6DOss/0kOX0L8g7uzADMO7erGii3ECTZijMAR8HwDgkFeWtNzl00sy+aOogH0BkTSKT5aQRxSHVKCvpsZRT5VSuXIFNZeRku4Elfz0NYpDrKZGq0Ol00uQSpXBiJU0rCltxCktLLR+F3gnKWm0j/a8cykU6MIyXM0mea9zOA54ib7+zgf8kG2psr8KlgUw3TAn5sZ03+2DAqIvOsYPPZe4bSlvTd5gMKYaQ8SzUnHAynDTtg2WMSyxn5uPTEoDmD1N0XB2NTj4Fc6W+UVcnZJiLgt6y8xWQdB/z+lwgFtEzdVrKpBS9VkpCcdV7A4zePifFgfQvJZaEAWIf6lCQTD7aj/RB5/WnmOBC8u2PSsnsWeB49DhrCdXlsKyknDwG1Gt28yh6CPMYl057FMBc/PPgINrLGuNkRRfz0DOXfx+gMP4/UEW39qrVEVfdXq9q7sPUoNDuhRAwsESDg6TI4Slpe0g83OcViaXj3UjDuZjubivMCyd2i9xq2niWkEet/Rvun3rUpkjlBmXXFdsobhtRjOhlO/MkHGs+4wLhqVT+u1uRxP5pod8F4uMg217uhgE6BxNGUe52R++Aqzfg6QPOpXVQ4aUgcGWlaN48aIuZdjyL2g5r9OxRah7p8ozOK5K5kUod0cpONjBbaeW4T1hJXAwfjq+yypKlNsHFRz6Qy0YwcDGnyGMHY7Wh8ujcuWSgoO5Jm4FcFOdSGN3qzh6mXx7Xrn3Vb2fgfm8TvVWUNK989R0WCeOLzJr/lsZtYqD+bxOGkuImP1WFj+HjN59jvTFolr1SwEqDrawLl1mSdyNcahH4m9yT9dRW3HeO32/9syr+ZqQBnIPp+AGoVvFIJdy5AIsBAc7pKqWZCEk1Qu473Nyje3UD8zuKrd+mO/xcmKInHN1W1rJKmCjm0vDS2ld7/FiJkR/pzPAIe/FWEvdKuArDfkbTgqFi5PrfX18J8ThSiJ123XPWpcRislQJznk9wUhX0XW4ODHuC15sYxkHOmWg7FOZkPKELsoBxB8ItJhu3/XJbypBSodLuqQSGVaGTmcTQQ3fvjcvwsyvdabcDAcRLQ6jQSpIwtbyKar3Z+BRWP4VfSa6555IutS98EMMw5Ce5urYl1fA/lijBMOWGyl+eiP9f724NACJEFGRulk72ZzcWV5eWVj83ig3by2rSsIw/P+drg5ZfnoDbYz5kcWGRRK37TD1f0BXlpkup5Pu3XsTma9K1y8UuJ7wvBrqYYrKPFzUF5kzPkJe8T6L6YavmMCP+N1pC0/1uyA+5AhVyZWNhs+7GX6rswLaOJkCS9+nsGyMghI0oRqGrt31wWHACTYW8WQKHf7lyFNEi4MhTVrgmH5fpT4hbgjpSC9dMWZRJj8JdJZMfPX4sw45LKs/PNqIV27looTD5LvXQ2T+Y7ohU31PS/5M3EplJvF5nxSS4u4j811c6dHx62l5sJ8bs/nF5ZTY6grfzpsVZjtT2qNxYH4Z+uH4mw4pCoHRyJgV4tv+8Hlnn2mc7kzwF/aO25lpr9zpIB9so7SjkP+7LaVjhbna6qPCOAkyfKx13c6TR/adsch3Llmo8GG8n1RDEtiLUvj9DTD79c6fvT1Rvd9UQRKbcEJydVsv1975yAmxu+LYkjsNvTJDYU7DhJbWb79erLsf9TeUuR+7rKifHFY7u20hSk4EOOxA1de+OJQPp0KyfNbRQUZbqd1+EhqaRz6y5LL7EZVTN8T0X/abhY45rYu8G5L1snoDrFeuH7XuSwO3aeey9bJ4DAcP+o8FY65rd9Iz45bGDI70GXlzYxyOHAp8T5sUNGpK0/JmALHXFf1VNAbeGw4EC/rs7vNmB4H9nl6p2v2BUrU6MX9A/QzwjE390XWXO73NxQwBopgoCno/xgHQSIJvBdHQuWY/u/yKKbDQbxH0cA7fIiCwWhIweSZjxcyaxxECQs5FeuHQdiaksqoX0qo2pniILQDXXrzh1rYmhISOk+WHML/Ew7RxJ/aWVJbFgJwf+ON0ExwiHmuG3M4lTTEnWpzXsqVZoNDykUo9wWAFdWQXBGHHIILzQiH/DGataZ6O0N6+0JTPrYynZbiNCscc13p2N5uJ/uCGs09ptm1pnII8c+0aorRzHAgCbuTo87SaiONdxurS50jNRa3p9ecaYY4vBN2MxKNjGaJY67rk0N1Sq8500xxEJdLPtyqoz/TOFMIzRgHibG+20EE30vFSiaaOQ4iJljcC+liloJR0H+AgwRZ+GH2nB7LhkpG+k9wELo7x1LbVy+zsnsy/Vc4Uvq0fv74dPb74s/F77Onx/P1/4QRBf0fcDt/1HATl7UAAAAASUVORK5CYII=" vertex="1" parent="1">
          <mxGeometry x="80" y="110" width="39.17" height="50" as="geometry" />
        </mxCell>
        <mxCell id="VKmLo1qRqXkPTAT-6C-e-4" value="Hardware Layer" style="text;strokeColor=none;align=center;fillColor=none;html=1;verticalAlign=middle;whiteSpace=wrap;rounded=0;fontStyle=1" vertex="1" parent="1">
          <mxGeometry x="50" y="40" width="100" height="30" as="geometry" />
        </mxCell>
        <mxCell id="3YkeIVCK8skrJ31NGnf8-1" value="&lt;font&gt;&lt;span style=&quot;font-family: quote-cjk-patch, Inter, system-ui, -apple-system, BlinkMacSystemFont, &amp;quot;Segoe UI&amp;quot;, Roboto, &amp;quot;Noto Sans&amp;quot;, Ubuntu, Cantarell, &amp;quot;Helvetica Neue&amp;quot;, Oxygen, &amp;quot;Open Sans&amp;quot;, sans-serif;&quot;&gt;DHT11 Sensor -&lt;/span&gt;&lt;span style=&quot;font-family: quote-cjk-patch, Inter, system-ui, -apple-system, BlinkMacSystemFont, &amp;quot;Segoe UI&amp;quot;, Roboto, &amp;quot;Noto Sans&amp;quot;, Ubuntu, Cantarell, &amp;quot;Helvetica Neue&amp;quot;, Oxygen, &amp;quot;Open Sans&amp;quot;, sans-serif;&quot;&gt;Temperature &amp;amp; Humidity&lt;/span&gt;&lt;/font&gt;" style="text;strokeColor=none;align=left;fillColor=none;html=1;verticalAlign=middle;whiteSpace=wrap;rounded=0;fontSize=10;fontColor=#000000;" vertex="1" parent="1">
          <mxGeometry x="50" y="210" width="100" height="30" as="geometry" />
        </mxCell>
        <mxCell id="3YkeIVCK8skrJ31NGnf8-2" value="&lt;span style=&quot;font-family: quote-cjk-patch, Inter, system-ui, -apple-system, BlinkMacSystemFont, &amp;quot;Segoe UI&amp;quot;, Roboto, &amp;quot;Noto Sans&amp;quot;, Ubuntu, Cantarell, &amp;quot;Helvetica Neue&amp;quot;, Oxygen, &amp;quot;Open Sans&amp;quot;, sans-serif;&quot;&gt;&lt;font style=&quot;&quot;&gt;PIR Sensor - Motion Detection&lt;/font&gt;&lt;/span&gt;" style="text;strokeColor=none;align=left;fillColor=none;html=1;verticalAlign=middle;whiteSpace=wrap;rounded=0;fontSize=10;fontColor=#000000;" vertex="1" parent="1">
          <mxGeometry x="50" y="250" width="100" height="30" as="geometry" />
        </mxCell>
        <mxCell id="3YkeIVCK8skrJ31NGnf8-3" value="&lt;font style=&quot;color: rgb(0, 0, 0);&quot;&gt;&lt;span style=&quot;font-family: quote-cjk-patch, Inter, system-ui, -apple-system, BlinkMacSystemFont, &amp;quot;Segoe UI&amp;quot;, Roboto, &amp;quot;Noto Sans&amp;quot;, Ubuntu, Cantarell, &amp;quot;Helvetica Neue&amp;quot;, Oxygen, &amp;quot;Open Sans&amp;quot;, sans-serif;&quot;&gt;LDR connected to MCP3008 -&amp;nbsp;&lt;/span&gt;&lt;span style=&quot;font-family: quote-cjk-patch, Inter, system-ui, -apple-system, BlinkMacSystemFont, &amp;quot;Segoe UI&amp;quot;, Roboto, &amp;quot;Noto Sans&amp;quot;, Ubuntu, Cantarell, &amp;quot;Helvetica Neue&amp;quot;, Oxygen, &amp;quot;Open Sans&amp;quot;, sans-serif;&quot;&gt;Light Level (via ADC)&lt;/span&gt;&lt;span style=&quot;font-family: quote-cjk-patch, Inter, system-ui, -apple-system, BlinkMacSystemFont, &amp;quot;Segoe UI&amp;quot;, Roboto, &amp;quot;Noto Sans&amp;quot;, Ubuntu, Cantarell, &amp;quot;Helvetica Neue&amp;quot;, Oxygen, &amp;quot;Open Sans&amp;quot;, sans-serif;&quot;&gt;&amp;nbsp;&lt;/span&gt;&lt;/font&gt;" style="text;strokeColor=none;align=left;fillColor=none;html=1;verticalAlign=middle;whiteSpace=wrap;rounded=0;fontSize=10;fontColor=#000000;labelBackgroundColor=none;" vertex="1" parent="1">
          <mxGeometry x="50" y="290" width="100" height="30" as="geometry" />
        </mxCell>
        <mxCell id="3YkeIVCK8skrJ31NGnf8-5" value="&lt;span style=&quot;font-weight: 600; font-family: quote-cjk-patch, Inter, system-ui, -apple-system, BlinkMacSystemFont, &amp;quot;Segoe UI&amp;quot;, Roboto, &amp;quot;Noto Sans&amp;quot;, Ubuntu, Cantarell, &amp;quot;Helvetica Neue&amp;quot;, Oxygen, &amp;quot;Open Sans&amp;quot;, sans-serif; text-align: left;&quot;&gt;&lt;font style=&quot;font-size: 10px;&quot;&gt;Reads Sensor Data&lt;/font&gt;&lt;/span&gt;" style="text;strokeColor=none;align=center;fillColor=none;html=1;verticalAlign=middle;whiteSpace=wrap;rounded=0;labelBackgroundColor=none;fontColor=#000000;" vertex="1" parent="1">
          <mxGeometry x="40" y="160" width="60" height="30" as="geometry" />
        </mxCell>
        <mxCell id="3YkeIVCK8skrJ31NGnf8-7" value="&lt;span&gt;&lt;font style=&quot;color: rgb(0, 0, 0); font-size: 8px;&quot;&gt;&lt;b style=&quot;&quot;&gt;Raspberry Pi 400&lt;/b&gt; Secured. Changed default password, SSH key-based access only&lt;/font&gt;&lt;/span&gt;" style="text;strokeColor=none;align=left;fillColor=none;html=1;verticalAlign=middle;whiteSpace=wrap;rounded=0;fontSize=10;fontColor=#000000;" vertex="1" parent="1">
          <mxGeometry x="50" y="60" width="100" height="50" as="geometry" />
        </mxCell>
        <mxCell id="3YkeIVCK8skrJ31NGnf8-8" value="Communication Layer" style="text;strokeColor=none;align=center;fillColor=none;html=1;verticalAlign=middle;whiteSpace=wrap;rounded=0;fontStyle=1" vertex="1" parent="1">
          <mxGeometry x="240" y="40" width="130" height="30" as="geometry" />
        </mxCell>
        <mxCell id="3YkeIVCK8skrJ31NGnf8-17" style="edgeStyle=none;rounded=0;orthogonalLoop=1;jettySize=auto;html=1;exitX=1;exitY=0.5;exitDx=0;exitDy=0;entryX=0;entryY=0.5;entryDx=0;entryDy=0;entryPerimeter=0;" edge="1" parent="1" source="3YkeIVCK8skrJ31NGnf8-11" target="3YkeIVCK8skrJ31NGnf8-19">
          <mxGeometry relative="1" as="geometry">
            <mxPoint x="490" y="135" as="targetPoint" />
          </mxGeometry>
        </mxCell>
        <mxCell id="3YkeIVCK8skrJ31NGnf8-11" value="" style="shape=image;verticalLabelPosition=bottom;labelBackgroundColor=default;verticalAlign=top;aspect=fixed;imageAspect=0;image=data:image/png,iVBORw0KGgoAAAANSUhEUgAAAwQAAAInCAYAAAAmtJ7OAACVdUlEQVR4AezcA2wtWhpH8X1tPNu2bd1n27Zt27Zt27y2bdt155s19ry6B+uf/NqeOF+4crKbXObOOec6rrJ2O6yF7XEwTsEluBkP42W8j2/xC3pgMEZiOmb9mzIESjDr30zESAxAD/yKb/AOnsUDuAkX4wTsg62wKtogSZKyj0eoH5LUGCtjBxyHq/AIPkZ3jEcRIosUYDh+wVt4EJfgUGyBJZAkSfkSBJKkRlgd++MSPIavMAwliDy0EAPwIe7F6dgFyyFlK0kyCCRJq+BgXIs30AuFiArTHHTCs7gIe/itQqaRZBBIkhphfZyEB/EjZiNqjSbgM9yGQ7EiUl2QJINAkrQcDsZd+BHzEPVOk/ExrsFuNfWoWZIMAknSmjgVL2EkIiuoDD3xEA7D0ki/R5JkEEjSKjgdb2MyQjljCB7HoVgMSZJkEEjSojgCT2MkIi+oHD1xD3ZFU6T8IEkGgSRtguvQCWWIvKf5+AhnYQUkSTIIJCl3NMHueALjEdL/8Qf0wPXYGEmSDAJJyj4tcRBexixEFUlj8CC2RUMkSTIIJCkzNcPBeAsLEVING4+HsL1xIMkgkKTM0Bh74SXMQUh1ZCzuwgZIkmQQSFLd2gAPYCpCqmf9cCWWRaodkmQQSNKSuBg9EVIGKsVH2A+NkKpHkgwCSWqA3fEOShBSlpiIW7AykiQZBJJUOUviSoxASFmsHN/gcDRDkiSDQJL+t63xOkoQUo6ZiruxAhIgSQaBJDXDceiOyANSCd7EFkj5SpJBIEmL4wZMQeQp6Vcc4iNkSfkUBJK0Kh7HQoSkPxuJC9EGSZJyMQgkaTO8gzKEpP9qDu7FUkiSlAtBIEnb4guEpAorwINYBkmSsjEIJGkX/ICQVGUFeBjLIUlSNgSBJO2M3xA1RlIhHsXySJKUiUEgSVvjW4SkWlOEx7ECkiRlQhBI0sb4FFFnJBXjQSyOJEn1EQSStCJeQzlCUr2Yi+vRGkmS6iIIJKk97kMBQlJGmIxz0BhJkmojCCSpKS7FTISkjDQQeyFJUk0GgSTthSGIrCDpS6yLJEnVCQJJWgdfIrKOpFI84PsCSVUJAklqjXtRjMhqkibiCCRJqkgQSNJhGI+QlFO+xZpIkmQQSPpvVseXCEk5qxi3ogUSJCkZBJKa4DoUIPKCpFHYH0mS8jsIJG2Jvoi8JOlDLIMkSfkVBJJa4X6UIfKapFk4GQ2QJBkEknLfThiFkKR/8jVWRpJkEEjKTS3xCMoRkvRfzMMZaIAkySCQlDu2wTCEJFXA574tkAwCSbmhKe7yrYCkKpiJI5GykySDQNJa6IGQpGp4Ca2Rsockg0DSGViIqAGSNBSbIkkyCCRltsXwIaKGSVIRLvLBsWQQSMpc22EsQpJq0edYAkmSQSApMzTAlShF5C+Nff6umNn5q5g3sGsUTBgeRdMnBqK8uDCirOTvnxeMGRzzBveImV2+jqnfvB39zz7U+1WWJmE3pPolySCQtBg+Q+Q3dd5g/SgvmBdV2cT3n/GGqopy3I7GSJIMAkl1b0uMQ0h9TzswqrqCiSO8oarjByyJJMkgkFR3zkARQkKMevT6qM567Ludd1R1TMA2SJIMAkm1qzmeR/wzaVbXb6M6G3Ld6d5R1VWCc5EkGQSSascK6I74Z1LnzTaMKC2K6mzie097y5qiF9AMqeZIMggkbYspiH8n8V+CororGD/cW9YkdcQySJLyOwgk/ZG9uwCPIkvXOH7nru91d2PuSGDwcXd392HuuNtdxt3dZ/DZUdgdd/cnRkeIEt84IQYkEDpA897zXYeFkE6qq6uq/+/z/FaSTtUpIae/dJ1zvDEtfOMFEDtkV2Vvk+XPdKOz7pUXiR22u5ftAlqdnUf+uw8ABQGAHziPOEJ4FByzt9remCWb97/1taeUPSb1+1y26Ht5kaqbz095W3PGjdPSTxeo/a3Zdq64Z6JvtXMqv88BCgIAyft91hcIl4LDd1f7O/OkREL/Py0vP57SoiBv10m2T3mRttdnpLYY2H6sLYSm/4kVTXbOCo7ak3so2tY7tzpbDe/3HwAKAgB/6xQ5QvDl7zVVzb98xFYD1ubSNOe+lBUF5VefJq9iKxintBj4ZL42FTt3zS88ZOeSeyraXt7yYGMAFAQAJjgtjhBs9ga35t4rNbisU8NJ44y7UtIOK0a8jI19SMW56vj4VW0pdi7rHrjGXs89Fl3fOX/C7/pNAygIABzq9DkKNpSce6T6KvKVbBqeutnztvRVFcrLLL7x3zwvBpa8/5KSiJ1bO8fca9FV4fwTv/M3BFAQADjLWeMo2Jjvv/mlR0f1zH79o9d71p6F++4or9P2q+c8LQba331BI03rq08qb8eJ3HvR1O5M5Hc/QEEAwHGuc9Y7Ci7YlJz2jL0HscdiPGlT1a0Xyuv0N1R4Uwxsm+UGDM/VaDPQXKPSi0/gHoymPucA+oBMBgoCAFuFa1pRBg8rkZBXqbnr8uQKkkN3U+X109Q070F1f/+B4t3tSlVs213fvKvGmfeo8hfnJD+uYBtXDLw9R16l8/PXo3tvYdA5gf4gE4GCAMAPnZccITx6C7+WV7Hiovr2izdfgOwzVYtvOk/2V/aBtjqlO7aSsa2vYGsVWNuGKgba3pwlL1N956XRvrewzjmffiGTgIIAwE+cdxwhXGxQsKdJJGwQ7wZrGdgYg97Cb2TfC2qsbVYc1T92vQqO3mvDYuD1GfI6dl4if39hvXM9/UMmAAUBgJ87nzpC+BSfeag8z9q47DEgKwLCmhWl2aq5+3K1LnhWXqe/ZlFm3We4j34iykBBAOCPnO8dIaS2yVK8q03+hTTNvi/z7jM8FsVVjQEKAgB/6hQ4QrjZYFn/QkrOPyYz7zU8H7WiAKAgACgGCh0h/CqnnyN/Qmzl4pyx4zL3fsM85wf0IQAFARB2f+YUOYoG5O891Z8Bv8RWOOaewzznd+lLAAoChBnFQLEjMP1o0iE27aqdb2AuRQFAQQCE0Z9EtxhAw1O3iKQ4iYR9GmPnGzBzGVMAUBAAYfJHTr4jMP0oGVHsU5iNzzswg6IAoCAAwrLOwHeOIo7pR7vbRVKX+sdv3NS5Bx6hnwEoCICgr0D8mSOMDtOPkuJTD9zcuQfuoL8BKAiAIPqB866jzIDK66eJpCbxJb9R9tZZQ51/4Dr6HYCCAAiSrZyXHWUG5Iwbp/a3Zis1Ib1F39o5HuoaAOudafQ/QFAKAgAPOMocrEPQm/+5Uhti5zh/zylDXQtgnXM0fRCQ7oIAwA2OMgMKj91HA8018iekv6FChcftM9Q1AVY5+9IXAekqCACc4ax3FH0oPv1gxbvaFJqsW2Pt3cBgzxKFLDabk537oa4NsNwZT58E+F0QANjfGXQUfSi94FitWdGjoKW/vkxL3n9RDU/eJBvkXHLukYodtrvydpo45JSpebtPVsGRe8iOq+rWC9U48251fvmmbDBvEGPnvuT8Y4a6RkCL8/f0TYBfBQGA8c5yR9GH0vOPUWL1SgUhfZUxNc26V2WXn5Sy5+tjB++iyunnqPW1pzTQVqegxK5B6UXHD9V2oNT5I/ooINUFAYC/d1ocBRcanrpZnZ+/rpq7L1fBEXuMeDsl045I+ycDVgTUPzLd3qj7fy7HbK+ikw9Q0+z7AvHpgV0L+xRklMdlxZQH2wkofOn8mL4KSFVBAOCPnFJHwYXiMw6R1sZ/69Ga5l8+LPsLc+74HYa3nVMP1Jrl3UpH4kub1TTnPhWdEpzFuXK2zXLn7zi1vT5DiYE+pSt2TZJdtCxn+7FWALhC8Rb1Fn4jJRIyi84+3L4fPZhNfwWkoiAA8APnPUfBhdyJO6ivulhDJbFqxRY/PYgdsqviHY3yO/01i1R160UbFS3BY39hr3/8RlnhkobYtbFrNGQb7fvVt1+sjg9e1uCyzk2f77pS5U4ab6+PHlxJvwV4XRAAeNhRsKHx+TtH9Ca8ac799tdveyNuA3KtqPC3EKgtsUHB9lf4cBVgUybIHmeymYD8jl2jvJ0n/V9bJo1X2aUnqmnuA8lcP7v29vPRg3XOgfRdgFcFAYBpjoINRcfvq8Tgao0i9umBzX3v65SaNfdcaY+0hPrc5+06SU3zHpSdfz/T9c07qnvgWnV9/fbIB36vjavoxP2j+e8Cy5x/pQ8DRlsQANgjBNOLYuus0K0e3Pbr5236z0hdh4Jj9lZP7idhXBXZ7qFo/ttAJTMPAaMpCAD8vdPpKNhQef25CksGWmpt/v9IF2fVd1yixMrlClOqbj4/utcEHzo/oE8Dki0IAPzMiTkKNtiz4wOttQpD2t+Zp7xdJmXEdSk4ak/1Fn2rsMTWXIj0AGM8TL8GJFsQAHjBUfCh4YmbFPTYs/U2q1H2mMy6Njnjxqn11ScUltQ/dn20rwnOpm8DhlsQALjEUfAhf48psnnpg5zB3o6MXwTLHiHSujUKeuxesnsqstcCA84k+jiAggDYkt0YRBwejTPuUpBjjzIVHrsP18opv/JU2YJmQY+tyhzpa4Fq5w831wcAoCAA/sxpchR8yN97aqAHrvZVxrTwgJ3/X5ux6JzDbapVBTl2T+XvNTXa1wIL6O8ACgJgU7ZyPnQUDrBFqXoLvlIQs6I0ezODh1F43D620rACHBvvEf1rgUs27gcAUBAA0x2FC3KnTlBP9kcKUGyV3GGsL8AicvGutoDOBDXX+4XiEERxZ4rzOwAoCACzp7PWUTgx7aitWBuEDDTXKHbIrsNoN4pPPVBrVvQoSGl97Sllb8MCZRmknkXLAAoCwPyp0+wovJA7fgct/exXSmcGe5bYSr1JtBtll54QmNmHmuY9mFnTwsKY1+kHAQoC4E1H4Qd7zKPjg5eVlqyNq/T8Y0bQbtQ/Ml3pTsPTt2b2dcAVmdsHAhQEwIWOEB05241V25uz5HfqHrxupG3GmO3TVchx7WBM3BmfeX0gQEEAbO+scoSI2SZLrQuekV/p/OINHjUZpbydJqq/oUK+JpGwBdNs/4ApcX6cOX0gQEEA/NgpdoTo/tW5+ZePKNWJdzQpf08vVrbForMO8288wdq4Kq+ftnEbgPszpx8EKAiAex1FH0VB48x7lMpUXHuGh21G06x7leokVq9UxTWnb2r/wDpnj+j3gQAFAbCrs84RMkPDU7coFen4+NUUtJcpZPvry1K6CnHpRccP1Qagzvn96PaBAAUB8HOnxhEyS/NLj8rLJFatUOygXVLQVpRddpJSkcFlnSqZdsRw2gDMim4/CFAQAE85Quaxgb9epuHJm9I7CHfHiSo6aX+VX3Wa6h64Rk1zH1D723PU9fXbWlb8nfrry20lYKM1y7v1P7H/bV8z9hp7rf2M/axtw7Zl27Rt2z7SdHypWGjOVrQe7v6B9c4R0esDAQoCYD9nvSNklvy9p3o6WDXe2aLcKRN8PYaCo/ZUzT1X2JSq6qsulhIJX2bhsX3ZPm3f1ga/jtcKEq+P0ba38ICdh9sGYInzZ9HqBwEKAvCoUJ0jZJ6a+66Sl6m9/2pf2h07cGc1PHOb+msWaTix17W88oSqb79YpRcca2/glb/HFHsuf4Nn9O1r9j17jb3WfiaJfdgiXta2lB//kvdfktepe+DaZNoALIhOPwhQEACPOkJm6sn7TF4l3t1ub6pTvuJy4/N32mw4Gk76Fheo+LSDR73f4jMOsU8Ehj1TT+Nzd1hbU/cpwYn7yevYI1JJtgM4Ovx9IEBBAOyc4bMK8bhQIhGqsQNtr89QMumNfenJAOfYIbuqt/BrJZPW+U+HbizBwv13SqYNQIvzR+HtAwEKAuDHTpkjZKaqm8+XV0kMrlb+PlNT3mbbz0iej7c38zYwuOrWi1R68QkqOvkAxQ7eRXk7T7KVgI39b/uafc9eo+rbLlLTvAftZ0dUOCXiq1I749ClJ8jr2PlJsh3A8+HtBwEKAuBmR8hcHR+9Kq/S8cHLvrQ5ZEnt41PbZmmguUZeZunHryXbDmC9s1f4+kCAggAY4ww4QobaJsue+ZdXKbvkBAoCnwsCY49peRmbetUKjSTbAZQ7PwpXPwhQEAAfOULmKjpxf3kUm7c/iQG0FAReKjhmb3md4lMPHElbgOvD0wcCFATASXRcsLnzvUrrq08k3wYKAs+sKMuVl6m598qRtANY5fwTfSwoCIDg+0OnlY4L7W/NllepuOZ0CoI0FgS29oGHsTUORtoW4D36WVAQAMH3sCOgr6rQsxVu83abTEGQxoJg0dmHy8v015WOpj3AEfS1oCAAgmsbJ05nhdzJ46V1a9K2mBUFgfeLtSVWLpeXyZ06YaTtAWqcn9DngoIACKYPHCFz2ewxxaceZKvoyqs0zrybgiDNBYHp/u49eZlFZx46mvYAv6DPBQUBEDxHOEJmydlhnD1OovpHpqvzizdsSkl5nbLLTvL1mAaXdSosGexZYm0O5TiCeEeT2t+Zp+o7L7WZjJQ9Jqn2ACucv6bvBQUBEBw/cmocRR+PApWef4wanrpZPdkfKjHQp1QndtAuvh6jvUENS6pvv9i382IDuz0IBYKXMI/+FxQEQHBc6QjRk7fLJJVdeqI9tqPe2JfS2rj/fwFPwxtDO+b++nIFNK5tZdZGX89JwVF7yoNQIHgJCWdS+vtAgIIA+GOnyxGiJXfKBCmRUDrTW/BV+h6H2m6sKq45Qx0fvmIDapXmWBusLdYma5v/52P7sd4MFPegQMgZN87aBJgv0t8PAhQEwEOOED2xg3dRutP+ztxgFEcTd7CxDDZYWt3fv29jJZTi2D5sX7ZP27e1Ie3nYWXjYgUhscN2///tAo5MXx8IUBAA/+SsdoToKTppf6U7jTPu8v24Oz9/XeVXnabsrbM2/7ptsmxsg0rOO1pVt16kxufvVOuCZ7X00wX2aJX6a0sUX9qseFfbBsWD/W/7mn3PXmOvtZ+xn7Vt2LZsm7Zt28dm9m9tsza6tv7a13PTk/uJgpDiUw/8/+0CKp0fpqcfBCgIgFccIZpK3ODhdKfuoet8P+7/SV91seoevE4L998pMNckf5+pqnvgGvVVFfk+7ajp+OBlBSGlFxy7cduA8/zvAwEKAmC8k3CEaCq9+ASlO4tvOi8tBcHGKyXbozs1912lwuP28X1wa8Hhu6v6jkvU+dVbm3yG38+2tL76hIKQ8itO3rhtQLPzU3/7QYCCAHjXEaKr4rozle5YG9JeEGyUgbYGtb89RzX3XGmLayl3vIfP9m+TZUWHqm65QK3zn7bZhAKzMJlpfuEhWQJ6XwDX+tcHAhQEwC7OekeIrsrp5yjdsefk/T7upLNujfprFslmALLFu+xTjZJzj5QNfM3baeImn//P33OKbIxG+dWnyR5LsjEEvYXfKLFqRWBXKja/efb2IBcEQJfzh/70gwAFAfC5o2hD5fXnKt0pvej4ABYEyRcM8Y7G/xpo3Nni9VoOvp4bK3gCXhAAt6W+DwQoCID9HMEXPDJ07Rm+H3fI4uu5sVmfAl4QAMucP05tPwhQEADfOIo82AJYjCEIchhDAKThUwKAggDYyxEygz2uk+5U334xBUGACoLWBc/IkgGPkoFPCQAKAoCxA1h09uFKd+ofvZ6CYKgkEj4v2vZrBSC2RsaW2grc4X0fCFAQAHs4Quaw6S/TnaZ5D/p+3D15nyos6cn52Ndz01vwlYKQohP331JbgV7nD7ztBwEKAuAjR8gctkJvurP049f8P+4DdlZfZUxBT19Fvhbu5+8qyvGlzQpCYgftMpz2AtO96wMBCgJgsiNkntiBO6vy+mmyZ8f7Gyrkd1aU56XluHN2GKf6x29QvLtdQYu1qf6x662Nvp6T3Mnjle4kVi5X1zfvDvfYgXbnZ970gwAFAfCaIyB28C62PoFvBUIivko5241N2/HmTpmgqpvPV/d378nWD0hTbN/WBmuLtSkt56LolAPldwaXdbpxC6+r7qF/V7FbFTpnbNKFAHDJ6PtAgIIA+GdnrSNgkwXCDVYgPKuVjYuVihQcs7evx2SrDOdsm/VbX8/bbbJsKlYb19Bb9K0Sq1cqRbFt2z5sX26fp9u+f6s91saSaUf4dV5sBWZfPv3o+PhV1dx3lRUgG12HYMmdNN7zbZZdcoKsCOot/Fptr89Qzb1Xyu7H3Mmj2BdqnR+Orh8EKAiApxwNBxA7ZFd74+jpbDSVvzjH12NIDK5WX3Wx7XfIv0jbm9XYYbur7PKTVPfANWqafZ/a35qt7u8/UN/iAg201WmwZ4k2jn3Nvmevsdfaz9jP2jZsW7bNId4I2ycmrm1nq6+qyNoa6jUIbAXn9ndfUPVdl6no+H2VvXVwC4Cc7cfKZt6qf/xG2WBuO/flV57i3T7GbG+FwGY/IeqNfWkLw1mBYG1Jbts4eeR9IEBBAPz5f7D3HuBVVNv7/+P3fnvvvd5+KdJBQQQRUcGGgHSwg4ggoiAoFsSGcEGsIIoNKypW7CL8SE5IryQhCUlIQhJIIInGgDd3/eed5xn/IZ6Qc2b2zOw5877P87nFe3Nmzp45M3vtvda7DL6N9+FLSNolw0WVKl9Y45vtaFv9QanY/KAWrjbYKSnfeJ+0HTrgSx+Co5m7RKVy5k7AJBifrfUuAJqgHXr/BTnR1CCd1VpZrGz1PnfeRIlVcHuK6/NJsv33ICEMCAi5087DlxCscLe3NgeysLgrtZTmmik8OXPGS3LvXp6MIVaky5+6F7sJvjYmiwzsI/K7E6JKWF3XuR4A6UpVr2ww03e6EXZ3lOwOIEUsVjXl7In/GOQMvtMJAwJC4gc5lzV2H76EYIKjSntHDtSqMRmKnRuSP8ZkHSu7sGhVUsCMmoCSR24zC2lPHDuiTafivIVTRaGw26D1vYv8/XgKvjMmnuNsfBdMkTiEgv74j0Pe4XudMCAgJH6uMBBC7HLw5fWiSqhL0L1TMfLh6z/fJhWb7pfCFdcj1xtF1z9aCY+c0decQKJYGJ2Yq9/ahB0As+uwDQXuWkJYfdf53sVOEBRXCs8v7NU/oG4CK/6uBwSk3eC/+W4nDAgIiY9kAyHELrAnDWKDMjeE/PO2w9VK0268Cggw0UXdgkoV3nmd1vdu2YY7JV4V3XODvd2Bm+PefUFti73vRlbH/g4khAEBIWeoePgSOg6p7EcQGdzXk/MOmNy3Yb3mElGttIvP0vreheNTvDreWCspIwbEvTuAjtNxCk5V9r4bORx7ozJCGBAQ8pKKhy8hrQf3iyohDYcBgfcBAdJ7FAqWq9q7C2EHw45q3tkcz3HgYGQ7QLb9/cjV3b8DCWFAQMg/GLSqePASUvXqY6JACqwWGRDYIXnA6Wa6k0pVv/GU9vctGtDZFVyoknr1lLRxw8zdFfSMQIfp4lU3YecBGP95Af4Zekl4f91JevfvQUIYEBCyyEAI0dGdxot+AEj90FPep44gL16xsCqu/X2bc/14R5aqXsiRbSsZ1PU7kBAGBIScZlCo6IFLCJo2KetHAFVv2+T6OcPRCJM6zYVzROG2a+OA/HZ0bIaU1oIM6qP9fZs5dYzoLuzeqPiuKWcPCOOz6Zmu34OEMCAgZJTqBy8hdZ+8pnQSvPfcwa6fc/plI6Tm7WfMYEY34ZxwbugGHaDdHQi2rIG4Z1H0rLsiQ/s5+o4o0q9+/UnzN1V8/wKrriMstBj8VfT3ICEMCAh5RfWDlxDkUKvUwZfWeXbuWM3OnT/J7EbbmP6VtH9zTLwWjolj4xxwLl6ssGN34GjWblGtgiWzA3HPwi1Id6E4u3TdMpyrrWCvtbqs0+7bxrClIc398TuQEAYEhPydwXcGQojqtCF03VW5S5B6wZm+fBdMlNFsDIWjyK8ve2yF6cKDPgkNSTukKS8iLSU56DkAkOMfLe/f+t/x/8Xf4G/xGfgsfCY+G8fAsXBM74tqb5nuSi8G3AtBuGfROC4oav/uGzSOi+k3kXJWfzn0/ovSlRr2fGjZ+4aBVL73CQMCQn7MDW49eAk5vHO7KBQmNS6dK0nq2dMMVKAguQulDB8gjalfSOlvl0pyX3uBx95Rg8R0xvq+TYImBMpVW9dHrQlAOhDqTRCEdicEqBjLkNzvvfjuJwwICDmZFAMhRDVY8XZDsHRUf76k5JHbxA1h9dmtHYK95wyS5sJ0sdRWWy5F986TpF/3iOnvYRNaunap9ylhLqWYla5d8sN3Tx09WOo/e0PiUUtxllWrk+g8wnc/YUBAyP9PT9UPWkKwKlnx3MPilpr3pWE1W/F5s7s00rvcUkPkE4kMVFsDgYlry/5siSbsdOQvnnnKtKus2WPNv080IUAqW79cjh+tFzvCmOwdOTDR7/lDBn9owHmAAWFAQMjDSh+yhPziN2Y+vNvC7oO682YAd/ird8RtoUA6coaaPHVMWFtK87o/ZsbXknPdZT/aFah49iGR9nahoqv+i7fCcO+P4xyAMCAgYQf8gUGlqocrIUhVqNn+rHgh5HpnzbxQwXkTdM/1Sk25yShwdVas3rtX3E5Ih3e+K5lTRqOLsHEOSUKdWnAjCsG9/xrnAYQBAQk7YISqByshWHVF3wEv1Vq1X1KGOZlckszp55tNw7wUUr6Q+293B6r2w5fFltrbu+8vQSG9Kyy9Cb41+EvOBQgDAhJ2NnJCpF9TpIpN96P5FAoxkQuMSa/pEALrRkstZfnIjdbKXhQrsH6o/su3MUm0cd4E6TstBwrED7WU5krqeUPiPufyJ+8Rd0UhSAzR72Aa5wKEAQEJM39kcCSwD3G6vCD9QYtzhnd5Y8pn4qdK191u49xZ61H36evip74p3ydpY4fGfM7YDYL3fhCEIB7pUQ2RT818/Jrtz0nNu1vM/9y493Mz0NdROMeQ/RY+4HyAMCAgYWacdg9mAo/9QBXVYoJ2NHOX+K72djjKxHHupHzjKtFB6Jqbdsnw2IPm1YtFNyEFCn0A9i2/RjJnXCCRM/vFnGaH755381RcDzN4QPqWX8KxUy80A7QwccLgHzknIAwISFh5UbsHM4krfaM5P8XPc0UjJ0yEtOramn3VRTGcO4FPv05qq6tEh+DYJtG//I00pn0pfgvuRcX3zYfXv9r0uwGno6AXaYOe90ao2PxgWH8T13BOQBgQkLCmCx3V64FMIkP7SZyCd7yy9JHCFXMkZcSAmD3rYfmom44frZPMqWO6PneCVWwt7TaPNxyK9dphVd2X4mDcX1jJT7v0bE+uFfo2FK+6CT0V3P9ujbXWzkYY2cF5AWFAQMLIBfo9kEnOnPESr2AXqeLYlVtW/5AyUP3WJsmYMLL7SaWmMieWU87r6twZDPzuhGgqNNJCyop2qUO4p9DoKzKkry/XDQYCeQummLuCbqnk4cVh/m2cMPhbzg0IAwISNjYpeYgSpe42pWuWSLw6svt954XMD90SNScfFqIZk6MXLif9qgdcYrSeWGZffXGHcybFK+dr34ir9eB+dKCOPXUo9QvX09DKn7rX6rDsO/jOhXdcq7ogGcXdqGcI+29kFucGhAEBCRM/Mahz/vBkAy6szmMCk3/LdCWfWfvBS7aaczlYtUQhbreTxEPvvxA1NQkTE52FlJL8W1lojNVlTGqDoKJ7brDO2+/UIRT44vP1TC8c1EeqXntCVOnEsSOwPA77b+Vdzg8IAwLCZmQkZnJvmCDNRZliCSkYRXfPdfy5rZXFYkcFS2bbOh4KcGO1cMT/78ATd0ty394n7RJgHLRWeztSPayeDaEjuf/plnOV7sKOEwJt69x9cx1CkI3dOuz+BeFZ1HbogKgQ0pGs33dIaTX4M84RCAMCEhbW2HtYEhTc1u14RboSJhG2P/us/p76hqMoEnnR8Spj4qiTPidvwWQJguC3b+2khAWsbjcXpEpQlL9out20PWV9MNpqKwLnVIWOz43pO0WFDr60LuzP+Ys5RyAMCEhY2Bf/Q5Ig9QSNhroRugzbavmfM+dyR9v96N5acPtVkjltDBqFnXoCMXIgcoZt5eV3XjXFd21I2iFBECxdw2BLimtSuOJ6s7N1UNQQ+cTW78YCqUZOheApdcyQYO4E9e5lmgEoEJ5FYX7WP8M5AmFAQMLAzzi5jz/lovqNpyQeVb32OIr/uv1s+JcjDx//f6QLqVRbbbnUf/aG2fk4y2iUhPOxPM6bcvaIHdV/vi3q94CjD9KmAiCcJ4K2hE2NwGpx3cevSqDU3u7IFQo7P7jfHQjFyficwAeCFZsfEKfCsyi5X2hTh6oNTuNcgTAgIInOgvgejqT6zafFjmo/2hrNtQOuPSjw9DyVo+1IjbmC2LDnQ7Gr0rVdp0RVPr9GgiT0UMiZOyFh7lMEfGg2hl2coAkdfp1896pXNogTockZAuWE6UD99EpxqvKN94X5uT+AcwXCgIAkOp/E92AkSMOxqyO73jN3GFAfgMJHFOAGWdlXjut6lXawvVVaFCsf/uod2f/gzWbvg9J1t3tdW2A5yQSWnOvHS1NeRLxW9bZN2I1wlJqEe8bJynzGpFGOdqfwm4yc0TfhUsYqX3AWoLcf/y7MrkMrOFcgDAhIIvMXBm2c5MffKdSJrSFy9dHsK+DCd0Cecrd1FrFOwio2P4gV+s6pO5jMIEXL8zQi7J6kXTQsUPcm6iGw4+OHMF5Wzj/6BmRfe6m5qtxcmOGJQ5YF+nA4CUZgp5uo/VHQR8SBYDcc1uf+bs4XCAMCkshcaO/hSGo/fFlCLniyxzJWmERELUZGjwUUusZQtAnrSV8KlREY4FpnzbxQ13sRVq9w44Grjp/3wimDQ0yyUeTb3e4BHLucjAWCECcr4Fmzxib0cwtpUC37sx3VdhQ/sNC8liWrb4VxgbnzUPP2M2Z9UkPyx9iZQs2B8RuvM37fcxJl7L43+BvOGQgDApKo/JaTe7vNu2ZI2IW6h5h2VIb2M33RG9O/krINd2Jyjfx2W5OZxoyvxS9holN833xJGdZfDwvRccOk7PG7zEZ4fgoF6ZEz+8V83h13DzrWzbTVH0QqnaMxcVQP89uloXh2IQ0PaXkeCL/5RBq7yzlnIAwISKKSa+/BSJL79DJXOsOs3BsnxbOKrWTcMfHExNxXfd+GGgesfsIVytM8cEzmsDKrPjCyn2+PXhxOvhfGEDtFOddd5uhzMg3nLLtq3Ps5glSlaYWogTm8811prdqPnSbb9xqsjXHPlz22QpnTT8nDi8UrpV82IlGe+xs5ZyAMCEgi8m8Gv7f/cCTYJg+t2tutVWHPQc8EjZpr4VyQNoHcd6zaK+tmm9Sjp1kgi/SM6m0bpbW6RHQSagNwLQL+e0Q9kMpaEUyAsSPmVp2GqnoCr4JK7AomyjN/P+cNhAEBSURmGgixT+78SRJWIT9476hBvo090pDQiVVHtX9zzLStxOQNKT2Y0OffMh1pMmgSh87OP4D0qZw546XgtllSvHK+2Q8BtRXN+SlmTruuOpq120rvcY+f/cYsks6++mKzMVbewqkm+5ZfY/bqMPPYH1oEMOnEeOlgp+lqrcvxxlpV54k+DwjsvdhFSqTn/n9y7kAYEJBE41lO6p2v4OIFHVa11VViMuur25P3hcYUCkcjg/q4fn0zp4wWl4W6BeXfpXNgUvXqY7aPgb/D33eU0l2VdzaLB8LOWaI892dx7kAYEJBEY7/zhyPByzrMQm50yUO3+Db+aPRWs/1Z8UYUdi9QP+PFtS1dt0zcVvGqm5SfdychcHX0eQgK3AoIUi8cit+wB+O8IFGe+Vs4dyAMCEgi8e9qHo6k+P4FQgk6w9opHFaSb49i27JHl7uc/kDBYhJpPF79tmCj6vYOF3peuB0QqP5MxefrSUBd//m2RHnmH+D8gTAgIInEZMcPRoKmW57keWMFr6U4S2re3WLkSt8hRXfNkdx5E9Al+KR8dHioo66h6O65piVo7UdbpeVAgXerxzu2YsU+piAAueGVz6+RttoKI39+tpLrAUcXyh0hT9/D3xbcdFz/baG+A8cKe0AAdya3BUc29BJhHQEhDAiIXjxpIMQ+hXde5+qKdEtZvlRsfsC09owM6evoXFOGDzAaV02Tgy+vNy0QXRQm5WhQFTUIQABTuWU1HFh+NFlIu/gsx6lDKOal3FHpmiWe/r5QgO22S1bqeUMYEACDptxkgVx8nllF6InAZM4hCAMCwv4DRAqWXuVKMHC84ZBUPPuQZEwejTQY15xbsmaPRXCAibhr6QEouMax4KJT8dzD3VpmHs3c5WgFES40lLuFxF7+xkoeuU1cFPoOdDgeAwLUAbkgNEBD/wRrkSBReDQR5gGEAQEhf2nQbu9BSJCqg2ZBKtVSmocmV8hn9tylB8V+LuwaoENp3J+LdCi73wU7D5S7zdgig/t6dm8eev9FcVPFDyxkQNCB1DFDRLHQvM9yF0o00hJhLkAYEBAyykDCDlJY0sePwL/HZYOocFUdE2b4qfueW5vUs6cZGLQdqRE/hZzxjMtH2voOSEmgXBV6KXh2T7aU5IiLwgSYAUEnUKek6Llm3SuJyvdYWAv6XIAwICBkuYGEHazIWw226r94S0rXLkUDJBQzRs/DP3sA0l6UTXxR9Js84HSdxgT2hlhp99WtB84y8TrZpF16tlCuCxa7ngWoLlphotA+ynEZEKDbtuPn2sZVktzffK4lOiODPhcgDAgIeS/swUDkzH5YDe8yNQL57Mh7z188E914zRX8hj0fiQo15UUkY9IorccHef9YofVJ2DVRkP+sWhSKwb2wHUVqUmPG1+KWqrdtZEAQBRgP2BSej9hxDdN75NagzwUIAwJC6sMeEGCyH4eUpdKgkNey5dQc7F6gi6lfE8+4Vhkb9nwolDfKmHiON/fgT1GvM1Ea074U1Sq65wYGBFFIPf8Me5aix45YJghh4o0gzwMIAwJC/ifswQA6c7a3fSteCsezVr2DRsnDi+2nb9j3LI95tRGBC1IVqMS0H8VEM2fuBNMVSJXQA4MBQfS6qvbWZrEhqxtzmCgL8lyAMCAg5NKwBwTVbz4tXur40Xp4qgd6zPIWTDHtA70QjpMTx3jlLZwqlHfCboxf92HO9eOlIfKJONXecwcrX2TATobXOpq1W3maTlNukthR+mXmeYSNfwrqXIAwICDknrDvDqBGwCuhr0DmlPMSYuwwGXO58ReuDTotx3VeKHRVLvVF1bQfVQcCRuSs2w44LWcxVTQXZohPQq2P0u+Cbug2hF2cML5Tqgw+N3jSYKHB+UHpYkwYEBCyPcwBwcGX1nkXDDTWSubUMQnXg8Gt9BykJeXfOjPeJmuoN1A+4S1YMlvSLhompeuWmVaMQVPL/mz0dDCDODhjqVbezVO1uB9L190ucQrjofw8fJbS71L1ygaxI/xmfvgc0miw2+AJg2sN+hv8kU5zAcKAgJDK0DoLndEXK9xeraJi8pyI4wjnJVdW5AvvvC7ec0FfCOXngS7UnY8DVygEB43pO7XcPcA54dzKNtyJLtcnW7JeMlzaasv1sx9VQNG98yReIcBjQNA1FZsfEDuCjfMpP5scN0g1eNxghsHP/ZoHEAYEhPxjmB/IsNTzSJioJPRYooeCShWvusnmCvEypZPqfcuu7vaYe0cONFdDMSluLsoUv9S8L02qtq5HAIMeGac8Z+R3t9VVKm2o542rjHq7WeTdMyDoGuws2VHJQ4viPx6pM3jdYI7BL72aCxAGBISMCPsDuPj+Ba475lRv2xSKLs+Hd24XBUJDOLvngXPwc4fC6mmB1By4MaFg3ZX7C3niVa89IcUPLET+PI4Z93lmTByFmha97UfdDwjQ34ABgdo0LAjXwvnxSZXBiwZXwhHQrbkAYUBAyA184MIxZ7JbqUOYuFmdjhOelBEDpK3+oDgRdhqcpoFVv7XJcTBQdPdcZeOCpnaKhYBDybmhwB21LU6FMcfYaxYQMGVIAeVPr7S3K3qXCylDZL/BowZjDP5U1VyAMCAg5AkDIWbuufpi1Pb2OPzNWU+AlXSkuigJ8m66Amksdq6Z8vSuimceUN7DIrlPL3VdqGdcgD4PtlOFcm+cpM39h7x1W92WGRB0SeXza9R3FycqaDF422CWwd85mQsQBgSEfGUgJkRSxwyR5oJU1YWW4eKnjtJ2kC6ktLNyxab743JBKl45X/mYwDZVoWCvqfocEbjGExRgTBHoaNd8quD2qyReYXeQAUHX2OxODgc3q7u4+5DvDT4zmIPawHjnAoQBASF1Jz9USGRQHzmy6z0lzces1W4/SOrVU4rvmy+1O7YCTHTxzzw5dtrFZ9m2Im09uF+5JzwaNR3e+W4MhcwL3LmnhvRVWkdQtn65W17+sTSbw1hq23Qqd95EsaOu050YEDQk7RC7Qgph6dolCM69vRcYHOwwuNLgb7qbBxAGBIT8Q/SHCUn6dQ+pfv1JZ5O2R5f7dv5YlYvWJRX/zKt6hqrXHhe7yr7mEtcmi015EV8cUZpy9ogqZV85zrXzRDOproKCptxkyb1Bb+vcjAkjxYa6bhbIgEBFKiWK11GcjAUXb+8J0mqw1WCswU+izQUIAwJCzjQQ0gU/hf/2g3YbkPnaufXAE3d3Hag8tsKz9CubuwRwz3Ev2Pvlb2AlahZ7WypZvdj18YCXuwq1f9skST17ul5kj74ZHYtuC5ZeiaZvgegtYke4JxgQRHXMUt6cEYslkSE+PB9JtcH9nd2KCAMCQmYYCFHurY/caj/P+5R1EM35KZ6dR83bz9heTUz6VQ9Xzw2BAfz67fY7sFPkrEKHv3rHox4d06UpNwmdojFWwXG6Gj7ADGbiFApnGRBEIee6y8QNIaWy7PG7LLtcbyHtBh8YXMRdAwYEhIB7DYR0TXNhhi2XmtTzz9A2IMDKuFfnkTXzQu/TYvRduVbS0bhk9a38bUYP8FAnY9dCFb91BgRRQL2Kmzpx7Ii/hemkwuAOg38L71yIAQEhLxtIdAgm9fYcYD70dVKEZljtrc3aOB/ZdW0qf/IeP8ZQ+zqCzGljOn0uyZx+vpJeD3vPHcyAoBMNyR+Lm0LRMe9hLThh8KrBgPDNhRgQEBIxkOgQ5BTbEHzQfTnftEuGS+Pez7vzW7cmPZ5R+tul9gKryKcJd0+hJsVZmkVdh1Qqgl2Xqq2Pqth5gWBZyoCgU6NBt7u4w6KY97J2fGZwvsFp4ZgLMSAg5LCBRIdgJd1OuhBymL3eFUB31o67Alh1Q1Ogyucfkbbacmmrq5TqN5+W1POGeB+oXHq2/eZbvXslWEfsKeJEdZ+8hs8hRnFz4Z3Xmfe5StXteIUBQQfQoM9toU8I72ltyTSYYfCHiTsPYkBAyJ8bCOkaWCzGq8b0rzw9R/j9N6Z8Jh1V+8FLknJWf63GEr0F7DqSoCdE+cZVKG7F90WPgtDWERQ/sDD0v8uMiaM63vOqO0B3KHJlQID0R7dluTsRrSk3WGDwp4k3F2JAQMivDIR03dTLjlNJ+dMrfd0VyF88U8vxrH7jKZVFiGiUhPQbuASh6RjGI6EDTUuYDIe6rueCM11PYdn/4M0MCAwQfCN4dVv4/QbmHiQHDeYY/HHizIUYEBAymg835c2NkBLiz67Ahy9buwJaUnTXHHFR2IEITh3Bsw+JHbUdrkaqTOidhFBH4aZaSvNwnNAHBJVbVovbQipjIO9pUmYwOzFSiRgQEHK1gUSH5C2cKnaEZlzu7gosQmOqjrsCSKXR3wVmxgXisrCro933Tu7bWyJD+50c0I0bZgZIsA9Fn4vKF9aYXZ1r3tmMdC/8uwlqPvC/wW0JzlG5N06KdgyrziI0oI7CZSn5TTVEPglsQIA6qPZvjonbqnl3S7DvR1JoMMXgD4I7F2JAQMg90X/gBDnq6PRrp4Ms/tatXQG47nTeFbAKmHUnecDp4rJgE+t7oSucnuAyVf36k9JcmG6mtxzN2u3afZEz53KzG3Rj2pdS8dzDmMha46Ax+he6oieBUzcnXIfmfWnitdDUz2mhLgJRL7Rv+TWJcV+SHIMLgjkXYkBAyGYDMSGS3P90c1cAK7VttRViR+gAzF2BrsFExU1lThntfZHwoD6o20CNBNycvCycxIQVPR66tJeFS1b+omlo+sT+IDZUdPfcUD4LEdQiyHRdcGQ7e0BijR/ZYdAjWHMhBgSEvBf2hxcsOIvuuUHqP98m7d9949xP+6t37E/uft3DnOSXb7wP6SHw//Z0VwCpLbBxhJsPiir3njNIfTFtXkTcVM71471LgZo6Ruo/e8N0pYlFrVX7Mca+rJTj3oadZsFtsxLIASxJXBZqNizHoVBR/9mbYlcIRLOvvlgyJo1CAbwZXCCNEkSG9DUD6OQ+CZ7iRr43eNLgH4MxF2JAQMjeUHY0nXKelG2405UJRfVbm2ydEyYdSCvpIOTvYleg4+QEEzrXVlxRSNnp+MoLpN22MMy9YYJn9xEcnuJV6brblR0fkysUZMaZSpIwv+PSNUvEA1m/6dCAFB4nKlu/3PosQhoN5ulfeMyAgJCKMD6ksFrqlqpe2WDrnLDqfyrVfrTVvVqBn/4aFp5d2nvuHTlQXTHox6+6Wwi6eIbWAcGJpgbs/KhxKnrmAYHCGhAgiEXKiRfKXzQ9NDumThyc8GyN8pwiJMtgsL5zIQYEhLSF8eHkpmDTZycHHYWnugopVarGHmkrbqpgyWw9AwIFQWNnlyKkKsUp1Dgk1G/5yO4PxAuhOV7qhUMT+rmIlEUsDDgRuqJ38fmEtBs8avBXes2DGBAQ8ndhfTC5qaqt6+M+H+TW6iykuQQmIFh6lWf3UfGqBWJHCP4yJp7jyzi2lOUn1G85d94E04K0etsmYzK6Rsoev8sM1ODyhN2inLkTJMuwu02/bAT+3VGhbFPOHjhlJexzEeMHOdkdSB09uLvjEFJpcLE+cyEGBIT8IqwPJKz2uSX4xttxEeouF7wh+WPYALrFKdOocudPUjb2h3e+mygpQ5h0+lJ8nn3tpQIxIIifyhfXOjUNwEp6wo0Lgiinqtj8QDzHJGSbwb/5PxdiQEDI4LA+iGDZ6ZbqPn3dzjkhLafb1TcUUVq+6IrpqucCGisp6dhqgcJp1WouypTyp1dK9lUX4VyDEBBAWN22FTw6KYaHRWmYJyGwuDx+tF6cqGb7c1ZPiYSgYOmVjmsx2o7UoMg93mMTctTgWn/nQgwICBkT1ocQVkldEtIKbJ8XOtf+4GP/fZtUvfaEOfnoqMaMryXj8pGuNGKD1anVJwCpFfDVjwxW+5KHJaFTYWyQO178wELk0qs5N+8DAjSswgTfy2Na92eYsVK9HAYFzybETkHhHdfi9+R3nREh7xn8sz9zIQYEhEwO68PnaOYucUtYKXM6Md87atBJucp5N089qeEViklL1y1zZUKCHQjUNLjhEw4PfiedV2vefgZ9GpQHKX4FBFD9l2/DeQm9Jsydjpb92dJyoAAWsPjPWNHHLg1qBtBkDA3zGBAoaPSnYKcKvUuC3PANCwAqXJpwf6rYMSGkzp/aAgYEhMwJ64MHzaTclGUrqZLI0H6YEHee3KHxT2DGHedqR82FGVaqlFagO3HABBcZTjwMMiaMVGA/jHszHbtUwQqIevQ0u7ErkureKIQ8QyciBgTeQpaF9YFTtfXRwHbLzVswWVqry8QSUnvQZA0vee0bHi27WmwIq+Nafh8UMAdMaAyHczcgJY/cJiqE3au8m64IRp+BC86UxvSdolItJTmqO3ATUmIwlPM0BgTeQB4M7UTgoUXIm/XaplNph1q4GXVUU15EMqeM1nrcD768Xuyo4tmHGBAo0pHd73Oy0SE9r/6Lt0SVsNCAniK6pkkV37/AbDTohiqee1j1ORPyO4MVBn/A+RoDAuIuG8L8sEnu3cuYQJ9nFvJiotqY/hVy8wM16cqdN1Faq/afVGxb/uQ9ktRLz90CFNHaEAofHR8btQelv12qdGyKV86XgAnpcsrrQrJmXhjY5wBS8VCfo0rYvSu43eiF8TN9cuozJo92s24KQi0CXL7cOH9CPjP4V87ZGBAQ99hkIOSkTp1oGIUJKDpuotDTVpCA3GSvttCxItk5HxgT78xpY/RKVTj/DLEpTGjsH/unv4ZdKyYsP6Q35N7orK9CznWXGf0UtktQhXPPvuYSR2OAcc2/Zbq0HtyPsUWBaiB/87gv8XtVLaTl5My53Pc6iZp3t9gvHLaTOtTPleceIYcMRnLexoCAuMNW1368rDfAZMnT88yZM15aK4tP6oZbvvE+cyck7ZLhsFrEpE29ZanLq+ntrc2S1LOn7ZQQNF3rql8EJoNxNQS7cpzpqJIgQrM7rO7bmmjC9rWzEEQHzW0GhfpuCj0jCu+8zoZrl/1ALWvWWLPuBoGAx0K3Yy+vH3Zi0FuCgUg4+N5gscFpnL8xICBqec9ASHdNe64SOzr0/guenyusSqu2rj9pIoCUIgQHHbf2K57xvqNoY8pnnhbBYrenetvGbndyyjbc0e1kLfXCoWYAkaiq3bEV37H73agz+iJX3Lqfoglj7qIjlPpUGq8mzbAjPvjSOhgOuGIXnHbxWVK6dqnpeuSnMJ7W7pNKsCiAFE/s3pZvXGWkvr0pLcVZP+zulD22gu+r8PCmwV9yDseAgKjj0+5/eCT1vCFiR3hRpZzV35dzzrn20m6brxXcNtuz88Fkxa7K1i+3VUCJhm6xCmOVt3Bq1DoTTDRwLRNc+I7obYEai2g7Lai1ibUHAoLhQAQF2OXwQwgOcH+imReMADDm8d7faRcNk4Ils6XyxbXSUporOgm/J6cr9inD+kv+omlSuWU10q+6Td3EmCb3P92rAm3/71+Sa/AzzuMYEJDY+RODXxmMNbjJ4BGDVw3+n0GrgXQPQXMoO4KtoU/njJfjKYOCI7ve8+xcKjY/KHaVOXVM3GlCdtNA0CQMwQs+J3PGBWb/g5AJ37njmCOlyJZNJXYKdE4fQh2JTkItBnbD0B0caW7lT90rZY/fZVL+9EqzKR0a2MFNDGl0mgtGDbavDdyQ7Ah/5/Z9g8JpODVhx7D4vvnWzpo/kCMG53Kex4DgZMhfGAwxuNZgjcEOgwMG7c5/dAQvZxtCuo6V/+4LbXWV0oVQeOzJOcAi9fjReruOLXG7tWBF0elKOVJokBYTVqG3BSaimNQ7SKnBtdDWghNBPuWaMGm2bcFasel+20GVC+lYFtj1iLYbgzoRWE2jVsufe5p1BTcaMCAIJQQd/EYa3GbwukERJ/7u5xrbVdG983RMicAquifngBx9u/qmfF9chb9IL6L0UslDt2j3ey5ccb1QrtYRIN3HvpHDKxvErmD56tZ9g52b7tSY9qWZChYZ3Nfb+5r81uAnDAgSHfJ/BjMMnjbI5eTfH5qLMm2ucpf41sUT29tRGrBhFRz2qq4fHzUUx4/WiQPBIz7WtCFNrUA5OUwbq09aBVZ5sfN0alHYQUHNiA1hEcDRNTr0/otiV0ipcqMHRPa1l8a1W9b+zTEYPBjP2VHe3d/kvUQrNmZAQP7DYKbBFoMK/sj1AF72dnXgibv9y5WeP+kkO1IENtlXX+yRZet6NXPKb5usot9TkjZumFl8SGkj5L1r9TtG4TTVvXUoUh0jA/tI2aPL4+pujBoIWJ/av0YI7N8VJ0LDRtXubajHsikEE97d42Svwb8wICBB5Y8NRhmsNsjhD1pPUoYPsOs2g0mqVazqB1gxwyot0m+86qCKoly1efhofvXQom6Pi9x3Sg9hlTR1zBCtfsdwQKK6rtlBsXW0Zx/qQboLtms/eEmJA09jxteO+2uovGdQIO1EGZO4S+AxJQY/Z0BAgsLfGEwxeNXgmIHoD0GzH7tq3Pu5ZcWY6MBG0TWHHtgsnmrSgfSslgMFgbL7RIF33SevSc07m/H9TJ91BDYVzz5k5lPjn8MVCt8LgVFQVLL6Vv3uzR49sWvhqJFb9etPJlpaF74TDAC67epcvW1TtHsQrjvKCnpV2KhmzbhAybmgb4TD3xwap3l/r5N6g4EMCHSF/K3BbIMPDI7zBxso4O3v1I/eyq1NeNCAyU2hKdGpfM7zFkwRHYXUp/ov3jIdSXLmXI4JVtzWnAi20i8bIfmLZ6DBHFZTdQwSkIOOybeW9ycmrrUfbY3LMQedtrG71rE+B+4yQRfuHwQ58Xaqxm/QEsZSpZta2+FqcSick+PzgEsSjA0cCLuk7FvgH80G5zAg0An2ARhvsJ1BQHDBC/NEU4M4FV4OOXMnJHhn5yvFCzXl7JG95wzq8jwwYdFBbfUHrQ61rlnQRs7sh47a2MHSo4aivR0TZq3vUwQFSHHpToe/eqfLtCcECHC1QX550NSyP9toTjgL38GRaQHqoxTvfCoJcPEZTtM0sTvnVG2HDvh7r5PvDC5hQOAnZIDBYwYN/EEG33L0eMMhUSV8VtqlZyfiWGGb3tOuvmjk1GV6wwVn+tnACU3OUAjt+Sp5ZGg/KV51k1k87pdQWBqE+xUrt5XPP9Ll77TwjmtjKpBFcLFv2dWBamSX3KeXltcEhcyqVPXa47bPAws3KnQ0c5ceY8teBdMYEHgJ+WeDRYlTGEwwcUdzL8XCNrS1up0woCkPLEI9FPy+T3lOcEjxUtgBqn7zaS0CPqz8okAUvuhequ1IDexmA3XvIh0IzdgsoTFdyogBtsYcO0HIp9ddkTP09MlPHT1YaX0OanLQP8ACTc/gNIVrXrBktrnLkXbRMKTidUwVQpMzRemNb+gxtuR3BlcyICBuc5bBKwZt/NElDsjvRg8Bt4QV3EQJCmD3CYcSjyee3fZ3SO7dCwWKXu0IWCkK2pF30xWepbUU3TUnmLtbs8dKc34KajMcf9beUYNEd8XT8K9z0X7qee45R6WPHyF+Cb8RpBo2RD5Rt0ux9VF97nPye4M5DAiIG7UBVxlk80eWeGCi7oVTDSarVn5yUIGlnh+NnkrXLo3p/OBJ7qZairPQ6yEQzk9w/YEVqEuCkxaKpGlRPKy/aC40zLKzY4picRRZI53KncBs1lgJuPQ3kmBQcD0DAqKCfzC426CWP6yEBOkOXuZfo+gMnv2BHCs45Rw/Wi8eC7sDyDWO6RwxQUVjNjfSg2APaqUaBAWs7h7Z/b64IdTb8BliNrJytWC7tWq/NKZ85mjRIt6i733Lr4FLVue+AyhoVzp2COATSFZao34wKLiaAQGxy78ZrDVo4Y8pscEqp9dC8WvhiusDM0bIlcYKPSbFfqjk4cUxnytWxRULtRLB7j6K64fO29+3Ke47YF6X0IOCXbtC/QFSz7CCnzlltGRccS7+M3YSsXN5kqNPxsRzbF/DvAWTY3ZjQu59V0JaZc6c8c4bGU4dg+OYxdz6S/046w9rChgQkP81eNzgO/6AwgEKzvxSzfZnJTK4r97pVOcOhhWj0h0SWHPGUZCN2oCYzhWTKdU2nFiZtQpOAw5WiTH2Kos44VHP54iB3dX/eLvaYpfKjmCXGotjVcOej2I674rnHo72u+y2xqfwzuukKS8iiarMaWP0vlcZFExkQNAd5BcGzxmc4I8mXCAFpKUkR3wSVtxgV6mlRWPR3XPleGOtqBI+CwXJsHaE0wesG6tefUyaC9OlC8Va9ImVVPQqUB2wWSlCiQLsWVWmyGHM2YjJppd+7Ycv2yrytdM8C9a0p7wvLhxq1sfEIRRlx1SbAIcj5NYjGE10aV8jRo4bXMCAoCuYGvSUwff8oYQX2DX6rcM738XLVZeVZPhpK8+FPtV2OnKTc+dNMBsfNSTtQFqVMSbbY/KFByUP3SIKhXSGRC2YRRGs0utb/MDCsD9DkPoS/+7A5SO9el6hW/ap0nfs2i1jRw6/vai/Fex+wgr4+NE6CYsCsYBAvjUYzoCAWPy1wSrWCBCdOt1ikoAW/JlTzvMnELjmEqMA9QNxQZg0xHMuaPAVcyExcq3RWVqVKjY/YAUiCQu81xszvhYVQqH53pEDGRDEoZp3tzg6HnYX4lHFMw90GfzDRcip8NxATwGrDqF41QLTDCBkgoWp9fzWG3LMoDcDgnDzxwYLDQ4bCCEW2OqNZyWrrbZCql9/EhNRtywdkfcLBxN3J4ZD+krRvfPM7X+XhNV2V79D1WtPiCodfHl9wgcDHXdlmnKTVV7j0BJPGg+K8x02s0MQHJfjV9UrG6K4ho2Hk5DSlEAU9aNGIMzCwk71to2Scra62iPsHldsflDt+4AcNPhPBgThZLxBWVc3ByHIaT+VkANbtXW95Fx7KfKmLStOFFe66kgEuz/YAForcE5JGzvUdDmq/+Its2Orm6p5+xlXU29Q1KrK/ajuk9dwrmHrwaGi4zRSR6wGVmEETa7i+U0oOSbqAroLPPAbz188M2oqCwp8KXftkjHGThYY4DxVt+MVBBnWDgSDArXkGvw9A4Lw8HODHbzxSSzgZd35oY7VNaymWRaAnclbMMUMCrwQmoLVf75Nyp+8R/JvnYntaQQKSAH54cWDYAX/Hf88c/r5kr9oupSuXWKmKcDT3CPheEgfcPV61e7YKiqEwuawvmjhjKLAnclahQ4jWBGO5RmASToK6pUV/jem75SOwoo/0h/RQRo9VrqzGHW9szeFPiBwa4vr2uK5Xf/ZGxJNcIKyHJ6IEr5A9ggDgsTmzwxWGRznDU9iJbn/6dKY+oWZhpIzdwJy2WNr2nX9+A7pQ1TVa4+77j6D3QGsnDkVJlFht89EYbBTYbcJLkYhHUM4AKEwHtageIZE3X2rfvNppcdEczisGpc/dS+eV3FMFLlL4KFQY4KFmZg6N8NMoTshWFC62EJeNjiNAUHipgdV8CYPFkjXwKoW8vmxioa8SYvU88+AHzyaAGl7/ljVQW1ByIVi1bi3yXFd4S6EFAeLmu3PSc07mwECDDNPHcADvezxu8weAQqE1VRdPes9OydcL6QmOFX1W5vw+8XvFb/bH4Ei1uyrL+5Iwq52JvXsiQk7Jt1GkHAfUtJg7+n9uXCXQBuhRgmLTCoMHarfeEptvRO5jwFB4tmIbueNHUzgOR+L2r85ht4BWk4kMBFCoWaIhboHOASpv/bqBVcnHJ8BgQH84lFP4LGQ4+7jb5YU3nGtKBBlo9khdpaxw8Nu4Vrwe4MrGBAkBjMNGnlTBxc0qYpHWTMv1DZ1AKvaIRYKtOMaM0zMPRZSvDoUwjIgAChe91hWgy6fIKiNwgIL5W1Dysa0L5U4GuXOm6j2nmCPggEMCILLfxi8zxs52GDrM96C15KH9V4dQZpLSIXC57gCKOwqeK3SNUtwfAYEnX6HWLH0eEcJ94DGv2U6rFH6Cn0k0i4ZrvaeoB3pvzIgCB5XclcgMUgfP0Jxuof/ICc7tPq+DfUg2naKbinOQo43A4IoZEwaZbrheCgU4/r4WyUwAGjZny1BEXowoN8Bimurtj5quq6VbbhDSh5aBOCqZtYZVW5Zbebaw+mnpTTPvK8TUaZLWn/akSrka4OfMCAIBv9g8E7i3Hxk/4M3S7xCXwBti6p+9htpO1wtYVbRPTfENFaVL64VjwXLVhybAUE39rseCRM3n3+zpGDplaKjUDOGHcfSdcskd/4kR/1YUNCbccW5UnT3XDNFFQ0ZE0WwvuV9rJTVDAj052yDSn9uEKb1wNoOK7qqP/vwV++IHaWNG6blWKETacgF16BYxsrzlcnmosxuLFEZECAFAfnJXl4T/3+33CXAddBAaPQGK1W477i+k4cC34KlV5m1LLAgDqoqnn1I/fiwyHg8AwI9wfbNPQa/443q/Wo3nEAs9xw04EGjLlWfD8tJuznkyH1VbH0K+1Dnzh0r5kjo1d7ebUOevaMGabhzwYAAIB3DS6WcPYDPWp8puG22j2lAdbAVhlkE3jm+fH80J0RhPRYzgqSm3CSrGzVRyzGDnzEg0Iv/Ntjl+c3AHQF04UUgENWhRZXLT86cy8WuqrauVxoMoHEQdHjnu8iltv1Z+JxEmNDDIs9B3i3yeU85Tkjd8XjSgQJWBgQKfpeqlb9omgbPPe4SIB/dS6EPQvGqm7TrFJ5x+UikFbndhV5JY0UWFbtKpsGfMyDQgwsNjnh6AxA0EYLbSHfdFx1Nmi0qNj9gP9VgX5qyBj0125/tPCFGXiZ6C8T9eS0HCgJtiYdGSmljzSZK6LBp96WIJmWnvvab7ve8MRCOy4Agtslha2WxeKXyp1cqPX+id/0IAg/sPGMhRufx2DtyoFQ+/4ibgYH+O57kOQYE/nKawTKDdu8uOokM6oMiz5hXhdHIKO3isxwdE5N6B6vYaKjkOBg49P6L0pXwIoBjRaxbskiTcdLiHg4Z2KFoP/6dl6t0eOmhk2zUF3TOtZfC3s7WinxkcNfXx2uLy+wrxwU/IPAwqEAet1fCPe/vtSHoquy22uoq0R1cQR2P900nD73/guik2h1bvTPWIDMZEPjDXxq86e3FJlmzx0prdZnEq2/K99lu8ATHCKfKvcG+ZSEK1uo+flViEYpfs6++OIauu/bSYBB4YELeMZ8VRdwHnrjbbGt/vLFWqW1f9etPmi/mtItiK8zOnHIenJ3iKirGS7S7bfm6T18XL9R26ECcq5EMCDKnjhGvVLP9OR+vC8maNdb1VXBYgEbO7BfkcUKhM4qvddjJ9XYsSZPB/zAg8JafG+R6frEJvMCduITEXBSIhxgmvpiMYoXDqSqfX2MrLzy5d6/4Cyfb22GRiL/t6nOx0m5npwOBRLc1HZhgo6AbtnlHdr0nNoVOyrbdZ1oP7j/1V2n7VkoeuS2uyXfOdZfJ0azd4qLQKA7HYkAQr31ubYW4qcb0nZhk+XhNSMqw/phguuoahF3GRBkvGGHgvYPntk/1XfzN+MNO7/oTMCC4gI3G/AMr0mgoZVdNOXskMqRvtK1WuO4gH981i0mcN4qf0aSm4LZZsJLr9oF+eOd2sSkcp6vPhuODjeLbW+K9XgiqFBT72tvVaS7MkCjCpB51JbYnnwW3X2V1rFYtBFwMCGyA361Lk0RcE8tRxi/IT+Eo9aa4JDRotN4LCQcK77Gr7rGQyuff9ya3MyBwn/m0FPUdx3ZrDZFPzcAia8YFRmHqKmkpyRG/hAChbP1yFEifHAz06y0Nez4UB0ITn1Om1iAf2u2mTEm/6iFtR2rEjpD65HRFESu7HWsfiu+bryQvGLUaJatvNdOaVMpeQyMGBNiNUimknRWvWoDaHT5zNW4KqWCRBu5BCZ/jjsUnL21KG9O/4m/HX44bDGBA4F5/gfV6XGiCbpBOhZ4Cuqm5IBWr4ma+fEPyx05fdLEUMqOrZre5pmiGg9Qar+1NUTzu9F5Bq3x0EEVDHGs8VJIyfIBUPPewiuJqpEPYOw8GBAiolXWcLX/yHokMNO89/yFo7OjG8xrBvNWrJhSgAzJqstwWjB20aMZJCgz+jAGBWjCg2/W5yAS9BU4pCrn7cTkYwRYuWqoUujM7bSaTt3CqxCucS5DuSbhY1X3ymjgRxpoBgT1QL+MgVxqOZfBzRxM6je4rgoUILI6oFmqMMiaMDGXqVdljK8RFoWmaPt+XbGBAoI6/N/h/Wl1ggglsN/aSVPHK+XZevpi8o9GXVW+hohEP0p+wwqegoFhvMiaPdlh4/ggDAhso6KuB5ob63VMECxVu2BdbjnOhBfVgbjUg06oWg/zeYDgDAuf8l0G+lheZdGPDSTl84aG+As1u1F0v2HbaLSgOgQMWhFxmBgS2ceJohcJLPlfdc7ux9XdwekP9kULBfho9WHhdDFAD5YYOvrSO46sXxc5ShxgQ/MKgXN8LTFAcSkXX0cxd+jUTWnG9goJivdm37GpxotwbJ+k/mdc3IECHZ5UF+EQBMC+w8srh+gWjBHRbR+d32P4WLL3KDMYyJp4DS+iTCv4xsVQpNKjs2HOEuJI+hPQ7y8VNH8gjDAjs0cfgkN4Xl6RfNkKo6Cr97VLdrhde9sjxVlBQrC9FK28UJ4JFKwMC+5RvvE/sCv1G1N8TpObtZ+L2rodFJtIVMbFUJDQzw65nlHOknSsasXlcw+Y95HuDfgwI4mNAcHoM8EEW3VuZ0rVYDrUJsailOCuMebmoQWBA4JP7mNVjg6h14IL7lg4quG02r8kp3Ica934uqpWtW5M3sjf2hmUMCIYYHPP+IhF1dpZUS2me1ivocA9CUy/8O4BfNV5GcOipeu0Jcws7d97EYNrhrl0iTgSnIgYEtkHdCQMC3X8P3gvpSd2cK0G9mOpu33iua9ffgcxnQNA9QwMXDLCNfZRVDapi0/2+XRMW6S0WJ3KU38yAAAEnAwJNQGdnuPn4LXQlT+oZi20yQS0HUrZUKoe7BLrRZPCvDAi6ZhCDgeDZO7ZWFgsVzT5xMu+RYKYMoS6GAYFPrinF9y/gPawQpIv4LTSZS7tkOK+HosJ8G0JTSI6rfrzAgCA6/QyOBudCEnTWxYOeiq62QwesXHSPIUX3zhMnykTRIwMCXxxTClewqFglaPLmvhjkqQYdutG0Tf+aNrWwNwEDgl4G9cG5iKTo7rki37eJn4JbBXLgm3KTpDHtSzHJ+NrM3T/eWCs66ERTg+TeMMHj60NQuOhEOdePZ0DggMotq1l0qknjyOMNh8RP4ZlsWZiqAv0LsIKO3gg6qe1wtVGvsVRZvj76qahU5Ytr9btPSeb/X2DMgOD/DA56fxGY6pMxcZStBxdWe7wU3DEw2a949iHTkjD7mkvwQkBubLfdfveOGmTmThavWoAXCPJYYaHndeDicfdVgmsO+eOFz4AA/vb2G5NZwZh6+DvwXlmzxqr9TnMnmAs+Oqv8yXuUNpJUpeNH6yS5b2/97lVyTdgDAvBPBvu9HXiSclZ/NIaxukViNQ8vDlieaRMMYFULE3i43CT3U/sAg69+3sKpUvXa456tnmE3JX/RNI+uMYsonRYVl224kwGBAxB42xUbKamj4pkHxE/Vfviy0u+DnTs8S3UXFp3Sxg1T8p3heKZwEQsN6PS7V8khg78Kc0Dw5wYRzweePQNgK9nl6gFW9gpumyWRwX2jdLid4/pOwKH3X5S8m66wghPXSerVU/IXz5T6L97CQ9ftnQLbTg9054iNnOsuMyejToXfAQMC+88YpMrZVUtZvuTfMl1B2gVBHxHf1N6OXWilC1lIyQmKyjeuUvbdYQOtSrA0PbL7fan9aKtUv/6kufNetuEO2f/gzVJ4x7WSd/NUsxA9c8poBDVmD4vk3r3cv1/JqrAGBMiXetf7ASf7ll0d84r24Z3vItUGFozIZXRpZQaBSL25xbr3nEG+jg2+Z+Xzj0j7t01u1hTgQRtT7m/WzAvNTscNez5EMIFUKd7DXYCJx+Gd25VaJDIgsAd+xyqE5nlZs+2mm5DUMUP83R3YsVXp98FOdpCEDs84b1W7BAiw/BSCCFfvWdJq8B9hDAie9H6wScrZA+yusCAYcGVHoHzjfRI5s59W44QJTeULa1zbMWitLkHzmR/VOyBVAqs09Z+9EXWFFc3Dkvt0XqnhpKd620bVL0sEYDZ3ZRgQIM1PpQ69/4KN9AuCQl40iPPLCS5zynlKvw92joIkjLvK71/38avip7BQhoUqV+9bsjlsAcHt/gw0qXlns+iiw1+9Y3WD1RZM0FHM7IbwuRmXj5Sie27AhCfWQA12jryXDSJn9MWWvDlxd0uZ089nQGCDA0/c7criQcVzD+O6x3k+JG3sUGOX8SPxUo3pO5V/DwT9QZPK74/dMr+VOW2Mu/cr+d7g12EJCKbAd9X7QSbZV44THdRWfzBQxbVYucekHWlNOqi9tVlSLzgztPcxaj5QMOyF3WDp2iUMCGyAruUumg2g6RnugzjPi4X2eI6dOHZEvFDhiutVfwc3DR8CERCA5sJ08VPFDyx0/14lb4UhIBhk8K0/A8yXAfIZfRZyvFGgFMgxRMoC+h1Y0sC5I5QczdwlXqkh+WMGBHGC9D8PbH2RPmJjYYGknjfENFBwU1g8Ue0MB1TuNlVv24S6OOw4/bDwk3bRMCleOV+a81O0DQhKHrnN33fPBy95c6+yWVn/RA4I/om9BvwDnuo+C6kueOgGehzhtFD1ygbRQZlTw7l1i/oKL60DEcAyIFBrWuD/5IROc/uWX+OW5TJqelw5bxU6sus9TPy7XUCD2w5c9xzKlYDOx9Qp2JXT/csb3kvUgOAPDXb6M6gk6Vc9zM69vun7NjxcE2pMkbLicz4rXmyhvJ/L1i8XL1V07zwGBHEFbG+KV0IBvv1zJSkjBphOQKoF22gdA4Lyp+7FZD/2XeFLhjt9d7oyDg2RT8VHwY3Pm3uUuwQDEzEgWO/vwBI8CP0Q8lVz5lyeuPatPjfIyb7qotDdy+hSqmVxJAMCdAX3sgs4bHkV3FMkf/EMaaurVFbj5FYnXCcqe/wu21bUWBXXKSAoXbdM/FTuDRO8uTfJ+4kWEMzkRQ1nUADbzKwZFyT0mOYtmGy63Pgl5AKHzl1oYB9MOv23T2RA4P3ujXJbWGIRGdrPCH6/UuEe59o52lXdjlccpblg4QU7wroEBHD68VMlD93i3b3JXYI+iRIQ9AtlETGDArysw7J6jY6qvu0UHG+sleQBp4fuPm7M+Fq8VM3bzzAgiMH9CR1QvRKalqm9r8iR3R+od+ZSiN1eAOi/47hT8Nb12gQEqMXDs98vVb36mHf3JXktEQKCvzYo4cUMX1CAlZT8xTNDNaawYvNardVl6M4bynsY2/9eCq4kaIDGgKBriu6eKx4KzzHF9xWBJbTOaYx2VP70SiXHRjocngM6BATg8M53xS/h2J7dl6Td4JdBDwhe44UMZ1BQ+tulbmyRYttXWcdNuEfUbH8Ojg3KzvHgS+vEK7WU5qIXAXtqaLEqRpC601pZLF4qa9ZYjr1CYBerQpFBfdw6R0UuYfZBA8k4lXB1gdb7x9P7k2wKckBwvf4DTMqfvEdUq+6T15RakuGzStcudS1nHM2tMiaeo+Rc0dK9MfULcVvoJ4GXXMids3DtPHfLSr9sRJTzISUPL/a6uaFiC2OSccW5CiaKea6eY7yCG4/q4mtdAgLswvsldL329P4krQb/GMSA4NesGwhnUNBaXYJVJvX2ni6rpSRHkvv0UnG+cKRwsaMxHsQfWitwoadq66N+NNbrFPAS5Gd7nc+MXiAce/UGCU5V//k2V8/R791qpA3pEhBkTBolXgqLcuj74ZtRCLkvaAHBHxukBWuQyYEn7hYVyrt5qvoHnkfFusWrblJ23kV3zRE3BL/wpF50VbHIuX58XMXXbYerVdxPaPLX4TwIUu+8Vs51l3HsFYN+G05V+fwjWgUEeQvVvpMA3PPikfcpXurdAiu3rPa/9wA5bPBnQQoIHg7mQJOGyCeOJ6vqJxrPSiyC1SEs8360mnPOIDPvOxbh+ys6bzS+UZ46hO+R9EumSHQeZ+yWdCSpxykDJhQYqkhXQUMnjr8BFgGcquadzVKwZDaaF5ogoC55aNEPlG24A0XkJhWb7sfkhL8FF8BqulOVrL5Vq4Aga7b6OpOWsnwtAgKAmjq31HbogOkYFTmjrz73KbkqKAHBUIPfBW+ASWRIXzSTcdR8DJNvnxwvsNUddeU8ZVh/KV2zJNbvoH53Q03dA4rH1KWpML1FSd+I+i/fDnsOO37zjl1pcC2sZwfxl4rND4hT7Vt+jVYBAcwHEjkgaCnOEtVq3peGwFzPHh8kIwgBwZ8bFAdzgEnRPTeIE5VtuFPLNvXqcz29dx2q2Pyg4vMiSGtQodJ1t4d2DFFA35D8sThV5YtrNflOpPr1J52njS6YolVAkDtvovJzgJmBLgEBDCZUCT0ocudNwM6r3vcqGap7QLA+uINL0ODHSWOsyOC+DAiiAN96+FYraIilFu4SIC9WSb8NTDhCGVS9sMb58H3bhCJNTb4TqX7zaXGqnDmXaxUQFK6Yo9xeFzu/ugQEDUk7BApVXRTZqnNAcKZBezAHluCFbLclu5W/78HDP7DHqHrtcYGcpGMl9+6l+LwI8tJVFdxlThkdLovRh24RS17uLOoPi8Ozr75Yp4AAaVBKj592yXBtXIYAUhchhYGc/pA2g3/QMSD4E4P84A4sKV4530n+bzcFRwwI0sYNc1xLkHvjJMXnRZL7n66skVZbXWVY+hNgxRULCEq6bOMaaPPdCJpuKZhYjk/oPgQFt83SKiA4sus9gRRfN/0hi3QMCO4J9qCSuk9fdy+dhQGB1WJeQys/AktCVWqrLU/0oACFhkqCASh/0XSNvhuBaUHthy87ryG46QqdAgLYDCOl1c/eJ+6m++79XFQoM2i9Bcg+3QKCXxi0BXZACSwaHdmWZV97KQOCGChYepXTxmkunRup+/hVUSX0OcicOiZB04QWIRhQ181cm+/Gd8C+ZVdLU26SqBA6+WoUEED4fkqODavb1qr9WgUEuG4MCFhcrENA8GmwB5PAks2uYL0GNwJdAoLkfr0lY+KojsAJRYeAAKkRjotYU0cPdun8WGAM60xFQqFsIq1+YxKEHSqlQRNtRv0Hq+boAo/u8ioFxzrNAgKsois5du4NEwTSKSD4pnyfqFD6+ADubpKndQkIJof7QrA4sOIZs1hLm4AAKxydhEZVSo+hvskaUyw0bK6lwn0ITbQC3zwr5az+RrrbdlEn3MfTfPxOBM5nKLSFWYEbKntshavn7+duNvL1dQoI0Aelve1bUaBgNlokxwz+1O+AAD0HqsJ9IVhEBjcJnQKCjAkjpbPQrEyXgACdWB0IHVpdOjeClT831LDnQ0k9b0ggxyTnustUrx4j3cKnIIlkTB5tdoRGTr2bgnWpjgHB0cxdjhoJoujWrlx1CFSj4DrZkSl+BwQrgz2A3CqGxVjZo8vNBit2hK7GmGzrFBDAzaeTtKkhAFiBcSKs1Ko/L4IXYUtpnrgl9OkountuYCbCkYF90FDPqhdQrqKVN3r0XQhSOlHki4ZTHglBsJvfyZdGgskDTjeeEbnaBQRZs8eqeUY1HAruPU7e8zMg+D+D74IzWHwhwDcZ7iBVrz4mzQWpCl70eOh/5Mn5d1S8qyWYiGkUEAC8VBzZNKo/J4LUHg+EFUq8wLV+VhTcfpV5n0EuBkhIRXL5+5CMK86V5qJM8VqoEdE1IMC7b9/ya+JeMDj81TsC6RYQ4LsoELodB/deJ8cN/t6vgOA1fQeGYCUDW/1YCan/4i0z8ndDqB/QLSBAvUBHtR06oF1AUP3WJnGiLDhBWNveREmTIeTgeik0f8q4fKRWdpPottyY8bV4peo3nnL5e5Gc68eLX0o9/wwtAwIrKNj/4M2477vf1R0+wFz8gnQMCFALokJ1O14J9v1OrvEjIBhs8Ht9B4VUb9soXgg2mroFBGgp39kFSbeAoGT1reJUcMRBgTJ2fVAgaP986Lt+ZPf74pcQsOe4bNvb3e8Fv2PsXHgtTMqyZl7o4vcjaRcNE5+E/h4eBwTqUzBh4mCl1OoaEKDpmgqVP3VvsO938rkfAcEuvQeFYGvTC2VOP1+7gABgotFxG1S3gCBvwRRRrZbiLNhCGp89OY4GPASTYR2END54/O89d7AnQVDmlPOMlcUHzcDST8E/nQXG7oEaL/V1IP5PMBUJzSJPnUq44U5RJbdqn9q/+0YUCKmCwb7fyfcG/+hlQHCJ/oNCmvNTxAvBu13HgAApUh29p3ULCDImjRI3BQeRxpTPjJfZHThWF+dBIkP6mp2FdVNj2pdStn65ZM0aq6xoP3JmPwSLCBpNz3KdVLzqJhevM8EuqR9qTN+pfUBQ+tulp14wuG2W1gEBbFQVCbvNwb/fydVeBQR/YJCl/YAQb174vzuBlT0tAwLYGsbrdtFBnjTB8kpIh4l+HgQuOroLtQ2N6V/BDAA5z+iVgC7IqHtAqhh2g8y6mZRh/c3/njHxHBQtGxOZ2XAQM2sVWvZni85CgbH7iwvswu218I5A/r1uAQHOCztTFc893G2dA5rnIUcfwQ3+TreAoPzplaJSVa9ssPr2BBPygdKAIPhNyAhWyPV3kXAvIOg4AUKhlG4BQVKPnuKVGpI/jnIOJHPaGAWpFJT+vvWk/Ml7xC/BAUeDgADObtgdQ+E8LHVtW3WjoV7Va09IW22FFgEBUkVVC31HcudPCub9TtoM/tLtgAC7A4XBGBDihbANrWtAgLqBjm4uugUEwIYUWckR7Gwdzdot+ohCcJZ95TgXrjfJv2W6f0Xzn2/z7fmJnXIzbXLiKFeeIXDyw87d8aP1vgQE2A10UWhgh53H4N3z5DJlAUHwdweIV0WQugYEDUk7OlobahkQIE3CCzUXZkQ5Pm1GUYinlSir3kcxBGkxfqn9+Heu9Js4lY7seg9NNz2zZk7uf7oU3XMDdiE8DQjQtd5ttdVVSv6tM4N1z5MtbgYEp7F2IFi0f3NM3FZLSY62AUFHl6XKLau1Dwi8v04kf/FMjVKGKBTC586b4NL1Jkhx8UslD93iSUCARapsPy18f91DilfON3YM6lwPCGA2gLRdr4Q6lL0jBwbjfid1yOpxKyAYxwFmDUGQUoZQN2AJRVdMGYp2DqRwxRyxK6QJwCYUgQWsO8MqTDRL1y41C/mdCNfCvWtNaj98WfwSVs7RAVvl90GxfWf70OQ+vfTYkbngTOT2uxoQwDTAj+L/wjuvs5q56Q0Z5FZAsKfzwQhdhrAKomtAgAJFS8gh1S0gwIvLKzWmfsHfxCmbxC2OO9cdaWgd3VPwn2t3bJWwqfaDl37IMU7u2xu+87Y6PqNRn7vXmSClxU+pLlJFKmQHWf07tCHt0rPhStRxMq3085Fe55MQfFnuTPpClrsREIwI3kAQpIl4IWyR6hgQZE4ZjS6ZJmnjhukWEMAeUiPbUQIv8lh91WH52XXDucnScqBAEl3YHcy76YroE6GLz4qrMWLputs9us6sm/FP6hcmEHx2kI5j3vFZgB0aZZ+bc/148VmWnbe+kJ1uBASfBm8gCOzR0A238oU15natW0q9cKiWAYGux7BAh2evdOj9F7s/JwKP/1OmxaBpTyxpD1gpL123zEwpSjThO2ECH0OzNNgzYqfylDstJQ8v9vAak72jBkn6ZSMka8YFkjN3glksWnT3XOySwZoU7wvTWab+szfNxobN+9JMC0pVQo2Iyu9yoqnBKlzWcrxbq8use91aSFBCQ+QT8VlWQzd9ISdgP6oyIOiTOINDlwnk6B56/wWl9QV4qegaEGDSAms4HQOCfcuuFq9U+eLamM+LNQXXo7j1JIeUis0P2vIth7MK/ra9tVmCLnwHNGeK14IQwdGBJ+7u7OiEMUYuckDuC4LGeAqEDvoqm1kiSLcCdq1r+dAgMIF2ByDswut/75JxKgOCTYk5SPRgx2pF6dol2PYzJz12VfzAQu0CAhQ8lW+8D98LK0g4R90CAtjFedbltujeeXGcG0GQe+LYEeTJIs3C8eehvgCrr/jMoAl5zzh3p12E0y4aJvVfvPXDLkPuDUFyEyLYRVAk5YEgnm/YzdA1dbf4vvlKG1pi18ZnYefD2i3VG7JaVUDwtwbfJv6AkYwJI8WuDr68XruAAM1iOqcmpI0dqlVAUP/l2y45vpQjVxXuN0gLsFI7SJy44ZuOCXHApNx/HDU9GZePDNj9QCKD+kj7t03KXKkiZ/ZT3fldy3FTfV6wb9VBFc89HIx7l6SoCggWh2PASNKvetjeJcBqhW4BQcGS2dJZWTMv1CUgwA4GJu4qfNthKYq8X3xnq55DUwh244Km/MUzzHMnpOqVDaJK1ds2xXl8kjp6sLnjrYOyZo8NxriR7w3+ymlAgIYG+8MzaAS5nXaFdAKdAgLkOXeccMOeLqlnT6XH8NPtozHja8m++mJJ7teb964nMCAgBO5R2G31vMCYoOOyNs+P1sriYKULkfPiCgjYiIxgxcb/tAJlk3V0VIQLAlxM4LikVQ0Bcl4dCA42obs/WZjpf0BASP1nbyhNb0wZEctiEilds0Q0kdXXJziQu50GBDvCNWCkaOWNYldVrz1O21HvcslZkBlQkN7lRE15ETSXMm0/K7eshj2kCRqioTO3+d/ffsbM70XQiA7dTgUXF+v8CcmaNVaxl/1H3fSyIZnTxpgpvVqovR1dmIM1huRTJwHBfxu0h2vASMbk0WJXbUdqYiyeYkAQOaOv6fxjV+h8ic/gPRu+gCD72kvjPiaa0jkRrIo7fh4hh3duF4WCIxzHteudbgV9INR2KA7cOJJjKAOwGxCsCOegMUex7XC1u23pGRBghddp/UBA7zHSUpondlX38av2Av0rzsWqnqqAgBD4z0e7pxQHniR5wOnmIoJqtX9zzLZjVO68icEcT/IbOwHBaQZloRwwgpQDlycsDAiOZu4SB4InfEDvL9JSli92hHSBtHHD7NcHvfGU0okaIdVvPi0qBce0vJuncmwNANKoDn/1jrihnDmX/xBw4LkCBz50FUdtGxqoVW191ExBbEz7EgXEP+xoNxdlspg4uMy0ExCMCMHAEPXdc5HKgm7Irp2bx3LlO+DB61DI4Q3o/UW+Kd8ndoQOwY7SDkYNwoqgsoCAEBQDo8GcSqGbNbrw7mEwIIfef1HcECb6Ns4JfSOsLuXBhKyzExBsDO+AkcgQZ/ntlS+u1SIgwGoTCiozJp5jbG+fB59+bHH7HhCg+NNxd8hfBHWFhhxvOCRxCml8+F06PnbZYyvEhtDgLurnEVKy+laBFAcFVvppKIE9NhpLuqH21ubwFgST3fEGBH9icDTcg0bqPn3d0cN877mDfQ8I4IzicELkTjdoh3m3lc+v4T0asoCgeOV8NfnI/U+31QwPnVF57Ui05oq1H20VF4QUOcvKOkzAHtvVXgOla5eG934lzQanxRMQjA/3gBE8kBpTvxAHQv6hnwEBHI+irqJjuzOOVVkd/bthPxfc+4vE3WW0uTAdXcTVFbTfNUdJQEBI0d1zXbe3hN99WHLWkW6L37tLQnEy7V3J/8UTELwS7sFiTih8zp0KtQQZk0apX109WiexqOVAQbS/hy2qjTxLNaCIy6HQSTrg9xhJv2yEWbTXvC/Nl06uSb/8TcwdyRvTd5r9DlLHDOG1Iz/qtA6nGi+E9JlE78iO90NbXaW4JezcZ1w+kvcuuSTWgOBPDZrDOUgETgOwRFSlxr2fK891R8OlWIUXVue/h11ajCtTSlfik3r1lJbiLOfFYJ+8lkCrZSTtomFSfP8C7BxFLc6s//JtV46LpnbRdOLYEaQLmkXEe88ZxGtEusxxb8pNEi+F52fm1MTbHcXuH3ow4J3jovCcwfEIuSPWgOCycA4QgU85cotVq3iV2odQ6ujBMedgY6cDxVMdfbNbq/bH2Jb9TqXnjeJmVUI6VuIFBQQr97hHi++bD4tQrOJjN8G9Ttmfb8Okzrif1pv1NunjR8QUwBNS8exD4odQV1C2frmVQhd4YHjRmP6VuC3TDvyn5jEJeSXWgOCF8A0Oyb7qIqxOuuZooHpSg4doS0lOzE5DaOKFyVXMOauP34WHp9LxxXlASoMCjydvhBCSM3eC66vZMSz24Lka3GZjvXtJ+VP3mgGO28K7soNDGSGZsQQEPzFoCNfAEDSBQW6hm2ouSFWe/5nct7e5+9AQ+dRMc3AqFBDXfvCSZE4/X22B9tB+1q6EclW9ssGzoIAQQlLO6m/uJOuiQ++/gPqWQO0CYjcOjb48EAwMsPPX8RwIaTE4rbuA4OxwDQqB2whWrr1QzbtbQjd5hZtDw56PxE1VvfqYJ+NKCKHFKNLMdBNW2fEcTBs7VOtAAF2AYSTgpfIWTI52PoT8V3cBwZrwDAYpXbtEvFblltWhGV9M0pEH7oWqXnucQQEhxFWwI6uz4GwH04nsK8dpky8fGdgHxbwqzDpUdhgn5JzuAoK88AwGbQ/dE/3M8TKqfP4R8U4ICp5gUEAIcav41eXUUvWORCUPL4YJhS+uQaizqN620UzZ8VPflO+D1XbncyTkmlMFBP8drsEgR3Z/IH4IxWhF985L6LE98MTdYinIQQEhhCT36WXWgQVVaMYF1zjYSLvlTpQyfIAU3Dbb3BVGLwGNhOZxnc+XkPtPFRBcG67BIDnXjxc/hcZMibgzUPHMA+KnEBSo+j6EEALrZqx0J4LQSK0h+WOp2HS/5N86Eza/6F4f81hgtR3dhLOvvlj2P3izuQuAzsIaCwXM6BvR8XsQsvVUAcHr4RsQggejn6p8YQ2KrRJiLNF4rOadzeK3qt98Wun3IoQQrH4nshAoNBdmSGPal8bu+ftS/8VbUvvRVvw7nOzQsdt0iwuqilbe2PF6ErKnq4DgNIPD4RsQkjXjAvFbSF1KGTEg0OOIFSO8SPxWe9u3OBfl348QQipfXCtUMNVaXYJFK+taElLRVUDQO7yDQmp3bBW/BV/r7GsvDejK2Sw53lgrOgjpSrynCSGu2Sgn7RAF8th+E6KKV91kXUtCThicFi0guCnUA8P8UHQTtrPFqtwyrmLzA2g4FoRxQ+dHBbaiSoMqWNy59n0JISRyZj8419g2lMACVMbk0ai3gh2nZ31wIO4SlKFDsnUtCfmXaAHBG+EeFAIHhu6EVXDkVBavnA/bUrO4CrmWqtVSlo8GLvqO189+IwW3X2VMwCtEJ+1bdrXr350QQtIuPVuONxyKKxA49P6LkjFhZOfPQnGud89SCkGYNfaEDIgWEBwI96AQOBDAVq7zDgAKqkpWL4YTA4p/o64WtZTmigvC1jQazGjlIJQ7b6Iczdrtqmc0XrRxCoGZZ414CCEk+6qL0Jegu11fGC1gAenUlp1nD5D6L98Wyn21HToAG1mMOyHndw4G/tVACMk0Cowb9nwkZeuXS9bssQgSYl4tctF3GYEBJuLw1/ctbxZ1Ao0ZX7veQGbvyIHwycbL1qwHaCnJke7U/m0T0r48HRNCCMFObrSUHwQCsONMu2R4PDuvsPF0v/kZhXHGmBMyu3NAMJ6D4hCCHQT4VLs+YS5dt0zSxg3zpjPn5SOlfON9WFHxJP8/bezQLgMu7NI0pnyGF61WdnKEENqRWkFB+/Hv0AfFepbZAkEEbD4pd983yf168/4lt3QOCB7koCiAIBfUs+Y1zfkpWEFHe3hlRciRM/pK3oLJ5uc2F2WKV8LuSvr4EbF1wzyrvxTecS1qOcyxrv/sDV9ThQghBDVVVVsfVWZ5jN2CwhVzWFtg6PDOd+XIrvdEofB+w7uE9y55sHNA8AUHRRUka9ZYOXHsiOfe+2hNX/3WJil55DZzUo8di73nDJLIoD5IwfmhTgL/PfW8Icb/fp7kLZwqJQ8tMle0mnKTUPjmSz6nFQzEC9wikvufnpD3ESGEwDWt/Kl7Q5lG1FKaJ7nzJ52cTtXarGQxLWW42feHkKc7BgM/MWhReQBCMqeOiWFlh2rZn91N7j8hhJDiBxZKWNR6cL8U3TsPC1hR01ibcpPFrhr3fo6dcOvzCHm1Y0DQw60DEfY2aCnOkuiiGtO/UrRlSwghtMVOhB0BBALddRNGoFC+cVW8O9pIM+3sLkTIRx0DgmneHpxwVYeq2f5cjA9mQgghqE9IVDVEPkH6Kmy9467Zi7FBHBp+RnPpI2QPC4qJJxzZ/YGcLKpyy2oWARNCSBzAPCHBegHAwQ4Ocs5qLAb3lZq3n5GuhJqDfcuv6ervCcnpGBB86MZBCIkM7RfFIpOqfP6ROMaREELI0cxdkig6frQOvW3U9oO4deaPGlq2HCiAecap/o6Q/R0DgnI3DkLIvmVXC/VjNRdmxDGOhBBCsKKeQLUCrozR3nMHo2P9D/UCkSHdFg8TUmEFA39u0O7GQQjBAymqKDy4ux9DQgghyK1HAa1SX3/48MOu2gdht8O1sYI9afY1lzAtlcTKUSsg6OvGAQhBo7D2b45JdFFo4tP9OBJCCEk5e4CoUtWrj50UaKSOGWJOoNEErWz9cql49iGpfvNpqXlns9R/8dYPoE+NIqHJmC5jS8gxKyCY6sYBCEFjsK5FVW/bGMM4EkIIyZg0Spm/PxpT2jkHNPJCga4K1X7wki5jS0irFRAsd+MAhKDzb9eiWqvLuKVLCCExkHvDBFGhnDnjHZ1H5Ytrle9SEOI3VkCwmYOhGpL0qx7SVn9QnKrtSI0kstIvG9HNWBJCCCm841rnk/BXNjhvtnnhUCXOeRWb7tdujAkDgq84GKoh2VddJE5VsnqxGVjkzpuI7VVs1WplGdeUs0ecqvi++d2MJSGEkNK1S8WJ0LwrMrCPknM59P4L4lD4PtqNMWFAUMbBUA1BR0QnQnfjHxUp9+st+YumGbn3m6SttkK8Fl4oVVvXGwHKBLSNh4e0WWjmRHUfv9rNWBJCCEEzR7uCO1HO9eOVnQt8/Z2qaOWNWo0vYUBwmsFxDoZqCLom2n1wF6+cH5OtWvr4Efj/mm4QzfvSlFrSyfdt0pyfgjoI03kibdyw6E5KvXuZLeft6sSxI1ZzGkIIIS6syh98eb3y84FtqRMVLJmt1fgSBgT/woEgboBi2aK75yK1Jq5goOiuObaPifxQp8Lx0y4ZLkk9esZurzrgdEfpQ1kzLzzF5xNCCImc2U9KHl4sLWX5Eo/QqRfPaNXng+JkB0IqrC5jS8hxBAQD3TwIIamjB8eWVtPejqIxP7siowsmdh5sv6zQ5CZe1Wx/TlLO6h/LMQghhPziN0jbRF1Zt03F8F7JvvZStxa9nC0EzRqr1bgS9iEY58XBCHcL9i2/psu8f6TnFCy90vFx0i4+S5wIqUeOWsafM8isM4hBWOWCjZ7NYxFCCIkM7SdF99xgNvnCe6SzDr60ztXjF9w2W2wKKa9ajSVhQDDbqwMSgqLgskeXo3vxScFA/uKZqgIPJ1aneLgrsaRrqy0/hTtRvZSsvlWSevVUOLaEEMKUInR/r35rk7TVVWLRBe8cV4+JLsc4jg1hAUmXsSOkBgHBzV4fmBB0e4RbT/u3TZJ381Sln127Y6vdYmacl5qOmpePlOMNh35kU1q24Q68tFwcW0IIIUj9jAzp68mxYGzRndC3oCk3WSpfWCP5t0y33jW6QMgBBAQrfTo4Ia4UeqHozI6OZu1Weh6Z08+XE00NZmO10nW3S2Tw/8fePcBoegRwHH5rxmlUN6htt3Ft225j1bZt27bNs3u2bc58yZtbmzPPlzyLcPNf/vb2ZnbyPgdIzO87bV/1X6Yr/zox9ddP4w//MRbi/xUo/6Wiq4LeMQgeMQQpiSf2tOQx/NHr2/xt+e/4g8voASBR/xx1QOV0ut933M4edEd/xiB4wxCkJN4LsHT+nOb2QLxZObetAAC+iUHwpSFIzbQ/v27e5WAzp5b3DuQEAOCdGAR/G4LUjHjipmYFwcQvXrcbAJCjZ2IQ9DZEauh75UnNu534xkvtBgDk6J4YBCMMkSLnUY/74NnlU37+ePnMvn9ULgtbMHnsyhNG582qvD5v9JDls4f0Wv7PofvYDQDI0TUxCEYaAgAAsnR+DIKJhgAAgCwdHYNghiEAACBLe8QgmGUIAADI0uaFEQAAIFtr5xkEAADAxKDIMwgAAIB/8g0CAADg/TIIlhojOwAA8GBQ5HnsKAAAcFW+QQAAABxWBsFIY2QHAAC2KoNgsDGyAgAAS4I1yyDobZCsAADA0KAog+Ang2QFAAA+rhoEHxkkKwAAcHvVIHjJIFkBAIAzqgbBQwbJCgAA7Fo1CK43SDYAAGBxsFbVILjYKNkAAICeQVE1CI41SjYAAOD5mkGwr1GyAQAAV9YMgi2Mkg0AANinZhCsGSwzTPIAAGBhsHbNIIjGGSd5AADwZ1DUFQR/GCd5AADwYH1B8IZxkgcAAKfWFwS3GSd5AACwUX1BcI5xkgYAAEODor4g2N9ASQMAgOcaCoINDJQ0AAA4u6EgiMYbKVkAALBxY0HwlZEAACBJ/YOisSC411BJAgCAh5oSBGcaKkkAAHB4U4JgJ0MlBwAAFgTrNyUI1goWGywpAADwRVA0JQiifgZLCgAAXNKcIHjZYEkBAIBNmhMElxksGQAA0CMomhMEuxotGQAAcG1zg2D1YK7hkgAAANs0Nwii73IcC6A5D3vhYxvoPrcTNz8IrjdeVwX4oQl8bP+xx04r2Lvr6CiybQ3gdV2fu783Cgke3B0u7g7DCDCKy7grFxZzR3C3cR/c4UU7xI14QgJJIIGkIekAfffbu/7oeVw9le5On+r69lq/sQSSompS56s6Zx9yDelK8T06UPQdOL8Af8LLTQ0E/RgBAOgCgyYAXNsxEZGU++oTVJsRRzVnT1DloQ+pOuYAuYuyqOj9FyiuSzuc698HENHUQPAz5tHhIAAAMGgCwLUd17Ud1cQfofO71lB8r6jbPhbbvjXlr1xK7twUShzVC+cbQKW7kEIgEEcZAUDTNEd5LpWb6nLO0uUz31L5pxupYM1TlLFwKiUO74HX6AgEQb0+U+4bpsExILg55dquOvIJFaxe/ic/J/3RCVSXk2QGBJxzANMyfwPBEkZNAwA6lKeylMo/22gGhNjWrXBeFCAQKJeEUASCZoFrO/XBUVSTdMr3kCP35ce/eyCSnUg5zzzk+9yyve9Q/ltLcM6BosHL/sPfQBDJqGkAQLdqvFJFpdtXUeKw7jg/CAQUqJKBGgIBru1gK925ms699Kjv3/PfXGwGAdfgLpT72nzyXq+lmHtamh9LnjGUas6exDkHiobDzPA3EIgSRgBgnbZ16waV7XnbNwcXEAj8qerYgwgEuLaDrjruEKXM/NUfDASyyPjG1csUc2+E+bG4jm3NByA45xANUwMVCNYzAgDrdK/G6ouUuWg6zhUCgd+VNncsAgGu7aCSxcTJ04fcFgi8DdfoWnE2cd02ZSi2XWvyXrvq9PMNUMN+GqhAMIYRAFhnk5JWfVh8jEDgT8lgLZjXEAIBrm1ZF3DboF8CQW1aNMW0iCB3fhoVvvOM72NJkwfKegOnn2+AtcwIVCD4JbvBCACssVOVbHwN5wyBwK9Kf2Q8AgGu7aBJf2zibYvY0+aM8XUckjdUJZte900ZKtn8On9shdPPN0BbvwOB/+1HAcBulf3UAzhvCARNLdkkKnhvCRAIcG3fYa4joKwV9//Jz0ueMpDchZkU16mtk881QDQzAh0IHmEEAHrdfGXhnGtgZ0qZMVRepZsLhd0FGX51IUro2xHnDYGgyZX++EQEAlzbQSM/n+rOJVPBquUU0yry9o/f2ZKylt1n/gxMnjrY6ecaYGYwAsE/My8jAND85ntHC/NmWP7pBrObkNUq/2Q9zhsCQZPrSsqZoL4lQCDAtR3XuR2VbHnTfAtQsW83le5YRRc+32T++4Uvt5JrUBenn2eAS+ynwQgE4hQjALDPzTdpfF+6knyarJS3sYES+nfCeUMg8FXVsc/ISskmeAgEuLaDTdYLJI3rS6kPjDQXEWNnYgCflcwIViB4nBEA2OvmK7sTVx78gKxUwZoncd4QCHyVNLE/kddLqlWbHivTNxAImh+ubQC4yf4zmIHgH9lNRgBgr5tvbFQbcuelWhnQ4bwhENx2jBe+3EJWKnPxdASC5odrGwA+YkYwA4E4wAgA7HfzzXhiElmp+J4dcN58hUCQOLyHOZ1MtWQH2ei7WyIQ4NoGgObVtTkCwUxG9gOAm69M4XAXpJNqpT86AefNVwgE4vyuNWSlMpfORCDAtQ0AzecUM5ojEPyC1TGyHwDcfIs3vEKqlb9yKc7bbYVAEN8nirzXrpJqSXvImHtaIhDg2gaA5jGsuQKB2MzIfgBw882YP4UUS1r54bzdVggEonjti2SlslbMRiAIPlzbAJDKvtecgaA7I/sBwM03cWRPUq2K/Xtw3vw8b4nDulPmkplU+N7z5p9nzdmTVF+aS96Ga7+/KVz1RbpWnE2Xz3xLpdtXmQNp15Cu2g2mpQe8fK+q5c5Pk/aQCARhdm1Li8/U+0dQ7qvzqWzvO+Z1W5flIk9FCdFND/nK6yXPpXKqL8+nmoSjsk+AvH00W4XGRETinAQOwDRmNGcgENmM7AUAgUC28lety6e/ts1xWalg/n7xvaIo++kHzY48nopiCkTVJJ2i3Nfmy67U2gym81cuISslu2jrHwj0DRlWKli/lywQT7lvmLwh4mB7whz0+1uNNRVU9uH7lDx9CO4XAP45x34YikCwkJG9ACAQyMJi1aqO3o9AoFCuwV3o3IuP0KWTX1nfGdri4KnwnWcotl3rkA+mZW+L+rI8Ui13QQbFtIiwWSBAIIjvHSXTDOWNlb8BV+HnzT5KmTUM9w2AppnFjFAEgr9h9YzCFQACwT4EAg3LXZhJaQ+NDvlgOue5eWSl5PMRCHQOBBqU10vnd79NsW1b4f6hDiCP/TBUgUBsZWQfAAgEskGZalUd+wyBQNOSNxEFq5ZT9B2hG0zLugB3bgqplqyPiImMRCBAIPizdSXljPr6GQC4jxmhDATtGdkHAAKBa2g3Uq2L3+xEINC8ZCqHhIJQDaZlN2IrJVOrEAgQCFTKc7FImiD86eMBgGz2w1AHAnGCkT0AIBCkPjiKVKtky5sIBPqXnKeQDaYljEjnJNWqP59HMa0iEQgQCJRDAd4UAPxJE5ihQyAYzcgeABAI8t9cRKqV98ZCBIIAlbexwdwluibxuCzWlulYZgvGupwk8tbXkb8lnY1CNZhOmzOGrFTuq08gEIRhIJBrPBhVmx6DNQUAf5iLfU+XQPB9lsdIfwAIBJdOfkmqlTZvHAJBE8pTWUqVB/ZS/q+XUfoj48k1sLO0bPyjX0s+dnZsH3OgXB13mJpSsq9B0ri+IRtMS4ta1aovL5QuRXYMBAgENz10Jfk0lWx9ywyhSRP7/9F2uNLiWJ7uy14F8iBCQrDXc52aUtKa9Pe+BgAMZIYugUA8xkhvAAgECf07WXqKF9etPQKBYtXlnKWC1StkgCSdnPw6luRpg823CFarxnVMvnZIBr7JUwdLhxjrb58QCLQPBN7rtXTh802UuWiabErn13FIG9PidS+ZAdZqpc0b+93vBQD7maFbIPgZq2KkLwAEgtKdqy28po9VPC4EgsJ3nlUfiKu6o4UMmi1v/pT15P0hG/he/GYHqZb0tJf9FBAI9A4Eck7j+0QFfsf04T2oLjPeWujOcvn+PwNwuJssQsdAIJ5lpCUABAJ5umZp06yCNU8hEGhwfBkLp1oKBbJOIeaelqEY+EpHGEvfq+x2jECgdSAIegtkWUdjpaSrVTTuKwBrmaFrIPhrdpWRXgAQCGTRZ+OVKks97hNH9EAg0OT4cl+db23QtGRGyAa+ZXvfIdXyVJ2n2A5tHBoIEAiETEt0F2WRatWmReO+Ak53hf2DzoFAvMJIDwAIBK7BXej8rjWW5nZLVXy7S6PjQiCQ6UOXTnxBiiWfG7KBb8KAzla6Jsnmag4OBAgEQhYdW6nkKYNwbwEnm88M3QPB37BaRgDNA4Egtn1r6eZhLhhOnjGUspbNouK1L8qTtKa2DpSONwgEmh1f0vi+EuyU3/C4BnUJ2cC3eP3LpFqeyxekS42DAwECgbjw5RZrm/Hh3gLOlM5+qFsgwFsCAAV2K+kAot+AGYFAWHhLINOMQjbwjevajhprKqysV3F2IEAgkMBrZbMypy4uBujHDLsEgr9i1YwA7AWBoDruEMW0iEAg0HTQlLlkJimW7DcR0oFvwerlpFgSHqSdpYMDAQKBuHzmW1Kts2P64P4CTrOHGXYKBGIZIwDbQCCQbh/yZFfjtREIBDK1RnVjJ/k8lc2/VKspU9nkSa5669ZnHB4IEAhynptHqpW14n7cX8BJatg/2jEQ/IyVMdIfAAJBxb7dlnvCqxQCQeDVxB8hxZINzkI68D334iOkWNIFSzrOODgQIBDE94qSdTKWAySAA8xhhh0DgXiQEYDT6VyyoDPnmYds1D0JgaBk8xukWudefiykA1+ZfubOTyPVKnr/BQcHAgQCIRsiqlT5pxtwfwGn+F/2PTsHgu+zREYATqZjyZztwveeV+jugkBg52kVpTtWhXzgK12vVOtGbTXF9+jg4ECAQKC6j0V1zAHcX8AJGlgLZtg5EIhe7LeMAJxKl5IpGRe+2sYDtPtkepBN91dAIEh9aDSpVtWRj0M+8JVuMLXpMaRY0rLUwYEAgSD31SdIpWoz4nB/ASdYzoxwCATiQ0YAwYVA4L12lTyXysldkG4uEJZ1ATK4ynlurtnSL+aelmGw4RoCgewgrVp1WS4tBr5p88ZZuo7je0c5NBAgEKTNG0sqda04G/cXCHfx7AfhFAj+k11nBOAfbEyG40IgiOvenlSrvjxfm4FvdfQ+Uq2Sza87NBAgECSN60sq1Vh9EfcXCGceFsmMcAoE4mVGAM6CQIBAEHgxkZEkpT5o0mPgK7toq5b3ei0l9O3ouECAQKAeeG9cvYz7C4SzJcwIx0Dwc1bKCMABEAgQCPQ41pserQa+lQf2kmqVblvpwECAQBAb1cb/7w3A3k6w74drIBBjGQE4BwIBAoH+x9qcx5g4ujfRrRukUt6Ga5QwoLOTAgECgbijBQIBONlV9l/MCOdAIL5mBBB8GDgjECAQNF6p1G7gW/bh+6RapTtXOywQIBAIBAJwsGnMcEIg+A/mZgTgEAgECATBf4Kq/xoCH9egLubTf5Xyeq7L5yMQOGnKUIc2yntW4P4CYWYbM5wSCMR8RgBOgUCAQBCqOdb15/MCdZwh2225bM9vEAictKi4U1t0GQInyma/cFog+D47wwjAGgQCHBcCgXTf0XcfAvVOMjKdSaW8jQ3kGtLVIYEAgUDOtUp5qs7j/gLhooG1Y4bTAoG4m9UzArAAgQDHhY3JRvUi1bp08kttB74Fa54kxZJ1Bw4JBAgEyVMHq4Xdc8m4v0C4eIgZTg0EYhEjAHUIBDguBILUB0aSal34YrO2A1+ZK+6pKFFun5o4rLsDAgECQcaCqaRSNfFHcH+BcLCdGU4PBN9jxxgBqEEgwHEhEGStuJ9Uq3jDK1oPfHNffYJUq/zTDVoGgpiISASCAMpfuYRUqvLwR7i/gN2lsp8jEHzXdegKI4DwhEAgFduuNQJBwKbaPEWqlfPcXK0Dgey67C7IIKW6dUOmS2kXCOK6tkMgCKDyj9YqLjZ/G/cXsLMadhczEAi+M40RQLgiBALpjINAECAXv9lBqpVy3zDtp8ZkrZhNqnXh803aBYKkcX0RCAKoLucsqZS8ScD9BWzqFhvMDASC37edEUA4IgQC6SqDQBAg7rxUUq34nh30nyt/d0uqzYgjpfJ66eyYPloFgsxF0xEIAiS+RwcLf+7TcH8Bu1rKjD8MgeCXLIcRQLghBAIZxCEQBEB8nyhSLXdBum0Wz6Y/PpFUS96Q6BQIite9hEAQIFnL77P+MwXAXnYzA4HgT2vPPIwAwgcCgVT6o+MRCAIga5n6gKn843W2CQSy+3J13CHltwRJE/ppEwgunfwKgSBg0+F2Ku9SHHNPS9xfwG5i2I8RCNTMZaQ/AAQCb30dqVb+r5chEARAxb7dpFo5z86xVXvNlFnDSLUq9u/RJhA0XqmSaU8IBAGYLuT1XCeVunzmG9xbwG7y2D8wA4FA3U5GegNAIPBcLCLVqjr2GQKBn+K6tSdvwzXVjjwyvchu/fallaT6W4LJA7UIBFLJUwYhEPipYPUKUi3Z1A73FrCRqyySGQgE1vycpTLSFwACgWwMpFjy5E8GtAgEfih8+2lSreqYA7bcgCtpfF9zsK9SlYc+DOYxKIcvqeK1LyIQ+CGuY1vyXCq33tlJfwCNrD8zEAia5i5WzUhPAAgEZXvfIfXyp00gAkFC/07mvGnVOvfiI7bdkVc2IFOt5KmDg3YMnqrzpFqeimKKbdsKgaCJSra8Sarlzk/DfQXs4rdsOjMQCPwziN1ipB8ABAKZo26l5Amg9fajCAQyP73qyMekWp7LF2QjONsGAteQrspzyauOfhq0Y6hNjyUrJVNeEAisk70y6KbH+nok/QEsYQYCQWAsZqQfAAQC18DOZLUqDuyxsgATgeAOxaenfrTB1PHaLN22klQrZcZQUq1gvgGTRfbJUwYiEFggO0/L2xXFkrdkvqmHmgN4gxkIBIG1kREAAoF+quMOk9WSdpgxEZFhFQgKf/M0Rd8Z2KAT26GNuTOvhZK3A7IZme0DQXyvKBn8Kbf9DMYxpD8ynqyWp7JUpjGFVSCQzlYJAzoH+njkz9fStCypwveexz0F7GAt+x4CQeD9mB1jpBcABIKMhVOpKXUl5Yy0mQzMQtRJA6ji212hDAS+uc3FG16h1IdGU0xk0wNPzL0RlLViNrmLsshqnXvpUfk9bB8IROE7z5J6Bf4YJODVnUsmqyWLkQvWPCWBLiAb0WU/9QBVR+8PVSDwNQWoPLCXcp6bK28G/XsrMKw7lX+60Vw8bqXqS3N9f6YaA9jDfsAMBILg+CuWx0gfAAgEMv2nJvE4NbXkDUP+m4vMecTxvaMopkXEH+5C0rWdOb0gbe5Yc8Fsyda36NLJL9WnGwQsEKhPbZCNtkq3r5K1FtKW0nzqHX3H738d2WDJNbgLZcyfIsdlqZ3r7b3Zv5XfK2wCQWxUG/UnyEE6BjknTa3G6otU9sG75u67SRP7y/X9B4Oi/Dd5Ap88bTBlLp0pLTXN3ZjdhZlBO05/S3bBlu+xYPVyc9NB16+6U2zrP7yoOq5zO/P6z31tvuwfYDkImHXTI0Eb9xPdwRfB33gMgUDcxSoYASAQ6ENaAMpTUf0r+IFA5UmrLK6+Vpwtgyrzn72NDeRnye8nGzs16fzpfG3mvr6AAlmB3z3Xntd3sKqxpsKcNuXOS6X68kJz07ZAVN4bC3Ev0R3sa74wgEAgWrOrjAAQCPSRuWSmPPlDIAhBycArcXRv+Z7DLhDEtIo0p4oEqpr6pqI2LRqBIDQl0/B8b9Y0BXCQ/YQZCATNqz9rZASAQKCPnGceklf7CATNWO6CDJmT3SzXZwivq5AGAiHtcmXdS7MWAoGsxcA9BOwQBn7ODASC0JiAPQoAgUA7Ms9X5vWHRSCQ9QqyqFTTkkWeCi0Y7R8IZF1EXZaLAlF+d336YjPZoJR6/8t8fk1LptJJwwLcP3QH34b+zQACgXiQ/ZYRAAKBPqTtZdmH72k3hai+PJ9KNr9OSRP6W+r4k/30g1QTf0Sb46kvy6OsZbMUp1HYPxCoL+5tnmPIXDzdnMakVd26QTUJRyl/5VJKHNFD+VikRarstyADcC3K65WdqmUBPu4dgAXECASWLGQEgECg52Lj8o/WmgtpQ1GyuFGeoue/uVgGPtIRye+gk/Xk/TJgMQflzV3ylFw6LMW08nWqcUwgkPBT4zqmRSAQsW1bmedCFs+GomQhukxhkk3rMhdNl2vT77cwKTN/RYXvPiedvwKx0N3ypm7SkUl+ZuCeATawl/2IGQgEelnOSE8AIC1Dc56bR1XHPlPcbMp6S8K6nCS68NU2Knz7aXmarNAr3X+Jw3vIfgHmoMwcRF2vpUCXDDhLNr1OqbOHB2thpW3CauoDI5s9ECjsVSA7JcvOynKugjZ9pjp6n7SwlRAi4dbX4jNYYtu3Nqf/5f96mdllSbpYBbrk/5fKQx/K3gbyM8IuP88A1rLvMwOBQE/PMtIbAMg+A9JvXRaKykC34sAemY4jm3CZA58bVy///z7uvhadtemxVHX8c9nlWLqOmBtwpc0bJwtq/dj1OPCDQ9egLpTGAyn5/uT7lO9X9kuozYjzHaPsJnxbm0b+b+7cFHMfgfJP1puhJv3xiZTQv5PNzi8k9OvEgXSyOXVHzv3l019TXWY8eSpK5DzL1B7fE3H5d/nvcu6rYw/KjsAy6Jfe/rIfgfTul8XM2hybdFuSTQClo5jslSBP9KuOfEw1SackDPmOkY/Nt0Gb/LtM1ZPPkf/XJTjJw4HkKQMVNu/TDsArzBAIBHp7ihEAAAAAQIB42QJmIBDYxxMBWGgMAAAAANDAxjMDgcB+HvCjJSkAAAAAQDXryQwEAvuazG4wAgAAAACwIJe1YAYCgf2NZA2MAAAAAAAUnGR/ywwEgvAx4P/au2dAbZQrgKLzzNi2bdu2bdtJFdu2bds2m9i2XvjfyY7tiw+rWH179jA/zPwXAADgidk7QxCsnpPnK5l/AwAAfpEbZ6wqQZAcPZ/I/AMAAPhKzpTBqgdBcoi8NhMAgLX3lhwhg3UJgmTPPDoTAIC19cDsmbF2BEGSm+RXmQAArI0f5woZCIKRc+RbmSsPAICP5UQZCIIkOXo+mLmyAAB4ZPbNQBD8I/vmsZkrBQCA7+QSGQiC/8TV89PMpQcAwCtzpAwEwX/jJPlo5lICAOAnuX52y/hfCAL2yQOzkbk0AAB4S46TwWYEAefNVzMXGgAAP8qNs1sGmxkEHCYvzlxIAAC8NsfM2EqCgOvlh5kLAQCAr+dKGWxXEHDUvDRzxwAAsCuPziEzdoIg4PL5Rua2AgDgzTlVxk4TBBwqT8xG5pYCAOCLuVJ2y0AQLJJz51OZAABsuh/nLtkvA0GwqPbOXfLjzP8bAAAbeUqOlLEsBAFHy7Oykfk/AQDg9Tl9xrISBJwx7878jwEA8N6cJ2MVCAJ2y5Xy6cx/CgCAD+Xi2S1j1QgC9soN89VMAACSfEAICIJ1sl9um29mrjEAgLfmwkJAEKyrA3KbNfvYDABgV16SM2WsPUFA9s/N8oXMFQUA8JM8OifM+HsIAvbMVfOxzBUBAPCF3D6HyvjPIAg4b16eXZlLBgBgV16Zi2WPjP8NgoDj5SH5XiYAwIL7au6VY2YgCNg8++VaeU8mAMAC+XmelwvbDRAEbI+T5UE7+GwpAMCuvCnXzaEyEARsv71y8Tw7B2VuIQCAjbw7t85RMhAELI4Dc9W8Ij/PBADYBL/Om3OzHDUDQcDiO3iunBfkx5n/BQCA7+bZuXIOnbG8EATsm/Pn4fl85t8AAPh13pW75WzZM2M1IQg4fm6Sl+QHmWsHAPh1PpSH5FI5ZAasXxCwR06bW+Ul+XbmygEAfpQ35B65SA6R8Y+AIOB4uWoenvcs3etFAMCP8rY8LNfKSbN7BvwvQQB75qS5au6XV+Xz2cjcMQDAQflQnpU751I53nYN/wgCODCnzuVz5zwpb85nNuXZUwDgF/lc3pan5165Ts6Ro2S3DFjUIIAj5lS5cK6R2+X+eXyen9fnA/lEPptv5nt/8KvMJQYAv873/sLn8ql8IO/MK/PMPDL3zK1z1Zw/J8sRF2Hgh98AUId4035XjnQAAAAASUVORK5CYII=;" vertex="1" parent="1">
          <mxGeometry x="269.97" y="110" width="70.05" height="50" as="geometry" />
        </mxCell>
        <mxCell id="3YkeIVCK8skrJ31NGnf8-12" value="&lt;span&gt;&lt;font style=&quot;color: rgb(0, 0, 0);&quot; face=&quot;Helvetica&quot;&gt;Secured &lt;b&gt;PubNub &lt;/b&gt;Access Manager (&lt;b&gt;PAM&lt;/b&gt;) for auth, AES-256 payload encryption&lt;/font&gt;&lt;/span&gt;" style="text;strokeColor=none;align=left;fillColor=none;html=1;verticalAlign=middle;whiteSpace=wrap;rounded=0;fontSize=10;fontColor=#000000;" vertex="1" parent="1">
          <mxGeometry x="240" y="60" width="140" height="50" as="geometry" />
        </mxCell>
        <mxCell id="3YkeIVCK8skrJ31NGnf8-15" value="&lt;span style=&quot;font-weight: 600; font-family: quote-cjk-patch, Inter, system-ui, -apple-system, BlinkMacSystemFont, &amp;quot;Segoe UI&amp;quot;, Roboto, &amp;quot;Noto Sans&amp;quot;, Ubuntu, Cantarell, &amp;quot;Helvetica Neue&amp;quot;, Oxygen, &amp;quot;Open Sans&amp;quot;, sans-serif; text-align: left;&quot;&gt;&lt;font style=&quot;font-size: 10px; color: rgb(0, 0, 0);&quot;&gt;Publishes encrypted data via SSL/TLS&lt;/font&gt;&lt;/span&gt;" style="text;strokeColor=none;align=center;fillColor=none;html=1;verticalAlign=middle;whiteSpace=wrap;rounded=0;" vertex="1" parent="1">
          <mxGeometry x="130" y="140" width="120" height="30" as="geometry" />
        </mxCell>
        <mxCell id="3YkeIVCK8skrJ31NGnf8-18" value="&lt;span style=&quot;font-weight: 600; font-family: quote-cjk-patch, Inter, system-ui, -apple-system, BlinkMacSystemFont, &amp;quot;Segoe UI&amp;quot;, Roboto, &amp;quot;Noto Sans&amp;quot;, Ubuntu, Cantarell, &amp;quot;Helvetica Neue&amp;quot;, Oxygen, &amp;quot;Open Sans&amp;quot;, sans-serif; text-align: left;&quot;&gt;Subscribes to channel via SSL/TLS&lt;/span&gt;" style="text;strokeColor=none;align=center;fillColor=none;html=1;verticalAlign=middle;whiteSpace=wrap;rounded=0;fontSize=10;labelBackgroundColor=none;fontColor=default;" vertex="1" parent="1">
          <mxGeometry x="370" y="140" width="120" height="30" as="geometry" />
        </mxCell>
        <mxCell id="3YkeIVCK8skrJ31NGnf8-26" style="edgeStyle=none;rounded=0;orthogonalLoop=1;jettySize=auto;html=1;exitX=0.01;exitY=0.99;exitDx=0;exitDy=0;exitPerimeter=0;entryX=0.5;entryY=0;entryDx=0;entryDy=0;" edge="1" parent="1" source="3YkeIVCK8skrJ31NGnf8-19" target="3YkeIVCK8skrJ31NGnf8-24">
          <mxGeometry relative="1" as="geometry" />
        </mxCell>
        <mxCell id="3YkeIVCK8skrJ31NGnf8-41" style="edgeStyle=none;rounded=0;orthogonalLoop=1;jettySize=auto;html=1;exitX=0.5;exitY=1;exitDx=0;exitDy=0;exitPerimeter=0;entryX=0.5;entryY=0;entryDx=0;entryDy=0;" edge="1" parent="1" source="3YkeIVCK8skrJ31NGnf8-19" target="3YkeIVCK8skrJ31NGnf8-29">
          <mxGeometry relative="1" as="geometry" />
        </mxCell>
        <mxCell id="3YkeIVCK8skrJ31NGnf8-19" value="" style="sketch=0;aspect=fixed;pointerEvents=1;shadow=0;dashed=0;html=1;strokeColor=none;labelPosition=center;verticalLabelPosition=bottom;verticalAlign=top;align=center;fillColor=#00188D;shape=mxgraph.azure.server_rack" vertex="1" parent="1">
          <mxGeometry x="520" y="110" width="50" height="50" as="geometry" />
        </mxCell>
        <mxCell id="3YkeIVCK8skrJ31NGnf8-20" value="Cloud Layer (AWS)" style="text;strokeColor=none;align=center;fillColor=none;html=1;verticalAlign=middle;whiteSpace=wrap;rounded=0;fontStyle=1" vertex="1" parent="1">
          <mxGeometry x="480" y="40" width="130" height="30" as="geometry" />
        </mxCell>
        <mxCell id="3YkeIVCK8skrJ31NGnf8-21" value="&lt;div&gt;&lt;div style=&quot;&quot;&gt;&lt;ul&gt;&lt;li style=&quot;&quot;&gt;&lt;font style=&quot;font-size: 10px;&quot; face=&quot;Helvetica&quot;&gt;Hosts Dashboard UI&lt;/font&gt;&lt;/li&gt;&lt;li style=&quot;&quot;&gt;&lt;font style=&quot;font-size: 10px;&quot; face=&quot;Helvetica&quot;&gt;PubNub Subscriber&amp;nbsp;&lt;/font&gt;&lt;/li&gt;&lt;li style=&quot;&quot;&gt;&lt;font style=&quot;font-size: 10px;&quot; face=&quot;Helvetica&quot;&gt;Serves REST API&lt;/font&gt;&lt;/li&gt;&lt;/ul&gt;&lt;/div&gt;&lt;/div&gt;" style="text;strokeColor=none;align=left;fillColor=none;html=1;verticalAlign=middle;whiteSpace=wrap;rounded=0;" vertex="1" parent="1">
          <mxGeometry x="550" y="115" width="140" height="40" as="geometry" />
        </mxCell>
        <mxCell id="3YkeIVCK8skrJ31NGnf8-23" value="&lt;font style=&quot;font-size: 9px;&quot;&gt;&lt;span style=&quot;text-align: left;&quot;&gt;&lt;font style=&quot;color: rgb(0, 0, 0);&quot; face=&quot;Helvetica&quot;&gt;&lt;b style=&quot;&quot;&gt;AWS EC2 Instance -&amp;nbsp;&lt;/b&gt;&lt;/font&gt;&lt;/span&gt;&lt;b style=&quot;background-color: transparent; color: light-dark(rgb(0, 0, 0), rgb(255, 255, 255)); text-align: left;&quot;&gt;Node.js Web Server&lt;/b&gt;&lt;/font&gt;&lt;div&gt;&lt;span style=&quot;text-align: left; background-color: transparent;&quot;&gt;&lt;font style=&quot;font-size: 9px;&quot; face=&quot;Helvetica&quot;&gt;Security Groups, SSH only from my IP, HTTPS only&lt;/font&gt;&lt;/span&gt;&lt;/div&gt;" style="text;strokeColor=none;align=center;fillColor=none;html=1;verticalAlign=middle;whiteSpace=wrap;rounded=0;" vertex="1" parent="1">
          <mxGeometry x="455" y="65" width="180" height="40" as="geometry" />
        </mxCell>
        <mxCell id="3YkeIVCK8skrJ31NGnf8-24" value="" style="shape=image;verticalLabelPosition=bottom;labelBackgroundColor=default;verticalAlign=top;aspect=fixed;imageAspect=0;image=data:image/png,iVBORw0KGgoAAAANSUhEUgAABLAAAAIJCAYAAAC1NMRIAAAAAXNSR0IArs4c6QAAIABJREFUeF7s3QmYXEd5L/z3rTqnu2cfSbNptFi25U0GDJYdAyYgkxhjMIsdrAQS8kASTCCsF25yCeRm+O6XEMDg5PKF7wtZICE3EDusZgurWIzxIpt4kW0sy1pGo9n36e2cqvejqmdkyZas0Ux3z+me/3keuds93edU/d6anun/1KnDhA0CVRbo3PHW5iofEoerQ4Emysb7d30mX4ddQ5cgAAEIQAACEIAABCAAAQhA4EkCDBEIVFsAAVa1xevzeAiw6rOu6BUEIAABCEAAAhCAAAQgAIETCSDAwriomMD1N9+sD9xJm90BRgYnn2lis8Xdb+3ZsqliB8WOV41AU1M627O+fcx1OMoXHxodPLjX3b/zxp2PrxoEdBQCEIAABCAAAQhAAAIQgMAqEUCAtUoKvRLd3NH3g2B2duJ8d+zx0dEXRPnoQne/ff3ZW1eiPThmfQk0NqZn1ve0Dble5Qq5O8cGh+519+++8boH6qun6A0EIAABCEAAAhCAAAQgAAEIIMDCGCiPQF+f2kEvUjMDv+AjRGGqmEoFLGG6If0MHzDMZC+LTXyeu9/WtcXPyhJmZiKMwfJUYBXthS2Rpabmhrme7rbSDKyoeM/s9IQPrta0dvsg6xdTj2YbBiakpfdc2dV3hXFDbhUhoasQgAAEIAABCEAAAhCAAATqSgDhQV2Vc+U6s+2tNzc3pXWXoUBNjo+cFxcLzySmjOLwKt8qxZ0i3ObuNq9bn3O3HISNilVq5VqNI9eigCI7y8RRc0tD0N29xo8fY+IxsvFEqT/8FfffoSMjX8vn8nlOcbGl4Z6BXX19cS32F22GAAQgAAEIQAACEIAABCAAAcx+wRgok8Blfd9ojbL5DcqSnhwee3ahWLyMiBq0Cl5ZCrBUM7FqcHcb13T5WTMqTDcrpdNlagJ2s0oEFMkUi0QtrY3prq72FtdtsWZOrMm6+1bk393t2ODwZ3OFbDZmW2hvWvf4rr4rEGCtkjGCbkIAAhCAAAQgAAEIQAAC9SeAGVj1V9Oq9OgF/+Nra9yBDjx+YKtSOlABdWidPodZAhObM42Rc4kkxYouKjVIpYkpKAVYPX6mjApCBFhVqVZ9HUQRTTFR1NySSXd1tDf5AIskYqZi6T7d5W4LhfwuNqZASmXDILyfFBULhWhsemRkJCdZu/vDO6fqSwa9gQAEIAABCEAAAhCAAAQgUL8CCLDqt7YV7dkl7/2iX9tq+PCR3xahZsW8kZS+lIVSolQjs/LBAolbesjfsSxi3b2GdRt8cKB00MzMmIFV0UrV3861UlPuFMKmpnRq3dqmRj+WAq21Do97P7OmOEbiJmTJtBDtckuxFfPFe4aHBu5Slop3fvy6X9SfDnoEAQhAAAIQgAAEIAABCECgPgUQYNVnXcvbK5HSONl5i6KRPf7+JRc/45k+wDoy/FoXYDHzBmZ1iZt1RUo3IMAqbwmwtycEFh1gxdG4kLVMPCVEPxKSfKFQuHdyZPhuJVwMG1oecXvt3DYit1x/vQ9XiRkLvWOwQQACEIAABCAAAQhAAAIQSKAAAqwEFiVJTdr+Jze3qaLa6MOq4ZGXWiu97r5itdN/3tdBpxDp0kd/q0ptF37iem/zeQCTZSHMwEpScWu0LScMsBRrVur49zOR0uBjJqUC45b8EzGz1sSzxDwnJF93X46ieO/wwYM/cvfvuuk1D9YoC5oNAQhAAAIQgAAEIAABCECgrgUQYNV1eZffORdgsQk2uT2NHhm6xhi7wd3XKvhNv3cdrHX/9SsPlc4QLK1CNJ8dHG0BAqzlFwN7KA25E51C6AIs5hO+n7mHWbvl19gt9p71C74zzYmVr7n9FU3h0eH+I9939+++8boHwAwBCEAAAhCAAAQgAAEIQAACyRNAgJW8mqxYi7bfcHcYtY6lfFjVf3itCmw6CNW6tE6d4x4r5LMvELFd7j6TusI3VKlW999SYLVw9hUCrBUr4io48OkGWPMzsOZlJG+tzRNRnohvdw/GsTkY52d3u/tNzWv9Y7NTY1OHx3PZsLkou7flCrRz58JibqtAGF2EAAQgAAEIQAACEIAABCCQPAEEWMmryYq16Dnvu7lTR0G3a8DY4PBL49icwUptUaR+1T0mSjUxK38lwaOLsx+ddXWKZmMG1orVtd4OfNoB1jEArDS5f8duYk1M7mqFRGRIPu1uc7O5XWNjQ4+I2DjilkP33XjVXL05oj8QgAAEIAABCEAAAhCAAARqSQABVi1Vq8JtRYBVYWDsviwCCLDKwoidQAACEIAABCAAAQhAAAIQqCkBBFg1Va7yNXbr27+Rbm3In+X2OHpo8I3uVhGfR0r5qwsS67XEnHHzrkjs/KwrdzXCJV6kDTOwyle8Vb6n5QRYJ6Wbv+yA0qmie441ZpLEZIUoL0R3CtGwiczgwJGD33Rff2XjfY/09fUtLPq2yiuC7kMAAhCAAAQgAAEIQAACEKi8AAKsyhsn8gguwGpP5/3aVkP9R97sAyylzmdSF/kGK91GzKnjFmc/bp2r0+wWAqzTBMPTTyZQkQBr/mAq8EvAucXeZ8SavJDkSfhnQjJkrR0YOHTwVvf1a5qv3dPXxwiwMEwhAAEIQAACEIAABCAAAQhUSQABVpWgV/Iwl739X1ttJtUYZ6P02NTMuWKpUZE06yC43LXLWPtcd8ui1hJT53xb009cXfCYxdmX2hEEWEuVw+ueJFDJAOvo+lhMRSKOScgt3j5AJFkRmjbFwsP+eyXQ32HmOIriqaGBx/1jdmpibPen3hyhYBCAAAQgAAEIQAACEIAABCBQfgEEWOU3Tdwet7/rC+s54HWFXL5lamLqKhKzlki1KaVf6RurwrZSo90pgvObGDcNpXx9QYBVPstVvqdKBlgLtKwDYlZPSDOJWDEUR+4KhhQr+Ve2FBmxh48cPPh191ho4sduv2lnbpWXB92HAAQgAAEIQAACEIAABCBQEQEEWBVhXcGdijB9kHxdt+z/jD8fqrmlYYMmtS4qFltmZ6avJEtrWHErk3qZb6kOWp/SYomJ/CmDZdoQYJUJErtZkQDLsYs1No781QqF1eeFJI6NHZgaHvHrYjWGtHf9Gens3IEuewtti32l/pyEmMv4jYT6QwACEIAABCAAAQhAAAIQWJ0CCLDqrO7Pe/fNa2NONbluDR0ZeJGLp5TS25TSm0kkbYnPIpIGN2GESTb6D+NE4VMDLPeZu4yfuxFg1dlIW7nuVCXAYvfWePzbo7hvCLHulEJiFewnxVasnTFR9Kh7TDHfToqnCvnCwNDI8COBRDagYOq2j7xqZuW0cGQIQAACEIAABCAAAQhAAAL1IYAAqz7qeLQXl/3xFzYay+3ugZHDg2+0IinF6mJmdY64MEvrViGev6qg/yxe3lMFT+aJAKvORtrKdacaAdapend0sXexkZh40j3fEn2HRMajKH5odODIT6xmY2Me2v2xV4yean/4OgQgAAEIQAACEIAABCAAAQg8vQACrBoeIddff7Oe7WkOcuuG+PG9k2tcVxqa1m7RxB3u/sz03G8wu9lVahszneHmjZBSzaXF2Y8Jrsq51hUCrBoeUbXR9EQEWLo0aVHExiTWz7CyRD8V4SlroseyM9ndiqzVOtXfkEkN6lSDzD58YMI975ufuNotEF/G6Y21UTe0EgIQgAAEIAABCEAAAhCAwHIEEGAtR2+FX+tOF4x00BvHcTA2OPL7rjlKB89joa2+aaW1rY6psRD5M6BW4LMzZmCt8Gipn8MnIcBa0HQLvbsF34/dxJqYjCkIsyWReyzJ/e6brv/A/k+55zU3r3l4V98VpTWysEEAAhCAAAQgAAEIQAACEIDAogQQYC2KKZlPQoCVzLqgVZUVQIBVWV/sHQIQgAAEIAABCEAAAhCAQBIFEGAlsSonaNNz/8eXtkRRLjMzW9xQmMk+z5JNK9JnMuuLSYRF603uZSzWXXlw/hRBUU/d1QrMvvINI8vizrIiali3YcrdKh00M3O6RkqAZiZEIEkBlp/g+OR30dLVO/1/WOmIlYrcd6aJ84c8Iauvi0jeWpkeGTn0rWI2G6VsMHz7TTvHE0KMZkAAAhCAAAQgAAEIQAACEEicAAKsxJXkxA26+N03b1U6yMyOzWzJFeZeZK1klFJnM6lLhIhZB37dK78ST+kDdHUWZ1+sHwKsxUrheacQSFaA9fSNZRUQq1KObOPiiP+2JPqKC7BIaHJwsP9LcTEuiuQHd3/sdVjsHaMfAhCAAAQgAAEIQAACEIDASQQQYCVwaGx9+/9Ob1z3TF+bRx/d64Oplsb0hUyqsRgXN5hC8VJLlGamjUy8jdjNAlF+EXc6dkH2aizOvlg/BFiLlcLz6irA0uTWySp9axq/iLsQ7yKyRRGZyc/MfVfERErrg5mGlkEykTlycN9kuq1TZta3mN1vviTCgIAABCAAAQhAAAIQgAAEIACBp578ApMECFz67i+cJZobXVOG+o+82d1qpa8h4jWkOCTWDccvzu6mdyT8cy4CrASMrPpoQi3NwDpWXAXu7N5jNiFrTTHP4k4CpjutyING7PjQ4SNftCYyWmUm7/jIy/rro2roBQQgAAEIQAACEIAABCAAgeUJYAbW8vwq8moEWBVhxU7rRAABVp0UEt2AAAQgAAEIQAACEIAABCBwGgIIsE4DqxJP3f6eWzuMiZtz0zMd2dzMr7hjKBU8j5nXlo7Hz/A3Ip1CErI/X1D0SRaOrkQTy7NPzMAqjyP2QrUaYC2cSrhQQmFyc7DconXEKpgiVrMiNm/j+DERK8R8mFj93D3/wGP7v+Fui8VodM8nd85iGEAAAhCAAAQgAAEIQAACEFhtAgiwVrjil/3xFzYay+0zE1Mbs3PZl5cCLP1iJu70TdNB6davZ5XAxdkX64cAa7FSeN4pBGo1wHq6brHS7oqFJCKxmHhi/nv9gBX5mXtd/4H9f+du42bu/3nftZMYJBCAAAQgAAEIQAACEIAABFabAAKsKlb8srf/a6s73OjsVFshz37R9YZ0w1bS0mkj0xXH5rnuMWZ+JpG0+aZx4F/jry7oAiyfYc0HWVVs+7IPhQBr2YTYQUmgPgMs5S7E4LpnyMqc/35nNSxCv3AP5rOzX3W3SgV7VYMeEatNPD09PH7kYEEFqej2m3bmMD4gAAEIQAACEIAABCAAAQjUswACrCpW97L3fHmbO9z46MhF+WLhEv+BlINfYeIziDktrPxpgyzuFMGjs63qo0YIsKo40ur7UPUYYB2tGDMpHS4k1G55d5dckzHFI/PR9Z3ujEIRyc1MTn5/bnJm0ArN3PXxVx+q76qjdxCAAAQgAAEIQAACEIDAaheoj3CkRqp4yXu/6Nezmhwaf04hKvj1rrRSlxGpLcScIqVLs65q/XTBE9UDAVaNjNLkN3MVBFhPKYKNiyPzAdYdIrLfBVizMxPfmZqYPiI6mN794VceTH7l0EIIQAACEIAABCAAAQhAAAJLF0CAtXS7k7+yr09dOLWtPZVp1tHUVGZqctLPvEqn0le42zg2m4XozNIO7CYWbicmTcSZ+cee2LfU4OmCCLAqMaqwz3mBug6wiImVP5Xw+M2aOf8Aq35Syq2RVYyLxT3WmikiHk0FqfvdlwfHhu/PFuKoLd0Q7eq7Amtl4bsGAhCAAAQgAAEIQAACEKgbAQRYFSjljr4fBJNzY2cGotJRNt8+Pj7xm+4wWgX+VpRqZFZN/tBHZ1u59a3qJKxCgFWBUYVdLgjUd4D19HVmHdD81QytNdE0iUTE3G+tvc29cmJ4/F/mctM5NqnsXTddsw+jBgIQgAAEIAABCEAAAhCAQL0IIMCqQCURYJ0AFacQVmCkrc5dIsDyM7QQYK3O4Y9eQwACEIAABCAAAQhAYNUKIMBaZun7+vrU17LbziEbhOMjY5dGheLF7uKCSukdTNwqTAGrwF9xkMSUjuZnWtXxbKsTmSLAWuZIw8sXBFZzgPXEKHCLvQfukqXHDQwbF8fmL1k6akW+5744Njz6+VxudkpSMrb7L64bJF64QgTGFAQgAAEIQAACEIAABCAAgdoRQIC1zFohwFokIAKsRULhaacSQIDlhBBgnWqc4OsQgAAEIAABCEAAAhCAQH0JIMA6zXpu/++fP9u9ZHxw6mJr4jPEitY69WJiahTidUS0TogUk21hIS3ukya5BdrdtspmXR1riwDrNEcann4yAQRY8zJPmn3lYy2lY3/LHJPQtLtvTfS4O99QmPax4getcFzIzu0ZHTn8aKjT5md/de1+jDYIQAACEIAABCAAAQhAAAJJF0CAdZoVuuS9X3yGe8nEkdEriiY6VxFrVvplRNRISjURq8ZSVmWfCKz8/VW+IcBa5QOgfN1HgHVySxWEfnbWsZuNo/HS+cvyqBX+uYjExVz2zpGR4f+yMZl7/vq6h8pXHewJAhCAAAQgAAEIQAACEIBAZQQQYJ3MVYR3fHCXnhn4BQ9NzAUpakq5pzZ2Nz7H3c5NZS+3sZwtZF2A9WK37hUzNxKrhlKAdcw6Vwiw3Gdqy0I+yWtYt2HK3SodNDNzujJDG3utVwEEWKcKsI7/ujXxpA+whB63RA8ScxwV8vfMTU/sIQnizt4197tX7CPK0u7d1NJ7ruzqu8LP5MIGAQhAAAIQgAAEIAABCEAgKQIIsE5SiWe99z+bApNfr0LS08PjZ+fy2ee6p2odXOdfwqpDiJtKL7cZJlEk7pwemTddxacLnsgUAVZSvudrvh0IsJ6uhPzkCVguTPfBMSsdsVKREIsYM0lipq1QkUi+5r4+Njbx5Vx2do4jHd110zX7an6goAMQgAAEIAABCEAAAhCAQF0JIMA6STkv/+OvtOSKZqMKSE+NT5yXz+Z3+ABLBb/pX6JUK7EqzR5azVcXXOy3AwKsxUrheacQQIC1tCHCShErd+VCEjF2TmycI6KCFfmy2+PE8Pi/zeWmZyjS0d1/86pfrO5F+5ZmjFdBAAIQgAAEIAABCEAAApUTQIBVSqD4We/9Uqe7N3l45FxrTUsYqk6tgouEKSWWOmJrz3JfZ6IL58uRZuagdH9+jSt/2iC2EwogwMLAKJMAAqwlQjITsyq9mKlIQhERGyF62D1kivl7RCQvQnmVCn/MIjKbLewfHjkyJkEquv9DL58kZrzJLZEfL4MABCAAAQhAAAIQgAAElieAAOuXfn19or42+6VtjnL0yPArjDG9zLxZK+XWtsoIa3bn33hqzLZa2ohDgLU0N7zqKQIIsJY/KNzb2cJb2sLe3NLuJGSFaNYw/YcLsHK53K6x4aFHOJDsXY+ZA3TLTrP8o2MPEIAABCAAAQhAAAIQgAAETl9gNQVYbn0qor4P8vaB9T6Mmpigxjg0KiNaZ9Y2XeQem56avdIa20PMvYr5ciJKEysXYJWmLiwsyH7sIu2n7776XoEAa/XVvEI9RoC1fNhSgDU/G2t+dxLHefFvcJIV4W+4Uw0Lhdztudn8XtE815Jp2WsbU0bPTMeHH3sw7162+1NvjpbfGuwBAhCAAAQgAAEIQAACEIDAqQVWTYC19eq3p2dMOuho602nz9zS7WjGDg1eIyQdTBwopXe6xyyrdmYOyS3Kbm3wxKLsC1Q4g+bUw+oEz0CAtSQ2vOipAgiwyjQq3DUnjt2kdA40EwsHoQ+mJI7nRGxBSEYt8XdZUWSi4r7DA4d/5L5+z0eue6hMrcFuIAABCEAAAhCAAAQgAAEIPK3AqgqwpnImXLd5Y7q56/z1TmVkYOhaa20XM4WKg9/yH9iUbiqtbWWJLM6WKdv3DwKsslGu9h0hwKrsCGC3VpYO/UHEmAJZExPTsCX5tghFcVTcOzgw8D339btvvO6ByrYGe4cABCAAAQhAAAIQgAAEIFASqOsAa/vf3R22/Ne+dNQ8w/1Hsh1xsdgaqHRjprHlAtf5Qr7wqyLSTiwBkbrCgzBniFmTm4ywsN4VRsvyBRBgLd8Qe/ACCLAqPBCYSWl3ljUTGROJ+DfCSav4biaObRz1F3PZe1wr0k0tt7nb/PTARK5/Njfe2Cb3Nb8kR308f2WLCrcVu4cABCAAAQhAAAIQgAAEVo1AfQdY77m1QwXSbUxRTw6PvyAqRhcwU5dW+jpXYeFAu8TKV/vo4uz43FWR0Y8AqyKsq3GnCLCqX/XjZmVZG5OJC64VhuTT7jabzX9vfGRwbxCTYY73337Tzlz1W4kjQgACEIAABCAAAQhAAAL1LIAACwFWdcY3AqzqOK+CoyDAqn6REWBV3xxHhAAEIAABCEAAAhCAAASOF6jLAGv9Ve94JwmrsGXD5Srd+mIiVqR0AzGn/JUIbYxxUG0BBFjVFq/b4yHASk5pVZDyjRE3I8va2IrMjk7M/s3U9Nx+YrvvvhtffkdyWouWQAACEIAABCAAAQhAAAK1LIAAq5arV0ttR4BVS9VKdFsRYCWnPAiwklMLtAQCEIAABCAAAQhAAAL1LlA3AdaWHW/IzIWN57uCpdJrPkEkWmfW9KhMe69bmp3IBkSkfEEF61xVfWAjwKo6eb0eEAFWcirLyi32TkTWFkgktlaikYnpBwr5eEaY7o2L0Zcjd8GMoty39xMv8+tmYYMABCAAAQhAAAIQgAAEILAUgboJsDqvf2szj8uv+wCrqeM//MXK0m2kMu2lq2m5RdoRXC1ljJTnNQiwyuOIveAqhEkcA0IFJoqNFRobn6FCFJMVe1uxGH+GLAlpdet9N141l8Smo00QgAAEIAABCEAAAhCAQG0I1EOA5a/3vvkFr2spZNquduxhY8e/IMBK2ABEgJWwgtRuczADK4G1O0GAJUI/yxUK/8YikkrNffGsfTR7y4XXC/UxpsAmsIRoEgQgAAEIQAACEIAABJIuUOsBlu7s3HiW1nFKus7tVj3P/p8OXGdaX+hOG1TpVlJpNwPLbZZIJOn1qN/2IcCq39pWuWcIsKoMvpjDnSDAimMzli8U97vzt9MBvVeoMNpYCKLb/p9XDSxml3gOBCAAAQhAAAIQgAAEIACBYwVqPcAKOjrWP5uZGsKurRto43M+6Tqn0m1rSrcuwGor9deHVwiwVmz4I8BaMfp6OzACrARW9EQBVhSbfKHolsCy6ZR5nSY7GBqdv/2mV+1NYA/QJAhAAAIQgAAEIAABCEAg4QK1GmDprVu3BuO0Lp1q67hWSLWpsKGTW3ve5YOrTFszAqyEjTwEWAkrSO02BwFWAmt3ogDLWCkUIutmYKmA/1yJjCmm6Xzz7A9cD/b0XT9HxPirQgLLiSZBAAIQgAAEIAABCEAgiQI1GWB1dnY2i2Raad3mltTmiz9HircIkWbi1oXgCgFWwoYbAqyEFaR2m4MAK4G1O0GAZSwFkaG0C6msjfaRiJuNdSCjsu91PTjzV+KHbtm50ySwN2gSBCAAAQhAAAIQgAAEIJBAAQRYCSxKXTYJAVZdlnUlOoUAayXUT3FMBFgJLAqaBAEIQAACEIAABCAAgfoSqKUAizds2LA2jjNanb/jKko1vpaYA2J+LhM1+fWthJQrj8qU1r3CGlgJGqwIsBJUjNpuCgKsBNbvxKcQBlFs0661zNrNvnKTsSbFxP/p7mZs/mOsJBtFmYl7P3H1KE4nTGBd0SQIQAACEIAABCAAAQgkSKCmAqzu7u5OY1JBsO2qaznT+CZ32qBiPofInabi1mgvXZ1dZUpXHkSAlaiRZlncpSCJGtZtmPL10UEzM5dqhw0CixRAgLVIqGo+7WQBVmRKAZYKXIrl/swwQ3F0m3sspfN9THaOOT1610dfNoQAq5oFw7EgAAEIQAACEIAABCBQewK1EGD9so19TNsH9Ho5vJWNzci6M15GYer1JKyY+QwiSXl6BFjJHYGYgZXc2tRYyxBgJbBgpwiwSGliF2CJzLGVe30PVOEjZCmrNB38+f7cPrplzy8XdO/D5WITWF40CQIQgAAEIAABCEAAAkkQSHyAtWXHGzJz1BhooxtUhv5EmNcT8/lMdPFTABFgJWFMnbgNCLCSW5saaxkCrAQW7FQB1kKTmUuzsdzfG+Li94m4aG1869yBu/9tbnI4HpmJC7T7U6XTDbFBAAIQgAAEIAABCEAAAhA4RgABFoZDdQQQYFXHeRUcBQFWAouMACuBRUGTIAABCEAAAhCAAAQgUF8CiQ+weq98+2st03NYOEWKX8VCboGrNDE1PKUUmIGV3NGJACu5tamxliHASmDBFhtguaZz6ccOs54lZhFr7rTW7CIrESv53gM3vfzuBPYQTYIABCAAAQhAAAIQgAAEVlgg8QFWz5Xv+CNmer6IhErxS4i4dInBE20IsFZ4OD3N4RFgJbc2NdYyBFgJLNjpBFjzzWcdlu5Ze68x8U9JqKiUfOX+m172wwT2EE2CAAQgAAEIQAACEIAABFZYILEBVs/Vb9/mbNiqN7HIc4VZs9AzTjjzagERAdYKDycEWMktQP20DAFWAmu5hADLL+zuuiJyQMTsJaFIiL8iyv6IrCo+eNNL9yawp2gSBCAAAQhAAAIQgAAEILBCAokNsHqveufb/Gcb4tczycKC7dplWie1QoC1QsNoEYfFDKxFIOEpixFAgLUYpSo/ZykB1hNNtG4eFhHFQnKrFf6REjP1wF+//LNV7gUOBwEIQAACEIAABCAAAQgkWCBpAdYv29Pn29Rz1cS73a0i+m0ies6iDBFgLYppRZ6EAGtF2OvxoAiwEljV5QVYCx0yJPI1EfkJMU880HbHp/0X+vpcuIUNAhCAAAQgAAEIQAACEFjlAokKsNp3vKE9o9O9PrgK0h/2tWF+DgltWFSdEGAtimlFnoQAa0XY6/GgCLASWNVlBVhMxMp1SojkURJzSEhGhdSH3IOdrelHdvVdkU9gr9EkCEAAAhCAAAQgAAEIQKCKAokKsHpf8tZNsZHtrv9BEP6Tz6+Im4QotSgTBFiLYlqRJyHAWhH2ejwoAqxj0/XvAAAgAElEQVQEVnUZARa78Eq5s8OJxBr3H3d3kFn+m7sTBsE3dn/4yqkE9hpNggAEIAABCEAAAhCAAASqKJCEAMu1wf/5vfvXfu8Mksxl7r4Ogk/6AEtxowgCrCqOicocCgFWZVxX4V4RYCWw6GUPsHhIKXmf62khzH714fS1E0QfxOmECSw9mgQBCEAAAhCAAAQgAIFqCax4gNXevqU9lYouELGBPuvyHaq91699RcRrThsBM7BOm6xqL0CAVTXqej8QAqwEVngZAdaxvWE3E4uVu1KHUWIn/E8CW3yjUoX9Etp494de83ACe48mQQACEIAABCAAAQhAAAJVEECAVQVkHMKfC2pZ/JXGqGHdBn86kNJBMzOn4QOB0xFAgHU6WlV6LgKsKkHjMBCAAAQgAAEIQAACEFi9AisWYK1du7U1laI0n3XxBdKw5m3E3MQU9LDWF82Xo7QoyulsmIF1OlrVfS4CrOp61/HREGAlsLhlCrDc1CuXdhOxKK2N+z9r49vJyhwxTTfbwvvdYy06c+TbN141l0AJNAkCEIAABCAAAQhAAAIQqJDAigVYra0b16ZSnAm2vvAibln7fmJudqcNMtPmJfcVAdaS6Sr+QgRYFSdeLQdAgJXASpcrwDraNSbWgf8/sfHjIlJgoam0zv6Be0wXsgfv+MTvTCdQAk2CAAQgAAEIQAACEIAABCoksBIBll+wfe3ZL9zADdQctm1+Jjet/W9E3ExMbUy0ccl9RYC1ZLqKvxABVsWJV8sBEGAlsNIVCbBKk3CttQeIpEguwFK5t7nH8ibz6IM3XfXLhd39jzBJoAiaBAEIQAACEIAABCAAAQiUWaDaAZbq6Dij2/UhePbL/5Q4fC4ramGis4gkmP8wsvQ2IcAq8/Ao4+4QYJURc3XvCgFWAutf9gDriT6yCsT9bBCmgsTRd31iVZj7+PCe792VLqRN/+035RFiJXBMoEkQgAAEIAABCEAAAhAos8DSw6KlNUR1dGzqKQVY13yAVfh8ZnKnDm5xZ4UsbZfHvAoB1rIJK7YDBFgVo11tO0aAlcCKVzbAImL/o8oFWD9wd2yU/ejwA9+9EwFWAscCmgQBCEAAAhCAAAQgAIEKCVQlwNq27fpU8YweHpmJGzOheb3riwrTO5nU+cIUMknLwieUZfUTAday+Cr6YgRYFeVdTTtHgJXAalcwwCL2Z527kwWNsDri7ouJv0YmfoxYDmUHHvyWmj2c3ztcsLT7U1ECddAkCEAAAhCAAAQgAAEIQKAMAlUJsHq339AYtQRKwubWkPMf9R9GmF5IxEtf7+pEnUeAVYYhUaFdIMCqEOzq2y0CrATWvJIB1tHuHrOwuzH3ktghIbl/tn/fx+dGHpxtoq54/64+dzohNghAAAIQgAAEIAABCECgDgWqEmD1vPpDW5RVaaGohfLD/6vkyM9hJr8eVtk2BFhloyz7jhBglZ10te4QAVYCK1+1AKt0prlYeYTEjonYh2xu7m+tiedUqKb3fHLnYAJ10CQIQAACEIAABCAAAQhAoAwCVQmwNr/2k+8isT3WRo12av+b5tudcmcSlqEPT+wCAVZZOcu6MwRYZeVczTtDgJXA6lclwHqi36yCmJitiD1IJr5VhPKs6N77P371LQnUQZMgAAEIQAACEIAABCAAgTIIVCXA2vRbn/xTIllPtthopvb/XhnafeJdIMCqGO2yd4wAa9mE2EFJAAFWAkdC1QMsTX5tLJFDxkTfZKI8ib37gb9++WcTqIMmQQACEIAABCAAAQhAAAJlEKhcgLX9hrC7vWmTa2PY2vE+F2AJ2ZRkx64sQ7sRYFUMsUI7RoBVIdjVt1sEWAmsedUDLDd5l4mERsWau4UkIlZ3aCl+xun8102vOJxAJTQJAhCAAAQgAAEIQAACEFiGQMUCrC073tVeSMkbfduY/oSpzOtdnajTmIG1jKFQ4ZciwKow8OrZPQKsBNa6ygHWiQRY5DZS9Lfua/d97OrPJVAJTYIABCAAAQhAAAIQgAAEliGAAGsZeHjpaQggwDoNLDz16QQQYCVwfCDASmBR0CQIQAACEIAABCAAAQjUl0B5A6y+PtX146FnENFZpLg7UMGHSlzc6pauqTgdZmBVnHjJB0CAtWQ6vPB4AQRYCRwRCQiwjlVhlte5/9eU+um9H/u1AwkUQ5MgAAEIQAACEIAABCAAgdMUQIB1mmB4+hIFEGAtEQ4ve7IAAqwEjgkEWAksCpoEAQhAAAIQgAAEIACB+hIoS4C1du3a1kwm02aCplCf/aLfkLDhCiJqVKyf57iEJCytuFvhDTOwKgy8jN0jwFoGHl56rAACrASOhyQEWMzE7sqEfuaV/Za/w/IPKbZ3BBTZ/OTgyO5PvTlKoB6aBAEIQAACEIAABCAAAQgsQqAsoVJPT0+ntXa9TqdTfPaVf0jp5uuISBFx2yLaUL6nIMAqn2W594QAq9yiq3Z/CLASWPpEBFiKWJXOVNdiR31+ReYvFGW/qyW2Y8Xmx/Z+4mWFBOqhSRCAAAQgAAEIQAACEIDAIgSWG2D513eccUGP5nizVY1heMalf0Bh46uEWTGRW/uqehsCrOpZn+6REGCdrhiefxIBBFgJHBrJC7DGfIDF5iPaFn9gVWQimXvkvgOZPN18vSVmSaAimgQBCEAAAhCAAAQgAAEIPI3AsgKslpYN64iEGy+68kpONbyaWYWs9IWi1FlMwkRc+YXbj+0cAqzkDnYEWMmtTY21DAFWAguWhACrlFh5HBaJ3a2Q/JyIBpg4pyj/v8OUGWTmqTs/dJ0PuLBBAAIQgAAEIAABCEAAArUjsKwAq7NzS4+IUcEzXnIdp5reIMShYup1k7JWhAAB1oqwL+qgCLAWxYQnnVoAAdapjar+jKQEWE/uONOACE0zUTbU5v1KCv3M6dG7Pvrywaob4YAQgAAEIAABCEAAAhCAwLIElhJgMW2/IXBH7W6IXsMsaU43Pp9UeCWxBCTczkzNy2rVUl+MAGupcpV/HQKsyhuvkiMgwEpgoRMbYKlJIcoxU17Z+O9IZFjYPHTfD7+2m1p6hXb1GT9RCxsEIAABCEAAAhCAAAQgkHiB0w+w+vpU567hRtezIBV8nYjamKmTiNYfPX9jpbqNAGul5E99XARYpzbCMxYlgABrUUzVfVJCAyy/qHvpyoSxNdHPWGjWmuhrw/d9859VqlGGnt+co74+W10sHA0CEIAABCAAAQhAAAIQWIrAkgKstXeM+RlWaaNuFZJ2xexOGVzvL/q0khsCrJXUf/pjI8BKbm1qrGUIsBJYsFoIsOL4DmKZpTj++sCjd/8z0RiNX7ZuFgFWAscTmgQBCEAAAhCAAAQgAIETCCw6cNr4vHc32OIcm3bdwyp4q9uXUur3iSjjJmPN/1tZZARYK+v/dEdHgJXc2tRYyxBgJbBgCQ2wFhZ1d6u5s9Y5ErYi5hEx5l4iycWTQx+fvv/24YFUk9DtN+USKIsmQQACEIAABCAAAQhAAALzAosOsLqf9fomu7aFw1TDRqHoz9zrmfk33ESsxGgiwEpMKZ7SEARYya1NjbUMAVYCC5bUAOsYKlZB6Sx3K/vFxg8L0Vw8O/SnY4/eMeBPJ/z2jXMJlEWTIAABCEAAAhCAAAQgAIHTDbB6rn57Z2x1EFreQGw+MB9gXU1EqcRoIsBKTCkQYCW3FLXeMgRYCaxgTQRYbj0sJhLbL1YeI6I5k535wNzs2GAYFuK9n37HSAJl0SQIQAACEIAABCAAAQhA4PQCLOHel7zr94SolRX3ksh7EymIACuRZfGNwgys5NamxlqGACuBBauBAOuoGivyi7sT5Uxc/BsiGhahiT1/ffVnEiiLJkEAAhCAAAQgAAEIQAACCLAwBqoqgACrqtz1fDAEWAmsLgKsBBYFTYIABCAAAQhAAAIQgEB9CTztGljdv/bus4ij5yomxUr/JQl1EPsrDbqF25O3YQZW8mqy0CIEWMmtTY21DAFWAgtWSwHWUT4WIikQiRDRESb+Y/el+z521ReJ3dewQQACEIAABCAAAQhAAAJJEnjaAKvzyneco0kuFyallfqwD7CSvCHASm51EGAltzY11jIEWAksWE0GWMc6yhFmeo8PsG586ecRYCVwjKFJEIAABCAAAQhAAAKrXuBEAZbq6elZF8dhqM+/4mJubL+WhFgpvp6ImhMthgArueVBgJXc2tRYyxBgJbBgtRpgufWwSpyT1kT/7u6Ehv8sbM5bkw5zu/tekU2gNpoEAQhAAAIQgAAEIACBVSlwogAr7OrasI1ImtXZl/+aal3/tpIMryUiv/JtYjcEWIktDRZxT25paq1lCLASWLEaDbBYBaUrE1pr4ig/6mQzqcJLtCGjbDh6x9+8apiIcDphAoccmgQBCEAAAhCAAAQgsPoEjg2w/P1t27aFwxP5Z5GYlnDL817MbV1/5GZgEXMrEalEEyHASm55MAMrubWpsZYhwEpgwWo9wBJr4mJhygdYYfQSJcZGYof/q23PEfrzPxcfciHISuDAQ5MgAAEIQAACEIAABFaTwNEAq62tbU1zc3NTMd3ZEPReuFNU0MNh5jwOMi+cB0m5aViJxkGAldzyIMBKbm1qrGUIsBJYsBoNsIjn/yYjJMJUcLJM5u9ZrPuzzc8adP7HRSpaY6Op+2783bkEyqNJEIAABCAAAQhAAAIQWDUCRwOpNWvWbA7DcI00r28Jznz+e0iHZ7rTBplpU81oIMBKbqkQYCW3NjXWMgRYCSxYrQZYRymZWAf+/2wcPUJMwixfDiT3+SC0cVC0R26/aed4AuXRJAhAAAIQgAAEIAABCKwaARdg+d/aO7e98Jlacw/phmbuOOsGUsEmYmpj4p6a0UCAldxSIcBKbm1qrGUIsBJYsLoIsEpLPIo1j4u4mVj221rHX1WWTcz2F9lCMJBaNyt7+nYWE1gBNAkCEIAABCAAAQhAAAJ1L8AdHZt6XS/DZ1/z30mFVwhxoJjOJKLGmus9AqzklgwBVnJrU2MtQ4CVwILVfID1hCnrsBRkiR0TY0aFKVZs/jHNhe8Ic273R699LIEVQJMgAAEIQAACEIAABCBQ9wIIsOq+xAnpIAKshBSi9puBACuBNUSAlcCioEkQgAAEIAABCEAAAhCoLwHu+fW3/q7rEnP4RlZ8KZG40wozib/i4InqgBlYyR2dCLCSW5saaxkCrAQWrI4CrPkrDhKTikmpyE3FEjH/LmJuU2RH7/v4NV9NYAXQJAhAAAIQgAAEIAABCNS9AK9/yTvfXQqw6HeI6OKa7jECrOSWDwFWcmtTYy1DgJXAgtVTgDXPy+4KhcqtiyVWrP2CteZ2Ijv04E0v/7cEVgBNggAEIAABCEAAAhCAQN0LIMCq+xInpIMIsBJSiNpvBgKsBNawDgMsYkWMACuBgw1NggAEIAABCEAAAhBYrQIIsFZr5avdbwRY1Rav2+MhwEpgaesxwDrK7Kf2fsEKYQZWAocemgQBCEAAAhCAAAQgsHoEEGCtnlqvbE8RYK2sfx0dHQFWAouJACuBRUGTIAABCEAAAhCAAAQgUF8CCLDqq57J7Q0CrOTWpsZahgArgQVDgJXAoqBJEIAABCAAAQhAAAIQqC8BBFj1Vc/k9gYBVnJrU2MtQ4CVwIIhwEpgUdAkCEAAAhCAAAQgAAEI1JcAAqz6qmdye4MAK7m1qbGWIcBKYMEQYCWwKGgSBCAAAQhAAAIQgAAE6ksAAVZ91TO5vUGAldza1FjLEGAlsGAIsBJYFDQJAhCAAAQgAAEIQAAC9SWAAKu+6pnc3iDASm5taqxlCLASWDAEWAksCpoEAQhAAAIQgAAEIACB+hJAgFVf9UxubxBgJbc2NdYyBFgJLBgCrAQWBU2CAAQgAAEIQAACEIBAfQkgwKqveia3NwiwklubGmsZAqwEFgwBVgKLgiZBAAIQgAAEIAABCECgvgQQYNVXPZPbGwRYya1NjbUMAVYCC4YAK4FFQZMgAAEIQAACEIAABCBQXwIIsOqrnsntDQKs5NamxlqGACuBBUOAlcCioEkQgAAEIAABCEAAAhCoLwEEWPVVz+T2BgFWcmtTYy1DgJXAgiHASmBR0CQIQAACEIAABCAAAQjUlwACrPqqZ3J7gwArubWpsZYhwEpgwRBgJbAoaBIEIAABCEAAAhCAAATqSwABVn3VM7m9QYCV3NrUWMsQYCWwYAiwElgUNAkCEIAABCAAAQhAAAL1JYAAq77qmdzeIMBKbm1qrGUIsBJYMARYCSwKmgQBCEAAAhCAAAQgAIH6EkCAVV/1TG5vEGAltzY11jIEWAksGAKsBBYFTYIABCAAAQhAAAIQgEB9CSDAqq96Jrc3CLCSW5saaxkCrAQWDAFWAouCJkEAAhCAAAQgAAEIQKC+BBBg1Vc9k9sbBFjJrU2NtQwBVgILhgArgUVBk2pGYPsNIeUmuHvsnnZtcmskFMXGrDGGM0TEQnGr6wurYK27DQKlA61Tvn/CKWYJiRQTWf+YCMfMYvx9ojl3WyjEM1bimJljzTxhDMdBQFkxesJ9faDr8sf9/routLSrL64Zu2Q3VLW1tbWl0+lUHMcpbe0611wdZNaICB/bdK10kTi2VqnYGFOkKCJOpWaIaNY9b3h4eGhFu3r99ZoeJL3tQqKpn97fks1ON2UywnEut6bUp6BdRCtmFqVswY89a4txHMdaqShWalwpZZubm/P79u2bWtG+rNjBhWnbztAdvmf8rl4VF9MioizZ9b5JbJpEJFBKhUKq2T0SBCoItPavYaImf8sciIg+thtClCP3z7IU4sKMtdYwkVHMk/41Evrv77glPTnccIn/nqedF8bU12dXjAMHXm0CR98PrbWa47jLAYSpVGPp55bW1lo/1rUWN8bd+4l1P6v817XkpFh045xibhx3tw1nbR8dyGVialgjtPtT7nmy2lAr3t9t1/vfK3rG720rFLINqZTRSqm1bEz62JopVfr9g5jFGo7cXcNmiuPYSBBkmXna/XwIgmBmYGAgu9x2I8BariBevzgBBFiLc8KzTimAAOuURNV/AgKs6pvjiHUj0Lv9hsaoJVDqsf/cogu5rUKimeRsEWkXImWt2eQ6q5Q+x/9yH+hUoLX7gEss0kLMGfeBlpn9B1yXV83/c7/Nj7gHioXCYWMlz8w5pXgfCeWFeUyResx9Pdr26u+627YGHe395id8AIFt2QJBV1fXGUTULK5Oxpzr9hjo8CxXzuP2rmiGmQ2J5KMocqGVS7gGKAgG3f3h4eH7lt2a5exg+w1hZ0uQlijP9PgPejnKd/kxZ4uuLy7A2sLCARFZ1jztHrPWzpo4zhPRnCj1qFLKBEEwMTAwcHA5TanZ1/b1qc5dw/7DunroK7+iRVoViTZit897dQtJhlk1seJuEtJa63QQ6FJwRdTpb5kbRFxo/cQmRO4D/QSJmEIxGrDWFpmpyFrt98cT/T3/2sam/cUtV+5190eoK4+wumZHUy02POju7t7s3guNMSkl8kzXiTCV6vBjUzi01i78DGsQRQFbcqGUD62MmDGxthS+6vSj/rVrznso6t2WD1tiO3Br7y/faxDIlntgdO54q/9dQz/87TOMmVurlA2VUueySKt/H7KlYF0U+dDdBedkyQdURswBsTZSSg1b5n4XSCqljgwODvrfS5azIcBajh5eu3gBBFiLt8Izn1YAAVYCBwgCrAQWBU1KmICfcbN161b/V8qZmZmgUCj4D6EN689sC+NA29zIJomjLaVgwJwpSrW6HMPGZoP/BV8rHxawUmGogya3QyFqZpI0MbsZGf7DsQ+vRIqluzzm/luMioPGWhdguX8HmJV7zjgr7T/ghu2bfuh/CeWoMDdywM/6GR0ddb+Eur9oL/xLFOmWLVsys7Oz3rAxagxsiz1uVtNSGjs3N+dnrk1MTLiZawuzUxY1S2Xjxo0N7rXZbDZsbGwMoigKmHkhwGomY852Xw90eIYLJo9tHyuaJRdgGVOIjZlzf8UmokHWeti/Jgj+y91aa/NKKcn099u9RK7GlZhx4By9ZUdHR5MxRoXtGzKN6eYGEcvx7HhPHGc7lYi2NnL9I6WCTW5mkJsGSJrdzDGSKJozIgUhygap1D43KyjNPBWKHHJfnzLGfzDtHOks7qE9C7P+FmW9lNpW6TXzY3CH3rq138+SmpycdDPwdGNjVxA0tfnZlHb2yLPdB3lnaEguco8ZYzpZJE2KG5lVp5tzorVOBUrPf1+Ln8HnAywiFxYeu02S0KSQmGIUDbkAi5gjrdhbMwc/8k/WmYNhS6efjVW047PF8fFCKpUyAwMDLmj0ZavQmFoW/zai1PTGjd5TRBbe55a1z1p8sZvB4tpdKBSKIyOb5//QsDtJM4/c+5p/b+vs7HR/WOFMJhNm4lhH6bT7mbfRBfrMnLJRdIF/b0ul/Mzi+TCkNBuLbIaJAnGTrUj5sWnFTIi1fkYh6dQ+d6Myax8NUw2FKIiNmh6ede/fYRjGbW1tfgbQ3r17k/7HGEW03Y/rNWv2zc9Ee2J27kK95338e8upHlsY16lUKm5pafHvq6fh4Gu3jbYFwx3DaXe/uWOrf98pzA1ttsVCu1ISssjZrJT7w4wLsOa/H3346NpoiJR/b7fG9Av5AGtUMR8xzMYFWEqpETWjJNWZ8kHX3r17T/tnGQKsWnwHq8U2I8Cqxaolss0IsBJYFgRYCSwKmpQYgeuv17371vhfBrn/6891t1EcnUdsn+3uZzINFzNzI/tZFZxyMZIQpXj+NCEhWpht4ffhfoPl+Q8JIv7DgnIPHDOrR0RKwQaz/wu2+3AQi5sdU/qAWnC3wmyYeP4XfPFBibH28djEP3f3cwX+XBxLtrVVz5Zjyn+569HT2Xk1K+WCgICJN4lQy3KPYa3xs4MKsf7/jKE5pcJ4errffWg6ZbDStW7dtd5cBZcy0ZnMHIaBPpN9EOnqJKUxIFQ61eK4jS0xifj6SOlYwhGx+wAnki9Eu0t1NLeKSI5EZofHx3e5obTcPp/g9WFzc7c/NbAhbX+PSdakgnBjEAYugFNCbqaf+LCOSHxfWPwYLY1CF8SVUhDrh5n77EnsP6Cwnx0oPuAqFKLP++dZ/ulsQQ4wazszM+Csa/YUVjeb0vUpGvpebyrOb3JhtI3jiy3bs7XSzal02n/Pszg/dmPClddbzodSTO57mn1AxU/6XvehFbN3fnJY68zdP5n/XnfW7nvdB9nMyofSJJQlFn/fmHh3bO1BET48m5VvucdmZzdOEO2uxJha1jDtXLPmBaxcqEfU0ND4pmXtrIZfXCgU/em3VmS3Jf19d7+5Ob1n//79CwHkivauvb29PQiCbteIUOuXuR9vYRBsU8xb/XuHcAvxwnuFuFPk3SAvnQ4rbkyLD1CkNL7932jmx7F/X3EBbamD/v3EfXvk3RumWJkrFgsPWbF5RepRrcN7rLLxkSNHSsFtQreNGzeuzefNFtc8JdFvzns0Cvv3VetnMrmf4UIBlWY4OZxSiFd6jyg9ZmmG2H//z3+JhZR6NFDB4+7nyuHBwz9YBEHQ3NyzxpE3NgZna453uNekw5T/uSZMzSSU8XViSvnfQY6v2dE/yvg/ZJRe495L3C80sTBH7s0uNnI4juNBYs5r1p/1Y6Uh/OnpjmEEWIuoKJ5SBgEEWGVAxC6cAAKsBI4DBFgJLAqalBiBHTuCTtrmf1kP93z510u/b9qLrDHPd/czmfTzFXPpF9GV2/xpX8bYRyIb3+Huxyb4BJGaZc5Pj4yMlD4AJ2jr7u7+LSa63P0VWBGfLUJty22etcafmmIo9b+Y9bTWxXhoaMjNYjv64eBkx+hcu/b33NeUCq5g5vOYKUwF4Vms2M+6WcYm+ULxbt8uG/8Libi/Wk+PjI9/dSGgWMa+n/LSbdu2pYaHZ+ZP68n/CZN0hEFwZhiGbsaE+5DixvIJQrhTt4KJXJDq/+peKBT/1t2K8HdiCh9xAdbmzevGdu9OXoBy6p6VnrFwuo0/HbiYc6cBa2vjXxWhbUqr1kwq5QPsFdzcB38fdsQm/kls7T4WeTyyaR8mdnW1jO7Zs2d+9uYKtvJJh+7s7HwpGdPrHm5sbPrT5LSsui0pFIp+7Sdi/pER/oq7G4a8Oyl/YOjt7e2I49jPGFZEryPmxpTWFyuln+G+0YWowc3ULLeaFZktFov3Wis5xfyAUsGPWXF0ePDw18t9rHLur7u7u8tadZ4vqY3+0L8fErUwcZrc52aiGRGJRChk5tLPN5ExF0q5P5As/MwTkcmFP1bNt0+Y+AGtw4fdcweGBvxYefpte9jRMexDYqXMhYrNK939TJj63fnXuaD9uFOXT7XHE3xdYmP649i4U+OzivVf++cE9O3THcMIsJagj5csQQAB1hLQ8JITCSDASuC4QICVwKKgSSssoHp7ezMdHR2cz+cb8rbJL1grs8MvcrexxOdbK37tm0wq9Rw3A2sl2ytSWixcSB6P4sifrsY69VkinmM2br2KMa21PXjwsjmiXy7+7LeVWW9k4VQ9Y8zvkLUvZHIfiHizkCx/BpYx/pRK0um/YFYz1kphePjQgSfNCnIzA/ysge7u7nQcx+3ufkqp0i/6rC4j5rPcB7VA601lCCelEEUP+PqI/RKL5MXStATqG3EcF5k7pkdHX+sX619OTdxsAHfKTy6Xa8hkmv2pgTbK3yAia4Ig3BjqwK3P5qb/uZlkS/og4wIsK/MBSlT8P56L1I8lTO1TxsYRpfd3dTVms9lsfBqnvazkt447tnrWs57lZ1FN5QK3xg/b/MRmNtEWtzK1sfZSI3arn4EVBv50wRXciiKlWVnG2t3GxoeUUoeEw/kP+vEha60//Wdw8A/96cfLGVPl6mdPZ+dOEtns9pfJNLyjXPuttf0Uoqg0+0boNsva18yYwg9HR0f9rMYqb0ffB7u6uvxpZqp0ymYAACAASURBVO4tMQgC/95BRl4hZBtCHVzIrNz6je69w4Xfx12AoBxtFpFsMY73WGsLmvgRrYO7RWwcNKS/4/bPWc619LT4n3H33Xff/HtlOY68vH309vZuimO5xLfRxm/0t0q5izmk52cxzboZlT6sovkZxiJuHTD3RuxOsSxd4IVo2j3vidawaKUeYa0fI2Pl8PCRT52spdu3bw+HhobcxSMyxpjziAImE59jJb7SvSYVpF7tbpVid9GJJb3vH3NsMcYMxda63ynyAetPu68Vc/G3JC1Zd6GPJ953/txNxDvpKfIIsJY39vDqxQogwFqsFJ53CgEEWAkcIgiwElgUNGklBdauXdvaEDZcIiKtgeYLWKvfn/9F06+DVEubNfYHURz/zJ26ppvbbnWLQKvUjAx9+7Mr8kGgq6vXzbpSDangvYrJ/5W43Fsxij4hVmZJaDgi849P+oCoOzo2+dNkAo6eb63xpzQ1NmReUu52nGx/7gNbvlB0NYk5CD9jL3j1reFMbAd2f2rJV3da39ntZrY0B1pt0EGw8Ff3anTJBSaRiLjA8GPGyOMkdGBgZODeahx8ucfo7OxsDjn0MytTKf2R+fXN2pnIre2z7HXZltu+03l9bOIvxtYOuNeYC37jfe52ZEdXdqWvVnjGxs3/QiR+xioT1dx76OnUYDHPjY15uFgs3uOeG4v9k/Hx8f7FvK6cz3F/SMjn2Z9qrCT3UT/+w/DcIAh8IJOAzQpR6eq6QndFkfl3d3dgeODWxcyorUb7ezp7rv5lFvVBd6xMOnVpmY+5cDEXs7//kF9n7ERbd3f3WdaqDUGgtqS1umn+jxMuqJo/TbzMrTrB7gr5wleM2DkmHou2vuQDuqHNjszEBdr9qZOezowAq/J1wRFKP3EsS+mc2IZ1G/w53EoHbiG/0poe2CCwSAEEWIuEqubTEGBVUxvHqgEBBFiVKxICLL/QEQKsyg2x09ozAqzT4lrSkxFgHc+GAGtRwwgBVumKxAiwFjVcVvJJ8+teqoyfzU0q3UoqPb8kglsasyIXa1nJDtfQsRFg1VCxkt1UBFgJrA8CrAQWBU2qpsDC2jd0/xfexmSeqZRuS6fCFxxdt6KajancsQwxD7vwhEhGcsWiX7NjeHjYn3JYra23u/cVJKSDlH6LIqrIrKdiFH3akswx0ZF8sfi3ExMTUx0dHS1EDS1hqHpS2t7s+ssiLcTsTw9dqS025pBfU0Tx49mOi96S7jy72ETZeP+uz5xsYWfe+Lx3ZwrpgqZffOvZXJh+i2t7Y0PDdfPrW61UV44e11q5O7bxLe4sxlyh8PfOf8Ub5Rqw/YawsyVI66n7G+yhR95HYrsVc2smk7kmEe0rYyOE6DG3u8ia98RxvJ+Zp4eGhtxVDau+yP6WDZu+Qkx+UWmaP22qjF2tuV2tVIC1de3W1myY/RUSag4C9Xyl+M21VpNcPv/vImIkzPwfOv+VP1KpRhkq3l2gXbuqPq43bdr0aiV0o/9ZUv6ZhSedgeVmzxWL8mwRGzSkgj9QTK/2Vz9md4GOldtEKJfL53/iT5EMMn9rL3jF99OFtOm//Sb3s+y40wkxA2vl6rS6jowAa3XVu4K9RYBVQdyl7hoB1lLl8Lo6EUCAVb1CIsA63hoBVvXGHgIsBFhVHG0nPRQCrKVXAQEWEQKspY+fyrwSM7Aq41qOvSLAKoci9oGrECZzDCDASmZd0KrKClx/vd6+b42/dPTAwDfe4G412ZeTlTNIcUZrvYVLV2yrl80tqjpLJEV3a21pFlLBRP4vyE1NTYV9+/ZVfKZMlQOsQW5r+7v1LTum+vu/cTHb+FKtuD0Mg3e5PvvFdlf4CpJWZNJaO0PERyKrPu7WxVKKDg0O9t95ooG3devW9ORk/rlKUYdmOU+Tvd49LwiDC5e6OHu5B7iQ9Fuh+91CxlGx8BEbxxM2CPIjIyP+KpHV3rZvv8EvXjw4+O0LrY0vZeGUovg1JNTOitNaa3eFxnrb/CLuYuXLQjTORI8UbPxVY0xuZKQtItrrZnhUZcMMrOOZqx1g9fT0bBORlpDDdUq7Wa+8RjG5xdoXrqpZM8vBxLG5z10NQ5TaZYn3EFFO0s0/2bDuhYdbWnpl166+qs3EqvYMrO7u7iZrLWutO1IqeIslyijFz1NEz5pfr29JV5ct45tAFMfmgDCJtfQFI+puq2hsdLDfzco6ri6YgVVGdezqaQQQYGF4lEkAM7DKBFnO3SDAKqcm9lUjAluvfnt6Kmf8B1v94Be+725TqfAcxVxax6C+N7empb+qU7ZYeKG7nT/FqLRobgW3agZYJDwcrzvnH7j7mTP64a+8nkz8RsWUSqVSK301uacIu0upZ3P5/2QmQ6RuGx4b/uSJyrBmzZq2kPU7iOn8QAcbU6nQ1y+hm80XC+8zcTzKzOPDY2NfXoF2cu/2GxqilkDph299DZniW5lZp8JgGzPXU0B9QloRmWVmt57Q9woxfyCOZTKOdXZycn/pinhV2BBgHY9c7QBrfVfXb7NSGzRzj1b6t1f6tOlyDLkojvcbY0eEaYLD5r8y51x113IvhHG67ap2gNXZuaVHxKhUSm0Jlb2ZS1c2dO9hKx1cPYUuiqKfRXG8j4QeTTVmPtzf3++vjrqwIcA63dGG5y9NAAHW0tzwqqcIIMBK4KBAgJXAoqBJlRbY+LzrG+aKpV/80gd/9F13Ox9gzS++WekWrOj+jwZYs/ncFa4lSqmp4eFhv25OJbdqB1hB+5n/lF1z1kzqwI9eT6b4BjfjJh2Gz6xkH5eybxGZyhcK37ZW3Fplt42MjSwEWP4COvN/YefNbW1teR2+Q4jODwMfYL1gKcer0mtsrpB/vzFmTDGPDY+NfWn+uCe9vHr529WnOi4/2GTyMyp15PbXcBT94XyAdcHqCLBorhSK0g/iSP7MFu2UMmq2f7p/vPzWJ94jAqzjXWJjHikWi7vdoxW+CqGfYbyhp+d3rMgGrXRPoNVribizWrWv1HEiYw6Y2Iww06QJGj9S7LrorqDJmtHbvjpTqWM+eb/VDrDWrdu4QcSqprTeojR9LuEB1p3FKN7Hih4NUqm/GhgYWAiw/Hs/AqxqjdLVfhwEWKt9BJSt/wiwykZZvh0hwCqfJfaUcAHhLTs+6E+XyD/8Dy+2cewvGZ5J6Xe6W6WU+4umn5VV55s7ndBP6bcin3O3QvRzfc7v/7/u/v7OByO65Rb3obfsW1UDLOI5pcOfi0gxYLmGiV5FzCqhs+wiY+0R9isU0+2FuPh3Dn90dHSXu12/bt0FEXO3Ft2WSuk/YqJzmbmRlUryh1ERsXdaS3lm2j81p9/t+jI1ddDN/qloiOVOGxxr6dWT+3dlUtmHX0eWOoJQPSdgfqGbbshMrUysyz7AE7ZDEYqZWYTkIAv9hEgKlunHB/v7/7VaTUWAdby0ieN9+Sh60D0aWvO2gYmJg5WoRW939yvcfoMgeBMTb3Y/6ph5i/ubTSWOV819WpE5EikIUc6I/NAa6hfmwYYL3lT6Gbar72QXwShbM6sdYPWsW/dWy7pJKdWRCYO3EKsMkbj3MB9UJmmzImNk7awQPRSTvJ+Zs8Winh4dPTTg2okAK0nVque2IMCq5+pWtW8IsKrKvbiDIcBanBOeVQcCfapzx3Cj64h66MtvlDjyVx9rbMhU5Gp4tQC2cLUyYrUre/bL/dpQI9SVpwqtJVLNAIuJItcdZjaBCn5NKa6JOhuRn+Vz2b/3tRgf/yd329He/iJW6mylVGsmnXkLM59bC+OLidyHGDeL7JHZPL3atXl09NCgy04r2f4tO96QmaPGgA/sbuLpfX8pRBvDMDgjDILzKnncBO97ToRGyM3GEvrcgcOH/qxabUWAdbx0bMyBYjF6xD2qTXDDkckjBypRi96enj92+w11+BZmcsFVPW5RFMePG2OnmNXeeNu1N/j3zV2f9KfIV3KrfoDV8UlL1DZ/5VT3syxxpw4+2VuIHiwW4vfGRHPW8sjY2MDD7jkIsCo5MrHvJwQQYGE0lEkAAVaZIMu5GwRY5dTEvhIs4BbAnskH/oN/YGZea43xgUY6FW5PcLMr2jQhKv1FlPknWWr9U3df8nZoZGRPRT4AVCPAKhSjz1qyWUVMgValUxaU3q6YL60oZpl2LkR7omLha253ja2t/9PdZmdmfoNELlJKNWodvJqZN5bpcJXejTt1xNXgsVyu+CZ3sKGxIXf6VEUXW+7tfcYmo+J2ItOoo5n3i1BvoFW31rpW3MpdFzcjZbIUJsqX5vL5v3R1GR0dPVLuAz15fwiwjhcxxjyeLxTdAuQUinlrOWdgdXZ2Nrv3CL9vrf/C/6xj/Qpi6q50nVdi/27Cqpu5KiIuoD1oueH9rh2Dg/vuqnR7qhVgzeZzbsF9SqvgM0LS7mbeBkFwCTMHle7jcvcvIntzkbmRjMmJksdHRkZ+7H8er3/JO/10XGb6HSK6eLkHWtHX4yqEK8r/tAdHgJXc2tRYyxBgJbBgCLASWBQ0qRIC3d3dXcqSn2UUpsJfr5VAoxIWT96niPw8m8t+wj2ujPnB0NRURRZ0r0aAlSsUviTW5pTSLelUeNn8WkfutJmaOHWGmSMR8WuGzObJXyGvKS0fZuZXkggTs/uAWlOnv4nIcLEY/aP/zBLq/3tgYCBbyXHd29n9m0J0ETGnU2Hwu8zcUcnj1dK+jdgf5nO5fyFmMzI29s+VbjsCrOOFK7mI++aezRfGNj7HHTGV0gtrzlW6xInYv4hM5PL5b7rGDI+N/nalG1WlAMtmi4Udri8NqfR3maim3sesyFShUNztrq4rRN8fGRv5MAKsSo9M7P8JAQRYGA1lEkCAVSbIcu4GAVY5NbGvBAsgwDp5cRBgJWfgIsBafi0QYJ3cEAHW8sfXcvaAAGs5ek/7MwwBVmVol7xXBFjiZh9XdL3HJRdnVbwQAdaqKHM1OokAqxrKp3kMBFinCYan15pAd3d3UzarG9qa1FlK03+49iuidmJ2i7ZjK/2GNWpFHijZyP914PDhH1QCphozsKy1h0qL1EtKKdUpQpqZOImL3Z7EWERKa0QVioXPuttUmLqcmc9y95n9or2uPzWzCVGWRO7z7Q+Dq/fv3+8Wci/71tXVdbbbaUMYvl+If5392bHsTp9aDRdnWJSnO23YivyChQoHB/pfuqgXLeNJmIF1PF7ZA6y+PrXxPx/0s0u5/64/1DZ+rT9ijZwyvYyhddxL3SwfEvFX18zmsm90t4HWw0dGR+8u1zGO3U+FZ2BZd+UFf0Z/Pv8xd9xMJv12d/pgJfpSqX3Oz7ya879iWPnqxKy8xw9NnEJYKXLs9zgBBFgYEGUSQIBVJshy7gYBVjk1sa8ECqxdu7VVqUJzJpBzg4ArEswksNun26Q5IXKLaxOJfeeBw4e/fro7WMzzqxFgkcgMMbtf/t1pdu4X/poKe451zBeKfi2XVBicpZRatxjjRD6HuSgih/zwUnzpwYMHJyrRzq6urovcfhvC1F8y88sqcYw62Oe0uGs1EOUP9B96RqX7gwDreOGyB1jXX687Rzob3FGa9n7jA/8/e2cCH8dR5f/3qqp7RvIh65hDI8lWbOdyyAEm3IfDDSEcgWTDEViOhT8ssMAuZ1gwu0CWheVajixnWBZYkuUmQGABJwSWBBwCxM6lxI6tazSSbNk6Zrq76v2pGilIieWZ6ekej+Wqz8efGWvee1X9q+qR5juvXgHI18z3uDbuuW3W+DOzM68woARg/9jk5E/jGGfMAGthyDQ7N2dOCm5JJi+c3w4fx+U0Iua3povwejMvFmA1Qm/bB1iAZRdBRApYgBWRkFGGsQArSjVtrCZUwAKsqibFAqyqZGqskQVYteltAVZVelmAVZVM8RhZgBWProujWoAVv8YherAAK4Ro1qUeBSzAqkc967tIAQuwmnA5WIDVhJNihxSlAl3tXZcwBhcwxtuSCff8KGMfIZbO/NEFuPV2hpIngw9rm0Cpa/UjuWtmaMPj8+gkybnzxqTnjbmcY1Ipv0e/zjmdDUSn6udJx31dzGM9Ynil5NuKQXAtIh7K5/ORFnNvSAbWsRDN9lm1AnM+nCklTCqVmJ6cHDgcZY2QdGfXV82947qPYpz3Vz2ocIb6XtfjBz8IvqOkGlIAI8jxRqVUCZPJw2rjM8cWh2b3/CBNxeIazjmHQOkMsVbHEQ9njD10vkD/qgZudS3NeqWH6/G5rrt/cHDQbL+KumXT6U8BlU8ATSbc4+Ik0Kg1WBxPEXw/8OUX9c885f1sfHzcrKGwLZPJbEQAc6iby8WjGWMPDhurVr/ZueJPtA8iHGTI7l56naqFiNL6Z47jnO4IYbb3AkAjMsMO6Y6I6PqZEr5aP1+3LjExMDBQqvUal7NvUAZWVMM99nEUXe8F6qNmvdgMrGM/HyfECCzAOiGmuREXaQFWI1SusQ8LsGoUzJofbwpYgFXbjFmAVZte1ro2BSzAsgCrthWzsqwtwLIAa2Wt6CqvxgKsKoWyZtEpYAFWdFqe4JEswGrCBWABVhNOih1S3QpcdBHvHex1lTeDzti1f08yeBUCOMiYLugceZNKDflBsA/0/YTsvxljdzJk0if/Nt1ZMpk037K3traq3RdfHJgBbN/BAA4jwBxmMhOmyLQQIslKJVOQV4nEU/Sjw/FNBLAJEXXxbv2afoytBTL4RLFY/A0KMVQoFK6PsiObgRWlmsdnLM+TTy1JOZVI8JHh4WFdF6u+U5q2bRe5w8OuuX9GrrlDP87XCzN1gaJufiDvVqSKSFBExt+i43MK7p1TatZxHH1vz7quq5bc6/OD2HLVVWJ2dpYFQYC+769RSrEE5+sBsRcZW8uRvRYAsoDgAEE26rHfL543PTP912b8rntjPp+/J47+MpnMw1Fil3kvc/BJ+lEqaGSm2X2XxRn2cs63kEkaAj2mZBzXfKSYJd/fZdYmwjfmPO/j+vnk5OS0fqsPM4Z0Op1RSq1LiMSZguMVOsZ8ke841r2+R0tEJBFg0pf0bt1fQMF1Zv14XPrC9xZfBxExV0ph7ss1nWtIJEwBcv/w+Hb9mHCdxyHi6jDXXoWP1DZENFDyPZOVSYhfjXKN2wysKmZhkQkR/cHzfHOIjs3Aqk07ax1WAQuwwipn/e6ngAVYTbgkLMBqwkmxQ6pXgW3btovb3OmE8max5e4fvpOR/Fv9B3VcfzAHQbDH84O79KFBRPgZYsk/AjAaH793JOy1pFLdj9W+rS7/ECKeTkQcEfWHk1gBlh/4V3ie99s4CuBagBV2NawcvzlfXaCUmmJMDebz+b11A6ytr3JSa4SBvqsGvj80/0Feb1+K5eRBLwh2K6lmAGguoIQ58W18fM04wO4lH+CrnbFUKpXVJyUyxtoTwnkPAPQh6LHj+mpjhLTzZmZnTMFvYuyG8fHxO0PGOaqb3uJGRObEV8HYU01/kvQ2sljfx440KMH5Jib41vKuNwMIG3aq20I9O2Tw9ZF83mylqqd1dHT0CiE6Hcc5x0F2ZT2xqvC9b2s8EY3NevLl2qdQGPllFb6wefPrE1O90tyP+Ker/kM/tiST5yNiWzX+YW2I1L2lIPi+9mecf2p4ePj2sLHu72cBVm1KKkW7fN//nlkDdgthbeJZ65AKWIAVUjjrdn8FLMBqwjVhAVYTToodUr0KZDJnrcIWliJSmJRTbwJSr0Q0p9FF/Y27rnelpFS/LQbBDUjkKeA/TCb5nsOHGU1NhT9tLZvNbtE6JJh4FwCcDAxaEFDXEYn6GpbI7Qf+lZ7v38wQ9+bHx80f/1G1JgBYhADm23lFun4R6dPY9MIwp+IRgERESQRIREkE4gToAlGq/CGI6cemO9VQEU2Z4eusIKAyNEU2i/iX7A59TQCkMx5aSZdbQ9wwf80mS6JRba7kXaICdUgxtWdiYkJDk1AZKAvjTW3ZsprNCDM/yeCAyXJBBJ2RpU+hjKrdt25KgfymkrIAiCXhig/oDgYHNx8C2FHOrKyxrV+/vt3zvDbOeRsjfAMgdCPBKsbwcTWGqtXcny3Ovd2sayGuHR0dNdpF3TSg45yb9yxELNdnkrKhp4MSsTYEEsIR53DGnjZ/je3zGa1RX/LiePetm7mSN58lxX4xMjbyrXo71QcWIGK/w/lpgvF/qTdeBX8fgG4hAl3T7UBJBpdr+9HR0d3V9Ku/UNoLYN5npv/4SQNNWxLuKxGwCxAFIrQhYpT3a3lYRIVASXOSKyj+T4N58QeATgmw069m3EezaRKApdD8KoMSAdxb/h2gioBoaoAh4ELNr1VA5BKRIMTueXDrMESdCdmQppS6vVTyTC1QC7AaIrntxJ5CaNdAVApYgBWVkhHGsQArQjFtqGZRYEPXhm4PvbMZZ5xzfClDfP782CKFDwSgMz48ZPwrM6v7P4Nsjlq7Wqb27tixkI1Rz4dz8wd/LpN5CSD2ccbSjLGLzR/9MbZABt+SgboNkG4fGRv7ryi7agKApYBopvzZhga8INihn3NgN+tHCTBDjHk62w2klwbCFkTqIkCTDZdMJPS2l+g/aNUpcsn3/wQEAYEaI0nXmOvjzn7G8L4PahpgMVCbgdR6Bph0HPFi0235Q0zDsmGKc8XXS1DTCmDXxMTEznoBVm9vbw8FdI6+FEewBeAa6X1ulgbRrO4jUPDSok+7EJEKhcGFwtX13Odae+zo6FjlMPZMIlonHCfrCucf61wWR3UnosAL/E9pIwXw9Xw+f2NM/Znr07H7+/tNFo7eQhlTX0cMG8wFDyKgNa4rzuecvXHR74JYx6E11nvEdX/TJXqofhSi5cDo6IAB5/W0bCr1fEB8BGesxxHOJfXEqsL3UKDk+yTRb4ioNDo6at4vzWEl1TejdSaTMVlvpOjTSNTHOFvlCufM+ezi6qNVZ6nvS/O7WBG+ZM5jv/R9KB48uPdgde7LWzUJwCoBkUeI44EMvmq2eCKO6vdWozE5E2bNgeoHJTsIYJVEeiYS9HCGbUKIjfXqUK2/knJP0fN+pe0twKpWNWtXnwI2A6s+/az3fQpYgNWEi8ECrCacFDukehXo6+rLKa4eor9xdBx2KSJeWG/MZfz3k/4DGcUXZzc9/RPMbaXHtT2sePXVF5ssnyhadzr9ImSshyPqTIYXA6DJNomrBVJ+RwbyNkK6fXRs7D+j7KcpABaArjuj0+bu9AP5U/MHNfKb9KNEmFaKdK0XARBkUKlWQEwjsPP06y3JxBObEmB5ns6O8AlUXkn5bXN96OxljC0CWMQcoFMA4SRAfSCc+4r5udVZWQ0DWHOl4t8pKac54q2jExO/qxdg5XK5PghAbwsD1+Xm2mNo+n424FNKuHjOhz/Vu0X4/mPM5XKtQan0tAWAlXDc98dwHfeF1HClFPgmK4gAdH2g38TZ37GMnU73nE2k1iYd/izO8B8aNRYDsBAN+Jwuwunl9ePMHDhwj86YrKtlMplLEODRHFm3I8Tz6gpW2XlKKnlZKQhu4Jx7IyMjprZjPS3VlfocEqznHFe7jvvgmADWfUOUCl4458F1vo9z9WRGLwRsEoBV1IBOb+v0Av9LiBiQUiMS4I/md4BKGFDqotwICF0EtIqALgSiPs6w3XGczfXMYS2+Ssq9Rc/7tfaxAKsW5axteAUswAqvnfVcooAFWE24ICzAasJJsUOqV4G+dN+mAIIn6To4rsOfxRh7cr0xj+QvlbwWAKcU8h+0nPXsq7TNwMM7fdi+vZ6MjCVddXd3PxYldjLONnCOb0GAnjiuZSFmEATX+n5wFyHeOjY+ZuqVRNWOIcDSAEL/m1YEV5vrITkclOQfzB/UXO9wMbV5Sj5jga6XBlBay5TSGSNrCPkp+vWk674YdYFtxDUM8eSodAkThwAmgcgULff94McKoAigDqsguEX/TLHkJCJbDFLRQS8NEruQoSsc8Vxz7QyfPr+lRGdIxFI3avH1xQCwTlW+Mvd3MuH8exgtK/oQHSYgDdtAKfbW6aJzl34eBYhY6HvLli3u2NiBsxChNSH4esHxKxXHVYeBhitF3/uSWfcAXx4bGzPZESumbd/O4PvDJluyd+SHL9EPDHErQ7iggdc4Sor+T/d3aM59mX5ctcrzBgcHTVZWzW3RNfUMX/M6BvR0YLiOIzu35lhVOCilxolIb68+RECXz5ZKN3LOg0KhMFqF+1FNUp2pv0WklGAi7biOhnF6S2dsTSp4i6/83yFiPgoAdwwBlv7bwnwJAwA3K4I7gGjKJ/kLlFIqxqY8zxs29zWtM4fHOM50lwPOaslkAoBvRYIORNokEM7XrzPOdVZ3rF9iKKWGSp5nfjdZgBXbMreBlyhgAZZdEBEpYAFWREJGGcYCrCjVtLGaRIGenp5zpO+/GBATLuePZMwU7o28lXzvHwPfHybG/jg+Pm4+4Ebdcrlcl+dxN5HA0wXSFQgQ67emnuf9KpDyXiD4/djk+IejvJ5jCLB0LZASEQzNlMCchNbainP79tVWoyzbld6OiC5nrF84whTwPlaNgHb5QWAy5CTRp/L5vMkQqrI5qVT3I4wOCfElBEihTikCiOtUsPuGFTXAymaz5wKRBhSQdNzXVXn9NZkR0aAvAwPHnETiK/feG/5whqN0jLmtr2rx1wjWOvirk7E4ubBNq6axVmustxvNFYvf0PYK4bPj4+PmRLmV0rZcdJFbKKTM6ZStAz+4EoDOQQBdPD7WDNbF+hHBTt+X79M/Gx4b/k692upaUrtgzNQTa737mg8iqRfPH+4RSy0j3w9u8QN/NxBME8fPFAoFAyCiaF1dXacyxpIOc04Wgn0s9i9mlPy8UuouJNo9lM//oN5rOIYAyyeAQbMrkvCTsyW6SgjfHx0dHa/iQAzsfeSbkqVEiYs7fvgYCub+SeuQcB2dARdrLUSl1ITnB+akUwuw6l191r86BSzAqk4na1VRAQuwKkrUeAMLsBqvKJsErwAAIABJREFUue0xdgUWASzX5fxRsQGskvdOqYIhhXjr+Ph4LB8416zp6UwkhJtIwGkOqiuIaBOiPkQrnm9MVyLAIoAZLNe+Gp4u8WfoBbh6Nc7t3VtbLZTuVOYdRORyIU5yBL90fiHH+s31/W4WfRqYrjtDRLTLC3wDsJDzzw4PD5utSlU2J53OmayNFod/HoBS81sjY82C0P3NlYpv1FsI/1yX7tb8xIQusFxXtuI8wDJzkXTc11d5/bWZEe33lfyYdvKC4GtRZKAcYQDmw6W/hrOWPf97Ms2WgXhcW1YNwJormqxRxQzAMvXgVkrrfeRFLSQnTb0lMTzweQB1ts6mRIBYawjO35u6FpG+R3cGAZmtoEP5obqhydatr3LulmMGVq2buPlyUOpFev9zXKcp+kGw0/eDW03GD8fPjo2Nma1pUbRUKnXyfQCLo763dGax/r0WS10yqeSVimiAFN46nB/+br3XcAwBlt7ivgcQJSi6Ysbj33Rd3x8eHtb1rvTvh6O1+95j6NZvPor5M6bOXjKR0F9mxJp9Ow+w9pj3NHsKYb3Lz/pXpYAFWFXJZI0qK2ABVmWNGm5hAVbDJbcdxq9AX3vmQT6n5+tsGccR2xhjj4yjV+mufVhx/eNvS6XS3u6rty8Ubo+jK+hNpTYHiJcD4QbBWWdcBVhXIsBSRFcHvvoaAMwOjw3/pN4J2rBhw6NAqjI8AuhtwGlmZsgaxAV+8G2l1H5A2h1Fkf2e7u5XE1EbQ9YuOH9rXGB0QfMg8P9JAcwogN+Ojo5eP7+1M/SU5FK5BxPIi3SARMJ9R+hAR3EkgF1zXulF2kQIcVeNsLDmIXV3d2+gQJmtrsmEG8v2MAJQc3PF/y0vLPzI2OSYOSFspbRcLvckJeWzzbpwnOchmNPXYm9ENFXy/BuUklOg4JaxA+MfiqrTbDbbL31/GxCxZEvLSziyx0cV+0hxFMEVc17wNV1Lz3HwzsHBwcmo+zspd9KpigW6FlsfALTFBRgJQJ/OOgsE3713aP/f13sdxwxgEe0vesGrJeC0UvyeiYlBfZBMza29vb3NcZx+7djqJn4GAJ01B6nBgcrbHvPaxQKsGoSzpnUoYAFWHeJZ18UKWIDVhOvBAqwmnBQ7pHoVsAArvIIWYFXWzgKsyhotZ2EBVmXtLMCqrFElCwuwKilU+XULsJbXyAKsyutnsYUFWLXpZa2jUMACrChUtDH0UeWMTSGgv2pVwu3sWGVSuxlDPr8dxmp0LBSwAOtYqG77jFmBrq6uNa7r9iilGAe+hSGcYk6WI2XqnxDCWgQ0WzGUonJNFIRWIBSIIIQj1s3XhEgA0ZJtVYpoKPCDu7WL7656RWHzpXth25+3QUVYuP1I8nSvW7dBOs5bkbBXCN7rCPGQOGT0PP9mXwbDSPDbsclxUyMjqtbIGlj6dMhAymEgCADxy8IXXxBcyLvzd4/Vez3ZbHYLB3ybjiM4fwYixr0tyQyZACYksLdLJn4vCQ+O7R8w67CelkulHgOILYzzjODiy8dbBtbmjo61066rs+DAQf4coxPJdUDQQgQMGHQioCAi/X9d40tvUVplytcjCcd1y3NH1GbeBtDY6u00FEg5qCRNANLtyVWt/0+/fs899+hMgshOGT3S3HV2dvYI5J/Wr7UkE8+qZ36P4qvmSiVz8iCS+sDo+Pg1MfXT0LC9md6H6w45owuAoalTh4g5ncwW60AQdbFzXWtvvyfZR31g+7lik6OjA7uj6jfdnj4LUL2UgHgykXwC5+zMqGLfL44+3Y4I4QOBUp/R2yHXrl07vXv37sizjHVWGSN4NxFkhTmohG+J8ZokEPygKP236z5KpdKBAwcOhDoRstEAy/P9XUDoA9IgcPa3iDjjOM7M3r179VzV3LZu3eocOHDAfA6Tvn8DAnbp9z2MLxNLb300ReVtBlbN02UdQilgAVYo2azTAxWwAKsJV4UFWE04KXZIUSpgtl1I7FNKuYz8DebDDQp9Ets688ebkuZnBAZquYwx13VEBhnTBYBbEWDJ1pNAyts9zzP1rgJSb5ucnNQFVWNvuY6OvgDYGwAhJ4TT7zriUXF06vn+H4NAjgLijWPjY++Oso+GAiyiOc/37yACH5G+MDIW3YmK6XR6Eyd8hdbGdZ2Xzn9AjlKqZWLhmHRaLy1ueMKvV8FssHfHlaE+vCwO3t3dfbqUUq/7XFI439e3R5wXEnUG1uKxplLdjy3/P8iClGsIgAkmevVWYqnUWgBqBwLUJ7cBAdcnSiaTyfXmQ9Vfinsn5reEkhcEtwV+MIgAd+YnCvHU1zqC2F1dXTlGYLaetba0vDCm+VDFkrfTvPcx+Od8Pq/n/rhvuXTOQEzh8OcyBFPcvxFtYYsaIt7tt6x5q5d7/N2rIB3s3bG97nt0YfzZzuy5CgK9DnkikXgYZyyeAz00aEAkIHzP3qF9pvZbXK2jo6OPM/ZmJEi7jnOKEOKhcfVl1jrRNXO+d5m55xFH8vl8qC80Gg2wisXidar89/ogCPaGGg/tOKqk/b19v6FybbhkXMX0Uf+5pLdwWoAV5/K2sZcoYAGWXRARKWABVkRCRhnGAqwo1bSxmlABC7BqmxQLsCrrZQFWZY2Ws7AAq7J2FmBV1mg5Cwuwwmt3n6cFWBVFtACrokT3QwkWYNWmmLWuXwELsOrX0EYwCliA1YQLwQKsJpwUO6SIFVg42WjxCUe4db6TOdhiTj3yNnv3nX4UBAHqf/rnSinzGATcZGIhuoc784mD+vlu2O1XcfJPJJdjM7Bqk5GIxn0/+IZSaoYx+Nnw2FjdxdsXRrB+/fr22VlPn2oGqxJCb7E5rbbR1WbtS7lXBcEEIE6CYm8fGR+J7MTLVKo/q1TAWwT0Cgd/dTxnYC3a/viAe33OJFmVdyctvteLxeKSUyR9319D5K7Rdo6jDra0tEwPDAzo070i3z613CqwAKu2+wMuuoinCqkW7dV61/f0yZaACB0AmK4xUmhzpehfpKKbFapDLS0tv7nnnntCbU072gDW59ZfwFB9nvRuWUS9/UtnC0beiqXSL0mpEjD8fL5Q+EbkHSwKuHbt2o6EEE/WGdDJROI8wYXZ9hlXI1I3B1LqAz30PuBfjo6O3hSmr8YDrNJbAhVMIcBUanLyO7sjfD9Kd6WvQKXauOBdrus+KYweVfqYUxLtFsIq1bJmdSpgAVadAlr3BQUswGrCtWABVhNOih1SMyrQ1dWn66iAlM7MgQPRfzipdM0WYFVSaOnrBmAFwddJ0TQi/WJ4bOyntUVY3rq/v3/dzEzJ1J9pdcV/IMLpUcU+UpwgCO4JpDIAS5J8R6FQ+H1U/aXTJ2U0wEpy6lsBAKtuWVKp1Gqi5FodiHNvKsqtOtUOzgKsapWat1sMsAa+f8v8T9fFWM/nAQOUUr1PStqJiIfm/LnfTU5OHqrxKiqan5Tre5ZC+iIi6hptuqaX3uYeeVvYrkYMvlAoFK6KvINFAdva2tpdzjU0WZNIJJ4guDCnfcbViOj3vgz+2/wuJ7o+n8+bOnC1tkYDrFLRe3OgfA1FDxUmJ78XJVBPd3bpenttgvOU67pPrlWLWu0twKpVMWsfTgELsMLpZr0eoIAFWE24KCzAasJJsUNqRgVyuZwpeDo8vC4AiL6YbaVrtgCrkkJLXyeAYT+QHyNF+jj7m0fGR35XW4TlrfVaKJXA1E5a08L1B7y4iimbQQQyuDFQ6l4kmALOPjoyMnJbVNey7pxt65RfYmtmptY7wWGt0XFbAysiTZxcLqcBAQwPn+IB7Agiilt1mI6Ojl6B7FPaobWlJbYi7iulBlY6nc6AKhfwb02Kf50XWsOdeAu3l+/NX+j+FOLHlVJ/EL7wM/2ZsZ07d+rs3EiaXg/mvSbR+jTk+HFd4mv+35LswUg608XNPe9rSqlZhvDNkULhx1HFPVKcjo6OtYjOQxFla4uTOJ9zZg5LiKsppe4o+Z7JxiWJ3x+bDPfFRqMBVjHwLybfP0BEM2OTkzrLMLL3pe5M5l0kaQ3jvMd14gWIWncLsOJa3TbuUgUswLIrIiIFLMCKSMgow1iAFaWaNpZVIDYFLMCqUVqi/Z5U7wEFB4jTHVFCn82bNycOHix16hGtTuI1AHROjaOryVwq+VNfyjsQ4LAg+sL+sbG6Tx9cGEDmKZeuUt4abBn81QZWnPyDBVg1TU0sxrqwtUD+eR28tSX5lFg6AVgxRdxTqdTJqGh7Wa/Yit4fcRqKvvdJ8wLiFaOjo7vimKt0Om22Kycc54kM2QexDLBia57v/7vOXAVgPx4pjFwfW0cAkMlkVgUBbmEMk0lXXMgR3hhnf0rKvUXP+7WZMgnfyB8c19lMNbdGAyyf1JN83x+XUpYmJibuivIk1Fw2+7d6NzxnfANn7LU1i1GjgwVYNQpmzUMqYAFWSOGs2/0VsACrCdeEBVhNOCl2SCeYArpej8l62bp1K05NTZlv1Rdq8/i+z3QdLkc5vRL81wLq48b5BsdxHhaHTiuliDsQ7fMlvZuIJkHCncPjw3dEpVfDAZaU1wZK3oaIhyXRlfl8/p6orqX3oje1qOIMOrf/egPOTS0ArMU1pKLqysSJs4h7pAONJ5i+t839vWXLFuZ5Hur7vFQqLcl6c4h6AoKFDKwnxjOU4x5gsVwul9Tvjw7AyYrgvVqnZDJ5QUx6LQ4rAVGZ92nfe79+FFJ+bbBQ0GAh8pbt7DTv9SLRch5n+L64AVbJ8z5KQIcZ0U+HC4UbIr+gRQF1Nqvvw6mMYcLl8HzO2N/H2Z9Uar/v++U6aQq+OjIx9q0w/TUQYJl15in5eADQAMvL5/N7ddJfmHEfyacnm31N+cRltkEIHvtpqxZgRTVzNs7RFbAAy66QiBSwACsiIaMMYwFWlGraWFaBEApsdTKZg+3akbHZFkQ02148j1abDy1AqznngiRlJMiLAalL16pwhDglRGcVXVYOwIK9JUX/4PvBBOd0bz6f31Px4qs0aDTAUlL9j68CXdtnBjn/1vDw8L4qh1qF2XYDVPr7r1wPgfwDEWmYkkDEWLI8TmSApbdLOU67ub+VOtTmOI6G02s5cVNza6ERUEqR/Dv9/6TrPqKKSQxjclxnYGnwwSQ7k4BWM6RTGWcf0CIgYlsYMWr00Yd4HNY+s8m288z79GxiZHh452yNcaoyz3R1vdD04TjnOlxowBDrNt+5UvEdRHSQEH9TKBQWaopVNdbajba4HR1TaaWkWNsqXsIYGhAZVyOAg0Q0WF4r8PF7BwdNpmOtrVEAS28Z1GPzSW1xXXdMCEEDAwOlWsd7NPt0Z+eLAbFVcLHRdZy3RRn7SLEswIpbYRu/rIAFWHYlRKSABVgRCRllGAuwolTTxrIKhFBgi9vVdbir/Ac1rUL0TK0tmv9Qyxhr40SCgNJE9FwA6hScdQohNoborKLLSgJYni/f5BNNCAH7RkZG7q148VUaNBpgkZL/7SulC7fPAGPfGx4e3l/lUKs225jLrVeM6w+r+sOxPtHN1IGKup3IAKt8eiW1EBEK4XcQEWOMtTPF1i3RGaFTKflq/bNkwj036jmYj3dcAyxdbN9l7sOIaC0T7DTB8PKYdDpS2AkNQvQLs5svMNuHC7C7CDviqZeW6uh4ue7Ddd2tjnD0uogVYM0W5/6elDqIRL8bO3DgjzHr6qTTJ3XogyRWJeBliPC+ePvDwwQ0Vv59Cx/eu3//FWH6axTA0kXbzVgdccqePXvyYcZayaervf0FiNgiHGdTwnHfWcm+3tctwKpXQetfnQIWYFWnk7WqqIAFWBUlaryBBViN19z2uBIVQNi+HWHXLuz9v/9zF7YEIeIqfbHM88wR75RIMC6lAQNCCMGF4IFEF8yR76a1SJDlwsMSyr6crUYirhR0EKgnEFAbZ2yd4LwnDiFXDMAC2OP58o0Bwbjvw+CBA9FlLW3ZssUdH58zWXOtrvwRAD04jrlYiKlI/ZcfBLrA+iwPgh8OTkwMRd2fBVjVKvrnjDVdbWnXLkzt2GHua8dxkkEQcKUUc4LAJQBcfK8nksmEiY7YFkhoAQJUpNYSI8aI1iCwNYt7J8R1UgbP0z9LOM4Z1Y6sRrvjFWBxgK0smx1aJ1A8FQA6GcN+FnPtpCXzAzAARAYi+9lnPFM/Dm88UIKrr5Y1zkFV5unOTr3FC4TrPtjlQsOsWAHWXKn4RqXUQabUzvyBA7dWNcjwRmLt2t61ra0Bd4V4OQM0WzJjvMZZApg0v1uBfXDPK1+mT+AD2L69pi15jQJYimjEvMckE+fcfffdBrxF3VIdHReDBlhCbE447ruijn//eBZgxa2wjV9WwAIsuxIiUsACrIiEjDKMBVhRqmljnagKbLnITaVTbnC4wJ39v+snKq7VW7FcAaZ2SeAHpggvIluNDLP6A6wjeIZzvk7bLYCuZpBvpQAsArjb973/FxAViChfKBRGI9P3oqt4qlCGF613/2AHEm2NLPYRAimCjwW+vE6RKnGX3zQ0NDQRdX8WYFWnaO8j39RSSpS4nJti/J6fm/taIJyBjNbqk7ykUusBSCDiWkSW0a8nE+6p5fsfdfZVLJlt1Y1+idVxCbDa2ta3Ow61uC5udBh9FAFOafR7qAT4ZLEU6NNHoVAY+WUI7Wty6U5lzPZILsSpgjN92mIspw8uDMrz5SuAYJIR2zVYGIylrteRBOjv6XkVIPsQECEgLoG6NQlWpbFizva5jU/7NzOPOz49XaWbMWsQwKLZueJPdX+uX3rB4KFDBrxF3bKp7NMZskSjMhktwIp6Bm28IytgAZZdGREpYAFWREJGGcYCrCjVtLFOVAUswKpq5nOZ3AVAwIXLX8MA4jpdzYzFAqyqpuQ+IwuwqtPLAqzqdIrLygIsC7CiWlsWYJWVtACrnhVF5cw9lixvA2eJtcAS83X4iMp/ith2bBSwAOvY6L4Ce7UAqwkn1QKsJpwUO6RmVCCV6n6sHhdHOgmJTpuHJI/Ux08LwbsF573NOO5ax7RSMrAA4E5PsUs8T+UBWg+Pj99hii5H0mwGVmgZm70GViaT0bXmsro+lcPYFkDsJaJ2UmBOA3QdsYUxZrb3HuftuMzASnd2vhYAH80Q1yYSiccg4tL6YTFNChGNe57/OR0eka4ZHhv7VUxdPSBsurPrq/qHgos+13UevVIzsNb3rL8Ukd6jrw8BTopbXwX0iaLnfVH3MzY2pk9grbo1LgNr7ut6UL6Srz1w4MBU1QOswdACrBrEeoCpBVj1qBevrwVY8ep7AkW3AKsJJ9sCrCacFDukZlTAAqz6Z6WRGVgWYNU2XzYDq6yXBVi1rZtGW1uAZQFWVGvOAqyykhZg1bOiLMCqR714fS3AilffEyi6BVhNONkWYDXhpNghHQsFtm3bLsZSu9jsb+9qnZsbOQ0CaHVc1iY4P0WPRyowj0C0DhBT5eeqlwBchmwNY7j2WIw76j5tBlYVitoMrCpEOrJJU2RgbX2Vs2XjARz9/e+TyUOHHqRH6gr3McAAifR9rNaVk0BUigDagCipCMypn4Jzfe+7oQVoHsfjKgMrtW6dOe3PTSZfjcAexRASyPkGBCgfehFTI0WHFNA0EA0TOTo7CHyC2/L5e/fE1OUDwqY7u76tf+gIkXMc56ENyMB6YUA0iajuzOfzDbvOvlzuBUT4TgTinPPT49ZXKfqcpwKT3TY6OnpdLf01KgNrrlQ0GWK+lG+enJw0JxJG3dKdnc9FxCQX4mRXOO+NOv7949kaWHErbOOXFbAAy66EiBSwACsiIaMMYwFWlGraWMexAv3btidnYEywPTekWLHwHFAqxRnbIBxhTpkCgBUBqCpNkQVYlRT68wl0FmBVIdKRTZoAYGFu66ta/DWCycGd65LT975Qj9QVzjvmwYA+MbB8auDKbscXwOro0KfvQTLZ8jecsUc0amoCKQeDQI4Aw73y9AvNGNafcnZp52df7TdqDOnO1LW6LyFExnXEWeaTWYyt5AUX6tNbpWR7JieHBmPsaknobCp7EQC9BRF5wnUeEne/RPQV31ff0v0Mjw1/p5b+GgWwir73KT0uz/cviwtgdbW3v0AfMCEcZ1PCcd9Ziw5hbC3ACqOa9aldAQuwatfMehxRAQuwmnBhWIDVhJNih3QsFLAAq6y6BVhVrD4LsKoQ6cgmFmCFli5qRwuwqlDUAiwLsI60TCzAquLmWcbEAqzw2lnPWhSwAKsWtaztURSwAKsJl4cFWE04KXZIjVQgl87porjguOKvEGgzASb01sByFgYmAahTv46IopHjOlZ9WYBVhfIWYFUhUnMBrL6uvpxk8iS9VUY4/GUI1EGELqDqNyMl2DB/n7O4t2iFFi9ax6YHWKnUltXF4pTJhmtfAyYLCRmehIAd0UrxgGgSAEr6p1Kq//GC4IcIeGh022N/YiyvvkoBYMNOF8uk0r/W3QrOOxwh9FZ2m4EVwQKwGVhlETNdmQvKWwjxFIeL90Ug7VFDWIAVt8I2flkBC7DsSohIAQuwIhIyyjAWYEWppo11HCqQS+eeo4ftCvZmYHi2Pn0MEVtPkA+xD5gxC7CqWMQWYFUh0pFNjlUGVm+qd7NC9SBAaHUFew8gZomAIcLq0BdzfDs2PcBat65/nRBSvxfD6iTcNi93i/6+IWbpfSAq6uMGlaL/KAbeV5VSxfHx8Tti7veI4bOpzE3zAKtdCL7JAqxoZsECrLKOtoh7PevJFnGvR714fS3AilffEyi6BVhNONkWYDXhpNghxa1AT0dPr2Iqo/txXP5S/cgQngqIffPgShdpjvVb7rivMWx8C7CqUG7rVqfNazHgo/3gvv8FoljrtSiCjwW+vE6RKnGX3zQ0NDRRxShrMlmhpxDy3lRqIzCWBM7PZMAeAYguQ3g26OLsADrb6kSod3WktdD0AKurq3srImlgA6sSzpXzF6Hfm3lNi7tGYwIaB6I7iVASqG/MFIvf45z7hUJhtMZQkZhbgBWJjA8IQoq+XvT97+oX8oX8N2rpZSVtIcx0Zp4NDJKC4ymOcP6pFh3C2NoMrDCqWZ/aFbAAq3bNrMcRFbAAqwkXhgVYTTgpdkhxK9CTzZ6vJJmtg4mEq4s32zavgAVYlZfC5s2bEwcPlszW0tVJvAaAzAlpcTULsMIpuxkgMZvJvBgQOwXnj2XIFg5kCBdwZXk1PcBKdaZehwAXaNlbW5JPaZz89CdfyquIyGNE1w3m8zc2ru8H9mQBVjzqKxl8c65U+qGOXpicNKf9VdtWEsCyRdyrnfUj2dkMrHrUi9fXAqx49T2BoluA1YSTbQFWE06KHVKMCpisqp5M5nylYAFgvT3G/qIKreutNCQjzAKsylNmAVZljZazaNAWQnOv9Pb2JqXvvwj/ArDODz/yWD3vX0+pEfd6MwMsc/2ZztTr6C8A68mxzkA5uJkHBXSrlPIb8wDr+iYCWB1C8I1x/y44UU4htACrvOgtwKrnncUCrHrUi9fXAqx49T2BoluA1YSTbQFWE06KHVIcCvT29nYo33+xjs0538aQbdXPEXF9HP2FjKmPZjfHsxPAQf0opZxRRJIBOpyzLkTU9V90QXm9lSbyZgFWZUktwKqs0XIWjQBY2a7sefpABkRMCFdcighdessgApqsuSZoBIhjRCSVlCVJZAqGLzQEdBzBu+f/b2pAxdCaEmDpe2tqYuIJ+noTyeTLGONP0s8ZYnsMGiwJ6Xn+7/WcEIPfCKU+oRyn2FosTg1MTh6Ku++jxV+f673dvI6wmiHmLMCKZjYswCrr+Jci7vwUhzNbxL2m5WUBVk1yNdTYAqyGyr2SO7MAqwln1wKsJpwUO6Q4FEilUlnO2GU6tivEYxiyWLd9hbwG/UHWfJglgIJ+9IPgkJIqYAwTQogcQ9TgSkMsXcw48mYBVmVJLcCqrNFyFo0AWLlU5q8I4GxATLiOeAkiaoDVTI2AaB8hBjII5gKp5hYPTt/rruOUT0cEWBvTwJsSYOVyuVa/WLxEX3NrouVS5GxbTNf/gLBzxdLPiSgAohvc1uSHBwcHl8xLo8Zx/3429PYN6J8hwWpASFuAFc1MWIBV1tEWca9nPVmAVY968fpagBWvvidQdAuwmnCyLcBqwkmxQ4pDAQuwqlPVAqzKOlmAVVmj5SwswDLKWIC1zAKxAOuBwliAFf795mieFmBZgFX/yrIAq34N44pgAVZcyp5wcS3AasIptwCrCSfFDilKBbq6uh6KSp0luJNLJNx/jjJ2tbGKJe+32hYRhhDhRkBUSsI9EjBPwp3BU8+/U7+eShW83Vdf7R0pbm8qtTlAvBwINwjOOoUQuhZK5M0CrMqSWoBVWaNjAbBy6dxzdL/C5W9iAI8LP8pwnopoyveDe3QWDyHdoYLgF+a+F2Knfkwmk/v27dt3oFL07u7uDRSoq41Pwj23kn3I15sqAyuTyaSJqNtB7HIc91vz15SMa6v0/TQzWwT9ojq3BGza86h46NCgnqf71yYLKXV9braIe336LedtAVZZGVsDq571ZQFWPerF62sBVrz6nkDRLcBqwsm2AKsJJ8UOKUoFLMCqTU0LsCrrZQFWZY0swLIAq5ZVYgHW8mpZgFXLSqre1gIsC7CqXy3LWVqAVb+GcUWwACsuZU+4uBZgNeGUW4DVhJNih1SvAv39/cnZWWwjImxx5RsQ4a+RSABiqt7YFfwVEBQIYA6AiiVJ/6DtS6XZG/Qj51wlk8lAP1+7dq3cvXu3/oZf/5PzcZf9xt9mYNU8c3d6il3ieSoP0Hp4fPyOwzVHWMbBAqzwSka/hbC3JZUSbXpErQlpMp0QQBf8jqVG3KIrJyK4V/8/UOrjkuAupeiA4+Ads7OzgRBCtrW1mQMZBgYGzD1vDrirIqvnRMzASnemnwugXsIYSyYTiafO69WI0xhhbm72Dbq/ljVrPrd3716dAbvwvhx+oUfome5M/USHE0KkXUcnn/VuAAAgAElEQVScFXcNLC+QLweCSabY7sHC4F0RXspRQ2VT2YsA6C2IyBOu85C4+yWi//J8abL9RsZGvl1Lf319fc9hBB+ef7/ZVItvDbZU9L1PaXvP9y+bjOkwgWwq+wx94AXj7DSHsw/UML5Qptj9lL97kxEOQZ+qE/tEhxpltU4WYFWrVOPtLMBqvOYrtEcLsJpwYi3AasJJsUOqV4He3t6WYpGvA1C4KgFv/vPWvb8hIoaIq+uNXcFff0DNE8AsAMzNloLXavtCYeSX9fZrAVbNClqAVYNkG3O59YrxWzRnnYc/+qCAyFvUAKt8r5dPqFudhNvKn4uwhYhiGf8iQRQB7DEfLiV9MAjk7VLS5ORkz50AOw24CttORICVSqUuRgWvYKgPH0w+Pqx2YfxmZmdeYd6nJye/snAKbJg4cfmkO1PX6thCiExDAJYvX2EAFrFdKxxgfcX3lQFYw2PD36ll/lYYwHo6Q5Zggp0mGF5eiw5hbC3ACqOa9aldAQuwatfMehxRAQuwmnBhWIDVhJNih1SvArpgO0o8W5ESLS3JF3GGujYO0yez1xv7SP6KaIaUOgyIPiK/ERmO6s+107P+57T9xMRw+Rj0Olo6nd6EAP8MBOsF5ylHiFPqCLesq91CWFlVm4FVWaPlLKIGWOl0OsMUO133l0w6P5zvV5/UqUFc5E0pNUFEPiAGjAvzoTdQwbeLRRomwunJyaGRRRmVofrPtefWSxF8TTu3JBKPDhWkstMxr4HV1dW1xnXdnFKKM6JnIeALAVE4Qpj5jLERKVUgIv1FA8z63sv04/j4uP6iYSEbNsbuawud6uz6nvZwhOh2HZOZpH+Xxda8YwSwcpncJQjwDkBijhAPiu0C5wMrpa70fHmV/u9oYfRHtfS3kgBWpivzLESV5EKc4nARe51QC7BqWWnWNrwCFmCF1856LlHAAqwmXBAWYDXhpNgh1auArnvFFLwSUB9HL7aK8h/DsW1HCaS81/eDAQCa4+7qf1eZ037PmKDhnd9fKNhc94eiTCZz0p8/Kb+LAPocwbsdx4nlD3wLsCqvPguwKmu0nEXUAKsn3XM2gbxQ9+e6zj/O9xvbvV7y/d8qqQ4BYhF7H2LAx+rDcGhg4Ed6m6DeeqazMOtqHR0dfQL5F3SQ1pbkk+sKtrzzMQdYOqtUcf4UvX2JIzsPEZ+hh6u3kMV0zQthlef5v5JKatgI+fHCi+ZfWNjqGXP3tYVPd3QZmCmE6HNd51ErFWCt7+m5FJG9W18fAsRySMli5ZWiz8358r/0zwqFketrmZWVBLC62tsv0VmrwnE2Jxz3nbXoEMbWAqwwqlmf2hWwAKt2zazHERWwAKsJF4YFWE04KXZI9SqQ7cw+TJL/akRMJhznHC7ElnpjHs0/CII9nh/cVQZYaz4SnPr0m5nbSvmffHgmqn4NwJLqMqL7ANaZUcVeHMcCrMqqWoBVWaPlLKIGWLlU7sEE8iLdXyLhviP8yKrzLHrejUqqKUCcowc9X5dwgUKqMAdXX103pF4YwTzA+rz+f2tL8inVjaxmq2MOsHp6ek5RQfB0A7A438aRPb3mqwjnoEq+f70MgmHtPjYxvgCwwkWL2Svd2fVV3YXgBmDpjLwVmYG1vmf9pYj0nnmAdVLMsoIi+uycdx/Aqmmb/woDWC+YB1ibLMCqddXZGli1KtY4ewuwGqf1Cu/JAqwmnGALsJpwUuyQwiqgt6QotQ6Tzuw2hqSzMVoYYxnGWFfYmBX8TMFfqejHRZ++zRj52LL216OtZw5DSzvBzs/WVQtncd8WYNU8g7YGVg2SHV81sLazLVt2CTjjDDj0f196IpPBW/SlMs7Oq+GSazHVWVXmXi75wb9JKe8lxKCQepzJ3oDdV/kAuOwBDLV0pG1XOsDKZrMpKSV3XXcrB3gZAbQywI2IeGqtWtVoryFjQACBH8hPBX5waxlgjenaV03bMqmUgZmC835HOHqNxwuwAvkWIjrISd40ODb2x0YJ09/X9zIg+AAQICBk4u5XEX18ei4w2/wnJ0d31dLfSgJY+gAF/WUfF3iyK5z31qJDGFubgRVGNetTuwIWYNWumfU4ogIWYDXhwrAAqwknxQ4prAJdXRu6deH21iSez4A+CgCrwsaqxo+IphFRKeSfmtv0jA/orKvHtT2sePXVF0eWjbEwDguwqpmRJTYWYNUg2XEFsC66iGemNiSVN4ur7rn2eaC8T8xf6toaLrkWU30/m2xKKeHiOR/+BMBofPxeswUt6rbSAVZ3d/fpUkrXFeJxnLG3I5jDNXR9wlhqFC6aH/2FQ1HXMFOEfzvngcm6GR/fbzKxmrVlM5l/12MTjG0SXOgTGmMFWL4M3k9EhxjRdYP5/I2N0qW/p+dVgOxDQISAuCbufpWif5n10Ghb6xpYSQArm8raIu6hF5vNwAotXeyOFmDFLvGJ0oEFWE040xZgNeGk2CGFVUAXOidyWcKBpwqGH9Q7cMLGqsaPiAYBwQfkX/DPeepHYRhgeOOBUpTbiRbGMV8D6x8JaL0QIus6zhnVjLFWG7uFsLJidgthZY2Ws4hiC6HWfypob6cWhaunJ55NKviQ7i/GU0Y9IjKwKpD0soCSuxCRRkcHCuGVWN4z19HRFyD7krZobWl5Yhx96FpdxZK3U8cmBv+cz+e/H1M/i8JuN+Al23XFYxVTSVeIRwjkryGgVYioC+/rf3G2g0CU19lzpPAdJekYOJPP3z0WZ6f1xs6m02Z9myLbjD+zAQDrclLqEALsGMrnf1Pv+Kv17+9Z/2oC9eHyrYxxffmkMyVNtiQRfKAYuAZg1boGVhTA6sqejwyTjMOpDhfvr3a+wtrZDKywylm/2hSwAKs2vaz1sgpYgNWEi8MCrCacFDuksAqkOzsvJSLHdZNbHcH10eixfqPvy+AjRJRXADeOjo5eF3bc1fjpgscB4uVAuEFw1imEiKXIrQVYlWfDAqzKGi1nEQXA6urqyjGA80ipRCKReKTg4pXhR1TZU8Mrz/Ov1Jbo8M8MDw/vr+wV3qK7u3sDBepqHSGZcM8NH+mong0HWKltr9WZVsB3ffPrAJDhnLcLzk5qQNF2I4QC+Engyc8AgkpQ4sY9Y3vyMWkbadhUR8fLdUC95dIRzqvjOmFzYdCe7/87KZoGYD8eqbG4eT0XvqG393UI5YyoGJveCjyn4xPBe+8d2v+RMH2tJIDV1d5ua2CFWQTGx2ZghZYudkcLsGKX+ETpwAKsJpxpC7CacFLskMIqYAFWWOX+4mcBVmUNLcCqrNFyFhZgVdbOAqzKGoWxsACrOtUswKqskwVYlTVazsJmYIXXznrWooAFWLWoZW2PooAFWE24PCzAasJJsUMKq0CmM3W5Ikq6jtjsOI6uFeKEjVWNny+DVyuAexlje4aGhu6sxieszYbu7tMVY58Bgs2I2MoQ28PGOpqfBViVVbUAq7JGcQKsTCazEZS6RB/S4AjxIMHFc8KPqLInAdxdKvnmeHmREP87ODg4WdkrvEVfOr0JhGMyOjljPeEjHdWz4RlY3d29zzMaMvoXJOjQSUWMMb1VDGO6RhM2COQflVKHAOB/mSs+r7d/JhKJiYGBgVKc/UYVO5VKmdMZXeE+WnD2NgQQUcU+UpyS531NKTXLEL45Uij8OM6+9BJvb9+4WqmArVulXokM/zXO/kjRoUCpcs0zRR8dGhv5bJj+VhLAynRlnlUu4s5PcTj75zB61OJjAVYtalnb8ApYgBVeO+u5RAELsJpwQViA1YSTYocUVoFUR9fnEaFFHzfuOOKRiBjrH/qBDJ7nSXm3UmpsfHw8loLOC1qsX7/+DJT0ZUQ4eR7MtYTV6Wh+FmBVVtUCrMoaLWcRRQZWT0/PKdL3XwGIrZzzUx3Gnxx+RJU9iej2WU++SlsSrb1lfPyOw5W9wlts7O09WQH+bj5CXIXpGw6wctnsW8sgxnk7AMQC4JcBMj+VUhaI8OeFycIXws/MsfFMpbofq3tOuuLxDOE9cQOsuVLp26TUHCL8d358PO7aaE46fVKHUgFflYCXIcL74lRZKjXh+8E95T7w06OFUbM1uNa2kgCWLeJe6+wvtrdbCOtRL15fC7Di1fcEim4BVhNOtgVYTTgpdkhhFbAAK6xyf/GzAKuyhhZgVdZoOQsLsCprZwFWZY1qsSh5ngVYNQhmAVZlsSzAqqzRchY2Ayu8dtazFgUswKpFLWt7FAUswGrC5WEBVhNOih1SWAX6e/tuIYDViLAaCFJxn9Yk3bUPK65//G2pVNrbffV2fUR75C2Xy3V5HncTCTxdIF2BAJsj72RRQD+Qd0spJwnhhvxY/s1R9pXL5C4AAi5c/hoG8JQoYx8h1p2eYpd4nsoDtB6OMmvGAqzwMxcFwMp2Zs8FTpcDwdo4DzS47yoRb57Z9MzH6/8XUoW5OE4Z1VupMplMp5SuaHFgM+cQ66EQ5RrWYDJRiNQ79g0NmaLxUTe93ZOI1ui4rW7ilqjjVxPPD4KvKKkGF9syxmYISRf0Bt/zxvWjEIkDCKhPqJv1yS8gogqc7AQ/+TEHncOBGt752dlq+ovaZqH4feuenzwblfclIIp1azwQ3atPakTCf907tC/UFrtqNchkMquCALcwhsmkKy7kCG+s1jeMHZG6oxQEP9W+jOh7w2Nj5nmtbSUBLFvEvdbZX2xvM7DqUS9eXwuw4tX3BIpuAVYTTrYFWE04KXZIYRWwACuscn/xswCrsoYWYFXWaDkLC7CW1c4CrPDL6qieFmDVKKwFWBUFswCrokTLGtgMrPDaWc9aFLAAqxa1rO1RFLAAqwmXhwVYTTgpdkhhFejv7btHf9uPiC4A6G/9Yy0O3IgMrHR7+6MV5x0u5/2O474VAXrD6lONHxEdIKIiEPx038jQS6vxqdbGZmBVq9RSO0XwscCX1ylSJe7ym4aGhibCRVrea2Mut14xrjNkuC6OHtcBCFEArJ6enkcwgI8hQRsi6n/dUeuxJF4DMrD6+/uT09PTj9DvWwkheh3hfDrWayoHNxlFBOINuPmlX9XP9+7YXqy734su4v2FM0yWUHH3Fa8HotP082TCfXndsUMEIKIhAlh8XYQA0lx6uc1nz6LJyEIESQQeos5SQx8RfKWoVPI8k7GGSENAVNDPObrm8A5/Vfs9rRuePyVaJmjgR5/woJzJFU3bts3Ucuy9feDJCuSHkcDhgqcZYls0HTwgypzRhvH3wsa//gTAXtibmvHjyDzUGcbSl89iBG3CEY/hnF0Y0zWZsET0Gy/wTR00RuK3Q2NDfwjT30oCWPNF3BNc4Kl/Xli2iHtNC8JmYNUkV0ONLcBqqNwruTMLsJpwdi3AasJJsUMKq8CG3r5BLIMr/eEpuRIAVld7+/mImOFC9CbcxGsQIBtWnyr99IcXHwh+vHdo/19V6VOVmQVYVcn0ACMLsJZKsqGn55HA2CdBAyzANQCUDqdslV4NAFi5XK41KJWeRkTrhONkE477/ipHV78ZOq+d2fS0r+hAhR2fnlkEdsLF3rZdpGBMv/8C2/1NDVweop8nE+654QIeey8imit5/q16JIhwJxDsKz/nN+lH1Zq+RfY/atxZE6jhrbkibN+uoh51Nps9DxS9XxNHxxH9nDG9TT62Rly8e/akp3+Uua10ure6tGPH9iDqzlKpVJYjfzESdQjBt3LOY91aTkTX+b76mJk7hbuHxsOdHrySAJYt4l7PqrYAqx714vW1ACtefU+g6BZgNeFkW4DVhJNihxRWgf7evmEiWPvnk4z0N9aJsHGq9QvEmkfMdJ5xe9tEobR37476MxeO0HFXe9clDKFHCNbtOu6lgBjvh3WAEhEEiPCTAOhFekibN2/2d+zYUfeHFwuwql1ZS+0swFqqx4bchkchU58BojZCXI0AneGUrdIL8eap9MOfoK0PbITpODJRdC0gFQQXIWEnEyyddBPmxL6GNHTePL265791X+O3/XK0XoCVOeusVVAC8z7FDhbeB0Bn6+cJxzmjIdcTQydEVPKCYMBcE8E+RDCnziLju8zP3ORtiO4Bxcn3Z0vjvn/YF0Lof9P69cHBQf3FQF0tl0o9RiG+EwGFEOJ0zli82bgo3j+zuvdTjHtqbbHj4MDAj0p1XcARnDd0dXWXgL0SETu5EGcLzrZF3cd8vDJQJPiZH6gP6qeKuQMjI3vuDdPfSgJYma7MMxljCcZBZ2DFDs7tFsIwK8761K6ABVi1a2Y9jqiABVhNuDAswGrCSbFDCqtAf2/fAQDQx87rrYOxbh/UYwwCvq0k4Q6ixEyURcIXX3+mM/V+AjiVc9bmOs7DEXXGSaxNb30hArrOV+q15kMaYiGKbWsWYIWbNwuwlup2Ul/f44jgSgBYRwQuIqwKp2y1XnjLTIk9XVuvX985sXPnTrPVLMrW1tbW7jruu5GgjzNck0gkYs1EWTz2P0P/j/gE1+qfDQ/v/7l+a6vn2vrSfZsCHjxJx3AZ1+8hp8y/j5isrOO0kYZY5joAfML57YYLWxMJpgCxRKSmAqmuV0FwEBiMoRC/K+s6fHu9153NZrcwgIs1LxOcn8+Qmcy2uBoBfMFXcBUq5ROjPw0PD5ti91G27nXdG5SQlwFQ1hGiXwhxZpTxF8UqElEAyL5b7Og1h5NwpzQ9vHNnqML8KwlgpTo6/goQk0KIzQnHfVdM+t8X1gKsuBW28csKWIBlV0JECliAFZGQUYaxACtKNW2sY6xAf2/f1DzAashIgoDOKwZ4p1KJ6cnJgUNxdJruSn8EiM5g+kOt656FiDF/WL/vKq6f9UpvMH8GII7k8/mxeq/PAqxwClqAtVS3/t7exwPBfwLiuvntwrpmV5ztD9NFeIbuIJ1eM7579+7ITxztXdvb4bnevwDRBmS4qiWReHScF7Q4tlT0SRmon+mfDY8NX2O2ENfRcrncaaDUs3QIR4i/QcBYT06tY6hRumoQEhDBZBAE1yqlJhXACCFdrzsZGxsLVWtp8QB7enpOISm1rszh4kJEfHiUF3D/WIrgPwNffluR8lqwZeeesT35qPvLtGVOIqG2A0DWccR6RwhTLy2GZuYHEL81s+mZr9fx1x8OSjt3fjbUWl9JAMueQljParNbCOtRL15fC7Di1fcEim4BVhNOtgVYTTgpdkhhFejv7ZsgorWIqLOvdDHqWJtU8Gxf4QBRaTwKwLN4sB0dHTqTDBLC/SQCPAgZtgjO+xGxIVkMiugmzyvpDxagEO8cGxu7u14xLcAKp6AFWEt1O6mv77GK4ItAtA6BJQAp1qxEAri1FKCpByeE2hPFdrCFK9InWk5OTiYcx+lkAP+GhP3IMOkIcXq41VK7l1Tqy4FUN2jP9s72/6wX0PVls+cSY6/S8Tjjz0CAXO2jOu48dHaWBKJpqdTNRHQYEA4AlrcYFr2i0ZdzftD3fZPJNDk5qbcXVl0rq7u7ewMRbWNlgPUSRIxru50RXyr6jh8EP9WHejDBfjYyMhJqu92RZlKv+yAIsFgsbmIEHwSCHOcsxTmPZVukUkoX8p8FZNfwk5/4Dj2mvbA3gJBb41cSwEp1pJ6PqFqE42x2hfPuuO88m4EVt8I2flkBC7DsSohIAQuwIhIyyjAWYEWppo11jBVodBH3QNEbVKD2K6buHB0d3R3l5afTaVM3ptVxrwTEc6KMXU0sRTTge/7V2pYIrx0dH72uGr+j2ViAFU5BC7CW6tboIu4EMOB78i16FCIprtu3b5/eqhxJ00Ws9SENAjHlOO4VCLApksA1BAmU/HkgpXn/Eo7z1noB3Ybe3gsR8Evl9w5ona9JWMOIVp7p7Nzc18xHKoLfkWB6mya0trbesXfv3qprJ7a3t7c5jrNBh2lx3Hch4vPjVMr3g1v8wN8NBNPE8TOFQkGfUhpJy2Q2paX0RCKBpztIX9QJUZEEXiZIqeT9Qio5AkC/GpuYqPuEz5UEsGwR93pWns3Aqke9eH0twIpX3xMougVYTTjZFmA14aTYIYVVwAKssMo90M8CrOW11NkDBw+WTOHw1Um8BoBiBYwWYC2dCwuworvPdSQLsKLV80jRLMBaqooFWFWtOSr63qe0pef7l01OTsZSpsACrKrmYhkjC7DqUS9eXwuw4tX3BIpuAVYTTrYFWE04KXZIYRXo7+27hQBWI8JqINBHjLOwsarxK5a8a5SSU0rB98cPjJtTvKJq2VTGHM/uOuJ0xtjqqOJWG0cXvEVEU+BWKfrIrIef08/Hx/cPVxvj/nY2AyucchZgLdUt25k9FzhdDgRrBWedQoiN4ZStzksRTRSLRVPkHAX/x3w+f091npWtUp2plyLACxlCwk0ktjLEht/ri0fpKXGa5wWHOfem8vn8TOUr+ItFJpM5SW/hTgrxVMa4OenNtgcooOunmawrKeGCOR8GwtRQzHSk/o4QnsE5W5dw3YfFrPOUVPKyUhDcwDn3RkZGbqu3v+5M5jICyDLGOl0uzo+7dqUk9ZqS7/+fEOLA8PDwvnrHv5IysGwNrHpWgwVY9agXr68FWPHqewJFtwCrCSfbAqwmnBQ7pLAKWIAVVrkH+lmAtbyWNgMr/DoLAv+fFMCMAvjt6OioLnAta41mAVatilVvbwFW9VqFtLQACwAswKpq9TQkA8sCrKrmYhkjC7DqUS9eXwuw4tX3BIpuAVYTTrYFWE04KXZIYRXoyXb/AgFWIWPtnDGdlRFrBlYg5V1AVCSC7xLHr6KHykNvuFAo6OK8VTbCLRe919HGhR2f24JyztTAcd3kJ/QjF7wLAdwqg0VppgDKR8VLJb9TLHk/MmOcKHw5bCc2AyuccjYDa6luqVTqHFRwGSCsdjjvcRznzHDKVudFRHNSygFtTcTeSZz0cxoeHr6jugjzVtu2iy0pYLOFvWxm1zVPQClbHMd5CiJ7EiBywXm3vvVrihmx8Wyx9A9AMIcCf5nP5/9US/jeTO+ZgNDJGJzHGMZeDLqWsTWRrQTAQI/Hl1LXUNzHiN0zND50Zy1jzHRmng2gzhWc9zmu85JafGu1JYC5QKpvBkGg1/uhzm2vuULH2H319ppP4zQnVOrfawSXA2AOGbYyxJP1eSW1jquSPRHNSqlGtJ0ieLOv/JuCIJg7cOCAPq24rraSMrDSnenn6sNhuOCnuIKbg1vibLaIe5zq2th/UcACLLsaIlLAAqyIhIwyjAVYUappYx1jBdKdXd8GwFYhRMYR/EGIGPtJhPqSiehbvq++goiBT/5vx8bGqj9u/KKLeKqQajHS7fru81CVnqKftra0vPAYy3lf94Ef3OLpYr76OPiJ8ReFHZcFWOGUswBrqW7ZjuwZCoK/A4RVQjj9riMeFU7Z2r2CQL5VKbhL3+tD+aEf1BJh89Nfn5iak06iVHBLd+54LwJ1uI5zlhDiQbXEidN2rlj6ucm+BPXp/MTEd2vpqyfT8wgiynLBHs0Z/kMtvieirS+DjxBRXgHcODpa2yEZPamecwipXwh2GmN4eZz66fUQSHWPlFKDn7w843kv0P0Vdny6hi9qyiPMpXPP0Y+uy/UXNH1xjlsqNV4qeTfrPhTSO8fHx3dG1d9KAli2BlY9q8JmYNWjXry+FmDFq+8JFN0CrCacbAuwmnBS7JDCKmABVljlju5nAdZSfewWwvDrLJIthBZghZ+ACp4WYMUm7QMCW4BlAVaF1daQLYQWYNVzz1uAVY968fpagBWvvidQdAuwmnCyLcBqwkmxQwqrQHcq8wFFlHSEOFkI/lQAMFvz4m5ENA2I+ttpTwbyGhkEexDRl2z1N3Tf+fzdY/pRg4/Dh6lNPyfv8MmAQVZwN+sk3OeWx0j6G+msfoYAa+Medw3xSwRQ0vae7/29fky0tPzP3r17D9YQA2wGVi1q/cXWZmAt1U0XC+eEz1egki53zmacPS+csiG8iHQB6DkC8L3A/7i5axF/TbRqvFSS3sGDe/VJYQq2bRe5NcPl7YA3/cBkiBHQE4noFATkrmCPBMaSWN46Ffn2qRBXVn4HItIHN5CS6pogCG5E/b7m8O8ODw+PV4ppM7AqKbT0dd8P/kMpNY5I1w+Pjf2kFm/9u2RqaspxEM8iZGZLn+A8yxnTh5dE3UjveCQipbcTen7wC91BoMqZX4j8YKEwaLbYLrTFv+sYzT4YlDxDv+YmE2+eX2gZRBRRD/R+8W6a873LjDZC/H5oaGgiqv5WUgZWqqPjrwAxKYTYnHDcd0Wl0XJx7BbCuBW28csKWIBlV0JECliAFZGQUYaxACtKNW2sY6xAtiv9HkRMcCFOFZw98xjUk9EA6zuBlHcTohco57NakoWT+/r7+5PT09SuNzQwNXMGAfRxIXoTbsLUMEGATgBYd4xlPGr3XuC/zYyV8y/U+oHAAqxwM2sB1lLduru7N6BSz9YfuhzGHoyMXxJO2VBe+mQ+SUSeL4MP6Qi+ZD8l4vlEQpWGhoYOGIC19VVOao0wYMrZ/Z0n6UdF8gL4/+y9CXwkV3Xvf86t6upWd2vvlloajT0244UxizEBjAmYLQazBQgG/gkk74UXk7AGsv3JOgkhLyE78EiAF0I2QnBCCDsY8BAWm8WAwR68DPZ4RqOR1K3Wrl6q6t7nW2qZGXvGUnV3tW5X/+rD0LJ0l3O/p3pG+ureU0SPZGbhOIlH7lJtux0t2vf96z3P/5ZiLvvK/+disTi7XUcIrO0Inf71uuu9T0lZIlZfOjk/HzzlMuw1Njb2aKE2nxCbsK29lmUFvwCJ6lJE9Vqtfose3ycR/DLDshILs7PHgiPmW9fmv3X+iP5vm90rmNRl+uNk0nlLVLE9cFyl6CsVt/a64L0n5d2lUmm1XXPHSWChiHsrdwV2YLVCL9q+EFjR8u2h0SGwDEw2BJaBSUFIzRKYGJt4pVTScRL2ZZYQr9qFnQ2+VOoHSsoyE/vCsr6p16JYBd84swp+4xzUu/KlP0ZKDTLzIAtxaZWimg8AACAASURBVPB1ojQRpZpdfyf6SSk/rufxSL12ZmbmeJg5IbDC0PpRWwis07mNj4+PWUSXS2bHEeLJQlhvaI5sU730gw1k8BaW6svB+5b5h8y8pqUWs1plvYNJWQm9wyqYwXeDBzNIJS9WRHrnCQtm/dqRGn3NrFIqdURJOUPMM+xbv3Vs7tjd240DgbUdodO/3g6BpWWu9OSr9chOwn6aJcTl4aII11op5ftSBjJTsAge7EFEG2xxcfPfOOWy9kWKHWYOdhH70j+HlJrUH1uW9ZRwM4Zv7Uv/W0Evxd+qevXf1x8ODg4uHjlyJNhF3I4rTgJrs4i7TFm2faFjJ1DEPdQNAoEVCldHG0NgdRR3nCeDwDIwuxBYBiYFITVLYGxs8gqllJVy7Cstpt/ckkXNjod+ZySgj0gRSf8JR2dmbg/DCAIrDK0ftYXAOp1bPp/PCiH26fd6MpF4rsXibc2RbW8vJvL0EwuJWR+50seXNx/O0N3X3YLUC++ent72iYQQWOES3Q6BNTIyMmBZyUfrmdMJ65dYcFBgfRevit6UqDde6ZB2I46qW3+XnpeVuu3k/HxwvLLdV5wEFmpgtXJ3QGC1Qi/avhBY0fLtodEhsAxMNgSWgUlBSM0SGB0tPN6yLMux+Uqb6TcVUZ/e7KB/WdzsmOh3OgGlVFBHRCj5pHtmZvRj1Xd8QWDtGNVpDSGwTuc2Pj6e8TzvHNu2raRlPUcI6w8bLTpS8+5sWdQCSyqqMilFzDoWo3dTPtTdqHfaMLMkUvd4RC+ZhsBq7s37EL3aIbByuVy/EMngKZaphHi1YHpZY8rduvcqpJRHm/WtOi1w9c5IqtbdP9evitXtc3Nz72974vTjE/fufaFQ9Gd6bCYKdlhGcHWqiPtzdOkFYdHFCcv+owjWcdqQqIEVNWGMv0kAAgt3QpsIQGC1CWQ7h4HAaidNjLXLBEZG9g8oJbkvUX3afYbld/U30LqorSWEri2Fqw0EarXaZ4JvDRL2q2dmZnRB6x1fEFg7RnVaQwisB3GzxsfHU1JKTjA/UynWuy11fZ3HNUe4bb2UUsHxQmLWP9d2rzj3fP+Y7/lzxDRjKfmr08XiaUW6z0QMO7DC3UftEFj6VN7w8PlZPXM6ufEiVhzUW7MT9s+Ei6ZtraVS+rkGHb//XUUUHGOsUubZwWostTZ37x33tG1lpwwUJ4GVHxm5hpn77ERiv2MnficKXqeOCYEVNWGMv0kAAgt3QpsIQGC1CWQ7h4HAaidNjGUIgfHx8aezVL9HxH2JhD1lCTFhSGhdH8ZGpfJBvQif1K8vLCycCLMgCKwwtH7UFgLr7NzGR8efoUj+evADfF/qquYIo9cDCbied7vrelpQz7InDs4tz20rAiCwwt1HbRJY909ayOevZhJP1p/oZLH0cKuOrLV+Uu60Hn1j//ODmpLJWtGfvvE6faSx7VecBBaKuLdye+AIYSv0ou0LgRUt3x4aHQLLwGRDYBmYFITUKoFCoXAlSfkWUpxK2Nb5lmXtbXVMk/orUh4RBwVp+UfHlCLb8aGU8pjZD3442Kj8g36Vgg6WSqWTYbhAYIWh9aO2EFhn55bL5a4Uin5Zt0j39b2wOcLm9lJE+qmH+n2uj2TpP/rSR6L1+z2KK/h7xfW8W13X09Jq3vLtt59cOnnvdpPtosDSNceCnW9K74HbLKwfvJ7tUkrdz08X1W+062hR/XYLrMnx8WcqSUER92TS0TuQ9aXvmajule1uiU58fSvPFaUoqMlYveRlQaH4vnrJP3roA9UogoiZwHp5YwfWw5IJ57ei4HXqmNiBFTVhjL9JAAILd0KbCEBgtQlkO4eBwGonTYxlCIG9ub2T0pKXKaXsREK8kplfbEhobQlDKfUd1/c+pAdL2IlrG4MOMlGuLRM8YBDP9b5b99zgMenqkS8NnnhVPDS2QXQw+KFxpxcE1k5Jnd4OAuvs3PQTCaUUF+kWmaT9380RNrdX3XN/I3ifC/tSEvz4zW/LeYxI9UcRdaVavU7pJ8nZzofkw194g3BW1dznHnbfLpbt3+u7KLCqiijYDVqr1cubXFRNSnXf31FnvlhwlimoU6Zlz8gmVzqvk8c+2y2wDhw46BTH5p1gLd+/7j/0ayqVfLxgHoriXjFgTO0rK8zskVK3r9X4RTqmUun4TNSxxUlgoYh7K3cLdmC1Qi/avhBY0fLtodEhsAxMNgSWgUlBSK0SgMBqleDp/SGwTuexf//+5NJSLairlk3xJ4lUcGQlqgsC6+xkIbDae9dBYHWubhkEVsv3LgRWywiJILBagQiB1Qq9aPtCYEXLt4dGh8AyMNkQWAYmBSG1k0BuOPdyIej5QliDqaTz3HaO3cmxFNGsL/1/llIWWanDJ+bmPqHnnxybDI5N2QlxtWDe2o3VcmhK0Q9c3/2AHkgo9aXpubmvtzoodmA1RxACa2fcJvLjwRO0EonEC4TgS3bWy7xWSqlyve6+R0d2sjgXFKgfGZnca1lqn/64L2n/tiBqW70vz5ef8j3vFj12MtP3B0ePHm3q2FU7dmApIo+IguOKUvq3ub4fPCjCd93v6FclxD1CiLIQwrVHHz1byz+snqwl/ekb/7JttY6GhoaGksnkXqWUEEKMCCkGFamMYhkcz3Ns++HMIshFK0+ga7fAOvVOzj/1NUFhd+sHH3kHSfUIFtzn2PZ+Zt6tpxO2842m7886KbXoSXpb3a9/Q0pZKZVKd7ZzkocaK047sFADq5W7BgKrFXrR9oXAipZvD40OgWVgsiGwDEwKQmonAQis5mhCYJ2dG3ZgNXdP6V6e5/6BJFqXRN+cnZ3VR/6C2mrtuCCwmqMIgXU6Nwis5u6jDvaCwGojbAisVmBCYLVCL9q+EFjR8u2h0SGwDEw2BJaBSUFI7SQwNjb2RKXEZRZTLmFbwQ4lwTzIzJl2zhPBWK4eUxHdQkqtKOKSlN7HPaXKlpQnTszPBzsmJnITl+lX2+GnCxav1B8z88P1RpRmYlJK3aGUKhHRkbr0P6zHkFLeMT8//8Nmxju1D3ZgNUcQO7B2xq2Qz78keC/Y9suZxGOYlCUsa7LZ98LOZm25la4j5ysiV0mpi1DrnUSLdbcePCxhtlj8d/06MDA14jgqqHGXTopfYlY/zkQDRHxhkxFIRerbuq8v5ac81/1+Y77/0jXcmxlzpzuwGg+F0OXWV0mpk8TkK6ZlIi4zKY9JBH/XeNI74XveQvCx6wY7sWwhSpxMrtfrlmdNPnx5bs9FHt07q+jwdfVmYj5Tn8nJyTQzj+gdWBq3qqu0ECIpyT1ft7dse9IWdpALSSqov8ZKFfTmOL2JjYj2MLN+1f3PWhg+yh1YdPXr9fw0cfNHfk4JNSWIRiympxHzkC7YLZiH28WrU+MoojXWpJW8VZE6ppjXfCl1Lcg7XdetF4vF2U7FEqcdWGMjYz9FglK2LS5w7MTvRc0QRdyjJozxNwlAYOFOaBMBCKw2gWznMBBY7aSJsQwksP/q1yeXVtadxPQ3pvy1ub/SITpO4iLbss41MNxTQ1oJfnDz/Lf5Ut0lWCzX/No3S6XS6pni3jM+frmU9ILG+l7PzMERkrCX63rvqbu1bzLRsfly+fqw/R+qPQRWczQhsMJxK4zmXytJXUHETl8q+RPMPBhuhI621k/9qymlVur12t96vq9/CF8ulsuBuDrLe/15ivmAJcSFlrBe1WS0bt1zf1v3FUp9enpuLhBYrVwhBNYaM0sl5d11z/8iKVVTrG73lfqeZVnu7Oxs8MCIxvWQTxNsJd4W+t7/VL98Pv/ogCGJJwuiCSHEqG3bVzGTLgyvnwCYPts8kQqsxqSTj702XU95ln38pnPUevFXFNGehG1NJBKJR7aw/l3pqoju1r/T8aV6T82tXS+E8FzXPVYul4N/Kzt5xUlgoQZWK3cOdmC1Qi/avhBY0fLtodEhsAxMNgSWgUlBSO0kcOCag06xOO/Io1+eslZn/1qP3WUC6w+lpLuYeaUu698oFotrZ+LTNoHluX9br9e1wDoOgXXmOxFHCJt/h0Z5hHArqvxo/rVM6gpmTqSSyau6SGD9jRZYTLQ8Xy4HT5E743u9UHiuIrpECHGBLaz/1WQ2jBNYkugWXdvqAQKryeV1ptvY2FggsFjxUxoCa8S27WeZIrCmnvimvlqyZll3Hzo3PgLLf0/d8z6nBZbnecfO9kudKO8ACKzm6WIHVvPs0DMMAQisMLTQ9iEIQGAZeHtAYBmYFITUVgIHDwo6RGL42D9mEktrwWPoE479ZCZ6jP7Ytq3ntXW+FgbzpTwmfT94HLywEv+sXyXLryqlFh3XqY8WRxduppvPeLynUCjk2fP2Bj9M2fbbWNGgZVnnCiH0EaqzXZuFj5W6Vyr6XDCf9D5T8/27lFIbpVKprY8jxw6s5m4O7MAKx21ydPRiV4q8LliddOyfUUSjQojzheAD4UaKrLVyPe9OUsplwbcItr5PiqquW/2yx7xiu657cmkpKGR+pmvPnj1TnucNJYS4gBT/vG5j2dYVTMGun4e8FNGtSqov6mN8den9vW6cTCZPHDt2bHG7vtt9vVAo7JPSHkjZ9FTB9FsPbO9J/+Obfz8lv2VZoqY8f7nm1Y6z5/m+EMu1Wq3MzGppaWlpu7lM+frg4GBwFC9jZ8YV19PsOCnHSp1LFqV81x9Wsh7cc7awnh/EzOw0jhlS3XN/zVdqmpnvikzaXXONRcVLeOjoB7LOxsYl5FE64Yj9QlhPDe4bITbj2twt1tSx8yhzoUjNSCmDHXlsp/9RCOl5nrptdbV8vHGvrDd75LWVuOMksDaPEMqUbds4Qhj6psAOrNDIOtYBAqtjqOM+EQSWgRmGwDIwKQgpagJ7CoXnSl89afOHN+ctUc+30/Fd1/uu67nBN+uS+35Nv5ZK/SWiw6Hqu4yN5t9FpIaTjnOpZVkP9UP75tELpb5Td2VwvFL44pvTC9OBRGv3BYHVHFEIrOa47aN9qVqu8ovENGYl7MfbQjyjuZHa20sX8anV61+RUlWJ1WdJiC/onUepVOruME8AnMrnL/BJ/E8dXcJJvEIwBwL7oS5J9Dmv7v+Nrjs1MzcTCKV2XZt1ujiVSqinWxYffOC4GxvrwVMixfDFn5B7L90o0oZHhz6gj1CaeEywOSwHD4rJm2dS7qot6MgNE7Qx92Q9UDqdCZ4myZtHCoP6i3Xp/5znefdIKedLpdLJ5iYM36tQKBwQRMEvbhw7sSUadc2soG6WSZdS8gc1z/uCjqky9mO/64ye6xZXvRrd/N6m6rS1a21xElgo4t7KXQGB1Qq9aPtCYEXLt4dGh8AyMNkQWAYmBSFFTWBqfPwJUtIlwTfwyURQ2F1KGtsswqts3ix0q38j3e5LKaW2nrq2phRVmVSNBQfFZ11PHq677l3642rdea9+XV29YJnokH60/I6v/Gj+9USUdRKJyy1LF7PWdet5lIiCR6jr3Rebr/S1YFDmH3iu/0/BxzbdMTMzo4u4t/0q5ApXKsuykrZ4I5N6DjPrWjK60PH9NWVanVRJuRqUVCZ1l6vsV66tefP9/aoyMzOz0erYW/0f+9jHJu68c3ZA//dwP/8nEz2amJx2P6J+K09E/PaqJ79gSVV3XOfWo0tH275DRe/qEYq+yEpvyuA8Mfe3i9ep47ie+6tS8ppkecvc3Nw3gjrYEV0H6ICzOFZ6HiseErb9KNviy4lYSCkLRJzQRd6pUcw6gvf7/e91pSh4PzHzIjGtbwqs2o0kqSoFfYuZv2NZljc8PHzy8OGdy+qp0dE9UtjPCt62icTPMalzgnmE2NdA6usgiHmZlDpOzJ6S6mueJz/MxPLE/Ikb24k+l7uov1Zbc4b7rcewkD/7wLE3NjY+GPw9d86jbsr2PaY2vTzo0+GDWkTER2CR4v1Xv8GpLtmicvyTI2KjFNSaSqfTPx3kRgXF3YO/h+vK/xPP8+Ycx1mcnp4utzMXDzXWxMTEuSzl5bqNk3ACAUqkRqQiXYhe/2MxrgvYM7P+u1n/6cild/0qRSu69rJgOh5ERfTDmucF96k/8uQPJAen/Onkd1w6FO7fxHYvYGpq6tlC0e80eF3R7vEb46lq3X1rsHbl/+nZyge0Ond+ZOTZkjmZtBIXJRL22xp/V+mHD7Tv32Vd50/KoPwBjhC2mjH03xkBCKydcUKrbQlAYG2LqPMNILA6zxwzGkVgq4YJSflTpOhhQliDSSfx4xHVzdE/rAXH9uqu933Pc+8lRSfIFv/S+Kbx5Nzc3Hy7AI2Pj/8kEz2TiVKObf8Es9CF67UwCL6RXK95wW/hLSuxMDt77NTCye0K4bRxcrlzJ/TesoyjDrLgl5FS2mH1qc3jK225avX6d5UKnqJ2t0hYr4tKxm0FW8iP/T0RX2JZIp+wbc23bd/0E1GwQ85X9BuVGn2M2ZL5fLocRnLsFGohW8jLpPcX+gfWpJPU4jN44lq7r4orny+lXBZCTs/NzR3tlLzQR2yllJPC10+T839W71BkFtm+VDI4SqUf9Nfmtd7/Xt+oVD6hx5aKbmArcYcuYD4wkP7WkSNH9O6jtlwTY2PXkuJAXG3tKlVKrTOzL4luqnvqr33fXyWyThaL00faMikG6XoCudze4Ih50qpf5hMFMjSZcF7S2CnW0V1Znu/fWa/Xv6X0L3UsK6hXadv24szMTPAESpOuyfzkYxT515z6fosgPlmv+z+lx3XSzmfC7M4ME0s+v6+glC+StnxMwhaBZNa/AGunvPSlOlmr1YIHRUBghckO2jZPAAKreXboeRoBCCwDbwgILAOTgpA6SQACCwKrlfsNAiscPQgsCKxwdwxaR0kAAqs5uhBY4bhBYIXjhdbtIACB1Q6KGGOzWOQyE7uZTNIZHckEjxYWgq3GMRIw2g0CEFi7QR1zGkRg3759QzqcynJlLzFlWHAy1ZeZIMtKKs/tJ1kPdjVIUhP6VSmVYOKg2K0ipY+CnG3HjWJJQSFmZVlBfRNmXhN2clYfJHHdasmv1leUVJX0UHqrYHO1nb9lnZqa2uP7/riUMuFY1iVKiBwr9oWdCuKp1Vav16/1erZWLh+J/FHk+/btS3mex5aVupSIz1NKWVLWh4lkcKSmHZfvW3dJFh5LtZpK0U3t5Hmm+CYmznuyZBqylT/E7BX0P2rtWIcew7L6poN/J13vZle4x6anbUV0VNdDa/uxO52bapWCY0UWy4uYZSE4YkfcJ0ixInYlUTX4OqnTjhdKYkWkKorYZ6USgjePSN1/sahJomAt6xX5ccfxa77vV6I6EnMm/vrJkZ7n9bmua9XWaudaluUISzhOOjul2/tu5YKANUldCH1U6berYkeRsolJKKUeVB+IiTcfgsCkd1L5TLSuiGcDDswrwk7N6S9XV1fuDtr5NM99vCqEUDMzM/rIWNvyODY29jCnUVuJHOfZejpbJOcUC1cpKm5sVG+zbdf1PK+6G09ta9d7AuO0l8DU1FRfcI9Wq8OJRCI4QphIZPYHR2r9+h6S3rhSZEmSur5aVhFbSkp93J6cRCJ4zzzg0kXq9fEzfVQ+qN0opVyRUgW7fqX0g+PyLPguoVi/byosrKNKcF36sujVPV3UXqb6U3fqdvV6vd7O49/tonfOOecMy2p1s+Zc4/3GSjlKsV57S5f+PoGINkhKpeoc1KmbXpjW3LbKD7Q0/gM7b/27LKXMCZG4KsiP8oYUt76WrblYylKlXv9hMPbEVW98U/AB0yuI6LK2rqbTg6EGVqeJ73w+CKyds0LLhyQAgWXgDQKBZWBSENKuEjilCK919Gs5sTF/aRCPkBcG33NJSkqlgm/6SVBGnaVGCBP5nut+L2hnJYO6VsypZXnB0+7hREp1uBCtPT4+fo5Sql8/ety/+MWBMCseenfwQ0Wnr/1Xvz65XPET3mrRsuduHON6PfiFRjsud++VR+3+vJ9Y9eTMze/VgiHS+jpbj6lXP7xxQNRO5Np5hFAdeEnwDX/xQq9G7424aLFSnH/aa4Pi0v7tnzvH8tdHLUvYQqkBUsRSCC2dgvslsVlP7UcXk5TMq74vPSE4aang+Mmp10ZdWrfqT5RKx/UPYm0TN63dMwdF/qnzm/febR+9lEixEHKPtVkMnUlSWgU/lCqLLH7gPaoF9eb7R9AaB/Wl5JIS4i7fZ8+yMmX/4qt25X22tas0MfLI6XrholqGxryjhw7Gq1h6a4lH74cgMH7VKzOy3s/OXdfvV+76PhYy4Ut5CTGP6l/gKF+dp7un+1KB8H7Apf9tTOj6fcwc1B30PK/k+XJBfyylH/xbqEjdREqtE1mrbKe+LSVVfD+xvrh493K3JWfr/aaPw0spWnySIyvfl2UhEkGdw1LpeFufBPxQbA8cOODMz6/qf8PIsuojwd97bbpOPQoKgdUmqBhmGwIQWLhF2kQAAqtNINs5DARWO2lirDgQgMCKPIsQWDtDDIG1M07Nt4LAap4desaVAARWuMxCYG3PCwJre0Zo0W4CEFjtJtqz40FgGZh6CCwDk4KQQAAEQAAEQAAEQAAEQCBeBLADK175NHc1EFjm5qbLIoPAMjBhEFgGJgUhgQAIgAAIgAAIgAAIgEC8CEBgxSuf5q4GAsvc3HRZZBBYBiYMAsvApCAkEAABEAABEAABEAABEIgXAQiseOXT3NVAYJmbmy6LDALLwIRBYBmYFIQEAiAAAiAAAiAAAiAAAvEiAIEVr3yauxoILHNz02WRQWAZmDAILAOTgpBAAARAAARAAARAAARAIF4EILDilU9zVwOBZW5uuiwyCCwDEwaBZWBSEBIIgAAIgAAIgAAIgAAIxIsABFa88mnuaiCwzM1Nl0UGgWVgwiCwDEwKQgIBEAABEAABEAABEACBeBGAwIpXPs1dDQSWubnpssggsAxMGASWgUlBSCAAAiAAAiAAAiAAAiAQLwIQWPHKp7mrgcAyNzddFhkEloEJg8AyMCkICQRAAARAAARAAARAAATiRQACK175NHc1EFjm5qbLIoPAMjBhEFgGJgUhgQAIgAAIgAAIgAAIgEC8CEBgxSuf5q4GAsvc3HRZZBBYBiYMAsvApCAkEAABEAABEAABEAABEIgXAQiseOXT3NVAYJmbmy6LDALLwIRBYBmYFIQEAiAAAiAAAiAAAiAAAvEiAIEVr3yauxoILHNz02WRQWAZmDAILAOTgpBAAARAAARAAARAAARAIF4EILDilU9zVwOBZW5uuiwyCCwDEwaBZWBSEBIIgAAIgAAIgAAIgAAIxIsABFa88mnuaiCwzM1Nl0UGgWVgwiCwDEwKQgIBEAABEAABEAABEACBeBGAwIpXPs1dDQSWubnpssggsAxMGASWgUlBSCAAAiAAAiAAAiAAAiAQLwIQWPHKp7mrgcAyNzddFhkEloEJg8AyMCkICQRAAARAAARAAARAAATiRQACK175NHc1EFjm5qbLIoPAMjBhEFgGJgUhgQAIgAAIgAAIgAAIgEC8CEBgxSuf5q4GAsvc3HRZZBBYBiYMAsvApCAkEAABEAABEAABEAABEIgXAQiseOXT3NVAYJmbmy6LDALLwIRBYBmYFIQEAiAAAiAAAiAAAiAAAvEiAIEVr3yauxoILHNz02WRQWAZmDAILAOTgpBAAARAAARAAARAAARAIF4EILDilU9zVwOBZW5uuiwyCCwDEwaBZWBSEBIIgAAIgAAIgAAIgAAIxIsABFa88mnuaiCwzM1Nl0UGgWVgwiCwDEwKQgIBEAABEAABEAABEACBeBGAwIpXPs1dDQSWubnpssggsAxMGASWgUlBSCAAAiAAAiAAAiAAAiAQLwIQWPHKp7mrgcAyNzddFhkEloEJg8AyMCkICQRAAARAAARAAARAAATiRQACK175NHc1EFjm5qbLIoPAMjBhEFgGJgUhgQAIgAAIgAAIgAAIgEC8CEBgxSuf5q4GAsvc3HRZZBBYBiYMAsvApCAkEAABEAABEAABEAABEIgXAQiseOXT3NVAYJmbmy6LDALLwIRBYBmYFIQEAiAAAiAAAiAAAiAAAvEiAIEVr3yauxoILHNz02WRQWAZmDAILAOTgpBAAARAAARAAARAAARAIF4EILDilU9zVwOBZW5uuiwyCCwDEwaBZWBSEBIIgAAIgAAIgAAIgAAIxIsABFa88mnuaiCwzM1Nl0UGgWVgwiCwDEwKQgIBEAABEAABEAABEACBeBGAwIpXPs1dDQSWubnpssggsAxMGASWgUlBSCAAAiAAAiAAAiAAAiAQLwIQWPHKp7mrgcAyNzddFhkEloEJg8AyMCkICQRAAARAAARAAARAAATiRQACK175NHc1EFjm5qbLIoPAMjBhEFgGJgUhgQAIgAAIgAAIgAAIgEC8CEBgxSuf5q4GAsvc3HRZZBBYBiYMAsvApCAkEAABEAABEAABEAABEIgXAQiseOXT3NVAYJmbmy6LDALLwIRBYBmYFIQEAiAAAiAAAiAAAiAAAvEiAIEVr3yauxoILHNz02WRQWAZmDAILAOTgpBAAARAAARAAARAAARAIF4EILDilU9zVwOBZW5uuiwyCCwDEwaBZWBSEBIIgAAIgAAIgAAIgAAIxIsABFa88mnuaiCwzM1Nl0UGgWVgwiCwDEwKQgIBEAABEAABEAABEACBeBGAwIpXPs1dDQSWubnpssggsAxMGASWgUlBSCAAAiAAAiAAAiAAAiAQLwIQWPHKp7mrgcAyNzddFhkEloEJg8AyMCkICQRAAARAAARAAARAAATiRQACK175NHc1EFjm5qbLIoPAMjBhEFgGJgUhgQAIgAAIgAAIgAAIgEC8CEBgxSuf5q4GAsvc3HRZZBBYBiYMAsvApCAkEAABEAABEAABEAABEIgXAQiseOXT3NVAYJmbmy6LDALLwIRBYBmYFIQEAiAAAiAAAiAAAiAAAvEiAIEVr3ya/i80VgAAIABJREFUuxoILHNz02WRQWAZmDAILAOTgpBAAARAAARAAARAAARAIF4EILDilU9zVwOBZW5uuiwyCCwDEwaBZWBSEFJEBEQud1FGj+04q0nXde2I5gk1rBBC+v5Q5YGdSqU7VkMN1AWNc7lcP9HorvFnZiXl8IZGZVlJOfqUF7v648PXHax3Ab6uC/Gxj702UTl/kue/d30ysXL3lF6A8tQ+JZTFUvb5ktJExIKFLYSy667PC4sLzqkL1e+P0eHRFf05waomJfuudOtrS0vLHpFKJBLVXC4XfP3kyZM/6DpICBgEQAAEeogABFYPJXtXlwqBtav44zQ5BJaB2YTAMjApCCkiAnYut3dsc2yZFcLti2ieUMMKIVzPSyw9WGAdnwk1UBc0zuXOnSCSTOT3C+GlOh0yM/u+75T1vLadc/2LnxiIw+Khd691OpZemG/8Ua/MyJF+VnPf73cWfviEQGCx/xRFlFBKDStf5QKBJThNxElPeqK0sBBI5q1L5yw/kjvR+O8VIlV3PXd9eXX1uJTSTyaTy6ODo8HXZ+ZnPtoLXLFGEAABEOhWAhBY3Zq5bosbAqvbMmZsvBBYBqYGAsvApCCkiAgks9nR8zfHruWllMMRzRN2WE9KK9hBcupVra7ON/5bbr2OjIzonUJKCOGnUqma/nwqlVrXr0eOHPGJyAs7eSfb9/f3X6SUI4hqY1LKoU7O3ZjLl9Ja1h8zk+clU1X9sbtU3BJYmqHSf0ZGRoKP9Q6gVGqz3fT0+CrRzcHXiUh/HdcmASaixP79+7lcLieFEIGEWqmIvEooYfucSbF7adDQ5h9jpWxSNKiI9HuQmShFzI70pVhcWTpNLDOzHB4cmtN9laI1Usr1fW9jrbIxqwWWbdtr/en+4OuLK4ufaiREi0m9u07nSedWv4e2/iBnIAACIAACu0QAAmuXwPfctBBYPZfyqBYMgRUV2RbGhcBqAR66dhkBvdvj2kbMzyWiK7okfv0DuG9Z1sZg/8AR27IrQvCssMRtOn5Pys/q10QisXDixIlpw9f063rzExH9JBE93qBYA6lFRPp1Q+/6GRwYWHBsp8pMi5ZtfTsQKNz3b67rucmkrJ04cWLBoPh3OxQ7n8+fx8xp8v1HEvHVpIhLiwvPkUppmaUFl9WBIG9vzPEVIrqHiOrZbPZTqdTwkpTJtXL5yINEcQdiwhQgAAIgAAINAhBYuBU6QwACqzOce2AWCCwDkwyBZWBSEFJEBCCwIgIbYlgIrBCwuqgpBFYXJQuhggAIgMBuEYDA2i3yvTYvBFavZTyy9UJgRYa2+YEhsJpnh57dRqBbBZY+KiiZ2U06yUVm9ohpTUkZHDH0pTyiXxOWNZvNDNytP1bC+brr+nUhMouG7ToxVWAFxzGJSB8VdHWxdyfhbAghPCZVlUoF9cjqrn/r5lE0WZFSzurP9ff3fy9lWWsJIUoz5bLeAaePrcX6OnDgmqDQ+sLcfz9GKTXlKjexvr7+aKXUADOPC+YL9a6rWr2+Xym1VZRddABKqTHHMSLSdeV8IcQdRKKSSDj35ob6b/d93xOO882ZmZmgmD8uEAABEACBzhGAwOoc696eCQKrt/PfxtVDYLURZruGgsBqF0mMYz6BbhVYW3WZ9DEsLQH064OuVCo1PZDpP6y/oIT110S86vvinnLZqGOFpgqssHevlh9aklA2m/3nPsc5yUrdMb+4eGOj1lLY8bqqff6pr8nqgMVtH/15JetP8H2ZXFpdfrLv+yONe7QTsmqnzIL3T8pxvjU8OHyDUqoqHPvdMzMzW7Jrp+OgHQiAAAiAQIsEILBaBIjuOyQAgbVDUGi2HQEIrO0I7cLXIbB2ATqm3CUCEFi7BP6UaSGwdj8HLUcAgdUyQgwAAiAAAj1JAAKrJ9O+C4uGwNoF6PGcEgLLwLxCYBmYFIQUEYFuFVhN48ik+u7KZLK6mPWqTGTeyRc/52bhrKq5z/1T8OTCXbjiIrBORbe1Q04XCC/qY2uOk/ro4ODwZ4hYFYszuqB4119TU1N91SoHT+4slY5/obGgSSIa6KbF6SO4w4NDX7cte50En5Qq+ZuNNQXHRHGBAAiAAAhERwACKzq2GPlUAhBYuB/aRAACq00g2zkMBFY7aWIsswlAYEFgRXGHQmBFQTWiMSGwIgKLYUEABEBgBwQgsHYACU3aQAACqw0QMYQmAIFl4H0AgWVgUhBSRAR6TmBZQqxawl5XrFwp5Xd8RXNEvDiQLfyJZryyMl2OiPXZho3jDqytou1uowi8Lrg/L4TQNZZkfnT0fRqG7TjXTU9PVzrMu8XpnmoPDt7dr5Tk9fXi5VLWr9UDKqWe0Rg4pZfW4iSd7q5s215kYl8/DMH3/UM6gFwu9zZmlpVKZXllZWWxF4rxdxo85gMBEAABCCzcA50hAIHVGc49MAsEloFJhsAyMCkIKSICPSewGgXFpT7WRkT6qYX66OBcLrf3pzXjUul4p49NxVFgbd2uWmRpzvrSRcz1HzWRH/9j/QmP5B8Vi8W1iO7tSIY9cOCAMz+/Pqofgrm8PPs813Xf3phoMJIJOz9onYiCJ3fmcrmfEUL4Usr5UqmknzAZ+6dJdh43ZgQBEOh1AhBYvX4HdGr9EFidIh37eSCwDEwxBJaBSUFIERHoVYG1JVYWiEg/Pa/U1zfwBs24UnnztzZZH9RtOvEDe9wFlpaF+tp6YqQaGRx+r/6E5dh/ppRat6u2N7s2q3dndYJ3s2+l++I/yLncuzIbG+6FSimrVtt4hpTeWxoD9jc78Fn6bd1/yrIsvZPtR5dS7EuZOIXrGZ/C2WQ8eq7jum8+n3+t3oElZeJoqXTFD4kuuS+mjr0vmgwf3UAABECguwhAYHVXvro3Wgis7s2dYZFDYBmWEB0OBJaBSUFIERHoRYG1+S7fvGqNHUJVIr5Rf2Lysb/wMv2aHkv6Rz79Tv31qK84C6xTWd8vWYQQc/oLIwND/8qWtSGUKvUNZP/m6NGj1ahhNzv+gQPXOEt9w3bx9g9f4G4s/xYp6tO3C5F6dGNMq9mxz9JP33uuEEIXWD9xahvp+9biyvJU43PtPrKo3xvBfV/Ij32KmBSJxCf8i6/498TqsJzpn6zToYNem9eK4UAABECgZwlAYPVs6ju8cAisDgOP73QQWAbmFgLLwKQgpIgI9KrA2sKpdwfpP/oH8qP6k/mnvuZx+jVDY97RQwc7IVTiLrDOeuvmh0b+ky1RIUUn7ZTzuzMzM3o3nJHX/qtfn1yu+InFr3/okV6l/M7gFiHSxwYnIgpY1warW8Jy86M5/dTM+y+ppD1fKp7f+ESaiLZ2Y7U1lEJ+XO9GVGzbH6pOXvF3dn/eL656Nbr5vafvCGvrrBgMBEAABHqLAARWb+V791YLgbV77GM2MwSWgQmFwDIwKQgpIgJtEVjMXGLmdtaOEvrckl6zECIphHD0x57nDTQ46P/W9ZT0pXe+NHuESsurreOEwa6gsT3nBjuwbCXKMzP33BER91OHbUVgBTvJmHmJmYNjX01cbAmxJUAEKQ52EilWeocRSd/vk0rpr2vGerdP23Ya9afTNxKLGjGXknbyXbalKr4Qx4rFoq63ZNRV2HfxPvbruZXlxYvWV5d+l5TS4kj/GWkyUH3vBcJOCHFE7wRUzBUldU02qfROYCJVtyzLy43kgntz65JSiuJCsSHOOMtM+v1gCyEySikWQvQL5jHdvu66Q03GR4MDg3cFbzBhfczJDn6YhfBVnY/Nzh4pNjsm+oEACIAACJxOAAILd0RnCEBgdYZzD8wCgWVgkiGwDEwKQoqIQFsEViKRuH6ov/9D7YqxXq87y2trgRgYyGTHU6mUjpPmF0qXNeYYJQp+aNcyRUuELZnVSgjBsaix0dyHg0EU3TxfLv1FKwPusG8rAksXSNdPkPv68MDA+3c432nNFJFwHCdgrZRySAY8yZf+ufp1eW313FqtpnnrJ+tNNng3M9VZ+wghNkaGhm8SLDwifs/8wvxH2jpBGwabGBv7GcV8ebVaLSyvrLwgYNXapY/pBTurcsO5P3QSzjrZ6Xure5/wQ6tvUO50p9PAwNSI43DKUf4A27xfKWVL6T2SmJ+vx54tzgU7Clu5+pLJbw8ODt7EzB4r9eGZ+fmvtjIe+oIACIAACPyIAAQW7obOEIDA6gznHpgFAsvAJENgGZgUhBQRAQisH4GFwILAOuvbDAILAiuiv4MxLAiAQI8TgMDq8RugY8uHwOoY6rhPBIFlYIYhsAxMCkKKiECrAmurmPM7iOhXIorxQcNOPfFNfbVkzaLjNxWs1ZmfJlb5tbW1C9bW15/RaKx3C7V0MVtfyeXGflMPYlnq9tnZ2aiOTbWyA2u9Ub9L7xq7tqUFb99Z7NmzZ7hWE8nl5YWC6248u9Hllxu74TRzXRcqzBXsIDu1Q7qv71NDg4N6h09xZnb2nxrrCzNm29pec8011g033DSuByyXT/yplPKljaOUYY9RbtVaU/nh0ffZtr1MQsx7D3/R/9VjFw+9W+cxqicwBvcwEf0UET2q8XHYY7db8ft9yb6/Gx4cvl4KuTg7O/ultsHGQCAAAiDQowQgsHo08R1fNgRWx5HHdUIILAMzC4FlYFIQUkQEILDOAhYC60FgILAgsCCwIvqLGMOCAAj0LgEIrN7NfWdXDoHVWd4xng0Cy8DkQmAZmBSEFBGBrhRYB665xtkoZsTGvd8a5I3iEyyi7OrGxr6NjcoTNCff965s8NJ1ioJi5GEv27a/Nzw8GuyQIZKfKRaLQUHrCK5u2YHF+Xw+47oZu1pdGqxWlx6hWQghXqDrYzHzsCWsYIeP67lTSqnkDljpnT2nXYlE4rtJx7mDiWb6Mpk/TSQSnud51bm5Ob1LqaPX5ORk2t+o/YSyLC4vlV/r+d7TGwGEqrkmhFi0bfuEvpEG09m/tp2kLrq/4jz8qq/o8Y4e+oCuhxXVDqzn6jksy3qWxdZFkqQG+viQu+V0bPqPzPZlP5Xtz36bJc+cLJ18X0cTgslAAARAIIYEILBimFQjlwSBZWRaujEoCCwDswaBZWBSEFJEBLpSYJ2Jxfj4+JiU4iL9tWLx5HsbbYaJKDgCFvZKJBLF4YGh7+h+ktUflUqlqI5LdYvAOiPCXO7cCU2I2dvP0n21brSwtPgs3/d14fdmrioR1Zj57pGRkVdbllW3bXtxZmbmWDODtdKnkC3kZdLThfzF0urK5fV6/fxmxnMc5wcjw8NfYCIpNjb+4MTq6kIz47TSZyI38WMseMqTXqa4UPzfSqm9TYyn+jP992bS6SKROjxbnP8fTYyBLiAAAiAAAqcQgMDC7dAZAhBYneHcA7NAYBmYZAgsA5OCkCIiAIF1FrAQWDu74yCwtucEgbU9I7QAARAAgV4lAIHVq5nv9LohsDpNPLbzQWAZmFoILAOTgpAiIhAbgaVPSU1OTgbH1lZW1oNjU7XaxrNc131VM+z0liJm3tB9Lct648jIOZ+q11VtcfHu5WbGe4g+Xb0DSx8f1GubnJx06vX6kP5Y+f7riWjvRrV6QaVSeVyj8PlOsQXH1SzLWs2NjHyFSUhi/tLs/Oyf73SANrbbK4TQx/wspdSwUiq9g7H1scitI3f6aKAUlvVf+f2X/K7uOzcxcpwOHdp6+MEOhmtPk3379qXW19dtpVQ/+eo9itS+SrWS26hUJsLMIIRwmdln4ltGc+fq46M0NTW0ePPNN7thxkFbEAABEACBTQIQWLgTOkMAAqsznHtgFggsA5MMgWVgUhBSRATiJLDuR5TPTzxZ/8fSUvmFrlt7c5PstITQT8kjIRKvHRkpfKJeV9WVlelyk+OdrVu3C6wHraswNvarxHzu6traJevr67oeWaiaUXpAy7Iq+ZHRw0QsFdFn54pzv9Nm7jsZ7hwi0sdI9VP7dC01XVNtu+v+Jw4SkT4OKUlYH84/5dXBfVi84f+sE3NU9a62i41yuVy/zZau7Xbe2vpaYW1jvZmjhPpHrltyuann6AnHxvpLhw8frm87ORqAAAiAAAg8iAAEFm6KzhCAwOoM5x6YBQLLwCRDYBmYFIQUEYFYCqxCobBP81pbW3uB73lv1B9Xa7VzlVJaRIS5giLjjuP8/mBm8Aaf/XK5XL4tzAA7aBs7gTWZz/+4L8TQxsbGkzzXfYkWQK7rDnu+H+zQ2smld/r0pVLzwW4m5s8lk4MHdb9yeeb4Tvq30iaXy01K6ViVyupUpbJ6fUNgJRqv2w29tfuqnkwkbmYhllmIL573vN94p+54+LqDeqfSrgksvROrur7+KmLOr6ysXL5RrT5ruwWd5et32nYyeG95Xu0m7YubHAfdQAAEQKCnCUBg9XT6O7h4CKwOwo73VBBYBuYXAsvApCCkiAjEUmBtsRofH3++8uTr9H+XygtXSiV38mS8B6FOpVJ/259Of5OJjs+Xy1potPOKncDagpPP55/Dil5HiuyV9dULqtVqIBbDXpZlXz8ykn+r7lcsnvxy2P5h24+OFh4vBCcrlY2JtbXlf21mBxkzrw8ODr4/nUpNS6Lvz87OfjpsHBG1t3K53H4hRKpcLr/S87xfaXKe6fsekPA3jb4fIKKZJsdBNxAAARDoaQIQWD2d/g4uHgKrg7DjPRUEloH5hcAyMCkIKSICsRZYWqCQUr+o2S0sLPyEVCrVDMd0KvW+dF/ftwTzvfPl8mebGeMh+sRWYI2NjT2LfPVqRcpeXV97eLVafViDA4dhaFn2F3NDo3+k+8wtzH0hTN9m2o6MjD1RCJGsVjcKa2sr/9K0wOrvf18mkzkuiW47efJku++bZpam+1j5fP58LbAWFxZf4fquPtrITexOPEFE72sEoY8k6v/GBQIgAAIgEJIABFZIYGjeJAEIrCbBodsDCUBgGXhPQGAZmBSEFBGBWAusXC53oSDSRcSpuLDw17oQd6OgeCiBkkmnP51O9d0piG+bK5e2fmhvV0piK7AmhibOdW31CKWUvbJSfrnrukHRbyLaSTF03S44wplIJO4cGRgKdr7NLRTf0C7wZxvHcZyfUUpllVKjnufpnV+ha3gx83Imk/ntgXT6DinEzOzsbLuPnjaLgXO5XHZgYEAsFBdeqqT/GklkbVQ2LpQy1A7FFSL6eiMIXbT/jmYDQj8QAAEQ6GUCEFi9nP1Orh0Cq5O0Yz0XBJaB6YXAMjApCCkiArEWWJOTkznP8/ZodvPz8/oIV74hI0IJiWw6+9V0X+peUvSd+XLpz9qci9gKrPHx8YzvO4NS+tbS0uwvSym3ngg5uAOG9xfRTzrJucH+gUAAzS8Um63ZtIMp72/yWiLSMWrhqXcohbpfGqMs9vX1va6/v/82z/N07bTIa3eFWaBuOzY69mIi9WqppF1eWrxcSrlTsai76wL1RxtzvpSIvh92frQHARAAARDAUwhxD3SKAARWp0jHfh4ILANTDIFlYFIQUkQEYi2wpqamRlzXndTs5ubmPkNEer32Dotx348825e+MZVKHVekvr2wuPgnbc5FbAXW5ORk2nWdASk9a3Fx5nVSyv/R2AE3vgOGWmDpHVjKcZziQKb/dt2ntLjwzEbfrWLpOxgqXBMhhN5RpAXWkJTyTS0IrNcMDAzc6rr2Url8QteMMuoaGx17EbH6BSllory0+EQpZSZEgFpgbUk5Xaj/eyH6oikIgAAIgECDAHZg4VboDAEIrM5w7oFZILAMTDIEloFJQUgREYi1wHoAsy/pTSeNXVijIXnqAtX6yNSh+1zYL4Xsu13z2AqsUxaudzBdSURPbMigoCB7iOv+3Vi53N5zdb9UampxevrGSogxdty0UCj8ASk17Hpe/8LCws82pNuO+zcaLtipoRcPX/7T3x7ss9wjn35nLewAUbcvFApPI6VeLH0/WSqXr5FS7vgpkY0nKfqNGK8gom9GHS/GBwEQAIE4EoDAimNWTVwTBJaJWenKmCCwDEwbBJaBSUFIERGAwNoZWAisnXE6WysILAis1u4g9AYBEACBmBKAwIppYo1bFgSWcSnp1oAgsAzMHASWgUlBSBER6BmBNZbLfZAUj66sr15QrVbPC8lzg4jc+3YQ6SfJvSxk3+2a98IOLBoZ2T8gRC2r62GVyzN3N6Do45yhrslC4Td0B5vok8ciKoyeH82/g0mNur6fWVxa1IXnd1L032ssRO+00h8vENE1RPTtUAvsYONCofA4QfQ0z/NSpXL59VJK/fdB6CuZTD63v3/su0RClUr3ngw9ADqAAAiAQA8TgMDq4eR3dOkQWB3FHefJILAMzC4EloFJQUgREYDA2hlYCKydcTprKwisFgFG0B0CKwKoGBIEQAAEQhKAwAoJDM2bJACB1SQ4dHsgAQgsA+8JCCwDk4KQIiLQMwJrPJ9/v1JqZGVt7UC1Wr0gJM+tXTW6ELwuWN3Oqyd2YOmC7qur3KeUZ1UrC8ETBX3fG1Ehn/A3WSgE9bPYsv7jxIkTt7QzEVtjNbkDa6selC5u3hU7sPbs2XOp8rwnS6X65ovFX5FK6RpxoS/H6Xvx0FDue8xCzs3de0/oAdABBEAABHqYAARWDye/o0uHwOoo7jhPBoFlYHYhsAxMCkKKiEDPCKyJ8fE/VESDy0tLV1Rqtcua5PkJInp+k33P1q0nBNYpixdjo3ktAqlULl0plXLC8BwbzX1Qt1eC/6ZYLH4lTN+dtm1SYG0Nv7Vbz/gjhFP5qf2S5SM86WWKC8W3K6WCJ3aGvdLp7Kszmf4fMAtvfv7EjWH7oz0IgAAI9DIBCKxezn4n1w6B1UnasZ4LAsvA9EJgGZgUhBQRAQiscGAhsMLxOlNrLbA+3RBYT4XAah1osyO0X2CxPz8/87Vm40E/EAABEOhFAhBYvZj13VgzBNZuUI/lnBBYBqYVAsvApCCkiAj0jMAqFAq/Koj6y4uLz6jWak9qjid/dmjo3JfrvktLdoXoiD5a2OrVczuw0n3pv9LQKtXKq5RS6TAAk8nkVxvt31qr1XRR/bZfhdzYQX3c1PP9gYWl8s/usIj7Vhz6+KAkorJtp/6/bLbw3XS6Xp+ZmdE7s4y6CoVCXkp7gj03vV5d//9JyfFmAnScxJ+LRPqoXnepdNLYovXNrA19QAAEQCBqAhBYURPG+JsEILBwJ7SJAARWm0C2cxgIrHbSxFhmE+gZgTVZKLyGiLLlxcWrq7XaU5tJCzN/fnR06ueCbwO4ulIsFteaGecBfXpNYOkn+r2lwUC/ZkMyvL3RXj+N8GMh++6o+eRY4deVUkOe5w0WFxd+kULW6WpMUk4mk6/o7x+7xfOsjaWlo0s7mryDjfL5fFap1IAQ1Kf86uuZVL6Z6S3B/+Qzn2RmOTc39/1mxkAfEAABEOhVAhBYvZr5Tq8bAqvTxGM7HwSWgamFwDIwKQgpIgI9I7Amxsd/IRBYS0vPq9VqT2+GJwRWM9Qe1IcTicQb9Gdd1/0DIhoIOeqxzfbWr+3ff95/OY6jDh8+vLXrKeRQZ26+Z2zizYrUUM2tDS0sLr62GYHFxIupvsy1w+mBW+ucWC6V7j3ZluDaOMjU1FTf8rJKJ5Miyar6IiIabGZ4i+TnpWUtNAQWirg3AxF9QAAEepYABFbPpr7DC4fA6jDw+E4HgWVgbiGwDEwKQoqIQM8IrNzw8MuZOb28svKSuudd3QxPCKxmqD1YYE2OTf6k/uzJ4kn9ZMjhZkYVIvGGkZHCfzBbMp9Plw8fPlxvZpwz9dkzMfFqpdSg67rDxYUFvUNOhB2biVeymexb+zP9R5RUx07iaF1YhGgPAiAAAj1BAAKrJ9JswCIhsAxIQjxCgMAyMI8QWAYmBSFFRAACKwRYCKwQsM7elCGw2sIRg4AACIAACMSAAARWDJLYFUuAwOqKNHVDkBBYBmYJAsvApCCkiAj0jMAaHx9/oz5CuLS09KxarfbkkDwVEek/n83lLnqZ7js2ZtXatOun52pgFUYLP6YZzi7M6qcRjobMRdD8vqODvzcyMv5p3/c9pepHSqXSajPjnKnPeG78BZZFmVrNyy8sLfxlyB1YW/dKJZFIfEoIUWTmb0xN/cKHHGdUHT580G3cS+0KF+OAAAiAAAh0MQEIrC5OXleFDoHVVekyOVgILAOzA4FlYFIQUkQEekZgTYyP/6EiGlxeWrqiUqtdFpKn35AOnySiF4bsu13zXhNYlMvtndRQSqXj39EucDtAZ/p6X7Lvr4YHh78klaxZjvWNEydOLDQzzpn6jI4WHi8EJyuVjYm1teV/DSmw9BMI9R99z8zcV7C+RsL+eP4p1+p6X1S84f+sE7OWXLhAAARAAARAgCCwcBN0hgAEVmc498AsEFgGJhkCy8CkIKSICEBg7QwsBNbOOO2oFQQWBNaObhQ0AgEQAIEeIACB1QNJNmKJEFhGpCEOQUBgGZhFCCwDk4KQIiLQMwJrLJf7ICkeXVlfvaBarZ4XkqfeSbNCRIeI6JdC9t2uec/twDoFyB1ENN7Y4ZQlIt4O1tbXU8nk/+3PZG5USlXYtm8oFouzO+0bot05RKR3iVlE1KdPLoboq5sG4tNJOLeODg3r45Jyo1798+Xl5cWQ46A5CIAACIBATAlAYMU0scYtCwLLuJR0a0AQWAZmDgLLwKQgpIgIQGDtDCwE1s44hW0FgRWWGNqDAAiAAAjEigAEVqzSafBiILAMTk53hQaBZWC+ILAMTApCiohAzwgs27I/T0x53/cnlFL5MDwz6cw9qWSqTKy+slAu/3KYvjtoix1YREIX2A+zAyuTyXxwIJO5mYg2hOd94kS5PL0D1qGaFAqFfK1a/QtiFmtra09wXfdhoQbYLPxPzFxh5iUmkv2ZzO9ZjrOQYF6ZLZVuCDkemoMACIAACMSMAARWzBJq7HIgsIxNTbcFBoFlYMYgsAxMCkKKiEDPCCwi+lKjYLiWV6GefDfYP/DDvlRfWTF9ZW4hjDksAAAgAElEQVR+7s1tzgUEVhMCK5vJfGigv18f71snIT42MzNzvM15oT179oxKz/tdRSTKi4vPqNfrD29yjq3C7nKwv/+3nURigZkX5xcW/rPJ8dANBEAABEAgJgQgsGKSSOOXAYFlfIq6JUAILAMzBYFlYFIQUkQE4i6wrH379iU0u6NHj+r6VVpejRDRUBieA/39d/Sl+kqs6GuzpXktnNp59bLAuq1RA0vXmBoMtQOrr+/f0ul0ILB8pf6rXC63XWDt27dvqLqx8Xpdo6u8uPiTddd9TJOJ1zuxAomV6et7h2VZS0S0mLH7P6HHy+Qys0eOHNH1srZEV5PToBsIgAAIgEC3EYDA6raMdWu8EFjdmjnj4obAMi4l+tBHjYk8XypaKK9SzfX0f9iu6ycNjDZkSEr/gPQfUtGNRHLutr987gdDDoDm8SIQa4F1zjnnDHuep4uE08zMzGcbAksLLTtMGvvT2ZvS6b7jUtG3iwvFPw7Tdwdte1lgfe2UnOxtFHPfAbLgWN51lmV9l6Vcd6X8CBG1XWAdOHDAKZfLFyileH6+dFAp/4UNyaaPPDZzKWZe0MXdhRCruaGRLweD2OKtRNl1KZMbxeLhdV34vZnB0QcEQAAEQKD7CEBgdV/OujNiCKzuzJuBUUNgGZgUCCwDk4KQIiIQa4E1OTmZ8zxvj2Y3Pz+vnwKnd2Bp+RBKQGTT2a+m+1L3kqLvzJdLf9bmXPSywNICR9+D+ul++0Lm5Toi+m5whJAoEoF1zTXXWDfccFMgQMvlE38qpXxpQ2DpHWMtXZZlrY4OjdyoB5HsvJ5IrEmZXCuXj6xCYLWEFp1BAARAoKsIQGB1Vbq6OFgIrC5OnlmhQ2CZlY8gGggsA5OCkCIiEGuBNTU29ihX8ZWBwCrN/75SauuYGofhmenL6ONq3ydFR4rl4r+F6buDthBYTQgsx3E+5tj29xXzmu/7H6pWq0d3wDpsEzE8fH6/UpI3NmZ+mZT6CUXU77ruASJqSWIJIarpVN8PdUDVeu2fpeSqbfM9/f39dzKzdBxnYWbiecvUP6no0EEvbOBoDwIgAAIg0B0EILC6I0/dHyUEVvfn0JAVQGAZkohTw4DAMjApCCkiArEWWHsKhZf4vgpqVs0vFC+VUgb1sMJejpM6ODg4/EXLUuXZ2Vldt6mdFwRWEwIrm81en81k7mCiVVupvzs+Px/IoKiuQqFwtSB65Ea1es7y8vL/Ukq140j5lpja0L86cWz70MDAwCeZ2aVk9ha68Ll3Jfo9OfPx9+qv4wIBEAABEIghAQisGCbVyCVBYBmZlm4MCgLLwKxBYBmYFIQUEYG4CqygxtV4Pv9TStGv6Y9L5YVHNSGwdM040gJraGjki76vygsLJ3/Q5lz0rMBi5v9uHCFMKqVCHSHMZrOfz6bTdzDzSicE1uTk5FWs1CXr65Vzl1eXf4GIdMx6J1+o46gPuHceKLC+3N/f/xkmcmUi/f36wPlH2K7JC2//xorudzORLvS+VR8LdbLa/EbEcCAAAiCwGwQgsHaDei/OCYHVi1mPZM0QWJFgbW1QCKzW+KF3NxGIpcDKj4z8vE7C6tra06r1+iuaTMgaEU03+r6ZiHQNrSiunhVYhfzYp4l41PW9VHmxfEApteNjedl09mvpvpQ+Nrhsk3rHzMLC7VEk54FjToyOPtwn/iMiTm9UKxNr62uPbMO8WyLr1PpsFSKqCyGWx0fz/6LnkCLxr77PC8yWLBaPzrZhXgwBAiAAAiCwywQgsHY5AT0zPQRWz6Q66oVCYEVNuInxIbCagIYuXUoAAuvsiYPAivimhsC6HzAEVsT3GoYHARAAAVMJQGCZmpm4xQWBFbeM7tp6ILB2Df3ZJ4bAMjApCCkiArERWOPj4xnLskY1p3K5/Jv61fO8SzzP+/Fm2DHznJNIfFP3ZSnfXvU8/cS8KC7swAq3Ays4OpdNZ2/cjR1Yo6NTeyzLfxkr6VRqlYfX6/Xn6Hiq1ap+LzV7BUdVG0843HrAgKtvYWbeSPelb9JfrNXdr0mp1i2L3OH+4SP6c8IR00IIXci+Ojc3V9IbtZoNAv1AAARAAAQ6TwACq/PMe3NGCKzezHsEq4bAigBqq0NCYLVKEP27h0BsBNbk5ORe8uixGv3M/MwHGinQhbZTzaQjkUgczo+O/kPQV4iPzczMRHVEDQIrnMAKditl09mvp/tS93b6CCFdc42VL+b7dAyJOz/1TOlWAlk6W5x7XDP3Wcg+QQ0sZq7nR3Jf0X0tFp9hYd1DRMWJ+Ylv3Ew3a/GFCwRAAARAoEsIQGB1SaK6PkwIrK5PoSkLgMAyJROnxAGBZWBSEFJEBCCwzgIWAiuiO+6UYZs8QgiBBYEV/c2JGUAABECgQwQgsDoEuuengcDq+VugXQAgsNpFso3jQGC1ESaGMpxAVwqsqSe+qc/tt4Q8/MlJqpT+Jyk5XqlU961V1p/Y4L2162rrOFaYNARPfGO2Prf3Ec++Vn+c9dPrhw9fVw8zSIi22IEVbgdWgHa3irg38tq4r55qTU7e6ejP1au1j+vXlbXVA/V6vRAi/2Ga3v8UQmbWH+tnEqrgf0R655Wu26aSicSR4cHhG/SXPep7r35Npfyl6elpXRgeFwiAAAiAgEEEILAMSkasQ4HAinV6O7k4CKxO0t7hXBBYOwSFZjEg0LUCq5asWerer+wRq7PXkpKFjcrGvrWNjSvakJNlPYYQ4rOjT/nFV+mPizRWpUMHtwptt2GK04aAwOo+gfWge2BsNP9Z/cnl1eVH1ur1iXbfJI3x7hdYp4yvn9yohZq+Pze0wHISzp2jQ8Of121c5bxLvzqOvzQzM6O/jgsEQAAEQMAgAhBYBiUj1qFAYMU6vZ1cHARWJ2nvcC4IrB2CQrMYEGiLwLIs6x9GRib+uF08pPQTlqoNbY5nZ23mdPDDOMm9+nVxdWWv53l9gkW/LfhSZsr4vt/v+X4rO1+C4teOk3q7flWKbncf9bMfDEK4efI+cXAwquLYEFjhBFaQh2w6e9NuFHE/2z0+nss9X39to1K50pfyYaSUU6nVLlNKDeqbWJfMasP7Q++0CorYn3JpeaX/aC56l6ASQqzYtn1Ct/E875aAVzb7vXQ6PcNSenXf+bqUztrgoKwdPXq02oa4MAQIgAAIgECTBCCwmgSHbiEJQGCFBIbmZyMAgWXgvQGBZWBSEFJEBNoisBKJxL8PDeXe3a4Y2ff7FHlTejyL7RwLDmSWL2VQpL28VD7g+X6//jIRabkl2jB3sMMqn594ejCvlViYnT12uA3jbjcEBFY4gbW7NbC2yeae8fHnKeYDnuely+Xyyzwp9W4sfcwwKPwe4aXF1uaxws33w9Z7YpNXNvuFbCZzl2CuedL+Rym5JGVyrVw+EhyZxQUCIAACILA7BCCwdod7780KgdV7OY9oxRBYEYFtZVgIrFbooW93EWiLwLIs6+MDA8N/366lSylTzHJSj2cLMcLEeheL3hX1aP26uLJ0ke/7mYbA0mKgVYElmTk4Ojg2Nvkc/er7VC6VTtzZrjU9xDgQWDESWJOTk1eRlBd6rpteWFp6ke/747y5g1Dfw6yU0jKrmdps292KWmDpXVj69cECK5P5cl9f392kVM2t+R92FZel5KVKpbzQGFjvxIpql+F2sePrIAACINCzBCCwejb1HV44BFaHgcd3OggsA3MLgWVgUhBSRARaFVjBcSZmniUSx9oVoxAklFJBIXYhhMOKN49fMQ3oF8/3skopfSxLiwD9w3pLQoCZV9Kp1N8FwszJv1W/Ok7FLRaLuih21BcEVjiBFdxz2XT2RpOOEG7dJOPj42NJouyG79urq6sXKqUytrAvsmzxNN1mbX398q17O4Ib69TjhVvvieBzlhALwrLWSUrpSXlcKX3ckG8lkjc1CsBfT0SrEcSEIUEABEAABB6CAAQWbo/OEIDA6gznHpgFAsvAJENgGZgUhBQRgVYFVkRhdXZYZl7IDQ9rkUTFcvn9nZ2dILDCCawgPbv8FMKd3CKiUCiMel4iYan64xT5LyVFXFpceIFUSu8e3M1rqxj8jUT0GSKqEdEHiGhrN9Zuxoa5QQAEQKCnCEBg9VS6d3GxEFi7CD9eU0NgGZhPCCwDk4KQIiLQywJLCharxFQTJMojw4Nv0YznFxY+GhHrsw0LgRVOYBm9A+uUJIvBwXMG+/rqtufRI1j5V+mdgguLC1frXVnB6VjePBrrS6l3Fm4VY+/E7bdVK+u7RPTVRvH3fyeiJb0ba9++fTM6CBR470QqMAcIgECvE4DA6vU7oFPrh8DqFOnYzwOBZWCKIbAMTApCiohAzwosZq70ZzIfz/RlfqiYl2bnZ4OnD+7CBYEVTmAZXcR9m/uHR0cLjxOCkyz9USJ5jW5fLC/8pFIq+YDaVZ24FXXNq60/x7W8YuaZfD7/5kDmzs9/7wxPPexEXJgDBEAABHqGAARWz6R6lxcKgbXLCYjP9BBYBuYSAsvApCCkiAhAYEFgRXRrbT9sIT/2aSIedSGwILC2v13QAgRAAARiSQACK5ZpNXBREFgGJqU7Q4LAMjBvEFgGJgUhRUSglwTWEV3/3XGcjwwOjn5GCOEmEnzn9PR0OSK2Ox0WO7DCCayAaxfUwNpp/imf31dQyhdLS/OXeF7tsfp4IRHp14v18wSI6PwdD9Z8w626WPqI5oYeJpcrvJCZfctKHp+dPXovdmM1Dxc9QQAEQOBsBCCwcG90hgAEVmc498AsEFgGJhkCy8CkIKSICEBgQWBFdGttP2yTO7AgsLZH20wLCKxmqKEPCIAACLRIAAKrRYDovkMCEFg7BIVm2xGAwNqO0C58HQJrF6Bjyl0iEGuBxczrQohlzVZKuomZapaVOJTNDtzELHyi+vFyubyyS+y3psUOrHA7sLqliPuOb6uBgakRpaSoVovnua57IRFZRKRfzyWipBDiEj2YYM4TcUKRYt/3deF3feni7+24dC2s4K1CRFX9QTKZ/g3938zicKGQ+55t29JxnOrhw4fr7ZgQY4AACIAACBBBYOEu6AwBCKzOcO6BWSCwDEwyBJaBSUFIERGItcBKJZO3Dg0NHdLsvKH9/5snHr1SnC/W6fB1Jv0ADoEVTmB1cxH30G/jfD6fTXDimbqjL92XKUUjUspkaXHhSY3BtOxql8Taii9gTETr+v8sK/Efw8Oj/8QsPCLnSLF4dDb0QtABBEAABEDgjAQgsHBjdIYABFZnOPfALBBYBiYZAsvApCCkiAhAYEUENsSwEFgQWGe9XSCwQryT0BQEQAAEupAABFYXJq0rQ4bA6sq0mRg0BJaBWYHAMjApCCkiArEWWI7jfDM3MvIJzc5Jpd5x9HGPW6XrLrnvCNrBreNSEWENNSwEVjiBFbsjhNvcLdb4+Phoo8247/sJVVfW0vpqUNg9nUo+npknPa+eq9RqP6aUSjSKwCdD3YWnNw4Y601f+v+Y+QiRuF1vZBRO8gMTl736i6khTx759DtrLcyBriAAAiAAAvrv2Imr3vimzb9s6RVEdFlXU1Gb31+J1NDma3KARHJwc0lK/9uy9e9LV6+yO4OHwOrOvBkYNQSWgUmBwDIwKQgpIgJxF1g35kZGPqrZub7/7mKxuBYRx1aGhcAKJ7AC1nF6CmETN4/I5fYWdL8E1Z9DTOevVytTq2urz1JKaXGlJVa6iXHP1mWBiEpaYFmJ1J+MPOnn/zOx6smZm98bPK0QFwiAAAiAQPMEILCaZ4eeYQhAYIWhhbYPQQACy8DbAwLLwKQgpIgItCqwgt+kMfO0ZVk/jCJG3/f3KaUmG2M7YeawbftwXyr1Vd3Hsu1fX1paWgrTv0Nte1ZgDQ4MfJ6IRn1fJtc31i9USul6TttdmzuwMtkvZ1J9+p5bsVm9+0SpdOd2HWP0dR4a2hf8RjtlVx9NTGOVSmVkdWPtUkmUsJjHLEtcoL9er9cvOmXdzdbK0uJ3Ve/IclLp94/mx7/Avlydmbn3OzFiiqWAAAiAwK4QgMDaFew9OCkEVg8mPZolQ2BFw7WlUSGwWsKHzl1FoFWBFRR7dhznk7mh3AeiWHlpsfSyulu/ujF2Yxv6jmfSwmqr4PSVRDS/456da9izAouIvkxE+h7UYnKfPmywA+ybRdyz2S9mM5k7mWjVVurvjs/PRyJQdxCPGU2uucYaXz43JesbbN/x6ccoufFSHdjs3NwvNgJsR7F3mclkvtSfzd5GSh2bnZ//UzMWjyhAAARAoHsJQGB1b+66K3IIrO7Kl8HRQmAZmBwILAOTgpAiItANAuuldbf+HAisM94B+ilxWuh8mIiujegeiXJYCKx20d1eYGk5uBNB+FARQWC1K18YBwRAAAQaBCCwcCt0hgAEVmc498AsEFgGJhkCy8CkIKSICLRFYFnC+seJ0Yk/jiLGuaW557mu+9TG2C8IOUeViII6PUPZoRcPZAdKnvDmZmZmdD0fUy7swAq3Ays4Qug4zseTjnMrMa9ZlvWvS0tLR01J6O7EcVDQY2esx+pdV7NfHFfe6sU6jmK5HMhfz/OepJQ6T5/41W+HRqH3sKGqRCJxzLasIhHd0Zeeeo0eoFw+okVqUPAdFwiAAAiAQDgCEFjheKF1swQgsJolh34PIACBZeAtAYFlYFIQUkQE2iKwiOgd99XI+ZWIYnw6EV3eGPttzc4xMjTyqpSTKgslbpsuTt/V7DgR9IPACiewtlJwHRF9l4i0PPkIER2PIDddP+TY2Nij9SJKpdLrpJQ/3tiFdS4RNfuUQv2EKUnEt+RyU4FQHhvrLx0+fLje9bCwABAAARDYBQIQWLsAvSenhMDqybRHsWgIrCiotjgmBFaLANG9iwhAYO1+siCwILAiuwshsCJDi4FBAARAoC0EILDaghGDbEsAAmtbRGiwMwIQWDvj1NFWEFgdxY3JdpWA8QJreHh40LKyGU2pVDp+b4NW6ILU+ZHcdy3LconVu2bn5/9xV6mfPnkvC6w7iGi8sSso2zjetl1qNou4ZzLXDfT3b+7AEuL/tfcmcJJV5d3/85x7a+vqfZ+eYWiHYXEEN1BEDYuKyKIoEUw0ixqjb0xwiUbfqPnbebOqKBoTo+R9o0ZjFOKCoiZujEZElgHBYdgGGGCml1q6u7q6u5Z773n+nlvV4wwwTFV1VfWtqt/9fIYqqs859znf53R117fP8s3p6WnMwHoSclu3bh1YXZVYoZDryWbTXyKS48qzsKJHA36Er+//Ve7+ufw1c4DDdI3toBoIgAAIdDQBCKyOTn8TOw+B1UTY7X0rCKwA5hcCK4BJQUgNIgCB1SCwVTQLgVXaXBwCq4pBU21RCKxqiaE8CIAACDSHAARWczjjLhBYGAN1IgCBVSeQ9WwGAqueNNFWsAkEXmCVZ+WYjadpqH/QnLZHi9nM2Z7nDVWDlpldJhbLDn16cLD/S56nXNeN7F1c3LdYTTsNKNvJAsvMmjIzsEx+7WrYRqPR/9fd1fVzpVROmH+YTCZnq6nfgWUNY96yZUtkZWnpN4VocDWfP6dYLL6yFha2ZS0PDg6aGXBkafvNM+mZu2tpB3VAAARAoNMJQGB1+ghoVv8hsJpFuu3vA4EVwBRDYAUwKQipQQRaQWAd7Pro0PC/m/9JLy6c63neSC1MQqHQp/v7h7+klHJCIb5v//7987W0U8c6nSywzDK0NYFlloVWfEUjkf/bE4/fKCI5tu3rIbAqRhceHRq6SET6M8vLLy0Wi6+puOYhBW3bXhkeGNrjv+TxG2bnZ++qpR3UAQEQAIFOJwCB1ekjoFn9h8BqFum2vw8EVgBTDIEVwKQgpAYRaCmBNTI09HHDYX5x8TLP8zbVwiQcDn+xv3/oG6x1UbO+JQDio+ME1uTkpL/v0r59+x4oCyzzv5UKLDGFo5Hov/R09/yMhPJs885EIjFXy3jowDqhsaGhM4Wod2ll5XzHcX7HMNCejgqJP9OxksuyrFx/b5/JH2myX/f2t791t3k+NTVlTinEBQIgAAIgUCEBCKwKQaHYOglAYK0TIKqvEYDACuBYgMAKYFIQUoMItJTAGh0dPcNwSCaTnxaRp9fCpCvadVd3PH4fEWU1yydSqdRttbRTxzqdJrB4fHx8h+E3Nzd3vYhUO5PO38Q9Fon9Y39f//+ISF6F1M3T09OpOuaknZvi7du3h/P5vCqsFn6LSN6mRVuLmcwJnvYiVXRcK6WKprwK97106Mw/8L+P5r53xUoVbaAoCIAACHQ8AQisjh8CTQIAgdUk0O1/GwisAOYYAiuASUFIDSLQagLrGWWB9TkReWYtTOLR2P3xePdDRLSkSH9kNp2+uZZ26lin4wTW6OioLx+TyeQPRMSMwWquNYH1yYG+gZ9o0QUrbN184MCBdDWNoCzR2NjYa1nTO4zASs/P7/C0V82JhGYmnGc42tH+Fw8877W+wEru/NQy2IIACIAACFROAAKrclYouR4CEFjroYe6hxCAwArgcIDACmBSEFKDCLSawDL7JdFyNvvPInSKiI4UisVxEQlVyse27fmQbS8Sc8a27b+KRqM3Wpblzc7OJitto87lOk5gjYyMvMwwTKVS/y4iA1Xy9JeohcPRqcGe/v+ylOUUpPBAKpXKVtlOxxfv7e19GQn9NokOZ1dWLhCR3iqh+LmIxfou6x6auJPZ0olHd/vLCnGBAAiAAAhURgACqzJOKLVeAhBY6yWI+mUCEFgBHAoQWAFMCkJqEIGWElhrDEaHRz9GIk9z3GJPJpt9utY6XgOfTCQSeX9fX99PLcsqzsxs2ClqnSewBgff4AushYUra5AmfqqVCr1tcHD8q0aajIx0ze/Zs8dfzoarKgLPJaKXmC3FfrX674+IqNrZcP7Nurq63xKP99zNzF4iMf2zqiJAYRAAARDocAIQWB0+AJrWfQispqFu9xtBYAUwwxBYAUwKQmoQgZYUWGNDI38lRCcV3WLfUjb7PK11Tw18lmKx2N/G4/GfW5aVn5ubu6mGNupRpeME1ujQ0P8y4JLz839fg8ByygLr7cPDW76mVE4PDg5m6iCwFBFtrjWhk/39/gywromJ1TrEUmsYVdULET3HU+pFRmBprf9kHQLrj7q6uu9hVm4yOf3TqoJAYRAAARDocAIQWB0+AJrWfQispqFu9xtBYAUwwxBYAUwKQmoQgZYUWFvGt5wtJMMrKytbM8uZPxWRqsUDMxd6uuI/jUZjB4glnUil/rRBjI/WbKcJLLVpbOxKA2U2kXiTiHQdDdBjvm424DfXe4jkm0T+wXn+yYTrvPqJaGetbWwaHf03U5dt+zvT09P31NpOM+uNDQycrJlP11p3zWcy7xcRf4luhZdh7i8h7In3/O+e7p77mdk9MHvg2xXWRzEQAAEQAAHzc2PTS9/+Tv8HCJM5FvbZLU1FSifRqqj5mUqkIr2kIn2lLon5uVGPn9ctTWjjgofA2jj2bXZnCKwAJhQCK4BJQUgNItCSAmvTyKYzmXlwNb96bCab+bNaBVZ3V/zGWDQ6LSSpZDr99gYxPlqzHSewxsfGPmGgzCUSb6xBYK3Joff+6vf8bx4NbhVfN3tx1bz8bWJ8/LPmXproutnZ2T1V3HfDipYF1nO1SNf84uIHahBY/ibuPfGeP++J9+z1Bdbcges2rEO4MQiAAAi0IAEIrBZMWkuGDIHVkmkLYtAQWAHMCgRWAJOCkBpEoCUF1ubhzScIS3wpt7RtZWXlgyKylYjMRu4Vz+YxH7bDofDekGUtGJfSO9D/OsN4enp6tUGsj9Rsxwmsnu7uawyM5ZWVC0UkUg3vSCRygynved5fua7739XUPUrZQwWW2czcLCms+No0MvYVv7B4X5hJpXZVXHEDCw4PD5/Amp/uOE48s5z5WxGZqDKctRlYH+jq6npQsTgzicTXqmwDxUEABECgowlAYHV0+pvYeQisJsJu71tBYAUwvxBYAUwKQmoQgZYUWIewOIGIzHK0bURkpEMtH8DNh/ADw8PHPN+0m0o9Ot0g1hBYJQIWEe0uwzi+/P8VIx8dGv6S74kU/3MymaznfkuHCqzjykK0irhGvmcKM+kPzaXTP6q44gYWHBraslkpb5vrut2Li6nPiMgxtYTT3dX117Fo9CFmdhLp9BdqaQN1QAAEQKBTCUBgdWrmm91vCKxmE2/b+0FgBTC1EFgBTApCahABCKzSPj4QWA0aYE/QLARW81g/6Z0gsAKSCIQBAiDQ0QQgsDo6/U3sPARWE2G3960gsAKYXwisACYFITWIQEsLrPHx8REWudjsh7WUzT5reWXlt2rhpJgzY8OjnzJ1Z5Jz76uljXXU6YQlhDw+Pnms5xWOERGVSs3WvFn6yODgHxjWbNs/TiQSD6yD+2FVBwcHe222/KWNqYX0b2itYxW0bTaj9feBIqK95cc/I6KW2AfKfP9orSccx+lZXFz8oogcW0Gf14oc7Ht3V9ffxaLRfZiBVQU9FAUBEACBMgEILAyF5hCAwGoO5w64CwRWAJMMgRXApCCkBhGAwDKbHUFgNWh4HWwWAqvRhGtoHwKrBmioAgIgAAJ1JgCBVWegaO4IBCCwMDTqRAACq04g69kMBFY9aaKtYBNoaYG1ZcuWmGfFJplC0dTcw+cV8yt/UcZd8WbupjwTF0Mh+5fm+cQLXvdC8ziUDXu7dl3lNCF9nTADSw0PD1+gSL1ISDiZSr6jSq5mllPB1Bnfuv055rFg6wMLDz6YqbKdIxYfHh7uUcL+SYKphfT5WutKx9DakeBrsbyZiPyZXEG/RkZGtrPWJztaxxcXFz9cwybuft/j8fg7e7q67tfMbiKR8PcCwwUCIAACIFAZAQisyjih1HoJQGCtlyDqlwlAYAVwKEBgBTApCKlBBFpaYBFNqYlTp6NOj63mb/jXSzwn/w9lTn1V8jL7YGVNnZGz37rF/1BOo+6+nVP5KkRfSKwAACAASURBVNuppXgnCCxrbGTk9aLpMuMLE+nkuVWCKhJR7tD8JE9wC3RV/QRjSWDRp809UgvzF2ut41XG6JbL/x4R/UeVdTek+NjAwMma+blapGt+cfEDIjJWSyBdXd1vicd77mZmL5GY/lktbaAOCIAACHQqAQisTs18s/sNgdVs4m17PwisAKYWAiuASUFIDSLQ8gJryxmZiNOTUqmd//kK7eSvMJxqmEliBNaKqTt68ovNyXjUZXuFfb/Yudgg7oc2284Cy5qcnAzlcjnLLbq/T0SXmRlY8wvzZ1bJNc/M/gyn0XN/x5wQSHPF4wq0c2pNGlXZ3OOLl2dgfbIksNKvrkFglffCst64Y8eJXzbt7Nmzx8zgW5uhte4Y693AwMDAKaz187RILJPNvq92gdXzZiOwlGJ3bu7Az+sdJ9oDARAAgXYmAIHVztkNUt8gsIKUjZaOBQIrgOmDwApgUhBSgwi0uMAipqkpprvu4oEf/OB54nlvMpwWl5ZeXwMvX0Bs3rT5DeaRhR/dP7u/5s3Gq7h/2wqsyZHJ8SIVt2vR9mJ28Xdc173EoHU9t78KPmRb1ky8K36HqZN52XkX+XWvuVqbLFXTzpOVnZiY6NKu+15TJpFKvV1rXe0sPj8W2w6/f3Bw9NtKuZ5S6qHp6enVesVY73ZCodBpInI2EcVc173cTECs5R7RaPz3urtjdzGzTiaTv6ilDdQBARAAgU4lAIHVqZlvdr8hsJpNvG3vB4EVwNRCYAUwKQipQQRaXWAdxLJ5ZOSZmpRZomZOEvzzWnlNjI/7EkO03juTSHyt1naqqNe2Amt8fHxSiXqGiNjp+fTrim7xVVVwOVg0HArt6+/t85emJdKp19XSxtHqmP3UdEni0Gwi8eda66ok21r74XD0r/v6Br6nlHI8r3BXKpXyl6YG9HouEb2EiKK/mtT2R0Rk3g+qvqLR6O/09vbuNgJrbm7O30sOFwiAAAiAQGUEILAq44RS6yUAgbVegqhfJgCBFcChAIEVwKQgpAYRaBuBtWVk5HhP+EWG00wq8c+H8OJq2PX39vrLyETkl5ls9l+qqVtj2TYUWDvCk5OraiGxcLJmfY6ZmJTL585zPfesWhiF7NDu/r7eb5i6yXR6baP+Wpo6Yp3t27dHVpZWXm0KzCbnrhTRazKnqvFjWaHPRSKhW7TmnG3zt5eXlxN1DbSOjUWj0XOY+ZUiEikUCq8RkWqknZlx5s9ajMVir+keGvqlEViJRx99oI4hoikQAAEQaHsCEFhtn+KAdBACKyCJaP0wILACmEMIrAAmBSE1iED7CKwtW2L5PA8YTqnUow+XeSkiMv+que4pF/7Rr3zJH1dTscaybSewxsfHR1w3FFpYmL3Q85y3G4FVnt0zVAsjZv7OyMjI+0zdRCLhLyVswKWGh48ZL42f/T8jks3+AZVEVpX3mjErHYlogYjMiYS7q6zftOJjY2OvZU3v0KKt9Pz8Dk97ZiZWpZeRV8umsB0duGjgeb/tLx1M7vyU/xouEAABEACByghAYFXGCaXWSwACa70EUb9MAAIrgEMBAiuASUFIDSIAgfV4sBBY6xxsEFgQWOscQqgOAiAAAh1DAAKrY1K9wR2FwNrgBLTP7SGwApjLNhRYzIpImYkEokXrr2rt3Uik5+668sIvBTADCKl5BNpGYJVmy0z5y72G+//BPwVutZDbtprLnVolTnMiISmlbh8eGPiE/9zz/md2cXFfle1UWrwtZmCZJXiZjOvPgEsmH/k4kZxIJINEtKUMwuSm4uV4llLLA30Dt5L5fYvph398+eV/b9qZmpry89OYa8qfrTc08MlPssiIp3XXwtLiBdXETUTmZEQTo9m8/fNEdICIzL5Q/9WYmKtuNbRlfMsLRKQ7vZi+uFAsvNG0ICJVzVS0LGtpoK//Fr8u05+kU6l7/Ui4fhvrV90zVAABEACBFiQAgdWCSWvJkCGwWjJtQQwaAiuAWYHACmBSEFKDCLSTwDqIaHRo+N/N/yyvrpywmsudVgs7W6lfDPT3+/thKc+7fi6TeaiWdiqo0zYCa3Gx4C8RTKX2/xORnEREZk+lsSoFkI/Msqzlof6BnxOxFtI/SqbTH6qAZV2KjAyN/AOTDDmeF19YXHhFlfEbebUmsL5YFlh3EtF1dQlu/Y2ENo9tPlNEelKLqVcUi0X/1M1qLyOwhvoHf27qaZa3pdYEVrUNoTwIgAAIdDgBHn/JW3/PMGAOvYEVP8f/u0DpdI2q/rIQCI5S+iOTipb2VFSRXlKR8qm+YvZOrNvpwYHobksFAYHVUukKcrAQWAHMTjsJLC5NeGBSLinlkIgW8b4i4t2gSKfu/NhF3wxgBhBS8wi0p8AaHP6YQZhdXX5GLp/3N3av9rJt++6hgYEv+L9/af2NmXT67mrbqLB8SwusrVu3DmiteXl5uSefz283fc7n8x/41eyjpxBRNxGZWVgVz7wqyx+tlFoY7h/8OjF5InxLcj752Qp5rrvYyNDQ+1m43/G8voXMwptqiN/8gp4jou+abbuIrF3Dw9v/0wSWSt27Uu7juuOsqoGpKUV33cV0ww2Rnkz2NSYvuULuLNd1X15VO+XClmWlh/oGvuf/r63+IpFIYPP2WkCiDgiAQMcT4OHhYyYMhdAzL/ozUqFzhNhW7P8Q7Wo5OhBYwU0ZBFZwc9NikUFgBTBhbSSw2Ar5gEV0WjwvJUyuYu//RbjwfWHO7frIq/ChI4BDsIkhtaXAGhnZ9BuG4eLi/Csdp/CntfAMh8OLg30D95u6muX9iUTi+7W0U0GdlhZYm8c2XyQidnYle1x2JWtkj7kmy388rqD7jyuSJ6ICEd/X1zf6mlAoXOjq4twjjzxiNkVvyrVp06anep4XzufzE0tLS9+qYSN3/22XiIys8izL+sHg4OgniFj6+rpu2bt3b6EpHTnkJpNnvz66Ql32ygM39q7u/8W1JHI8EUVqzZNifmhoYOCvzS2scPhbs7OzyWb3CfcDARAAgXYgAIHVDllshT5AYLVClloiRgisAKYJAiuASUFIDSIAgXUEsBBYlY04CKwjcoLAqmwIoRQIgAAIdDQBM0XZHNVLIzvOPMWyeJysWDcPb3szKfsYYupjYv+I3Ja4MAMruGmCwApublosMgisACas5QUWE1ulk99Few+ZFedM+nuW5X5TafZc1vetFuzp8NCy7Jm6rBjADCCk5hFoS4E1MTHhz7p3C4VXe1r+zDxfWFw8UYsuTUms4GJmTynlf3+Ew+EPxuP9P2K2Msnk/r0VVK+mSKBnYA0Obu8NhSTquoUQUe5Ey+xrxTyq2DrHdDKRTp5e3gA8LCKlPS+IwlUuuzOyx983I2yHvx7vil9PRPNDo0Nf37t3r1eezWQem3KZDeld1+WlpaURcfU/mVWky7mVpzuOc0yVAaxtOJ9l5pTpx/Dg4H/atr1MolJ8+sv9JarT37rKLDdsyL4gw8Ob/EMM5hfTl2rXeXrpc5KcXl7eWdXG+uW+m35kifnu4ROe+YfmtZRVSNGePfhZUuXgQHEQAAEQMAQOrrEfGBjYGgqFBqR7U4/9lOe/i6zQU4h4kJmq/eGzcWQhsDaO/dHuDIF1NEL4eoUEILAqBNXMYm0hsPy/5ZB2nXuJSZjlG7bkvmyHtGsX9cyNV14230ykuFdgCbSlwFqjvXl8/NWeJ0YQGdHyTK0rF1iHZiwcjk719Q38yLJkfnZ29q46ZzPQAquvb+tAKCQxyyoaqfN0JTKk2Jpgpczm5jSXSpxa7Ql2T8DPyBtfUEUikc8P9Q1dx8xLB+YO7NyQ/aLKAY53j4/oiGv2U1OL2aXnFYvFbTXmfm1jdxkZGvqSZdtZJjXrPvVV/imXyZ2fMksNGyKw1pbTzs+n3uR5znPLewIfW14+WG13TIxzZnUuMe8ZOeuPft+PfySZo2uuaZpgrDZolAcBEACBIBM4KLD6+voGent7Y/nwSJe1acdvClvjKhw9SdnRs43okur/OtT8fkNgNZ95pXeEwKqUFModhQAEVgCHSKsKLC6fVSL+ByGzj4z5TPjPTKS16Fv6Qu5Pi1LQOhNb2nXVy80R77hAoK0F1qaRTWcKy2W+aEnOvV5E4rWkPBaLf7EnHr+DFD2QSCS+XksbT1JnPQLL7KVk9lj64djg4IeriUuIlFiWJSKsi9rshUTKEltE+bPUEulEj/+aUiNEymzGbtmWmlBMcWLVa1nWyebrK6srW6qcbfVEYZoZSL8wk+YiochXRwZHfkSa8vtLs90aInYqYTUyMtJNFH61ORBqYSH1GtctGgFkprcaNtVsTL928pLEYrHb2X9/5kze9X5o4tBO4WYicuLheH6gb2CVmaXIxazBa1I0PT19xPfrycnJaC6Xs0KhUEQ5qt/kMy/5XnLJX3GyuLx0gXl03aKZKWfElYl7YG3FSiUcDiljhszNllL3E/O+rS9+i78H1t7vftLMvtqwPFXZBxQHARAAgUAReOwPE96xY0cosbByMolnZmK9WPWO/0kpYjbH+QX7ZEIIrEANrsOCgcAKbm5aLDIIrAAmrEUFFivbHMHrrxt0i/lFQ7bL1udqRR67bnLXlZfM+l/HB40ADroNC6mtBdbWsa3bHHGeaejOJmf/RUTMiXhVX93x7ju6YrEZIr45kUp8sOoGnrzCegSWv7wuHArdNdQ/eF01cQlLhJnDRmRp1/OX/jFzREpyhhKp5NqKhU1EVD4C+zBps/Y7dzUi50ghmmVpnymL9x8Q0U3lghsrRaam1OB37zfyjuZv+coHSLtm1pk52dywqfUzxFqfXH8pXukyyxRzXdGudH9vf8Ks+XY0PyKiEpYVdufmHkgcCdzaDLmweL0c4uPMhvqe9o4V7T3Hz2M69dpy3VqWCz72tl40HP73nu7un2jmVDqdvraaMYeyIAACIAACjyfwRD9EQ6Ojm3cQSbc67gUvVr2b1gSW+SWmtElIUC8IrKBmxt9QhqW0X0NsaHPGPCrL7ja//AU3aEQWRAIQWAHMSqsLLK0918mbD4QUDRdeannkKR1K3fSJi82HoI39QBjAdHd4SG0tsCbHJyeLUjT7/tBMYuZfDxFYVUmX7nj3L7ui0TkhuSmZTv/FIWOmHt9P9RBYdw/2DXy3mrEsLOGysFLa1WsCK0wkJYGVTh0qsHqrabuKskbimMu8X326LLB+RES3VNFG44qK8Mg5f+zP2kv+5Kr3kXYvKp9qbk5ZXO9nCCMfl8vBf8oXWJGu+d7eXnOan3a0POp5PKdU0Zufn18TWIeON38Mx+MjA6GQFQ2z7iVFxymlbC16q2jtC6zkfOo1dQDkzyAz+8JFQqEv9vT0/Fi0TqcWFqqSpnWIA02AAAiAQNsReKJfSNT4+PiQ64ZC1knnPJu7+l9FQqwUv5xIuthMoSY2f00J3gWBFbycrEUEgRXc3LRYZBBYAUxYiwosYrU2PWJRe85XDNmQx38R6s5rLxLK7ZrCssEAjraNDqmtBdb2we292VDW9JHm5ua+SUTmuZlRU9VSwpBtpyzLWiXmG+LxuL8pvNmjKZVKrc2gWU8e1yOwfLGglJoP2/a+aoIQI2CYjYRhElr745vFTP4Swnyh4IussrCp9x/nShu2h8PXKqKciCwUHOc/iMgsiXy0vM9SNd1pVFk+9dQ3+xsK3nHHv52ltXcikXes1tpsXm6YmK9VfDDAY4I8ZKk33WlW+VlsFdhis/xbRCQrImbpoKe1XijXNXtlGfFlZn8NmdeUUjETh5lNx8xGRDIz9yhW/hLCQrFwwnrh2JY1Gw6Hp02MyrL+LRwOXx/yvNxcJvPQettGfRAAARDodAJP+he1kXPfdrxF8gJhUorU+5llgMj/4d2ovyytLx8QWOvj18jaEFiNpNtRbUNgBTDdrSqwDqKUGWZ6l/nfO6942ZeJzbaPuEDgCQm0tcB6TI9/TESj5qDqtQ//1Y4JZv7JyMjI20w9Zp6Zm5s74tKuKtpej8Cq4jaBKurPvBrs73+P+RlIREvJ+XkjGAN7kl1//2S/bXtdCwuJZ3pe4V/KEtTIK//EyxqvtRloa9WNmHrs0kQj+9ZEqZmp5pTFmZkFZq6ShGzgFY1E9vTGe+4gJpdJPjeXTptZcrhAAARAAATqQOBJ38DHXvzObcTO85RiJub3sb+JIZu/nphfZoJ3QWAFLydrEUFgBTc3LRYZBFYAE9aSAstIKimYP9yb1VJM7J+8dudHz/saBFYAx1hwQuokgWX2VjK/75k9nWr6vY+ZbxgdHfXlcNjzHn00lTKzUtZ7dYrAOijSmXjJQOvv7XmfFQ5nyHWzqcXF/wqywBoY2NZn2zq2sDDzdNctftKs4jC7SJhulAdALUsKKxVYa0sN02YWVFlabT3kvg0RWMxsZBlFw+Hd3fGe25jIFYu/lEwmf7LeQY/6IAACIAACJQIVvoELT7z0HW8Uol5WPEEi7w4kQAisQKalPNKwB1Zws9NSkUFgBTBdrSSwzLJB5X9uynlu0RzJnhChhT0fP/9zASSLkIJHoJMElpk5ZZYPnkdEZ9aSCtu2Dwz29ZuZXOY8hC/PpVLfqqWdx9TpFIFllsaZJYJ6YnTijb4E7Ar/1759+8onptaBZBOamJiY6PI8b5uIWJlM5oWFQqG8ty6d1ITbN/UWo0Mj3/f3vlJ09VwyaX6mmOWLuEAABEAABOpIAAKrjjDR1JMQwAwsDI86EYDAqhPIejYDgVVPmmgr2AQgsKrIDwRWFbAeXxQCa134ml8ZAqv5zHFHEACBziNQocAi6j/7Hf1xy7E4ZG/2tPgnyjCbjd0PbmS58fQwA2vjc3CkCCCwgpubFosMAiuACWsBgcXK9qeAiOhHyPPuJ6EVN7v4/qX5B2dCfTFv3+feuRhAsggpeAQ6RmD1nfLCAe1EVPa+H7+XtPuW8qx9fwPsKtLiMbO/TxMzf3hoaKs5OY+SyX2zVbTx2KLtOAPL32w8HA4/0Nfbu4uJPM+TnxZdNqcLygknHOtv/r1r1y5/iVqrXZdeeqk/7fX73/9+j+fZZl81Clv6b8zj0kr2dMdx1k5wbLWumU3hF4cHB68xgeuRp35QWWEt2ltJ7tm5toyx5fqEgEEABEAgyAQqFlhjT//duB7s4VA4tkXIWRNYvwmBFeT0Big2CKwAJaO1Q4HACmD+WkhgkZZ9ot17hGjFXZ57X/r+m6ZVuEvmvneF+QCJCwSORqBjBNbYS383ros9nPzJVe8j7b61LLDMPkbVCCyzj5O/jOpXp799aHBw86fM81Tq0fXshdWOAsvIDi8aDt/f399/MzO7JOonjrZvrAOvo43ppn19y5YtsXyeB/zxILmPmMfFpczzi46ztsF602Kp142MwBodGfmiaa84+ZL3W7E+nRwZLdI1U4HdYL9efUc7IAACILARBCoWWFvOeGdMF1fY67fGWdnmFxnzy8jvMklE/FlYHN2IDhx2T8zA2vAUHDEACKzg5qbFIoPACmDCgiqwuPwjTkjYsnIkrEW8e8XzbieSnLs497GlX96YmA7HhW68MhdAsggpeAQ6RmCt/d6XuONz7xLtvkmMcxAZEhEzC6vSywgscyoc2bb9iaGeoc+a53MLc7srbeAJyrW6wDJiQ5hZK2b/fUeLzJj9rsLh8EOD/f2/MDLLE7mVme/wedXn9MZ1IK9P1cnJyWgul/NPMhfH8/fTzWQzzy+67lN8pyViNng3JxWaN+/Hni5YnyDW14qRsWZTeJO/BfPcsqzFkaGhr5hm3aEzPxGKDejpU8mhq65qydly68OD2iAAAiDQeAIVC6yDoUxNqcGb0mZTT4p4dAWJ6mblb8T4jA3/YQOB1fgRU+sdILBqJYd6jyEAgRXAIRFQgeVv1s7+ZyBXu+5NxLJMrvvt6ftv/TxRmuZPH1qmqSn/wzUuEKiQQMcIrDUeY2NjF7PIuZ7W0cVM5iWO4xxbIavDisWisev7e3p/Zl6cSc59oJY2ynVaXWDdb5xVyLbnhwYHbzd9cjz1eRE14zi8ms0eMMuZjfhb+7cOVIGu6r85jw0Nne2JbHNdt3spm/0DLWKWE4bLJxYGrQPzZgWsOQRkoG/g09FINMXE2enEtDmx01z4eRK0jCEeEACBtiNQk8Aa2ZkwU8jJDtsf9U+oYT6JiZ4JgdV246N+HYLAqh/LDm8JAiuAA6AVBJbn/JyFlrXnXJe487uf95cNPr87B4EVwPEU7JA6U2ARvcTzPCOwzl2HwNrZ39PrL4mbSc69bx1pbnWBdd9BgTU0dJvhwJ76vEP2tOtaq4uL+zJlebUORK1TdXx4+CxP6+O01t0LS0t/qLUOusBKEFF+sG/wn4zAIqbl6bmDAqt1wCNSEAABEGhRAusSWJaTPVOEQyrW/SKy7FcQk03C/cz+scvNvzADq/nMK70jBFalpFDuKAQgsAI4RAImsPyZV+YToNCikOSYKa+0+xkSSQh7d9/54+t2Uc+E0M4psxzEzHLABQKVEug4gTUxPHGisDyl4BV6M5nMuzzPO60Mq6olXpayHrUs64CpW3SKZ1QK/AnKbZTAMkvCzPIxM8tm6bFxdcfjZnYOiUiehRxN5InoA6L1ijCvOI7nb8SutfuIeYhYVrF/eDhlXrMsay8RrU5P97tEezpq76SRkZFxEenVWtuZTOZEz/PioVBoxFb2NuP2lFKnMEnY0xLLFXInlLmbbUuq/wxT2aDzZ1FFo9FU2AqtCJPrus7tJo9a6weLrrvHLPEc7hm+O9QdKtiO7Ty6vj3dKosKpUAABEAABHwC1b/5T02ptRlYsvvbPUSa7ZNfegmH468X4pBimiAi8wte8y8IrOYzr/SOEFiVkkK5oxCAwArgEAmawLLMFipEovW0iLfERKshy3u/ksJ+5kjqlo9cuJ4T0AKYAITURAIdJ7AGB7f3KlXozudXBlZWFq4UkXPKvKvZzN1UyZt9nsp1zV5HtV4bJbBM7KYPRnybWTiHXaNDI0ZMmStLJAURKTLxXUJ6XjPPM3fdbL6YSj1q3n+w1OxJsj8xMbGVXHq22b7Qc53ziSledNzexaXF3yhXM/toVf8ZprIRZyQl9fb07uuKxhaYqehp7+ui9YJm3p1Op/084gIBEAABENgYAtW/+Yvwluf/qb9he+aR73bR0hJ3PePcczkceyWzCrGynkZKbTP7GxJx6c/gzbogsJpFuvr7QGBVzww1npAABFYAB0YgBJb5kVNio5TlfwDRon9B2ptm4pyi/D+Ewt4sM2du/rtL0gGkiJBag4ARLxeXQ30+EZ1SZdj+iXxEdDURfbLKuhtSfGxsLL66asUcZ6Unn8++g0g/u8ZNts3MorWNrc9dR2deVz4J8Uwieuo62qm2qond9MHk0Gzgfdg1MjQyV35hlUWKwuyKlgeJvCUWeynvhczMHcpmp837D2Z+Pgl9MyvLJvsEsYQ9xzuDRaJFz+1eXMo8y3+PJ95E7G/yXvonYoBaImI+d7BlWf7nFC6dmGl+MoiUZs+Zy595ay6ttf+aOfWRmf2Zb1rEn0nX0917IB6NLgmTQ9r7sed5Wc384Pz8vJ9HXCAAAiAAAhtDoHqBVYrzsHrDx5y4ybZli8excOjY57yJQl0XE/s75/onjTTtgsBqGuqqbwSBVTUyVHhiAhBYARwZQRBYrGht6aAl2hdUzN6HLV28XivHc2Tl3jsfjubp6ks1MePDYwCHUYuEZH7/KU3xKz3W+oc682HZzOZphWvtdz7zaMRAtTOv1vp46Pdddh0dNxt8r5d/Lbc/NP7HvYdMTEz4s6qUUge/tn///rVlyua1NXmJ95+j01+TUzQ5OWm7rsv7CwUrHp/0tyjpWtr3QqVUSGsnqkVi2vN4JZ/vLhaLXbZth/t7+4/zfwaQ9ElpvGoi/9RAI6uW2WLHKRaLmaWlRa21jkQiS/09/dPm69n4lp3mMczpXCSXcyzLkv7+fnfPnj1rJ2qu5fHovUAJEAABEACBuhOoVWAdFsj4+PiI1nqTFYmE+bhz/xdFui8p/VWE++oe8ZM1CIHVVNxV3QwCqypcKHxkAhBYARwdwRNY/r4yTN7fKFr9gSWuThe7H9j7yQvWli8FECJCAgEQAAEQOCKBQ7Ywse659iylJeTpYlRrbQ6W4qWVlZ5CoeALrMG+/uPLsqpfxBdYQiSlP2xYatnMtioWCsXFpaWFssDKDPUN+fuzOTte6Z8omKTRPO2cWpu1hcSAAAiAAAgEhEBdBNbw8HCP2YAxHO616cQXvZLC8bOIKK6YzaP5qWH+WlaXez0pNwisgAyrJwgDAiu4uWmxyCCwApiwDRNYZtlg6UeLWQ1C7C/vIVvov/0XlXw2rgq3FMXW8XhXaufUOfgwEsDhg5BAAARA4KgEpqbU9pvS/uzH7G3fON4WbWldCHlah0mEl3K5SD6fj1iWZQ33DY6acpqpixQp0iRKaMW8ZoWUv49Z3nHcTCaz6nme2bB9dah3aNF8PXbqJfeYx72nDzk4pfaoWUEBEAABEGg6gfpKpakpNfo/cycT0TZSPGYr++9KPWKzlLDWafaVQ4HAqpxVs0tCYDWbeNveDwIrgKndKIHFTKxKq5m05xW0W1j2BVbIvtz/oELhn93+0Rc/HEBiCAkEQAAEQAAEQAAEQAAEQKBKAhBYVQJD8RoJQGDVCA7VHksAAiuAYwICK4BJQUggAAIgAAIgAAIgAAIg0F4E6iuwDmEzeP7lvWGXzF5YpCz11yS0ueHoMAOr4YhrvgEEVs3oUPFwAhBYARwRGyWwDkHBIjeQon8yL9350fP/I4CUEBIIgAAIgAAIgAAIgAAIgMA6CEBgrQMeqlZBAAKrClgo+mQEILACOD4gsAKYFIQEAiAAAiAAAiAAAiAAAu1FoGECi86esifCiU0Gl4pv+gsinhDSYVlNn9swhJiB1TC0624YAmvdCNFAiQAEVgBHQpMFlj7J9QAAIABJREFUFiuzpaL/4yultbPL37xd1E2WFD9nXrzjypf7p0nhAgEQAAEQAAEQAAEQAAEQaB8CjRNYhzA65rc+9T4i2US62OVl9r2xYfggsBqGdt0NQ2CtGyEagMAK7BjYCIHFyhw9uN/znO8wUZ5E37r74xd+IbCMEBgIgAAIgAAIgAAIgAAIgMC6CDRFYG39rX98mzCPkleMe5l9by5HHKn7yYQQWOsaDA2tDIHVULyd1DhmYAUw280WWGw5pJRHIo9oz7lWRPKk5I67PnbhVwNIByGBAAiAAAiAAAiAAAiAAAjUgUBTBNamC/76WCveFfJyS71UnP+rUtx8KjON1aEPv24CAquuOOvaGARWXXF2cmMQWAHMflMEFhNbZukgkWh9D4ukNcndxZXFf/RcZ0WzlX3o/752LoB0EBIIgAAIgAAIgAAIgAAIgEAdCDRFYE2c+uYup8dWEuruDXH+I76+YjqTiLfUoQ8QWHWF2KDGILAaBLbzmoXACmDOmyaw7JLA8rzbSfSciN69fOChj64k71qO06i7b+dUPoB0EBIIgAAIgAAIgAAIgAAIgEAdCDRFYO3YcWm4eOw4p3JWLGp7v+0LLItfy8JPFaYQk/T4Smu9F2ZgrZdg4+pDYDWObYe1DIEVwIQ3UmCZva5KW7Z7wmqmJLDc68hzHxCi/bmZ3d9VywfyexMFTbuucgJIByGBAAiAAAiAAAiAAAiAAAjUgcD6pVFVQQiPnP3HcVPFCtt/y0RnMlM3EU/WZT8sCKyqstHUwhBYTcXdzjeDwApgdhsosFjZa3/fKIjrXG96r53VjyR2/+DmSCHi7b/xSjPrSgJIBSGBAAiAAAiAAAiAAAiAAAjUkcCGCSw7bP8fEf4NVtTDRNuIxHxKMV2rPSYIrDoOjTo3BYFVZ6Cd2xwEVgBz31iBJebHgjAZgfUD03sprHwsseeHt0BgBXAsICQQAAEQAAEQAAEQAAEQaBCB2mVRrQGJ+PccfMY5m1nrnlD/sSdT18C7mLibmPqYqPZ9sSCwas1K4+tBYDWecYfcAQIrgImuu8AyG7aX9rvSnvsIMRVIKBOm5cvNa6sFvv+ef3zVfHnlOWZfBXBIICQQAAEQAAEQAAEQAAEQqDeB5guscg96e7cMhsMctbef+QzuGXw/MZulhAPMtLXmTkJg1Yyu4RUhsBqOuFNuAIEVwEw3UGCJdh8SkQILZSLW6ptM763C6iM3ffJ3lgJIAiGBAAiAAAiAAAiAAAiAAAg0iMCGCazBwe294TBFeNuznyqxgT8h5jizNcHKPqXc19J56dVcEFjV0GpuWQis5vJu47tBYAUwufUXWKJs2zM91dq9kbSskMhyiIp/bl5zrejMnVectxJAEggJBEAABEAABEAABEAABECgQQQ2TGCt9ae/f7I/HHaeKqJta9sLzlb9E+8sfY0Hqu4zBFbVyJpWAQKraajb/UYQWAHMcJ0Fljlx0FLWgv+TQBffoFRhn4S0u+vvXn1PAHuPkEAABEAABEAABEAABEAABJpAAAKrCZBxC39rfs1C2rCIDW3OmEdl2d3MHAEfEKiGAARWNbSaVBYCq0mgcRsQAAEQAAEQAAEQAAEQ6FwCGy6wyqcOKpOCsRe/8ViS6OnmuWXbnzKPrLhLhMIVpQgzsCrCtCGFILA2BHs73hQCK4BZXYfAYlbGZhOJkPacVa29PAmlQmH7701PC6HVb94TedUC0V8STU35EhwXCIAACIAACIAACIAACIBA5xEIgsA6SH3ipW89xvXkVPOCbYf+1RdYxHEhCKyWH5oQWC2fwqB0AAIrKJk4JI56CCwS0q67oj0nz0RJK2T/H3OHkG1/Z9eHzvVnbeICARAAARAAARAAARAAARDoXAKBEliD51/eGxV3k58OCft/fSeS04h4S0UpwgysijBtSCEIrA3B3o43hcAKYFbXIbDMnylImUm4osXzdov2HiDmtGXLJ0xPV7eq+/e+7YJCAHuNkEAABEAABEAABEAABEAABJpIIFACq9xvP6bx897+p+ZREb2OiJ5VERMIrIowbUghCKwNwd6ON4XACmBW1yWwDvbHE6JvadE/VUILu688/7P+V5glgD1GSCAAAiAAAiAAAiAAAiAAAk0mEESB5SOYOO/tf2Iehfh3meTZh+yVdeSYIbCaPHyquB0EVhWwUPTJCEBgBXB8rE9gmX2tzD9XSL6lhX+ixMvs/viFXwhgTxESCIAACIAACIAACIAACIDABhEIrMAaP//yHYYJa/WHLPI8YbZY6GRiih2RFQTWBg2jCm4LgVUBJBSphAAEViWUmlymFoHFFrH5CSTysIi3l4QcIb5WlP4JaVW868qX7W1yL3A7EAABEAABEAABEAABEACBABMIrMBaYzZ+7tv+mJmeLyIhpfilRNwHgRXgEXWk0CCwWjBpwQwZAiuAealBYLEVKnVE69s9z/0ZCRWVkmt/eeUFPw5gDxESCIAACIAACIAACIAACIDABhMIvMCaOPfy39ZMz2LhMCm+mIX6iSjyhDOxMANrg4fTk9weAiu4uWmxyCCwApiwagSWP+3KbG1lLZv9rUR7N2vt7SQtDiv54e4rL7w1gD1ESCAAAiAAAiAAAiAAAiAAAhtMIPACa/Ls10dXqMu2PCumovReYd5EzCcxkdkX6/ALAmuDhxMEVnAT0D6RQWAFMJeVCixmYmX7HRC3+CMiLmrtfmvl4Vu/tLKYcJNZt0C7rnIC2EOEBAIgAAIgAAIgAAIgAAIgsMEEILA2OAEdc3vMwOqYVDe6oxBYjSZcQ/sQWDVAQxUQAAEQAAEQAAEQAAEQAIFqCAReYBEJ09RfMu3cqUZT6lglHKHR4y7icOz3ichioqcQUdjvNGZgVZP75paFwGou7za+GwRWAJN7FIHlz7oySwdFVsRzbzE9cJcSl+epmPVyxaVHTkhk/F5NTZnTCHGBAAiAAAiAAAiAAAiAAAiAwOMItIDAOhgzj42NjXhe2LZ3nPcqjnb9oRBZivl4f08sCKxgD28IrGDnp4Wig8AKYLIqFFhClCXXucH0YCn58BtX99+RTY6MFumaqWIAe4WQQAAEQAAEQAAEQAAEQAAEAkSgpQTWli1bBhwnYquTzj6Pwl2/Tcw2M59GRF0kpIjEP9ZKRUsHFapIL6lI+dBCETNFK0DoOywUCKwOS3jjuguB1Ti2Nbd8RIGlS39cUJa/rxWzLIrn/rd5vprc967c4u3L09EFl665BgKrZvioCAIgAAIgAAIgAAIgAAKdQaCVBNbBjIyMjHSLRHu5dyJuH/ecjxOrzUQcYaaT1sQVBFbABjAEVsAS0rrhQGAFMHdPILA8TbbjmdmxLFo7D5KIkVgPR9Xqu00PnvJc9+5rLrvMC2BvEBIIgAAIgAAIgAAIgAAIgEAACUBgBTApbRkSBFZbpnUjOgWBtRHUj3JPCKwAJgUhgQAIgAAIgAAIgAAIgEB7EWhJgWU2b9++fbu9aI2Fra6eC0VTrxXrHuXeifea9KhoX7f/iCWEwRmtEFjByUWLRwKBFcAEPvESQikUHM1EWtn8QSWSVkxL+e7l600P9kxdumJmZwWwNwgJBEAABEAABEAABEAABEAggARaVWCtobSHhzc9k5liodHtm2nLsz5VEld9AxBYARttEFgBS0jrhgOBFcDcPZHAclwvXyiaZYM6EvZea5GeDXlW/sYrL94bwB4gJBAAARAAARAAARAAARAAgYATaHWBZY2MbNlmWW5Yhk4YU5uf+f8Z3la090yzXXBpBlZ/OQXaHOEe8HS0cXgQWG2c3OZ2DQKrubwruptQkUg8Twul55d10XHJc710oVDcJ0Zg2fRuoUKqq2A7N/zjxdMVtYlCIAACIAACIAACIAACIAACIHAIgVYXWL6vModbbX3ha3sK0b7zzQuhruF/M6+bEwhV1AgsNp+tiEQj+RtFAAJro8i33X0hsIKXUhHxtBb/Si+sOI7jigj9vFgofMm8HA6vfG3bg7R8zdMuFZpivBEHL4WICARAAARAAARAAARAAAQCT6AdBJYPeeTSt3bzvLzEPA/Hh/8TAitgYw8CK2AJad1wILCClzvRYvyV1lrTvBFYrvFZ+oZi0f0caRKy1LfuvOK8leBFjohAAARAAARAAARAAARAAARahUDbCKzt518eyXrO8Qa8HR74BBNZHBvcZEX6t5gpWEwSEiLbT8zBpYRYUti0gQqB1TTU7X4jCKzgZJiVmQBrJrdKXmvPE6Li/Hz29kLBWdIiv3CIvklFh5zeY+/aM/W0YnAiRyQgAAIgAAIgAAIgAAIgAAKtRqBtBNah4Ded97a3k7AK9UycoSL9ZwqJxcrqJlZRIvn1UkJfZEFiNWXQQmA1BXMn3AQCKzhZVnbYD0ZrN0ta57XQcmp+6TNLS6uPEOsH77ziwpuCEy0iAQEQAAEQAAEQAAEQAAEQaGUCEFgQWM0ZvxBYzeHcAXeBwApOkiGwgpMLRAICIAACIAACIAACIAAC7U6gLQXWWtJOfde3hpUtY55XtBYT8y90is5TFashZnWBX8aflcXlNTBeqRo2em/MmIfAagzXDmwVAqt5SWdlEyt12A1Fa3PEYMG86JF81jyuruZ/OJ+c3Wu75DG7+2688rJc86LEnUAABEAABEAABEAABEAABDqBAAQWBFZzxjkEVnM4d8BdILCal2QIrOaxxp1AAARAAARAAARAAARAAASenEB7C6zP3BrquePBiNOd5bl53beaX4mHKBaPRaKnGCz5QvEs0XpAFFlK6EzzGrOKC7Nd2uh9bX8ss28W9spa1zcTBNa68KHyrwlAYDV2NDAzsWUmpjKJ6FXS4hBzRkjuIGLPdZ39hdzqbSaKSKT3Z+bRWc3M5/bP5ua7+uTO7pfmaIp1Y6NE6yAAAiAAAiAAAiAAAiAAAp1GoK0F1hMl84x3Xh1zLPs487Xk9NyrtNajzBRSbF/il1dWPzGHDtvs3d/4HQJrXd8cEFjrwofKEFjNGgMlgRXyb6e1lyXt5YkkLUQ/FiHHdYp7Z6enf2i+fusVl+xuVly4DwiAAAiAAAiAAAiAAAiAQGcT6DiBdfbU9dFsNj1p0p6emTvfExpiYVtZ9ivMa6LUGBFHWMQi0qUjtoSYWEqsILJq+46BwKqNG2o9jgBmYNVpUPBj3v6l9Obmv9nZtr+Hlfa8eRG9zELzmugGIXK0V3xo+tFHbzBf3/XRV99Tp2jQDAiAAAiAAAiAAAiAAAiAAAg8KYGOE1hEwqe++SrbUMmsFGJuyFPxlR7FY/Gnm9eWF5bO06LHWXicFJ/GRBF/RharaElglVfGHLbEEKPsqAQgsI6KCAUqIwCBVRmnJyvFynr85uyumxf/DU5WNfG3zbtdIZf/WW5l+X5FarVvuPsBccJeKLzoPnjHff4m7ruueouz/mjQAgiAAAiAAAiAAAiAAAiAAAgcnUAHCqzHQ5maEnXd8td3mK+kZhIv9zxvQrHazEq9gMQXWGFSVqwksNZOKzx0j6yjg+74EhBYHT8E6gUAAmv9JEsCq3QA69olbjFHQlqIlj2m/2QRyeVyO9OJuXvZltVbHvAepmsuK78Brj8GtAACIAACIAACIAACIAACIAAC1RCAwCpZKX76u78+Yp4tHkieoLXXE7J42LJDT9PEIRE95mk53nydiZ5WBhxhs9m7fx06K6sa/B1UFgKrg5Ld2K5CYNXI1+xtxapUmalIQo7ZlF2I/GWAXjF/m4jkRSivwqH/MQJrebWwL5GcSYsddn75dxcuEjM2A6wRP6qBAAiAAAiAAAiAAAiAAAisjwAE1hH4veA91/bkit4WZZOVmV84Mb+aP9sUtZT9Gr+KUr3EKuI/x6yso49CCKyjM0KJighAYFWE6XGFWCliZZcOF/T0imjX7HNV0CLfMIUXEvNfWsktZcmxnFs/cfF9hxzDWtsNUQsEQAAEQAAEQAAEQAAEQAAE6kgAAusIMJ/+7v+O215+kwqRtZSYPy6XX32eL7Cs8mmFrIaFOO67LNJRIVEkZlfk8mbv5uRCXL8mAIGF0VAnAhBYTwaS/Wmih11S2riPleWwUo4Qi3jeIom3pIWKRHKd+Xo6vfCN3OryCjuWc8uVFz1Yp3ShGRAAARAAARAAARAAARAAARCoCwEIrCNhFOGz/3KnlZ2+j+fiK3Z4f9w/kbBrrOtZ5nFlYfUFWstxQtpiZb2IiWLE3EWsyntllZcVmsJrG7/XJWUt2ggEVosmLnhhQ2AdOSfKDj3ui9pzF/1poiIPaeK7iNl1CvnbVpYW9pDY7sjEwC/9SjMP5h6cXpCeiRNk59Q5bvAyj4hAAARAAARAAARAAARAAAQ6mQAEVpXZP+3dXzvZVFmYSZ1T9JwTFLERWBcYt0VKxYlVl9+kL63Ks7AgsMysEM1S2iwsNrQ5Yx6VZXczc2kZJi4QqJAABNbRBNbhb+vadeZL65zlfi38CxGzXfvqzclk4g7tknfbxy+5u0L0KAYCIAACIAACIAACIAACIAACG0YAAqtK9Kf+2dePM1XS03OniXjHCLFlsfUiYo4J8TARDREzk+geFrHFqBum0nFf0sHLCiGwqhxpKH4kAhBYZTJmxfJjLlaWP3OKiV0hWTLPtfYeFO05zOpBEb1HM7vFfP6u5Nzc3pBF3s///lX7MNpAAARAAARAAARAAARAAARAIOgEILDWmaGpqSl13eqO40nboflk+jlOofhsM8lIKetsJu4VJpuVPVASWOUT6H2R1WEyCwJrnSMN1dcIQGCVFJWyzIbsj51tVUyXj0VNaZEf+rI9kfpyLreckbCkd/3NJbM4SRDfSyAAAiAAAiAAAiAAAiAAAq1IAAJrnVmDwKoQIARWhaBQ7GgEILAgsI42RvB1EAABEAABEAABEAABEACB9iMAgdWAnJ49db29uJJ+ii0q4qzm++fnF15jbmMp238UpbqYlX+C4a/3ypL2XmIIgdWAkdaZTXaywGLLJmZlEq+15yyRiEPM+7XWN5gXFxLz/7aSW8qxF17FSYKd+f2BXoMACIAACIAACIAACIBAuxKAwGpAZiGwngAqBFYDRlpnNgmBBYHVmSMfvQYBEAABEAABEAABEACBziYAgdWI/E9NqVPyx/eFHbZcbUdSc8kTzG1i4ehZ5tFz9aQQbfNvLXqSiQaE2WxoEy2F4x/WV7raZeN3CKxGjLSObLO9BRYTK2W2uDrsEu0tl15QD7Oy5jXpolcs7ibXWyRLpexQ6C7z1fnkgbuz2YxLtu3s+tBl/mmfuEAABEAABEAABEAABEAABECgHQhAYDUxi6e9+2snm9stzs0/q+AUnmueW0qdTqQmiTlMyuorSSsjsMqbvPvP2+CCwGqDJAajC20tsNhszh56HGjtFpP+WwPRTSKyT0Ryy9mF72cWlmbEspd2fegVjwQjO4gCBEAABEAABEAABEAABEAABBpDAAKrMVyfsNXT3/WNHeYLyVTyGU6xcJp5rth+LhMdS8wRYWvQvMYkikhKuRHdHjmCwGriSGvvW3WAwCrZazHzL0sGW3vFmdJ7g7pZa/2wsOSyi8s/WllcmNVC2Vs+9spH2zvr6B0IgAAIgAAIgAAIgAAIgECnE2gPOdIiWTz98u/0mlBTy7N9hXx+wDyPRWLbyZIR7eoR13HPKH1I5VOIpTQbS9l+nYOzsvyPtuXZWS3Sbz9MCKxWylagY21HgVVaNujvbeWRlpXSMmKVEJL7zIv51ZVv+m8Hyt6rLCsp2vLc/FJifma5oOx+58Yrn58LdNIQHAiAAAiAAAiAAAiAAAiAAAiskwAE1joBrrf66e/56hZPc392IbNldWX1wtKHVOtFTDzit23ZpcdWX1YIgbXeoYL6ZQLtKbAsYmWRiLjiuQtlSf2wFvm56fb+h/d9xjy63bz/F1OvWsRgAAEQAAEQAAEQAAEQAAEQAIFOIwCBtcEZP/Vd3xr2PLc7t5QdXs1l/X2xlLLPYGZ/OSER+/tmkciIkISYmInEeuwmz4Hf7B0Ca4NHWvvcvlUFFpdmWB28hElIa21kFSs7Q6yWRXReu+4DIlqI+QCx+oWp8PAD+75jHotFJ7XnU5eVN3Rvn5yiJyAAAiAAAiAAAiAAAiAAAiBwNAIQWEcjtAFff847v7pNLO4yt57bP/MW82gp6yIiHiDFIWIr5i/KO/TSzgZEWsUtIbCqgIWiT0agVQWWssOHd8voK6+YZ7PXFdPNWuQuT/T83IGZr2nP8SwVXbzpwxfsx2gAARAAARAAARAAARAAARAAARB43GHtQBIEAhBYQcgCYggqAQisoGYGcYEACIAACIAACIAACIAACIBA4whgBlbj2Nbc8qlv/kxoNHKMv97o9uW9/ibu/Xb/DkvZsUIxv8UpFJ8nxGEm2spMp5QOJ7P8TeFLSwnLm7yXDjALxoUZWMHIQxtE0UoCy+xr5W/Qbr4rXW/ePGqWHwhzQTydXc0u/bcnrmNT9NG+ntE5V83r/L1pf4lgbijm7Zw6x22DlKELIAACIAACIAACIAACIAACILBuAhBY60bYnAae/c6rtyvLji6ns5O5wspZWktUKXUckzpNiJgte7gUidlSBwKrOVnBXTaCQGsJLPugwNJuMemLLKJrRSRPQouzs/u/7hbdokh+dtdHX5vaCJ64JwiAAAiAAAiAAAiAAAiAAAi0AgEIrFbIEhE9739/fdJxvOjS0sqW4sryGZokrMh6CrN6lpmBJcraarrCos1GO1apW3L4rtH+S2W51ex+YwZWs4m37f0CJ7DMuQqHXqXvMf8/rJRj/on5znSLj5SK8bdFS0GTLCWTs/9VXM05Ya0TN155mT9DCxcIgAAIgAAIgAAIgAAIgAAIgMDjCUBgtfCoOOOdVw86lj3huq6dnk3+gemKsuwzWGi73y3LNssPD8mxEGnv10sMm9l3CKxm0m7rewVJYJmTBdmyD/dX2nPJ8wrCrEnkNk3yS/NNt//hfVeZgt3dA/dgaWBbD1F0DgRAAARAAARAAARAAARAoAEEILAaALVZTUJgNYs07hMkAhBYQcoGYgEBEAABEAABEAABEAABEACB5hCAwGoO54bc5dJLr7aWx7vt3NAcP7R30d/EPRYfnLSI/f2wsksrv8lMISK1g5mONQuaSKnug0sM1zZ5b8Zm75iB1ZAx0ImNBkFgKSvkoxfRLonOmuea6GcinNGe88BqdnWXIq0tK7w/Fg3PWuGYLN/z8IIp991Pnl80i307MXfoMwiAAAiAAAiAAAiAAAiAAAjUSgACq1ZyAa13+nu+usXT3G/CSx6YfYMWCStWz2ZWxwuRpSyrV4hLa57ELCc0j004rRACK6AjpvXCCoTAss1Wc77AcsRzF8sC6/skMu847t2p6Zmfaos97fLcro++HJuzt94wQ8QgAAIgAAIgAAIgAAIgAAIBIwCBFbCErDccs6zQ5XDctDM3M32WmW2llLVDmU3eRSKaeBuRxIgoxCRb/A/hZGZpPebyN6Ku4yQRCKz1phb1ywSaIbDY35j98LdHMd8Q4m8iR6zsfaRYi9ZZz3HuN68p5htJcaaQL0zPJRP32uJom+zMDR++2J+hhQsEQAAEQAAEQAAEQAAEQAAEQKB2AhBYtbMLZk0Rpr8sffKe3Pc5f5pId09ss0VqyCkWe5azS+eSpgFW3MukLvA7Udrs/fBL3PqeWAiBFczx0oJRNUVgWTaZDdoPu0R72nUK5jVh9WUhcV1PT2cSye+a17pCtHfTsZHVlYdH9TW0w/XrfpCEGMsFW3CYIWQQAAEQAAEQAAEQAAEQAIGAEYDAClhCGhHOqe/46iYVCQ3ml5d7MwuZl5LWg8Tcp9h+uX8/Zfn7Z5UnnJTGBARWI1KBNutAYAMElj8fkbT2yHNXzVOP5d+FyPE878Dc9My3zWt2Mf/gjVdelqtDF9EECIAACIAACIAACIAACIAACIDAYwhAYHXAkHjBe67tER2NLa3OR7KL89vNEkIhFQ+HQs833S+68gLfXzEPMdF4GUmktNm7WTi1tpRwHUsKMQOrA0Zac7rYSIHFylrrRLFkcdn82y8kKySS0cXCXb7ftawfkijPE29pfn/6PvNaYWnfwq6r3uI0hwLuAgIgAAIgAAIgAAIgAAIgAAKdRQACq7PyfbC32y//TqQ/kj/evDC3f+Yt5lEpdRKTeoZfSFl9xBwuCazyJu/r2RcLAqtDR1r9u91IgaXWNmfXXla0lxeSPAn/XEjmtNbT048+8i3To4u6X7VnaoqbcPpB/fmhRRAAARAAARAAARAAARAAARBoRQIQWK2YtTrEbARWbyy/zTSVenT2Db6zIj6RlDrFb54ts8wwSiSKRJdPLRSueWN3CKw6ZA1NGAINEVhcOrFAWeGiedSet0jirQpRXohuFqKE53iz0zOP+PtdvaLrznunpqYgsDAkQQAEQAAEQAAEQAAEQAAEQKBJBCCwmgS6FW7zrD+/esRy7DETa3o28TLX9Y5lpSYVqd8wr4lScWZVlln+YWy/np11tA5CYB2NEL5eIYH1CCyzRPCQZYLlIey55Hn+5uweyWfNY245tzOdnrtXRLsO9zx65xXnrVQYHoqBAAiAAAiAAAiAAAiAAAiAAAg0gAAEVgOgtmqTEFitmrnOihsCq7Pyjd6CAAiAAAiAAAiAAAiAAAiAgCEAgYVxcJDAqW++NeT0psPmhdT+A4PK1hE7pIYiVtjfK6uQX32hiB4tDRx1jl9RqV5/9eFh+2MduvF7uXnMwMJIqxOBqgUWM6nyxEEiyWut80SUJ+IbTUiu6z3i5pd3mefx7kH/teVMOnNgPrca6i7Krh25Al12WXnKYZ06gWZAAARAAARAAARAAARAAARAAASqIgCBVRWuzit86nuv7mPPPsaXWjNzF3me3myeW8p+jU/Dsgd/fVrh2pZAEFidN1Ka1+NqBRYzE1tm5SuTaG+MxulzAAAEzklEQVRVtLciTCui5ToTddEr3J/YP/Mj8/zWKy7Z3bye4E4gAAIgAAIgAAIgAAIgAAIgAAKVEoDAqpRUh5Y7/fLv9DqxvC+t5mfmztWu3lQWWL9pHjVbm5jZKm/2HiIpz+pjs+G72SPL3xvbuAPNQr7hig1tzphHZdndzBzpULTodo0EjiiwlDr8/UxKg4+JhW3bbM4uWntZEp0RkVUt5G/I7rnOA9MzB24wz2/78CV31xgWqoEACIAACIAACIAACIAACIAACDSQAARWA+G2T9NlGXXpNYqSe/wx84xnn+yfVrgwk/wtEelh5s3M6jQiCZOyYswqXhJYayuvRLMIBFb7DIoN68kTCizbsiwrdNj7mXadeSGtidgI058ISb6Yd25bSM3ucoWL8VjPvaYTI3cl5ZprLi1PH+Sycd2w7uHGIAACIAACIAACIAACIAACIAACT0AAAgvDoiYCp737ayebiokDM68ToW7FvIWU9RwWCotSXRBYNWFFpQoIVCywvGKahLSILAnRTnO4YDFfvC0xN32L0lS8+WOX3FfB7VAEBEAABEAABEAABEAABEAABEAgAAQgsAKQhFYM4YX/+7oBE/fDDz28XSnLVjYNW1bkeGaxPdd7iufJCWY2Fit6Rql/KkJMZiMi6hoYX/BfsUPdSllYQtiKA2ADY1ZEGSZyunuikdHhfn+mn5A4zGSWCZIQ3WIeC4X8Tva8Aim1arPazSGrUCg46aVkMpmTVb3rQ5f5S1lxgQAIgAAIgAAIgAAIgAAIgAAIBJ8ABFbwc9QSEZ4+9Z1eZzW/WWmyFhPpZxaKxdPNdleWsl9R8leqm1jFSgJrNO2/FIpAYLVEdoMVpCLJsIjT09sVGR3t7/GlldmYXXur5rkW+Yp5TM8mvpArrK66rAv98aGHdk6d4warJ4gGBEAABEAABEAABEAABEAABECgUgIQWJWSQrknJbDjrVd3xyPWqEe2WpxPnugWC6cQU1Rx6LySwOIREe4zT7uHNuXMI9uhLsUqDLQgUA0BRXqZiZ3unpg9Njbgjx/Pc9OkXX9mHxFfa/47N5O8Lp/L5znMxZ5YzzQEVjWUURYEQAAEQAAEQAAEQAAEQAAEgkUAAitY+WjdaKam1Nl0lspO38czRKFwMRy2WUKRWMTfKyuXXT3d9dwTzfO+0cmt5lGYmc0hcbhAoCoCrIk0xbtjK+Njff5sPscp3ra8tLDbPB/oHbvdPN6XuX81Nr0gPRMnyM6pc8xpAtigvSrOKAwCIAACIAACIAACIAACIAACwSEAeRCcXLRdJGdPXW8vLy+cZDo2n0q90Mk7TzPP+zcdt73tOosONZ1AV1cku2m8b84XpIXczenZOV9c3XrFJb7IwgUCIAACIAACIAACIAACIAACINA+BCCw2ieXgevJpVdfbd17M/mzrbKzi6d4rjdpnveOTx4TuGARUMsRiMcjq+Ob+kszsPLFu/fPPrLXPL/zissearnOIGAQAAEQAAEQAAEQAAEQAAEQAIEnJQCBhQHSdAIjZ7+1u+k3xQ3bjkCcVt19Oz+Xb7uOoUMgAAIgAAIgAAIgAAIgAAIgAAKPIwCBhUHRdAIQWE1H3pY3hMBqy7SiUyAAAiAAAiAAAiAAAiAAAiDwhAT+f1Ra+i2xx7SZAAAAAElFTkSuQmCC;" vertex="1" parent="1">
          <mxGeometry x="400" y="293.82000000000005" width="80" height="34.73" as="geometry" />
        </mxCell>
        <mxCell id="3YkeIVCK8skrJ31NGnf8-25" value="&lt;span style=&quot;font-family: quote-cjk-patch, Inter, system-ui, -apple-system, BlinkMacSystemFont, &amp;quot;Segoe UI&amp;quot;, Roboto, &amp;quot;Noto Sans&amp;quot;, Ubuntu, Cantarell, &amp;quot;Helvetica Neue&amp;quot;, Oxygen, &amp;quot;Open Sans&amp;quot;, sans-serif; text-align: left;&quot;&gt;&lt;font style=&quot;color: rgb(0, 0, 0); font-size: 10px;&quot;&gt;&lt;b&gt;PostgreSQL Database&lt;/b&gt;&lt;/font&gt;&lt;/span&gt;" style="text;strokeColor=none;align=center;fillColor=none;html=1;verticalAlign=middle;whiteSpace=wrap;rounded=0;" vertex="1" parent="1">
          <mxGeometry x="410" y="336.18000000000006" width="60" height="30" as="geometry" />
        </mxCell>
        <mxCell id="3YkeIVCK8skrJ31NGnf8-27" value="&lt;span style=&quot;font-family: quote-cjk-patch, Inter, system-ui, -apple-system, BlinkMacSystemFont, &amp;quot;Segoe UI&amp;quot;, Roboto, &amp;quot;Noto Sans&amp;quot;, Ubuntu, Cantarell, &amp;quot;Helvetica Neue&amp;quot;, Oxygen, &amp;quot;Open Sans&amp;quot;, sans-serif; text-align: left;&quot;&gt;&lt;font style=&quot;color: rgb(0, 0, 0); font-size: 10px;&quot;&gt;Stores/Loads Data (Secure Connection)&lt;/font&gt;&lt;/span&gt;" style="text;strokeColor=none;align=center;fillColor=none;html=1;verticalAlign=middle;whiteSpace=wrap;rounded=0;" vertex="1" parent="1">
          <mxGeometry x="405" y="220" width="60" height="30" as="geometry" />
        </mxCell>
        <mxCell id="3YkeIVCK8skrJ31NGnf8-29" value="" style="image;aspect=fixed;perimeter=ellipsePerimeter;html=1;align=center;shadow=0;dashed=0;spacingTop=3;image=img/lib/active_directory/internet_globe.svg;" vertex="1" parent="1">
          <mxGeometry x="520" y="287.36000000000024" width="50" height="50" as="geometry" />
        </mxCell>
        <mxCell id="3YkeIVCK8skrJ31NGnf8-33" value="&lt;span style=&quot;font-family: quote-cjk-patch, Inter, system-ui, -apple-system, BlinkMacSystemFont, &amp;quot;Segoe UI&amp;quot;, Roboto, &amp;quot;Noto Sans&amp;quot;, Ubuntu, Cantarell, &amp;quot;Helvetica Neue&amp;quot;, Oxygen, &amp;quot;Open Sans&amp;quot;, sans-serif; font-style: normal; font-variant-ligatures: normal; font-variant-caps: normal; letter-spacing: normal; orphans: 2; text-align: left; text-indent: 0px; text-transform: none; widows: 2; word-spacing: 0px; -webkit-text-stroke-width: 0px; white-space: normal; text-decoration-thickness: initial; text-decoration-style: initial; text-decoration-color: initial; float: none; display: inline !important;&quot;&gt;&lt;font style=&quot;font-size: 10px; color: rgb(0, 0, 0);&quot;&gt;&lt;b style=&quot;&quot;&gt;Custom Domain&lt;/b&gt;&lt;/font&gt;&lt;/span&gt;" style="text;whiteSpace=wrap;html=1;" vertex="1" parent="1">
          <mxGeometry x="505" y="336.77" width="80" height="28.82" as="geometry" />
        </mxCell>
        <mxCell id="3YkeIVCK8skrJ31NGnf8-34" value="&lt;span style=&quot;font-family: quote-cjk-patch, Inter, system-ui, -apple-system, BlinkMacSystemFont, &amp;quot;Segoe UI&amp;quot;, Roboto, &amp;quot;Noto Sans&amp;quot;, Ubuntu, Cantarell, &amp;quot;Helvetica Neue&amp;quot;, Oxygen, &amp;quot;Open Sans&amp;quot;, sans-serif; font-style: normal; font-variant-ligatures: normal; font-variant-caps: normal; letter-spacing: normal; orphans: 2; text-align: left; text-indent: 0px; text-transform: none; widows: 2; word-spacing: 0px; -webkit-text-stroke-width: 0px; white-space: normal; text-decoration-thickness: initial; text-decoration-style: initial; text-decoration-color: initial;&quot;&gt;&lt;font style=&quot;font-size: 10px; color: rgb(0, 0, 0);&quot;&gt;HTTPS Requests (Port 443)&lt;/font&gt;&lt;/span&gt;" style="text;whiteSpace=wrap;html=1;" vertex="1" parent="1">
          <mxGeometry x="562" y="225" width="50" height="55" as="geometry" />
        </mxCell>
        <mxCell id="3YkeIVCK8skrJ31NGnf8-35" value="&lt;span style=&quot;font-style: normal; font-variant-ligatures: normal; font-variant-caps: normal; letter-spacing: normal; orphans: 2; text-indent: 0px; text-transform: none; widows: 2; word-spacing: 0px; -webkit-text-stroke-width: 0px; white-space: normal; text-decoration-thickness: initial; text-decoration-style: initial; text-decoration-color: initial;&quot;&gt;&lt;font style=&quot;font-size: 10px; color: rgb(0, 0, 0);&quot; face=&quot;Helvetica&quot;&gt;Serves Secure Web Dashboard&lt;/font&gt;&lt;/span&gt;" style="text;whiteSpace=wrap;html=1;align=right;" vertex="1" parent="1">
          <mxGeometry x="490" y="215" width="55" height="60" as="geometry" />
        </mxCell>
        <mxCell id="3YkeIVCK8skrJ31NGnf8-36" value="&lt;span style=&quot;font-style: normal; font-variant-ligatures: normal; font-variant-caps: normal; font-weight: 500; letter-spacing: normal; orphans: 2; text-align: left; text-indent: 0px; text-transform: none; widows: 2; word-spacing: 0px; -webkit-text-stroke-width: 0px; white-space: normal; text-decoration-thickness: initial; text-decoration-style: initial; text-decoration-color: initial; float: none; display: inline !important;&quot;&gt;&lt;font style=&quot;font-size: 10px; color: rgb(0, 0, 0);&quot; face=&quot;Helvetica&quot;&gt;Only accepts connections from EC2 Security Group&lt;/font&gt;&lt;/span&gt;" style="text;whiteSpace=wrap;html=1;" vertex="1" parent="1">
          <mxGeometry x="335" y="287.36" width="65" height="78.82" as="geometry" />
        </mxCell>
        <mxCell id="3YkeIVCK8skrJ31NGnf8-38" value="Client Layer" style="text;strokeColor=none;align=center;fillColor=none;html=1;verticalAlign=middle;whiteSpace=wrap;rounded=0;fontStyle=1" vertex="1" parent="1">
          <mxGeometry x="720" y="257.36" width="80" height="30" as="geometry" />
        </mxCell>
        <mxCell id="3YkeIVCK8skrJ31NGnf8-45" style="edgeStyle=none;rounded=0;orthogonalLoop=1;jettySize=auto;html=1;exitX=0.009;exitY=0.507;exitDx=0;exitDy=0;exitPerimeter=0;entryX=1;entryY=0.5;entryDx=0;entryDy=0;" edge="1" parent="1" source="3YkeIVCK8skrJ31NGnf8-39" target="3YkeIVCK8skrJ31NGnf8-29">
          <mxGeometry relative="1" as="geometry" />
        </mxCell>
        <mxCell id="3YkeIVCK8skrJ31NGnf8-39" value="" style="points=[[0.35,0,0],[0.98,0.51,0],[1,0.71,0],[0.67,1,0],[0,0.795,0],[0,0.65,0]];verticalLabelPosition=bottom;sketch=0;html=1;verticalAlign=top;aspect=fixed;align=center;pointerEvents=1;shape=mxgraph.cisco19.user;fillColor=#005073;strokeColor=none;" vertex="1" parent="1">
          <mxGeometry x="735" y="287.36" width="50" height="50" as="geometry" />
        </mxCell>
        <mxCell id="3YkeIVCK8skrJ31NGnf8-42" style="edgeStyle=none;rounded=0;orthogonalLoop=1;jettySize=auto;html=1;exitX=0.75;exitY=0;exitDx=0;exitDy=0;entryX=0.99;entryY=0.99;entryDx=0;entryDy=0;entryPerimeter=0;" edge="1" parent="1" source="3YkeIVCK8skrJ31NGnf8-29" target="3YkeIVCK8skrJ31NGnf8-19">
          <mxGeometry relative="1" as="geometry" />
        </mxCell>
        <mxCell id="3YkeIVCK8skrJ31NGnf8-43" value="&lt;span style=&quot;font-family: quote-cjk-patch, Inter, system-ui, -apple-system, BlinkMacSystemFont, &amp;quot;Segoe UI&amp;quot;, Roboto, &amp;quot;Noto Sans&amp;quot;, Ubuntu, Cantarell, &amp;quot;Helvetica Neue&amp;quot;, Oxygen, &amp;quot;Open Sans&amp;quot;, sans-serif; font-style: normal; font-variant-ligatures: normal; font-variant-caps: normal; letter-spacing: normal; orphans: 2; text-indent: 0px; text-transform: none; widows: 2; word-spacing: 0px; -webkit-text-stroke-width: 0px; white-space: normal; text-decoration-thickness: initial; text-decoration-style: initial; text-decoration-color: initial; float: none; display: inline !important;&quot;&gt;&lt;font style=&quot;font-size: 10px; color: rgb(0, 0, 0);&quot;&gt;&lt;b style=&quot;&quot;&gt;End User&lt;/b&gt;&lt;/font&gt;&lt;/span&gt;" style="text;whiteSpace=wrap;html=1;align=center;" vertex="1" parent="1">
          <mxGeometry x="720" y="336.77" width="80" height="28.82" as="geometry" />
        </mxCell>
        <mxCell id="3YkeIVCK8skrJ31NGnf8-46" style="edgeStyle=none;rounded=0;orthogonalLoop=1;jettySize=auto;html=1;exitX=1;exitY=0.5;exitDx=0;exitDy=0;entryX=0.1;entryY=0.496;entryDx=0;entryDy=0;entryPerimeter=0;" edge="1" parent="1" source="3YkeIVCK8skrJ31NGnf8-29" target="3YkeIVCK8skrJ31NGnf8-39">
          <mxGeometry relative="1" as="geometry" />
        </mxCell>
        <mxCell id="3YkeIVCK8skrJ31NGnf8-48" value="&lt;div style=&quot;&quot;&gt;&lt;span style=&quot;background-color: transparent; font-size: 10px;&quot;&gt;&lt;font face=&quot;quote-cjk-patch, Inter, system-ui, -apple-system, BlinkMacSystemFont, Segoe UI, Roboto, Noto Sans, Ubuntu, Cantarell, Helvetica Neue, Oxygen, Open Sans, sans-serif&quot;&gt;Accesses Dashboard via HTTPS&lt;/font&gt;&lt;/span&gt;&lt;/div&gt;" style="text;strokeColor=none;align=center;fillColor=none;html=1;verticalAlign=middle;whiteSpace=wrap;rounded=0;" vertex="1" parent="1">
          <mxGeometry x="585" y="306.77" width="140" height="30" as="geometry" />
        </mxCell>
      </root>
    </mxGraphModel>
  </diagram>
</mxfile>
